<svg width="41" height="41" viewBox="0 0 41 41" fill="none" xmlns="http://www.w3.org/2000/svg">
<g clip-path="url(#clip0_2083_23412)">
<mask id="path-1-inside-1_2083_23412" fill="white">
<path d="M27.5417 24.8555H25.875C24.9545 24.8555 24.2083 25.6017 24.2083 26.5221C24.2083 27.4426 24.9545 28.1888 25.875 28.1888H27.5417M27.5417 18.1888H25.875C24.9545 18.1888 24.2083 18.935 24.2083 19.8555C24.2083 20.7759 24.9545 21.5221 25.875 21.5221H27.5417M30.875 31.5221H19.2083C18.2879 31.5221 17.5417 30.7759 17.5417 29.8555C17.5417 28.935 18.2879 28.1888 19.2083 28.1888C20.1288 28.1888 20.875 27.4426 20.875 26.5221C20.875 25.6017 20.1288 24.8555 19.2083 24.8555C18.2879 24.8555 17.5417 24.1093 17.5417 23.1888C17.5417 22.2683 18.2879 21.5221 19.2083 21.5221C20.1288 21.5221 20.875 20.7759 20.875 19.8555C20.875 18.935 20.1288 18.1888 19.2083 18.1888C18.2879 18.1888 17.5417 17.4426 17.5417 16.5221C17.5417 15.6017 18.2879 14.8555 19.2083 14.8555H30.875M14.2083 11.5221H12.5417C11.6212 11.5221 10.875 10.7759 10.875 9.85547C10.875 8.93499 11.6212 8.1888 12.5417 8.1888H14.2083M14.2083 18.1888H12.5417C11.6212 18.1888 10.875 17.4426 10.875 16.5221C10.875 15.6017 11.6212 14.8555 12.5417 14.8555H14.2083M14.2083 24.8555H12.5417C11.6212 24.8555 10.875 24.1093 10.875 23.1888C10.875 22.2683 11.6212 21.5221 12.5417 21.5221H14.2083M14.2083 31.5221H12.5417C11.6212 31.5221 10.875 30.7759 10.875 29.8555C10.875 28.935 11.6212 28.1888 12.5417 28.1888H14.2083M7.54167 11.5221H5.875C4.95452 11.5221 4.20833 10.7759 4.20833 9.85547C4.20833 8.93499 4.95453 8.1888 5.875 8.1888H7.54167M7.54167 18.1888H5.875C4.95452 18.1888 4.20833 17.4426 4.20833 16.5221C4.20833 15.6017 4.95453 14.8555 5.875 14.8555H7.54167M7.54167 24.8555H5.875C4.95452 24.8555 4.20833 24.1093 4.20833 23.1888C4.20833 22.2683 4.95453 21.5221 5.875 21.5221H7.54167M7.54167 31.5221H5.875C4.95452 31.5221 4.20833 30.7759 4.20833 29.8555C4.20833 28.935 4.95453 28.1888 5.875 28.1888H7.54167M19.5417 11.5221C18.4371 11.5221 17.5417 10.6267 17.5417 9.52214V6.85547C17.5417 5.7509 16.6462 4.85547 15.5417 4.85547H2.875C1.77043 4.85547 0.875 5.7509 0.875 6.85547V32.8555C0.875 33.96 1.77043 34.8555 2.875 34.8555H32.2083C33.3129 34.8555 34.2083 33.96 34.2083 32.8555V13.5221C34.2083 12.4176 33.3129 11.5221 32.2083 11.5221H19.5417Z"/>
</mask>
<path d="M27.5417 24.8555H25.875C24.9545 24.8555 24.2083 25.6017 24.2083 26.5221C24.2083 27.4426 24.9545 28.1888 25.875 28.1888H27.5417M27.5417 18.1888H25.875C24.9545 18.1888 24.2083 18.935 24.2083 19.8555C24.2083 20.7759 24.9545 21.5221 25.875 21.5221H27.5417M30.875 31.5221H19.2083C18.2879 31.5221 17.5417 30.7759 17.5417 29.8555C17.5417 28.935 18.2879 28.1888 19.2083 28.1888C20.1288 28.1888 20.875 27.4426 20.875 26.5221C20.875 25.6017 20.1288 24.8555 19.2083 24.8555C18.2879 24.8555 17.5417 24.1093 17.5417 23.1888C17.5417 22.2683 18.2879 21.5221 19.2083 21.5221C20.1288 21.5221 20.875 20.7759 20.875 19.8555C20.875 18.935 20.1288 18.1888 19.2083 18.1888C18.2879 18.1888 17.5417 17.4426 17.5417 16.5221C17.5417 15.6017 18.2879 14.8555 19.2083 14.8555H30.875M14.2083 11.5221H12.5417C11.6212 11.5221 10.875 10.7759 10.875 9.85547C10.875 8.93499 11.6212 8.1888 12.5417 8.1888H14.2083M14.2083 18.1888H12.5417C11.6212 18.1888 10.875 17.4426 10.875 16.5221C10.875 15.6017 11.6212 14.8555 12.5417 14.8555H14.2083M14.2083 24.8555H12.5417C11.6212 24.8555 10.875 24.1093 10.875 23.1888C10.875 22.2683 11.6212 21.5221 12.5417 21.5221H14.2083M14.2083 31.5221H12.5417C11.6212 31.5221 10.875 30.7759 10.875 29.8555C10.875 28.935 11.6212 28.1888 12.5417 28.1888H14.2083M7.54167 11.5221H5.875C4.95452 11.5221 4.20833 10.7759 4.20833 9.85547C4.20833 8.93499 4.95453 8.1888 5.875 8.1888H7.54167M7.54167 18.1888H5.875C4.95452 18.1888 4.20833 17.4426 4.20833 16.5221C4.20833 15.6017 4.95453 14.8555 5.875 14.8555H7.54167M7.54167 24.8555H5.875C4.95452 24.8555 4.20833 24.1093 4.20833 23.1888C4.20833 22.2683 4.95453 21.5221 5.875 21.5221H7.54167M7.54167 31.5221H5.875C4.95452 31.5221 4.20833 30.7759 4.20833 29.8555C4.20833 28.935 4.95453 28.1888 5.875 28.1888H7.54167M19.5417 11.5221C18.4371 11.5221 17.5417 10.6267 17.5417 9.52214V6.85547C17.5417 5.7509 16.6462 4.85547 15.5417 4.85547H2.875C1.77043 4.85547 0.875 5.7509 0.875 6.85547V32.8555C0.875 33.96 1.77043 34.8555 2.875 34.8555H32.2083C33.3129 34.8555 34.2083 33.96 34.2083 32.8555V13.5221C34.2083 12.4176 33.3129 11.5221 32.2083 11.5221H19.5417Z" fill="#F6A649"/>
<path d="M27.5417 24.3555H25.875V25.3555H27.5417V24.3555ZM25.875 28.6888H27.5417V27.6888H25.875V28.6888ZM27.5417 17.6888H25.875V18.6888H27.5417V17.6888ZM25.875 22.0221H27.5417V21.0221H25.875V22.0221ZM30.875 31.0221H19.2083V32.0221H30.875V31.0221ZM19.2083 15.3555H30.875V14.3555H19.2083V15.3555ZM14.2083 11.0221H12.5417V12.0221H14.2083V11.0221ZM12.5417 8.6888H14.2083V7.6888H12.5417V8.6888ZM14.2083 17.6888H12.5417V18.6888H14.2083V17.6888ZM12.5417 15.3555H14.2083V14.3555H12.5417V15.3555ZM14.2083 24.3555H12.5417V25.3555H14.2083V24.3555ZM12.5417 22.0221H14.2083V21.0221H12.5417V22.0221ZM14.2083 31.0221H12.5417V32.0221H14.2083V31.0221ZM12.5417 28.6888H14.2083V27.6888H12.5417V28.6888ZM7.54167 11.0221H5.875V12.0221H7.54167V11.0221ZM5.875 8.6888H7.54167V7.6888H5.875V8.6888ZM7.54167 17.6888H5.875V18.6888H7.54167V17.6888ZM5.875 15.3555H7.54167V14.3555H5.875V15.3555ZM7.54167 24.3555H5.875V25.3555H7.54167V24.3555ZM5.875 22.0221H7.54167V21.0221H5.875V22.0221ZM7.54167 31.0221H5.875V32.0221H7.54167V31.0221ZM5.875 28.6888H7.54167V27.6888H5.875V28.6888ZM18.0417 9.52214V6.85547H17.0417V9.52214H18.0417ZM15.5417 4.35547H2.875V5.35547H15.5417V4.35547ZM0.375 6.85547V32.8555H1.375V6.85547H0.375ZM2.875 35.3555H32.2083V34.3555H2.875V35.3555ZM34.7083 32.8555V13.5221H33.7083V32.8555H34.7083ZM32.2083 11.0221H19.5417V12.0221H32.2083V11.0221ZM0.375 32.8555C0.375 34.2362 1.49429 35.3555 2.875 35.3555V34.3555C2.04657 34.3555 1.375 33.6839 1.375 32.8555H0.375ZM2.875 4.35547C1.49429 4.35547 0.375 5.47476 0.375 6.85547H1.375C1.375 6.02704 2.04657 5.35547 2.875 5.35547V4.35547ZM4.70833 29.8555C4.70833 29.2111 5.23067 28.6888 5.875 28.6888V27.6888C4.67838 27.6888 3.70833 28.6589 3.70833 29.8555H4.70833ZM4.70833 23.1888C4.70833 22.5445 5.23067 22.0221 5.875 22.0221V21.0221C4.67838 21.0221 3.70833 21.9922 3.70833 23.1888H4.70833ZM5.875 24.3555C5.23067 24.3555 4.70833 23.8331 4.70833 23.1888H3.70833C3.70833 24.3854 4.67838 25.3555 5.875 25.3555V24.3555ZM4.70833 16.5221C4.70833 15.8778 5.23067 15.3555 5.875 15.3555V14.3555C4.67838 14.3555 3.70833 15.3255 3.70833 16.5221H4.70833ZM5.875 17.6888C5.23067 17.6888 4.70833 17.1665 4.70833 16.5221H3.70833C3.70833 17.7188 4.67838 18.6888 5.875 18.6888V17.6888ZM4.70833 9.85547C4.70833 9.21114 5.23067 8.6888 5.875 8.6888V7.6888C4.67838 7.6888 3.70833 8.65885 3.70833 9.85547H4.70833ZM11.375 23.1888C11.375 22.5445 11.8973 22.0221 12.5417 22.0221V21.0221C11.345 21.0221 10.375 21.9922 10.375 23.1888H11.375ZM11.375 16.5221C11.375 15.8778 11.8973 15.3555 12.5417 15.3555V14.3555C11.345 14.3555 10.375 15.3255 10.375 16.5221H11.375ZM11.375 9.85547C11.375 9.21114 11.8973 8.6888 12.5417 8.6888V7.6888C11.345 7.6888 10.375 8.65885 10.375 9.85547H11.375ZM12.5417 11.0221C11.8973 11.0221 11.375 10.4998 11.375 9.85547H10.375C10.375 11.0521 11.345 12.0221 12.5417 12.0221V11.0221ZM18.0417 16.5221C18.0417 15.8778 18.564 15.3555 19.2083 15.3555V14.3555C18.0117 14.3555 17.0417 15.3255 17.0417 16.5221H18.0417ZM19.2083 17.6888C18.564 17.6888 18.0417 17.1665 18.0417 16.5221H17.0417C17.0417 17.7188 18.0117 18.6888 19.2083 18.6888V17.6888ZM21.375 19.8555C21.375 18.6589 20.4049 17.6888 19.2083 17.6888V18.6888C19.8527 18.6888 20.375 19.2111 20.375 19.8555H21.375ZM19.2083 22.0221C20.4049 22.0221 21.375 21.0521 21.375 19.8555H20.375C20.375 20.4998 19.8527 21.0221 19.2083 21.0221V22.0221ZM5.875 11.0221C5.23067 11.0221 4.70833 10.4998 4.70833 9.85547H3.70833C3.70833 11.0521 4.67838 12.0221 5.875 12.0221V11.0221ZM18.0417 23.1888C18.0417 22.5445 18.564 22.0221 19.2083 22.0221V21.0221C18.0117 21.0221 17.0417 21.9922 17.0417 23.1888H18.0417ZM11.375 29.8555C11.375 29.2111 11.8973 28.6888 12.5417 28.6888V27.6888C11.345 27.6888 10.375 28.6589 10.375 29.8555H11.375ZM19.2083 28.6888C20.4049 28.6888 21.375 27.7188 21.375 26.5221H20.375C20.375 27.1665 19.8527 27.6888 19.2083 27.6888V28.6888ZM12.5417 31.0221C11.8973 31.0221 11.375 30.4998 11.375 29.8555H10.375C10.375 31.0521 11.345 32.0221 12.5417 32.0221V31.0221ZM34.7083 13.5221C34.7083 12.1414 33.589 11.0221 32.2083 11.0221V12.0221C33.0368 12.0221 33.7083 12.6937 33.7083 13.5221H34.7083ZM18.0417 29.8555C18.0417 29.2111 18.564 28.6888 19.2083 28.6888V27.6888C18.0117 27.6888 17.0417 28.6589 17.0417 29.8555H18.0417ZM32.2083 35.3555C33.589 35.3555 34.7083 34.2362 34.7083 32.8555H33.7083C33.7083 33.6839 33.0368 34.3555 32.2083 34.3555V35.3555ZM19.2083 31.0221C18.564 31.0221 18.0417 30.4998 18.0417 29.8555H17.0417C17.0417 31.0521 18.0117 32.0221 19.2083 32.0221V31.0221ZM17.0417 9.52214C17.0417 10.9028 18.161 12.0221 19.5417 12.0221V11.0221C18.7132 11.0221 18.0417 10.3506 18.0417 9.52214H17.0417ZM25.875 17.6888C24.6784 17.6888 23.7083 18.6589 23.7083 19.8555H24.7083C24.7083 19.2111 25.2307 18.6888 25.875 18.6888V17.6888ZM19.2083 24.3555C18.564 24.3555 18.0417 23.8331 18.0417 23.1888H17.0417C17.0417 24.3854 18.0117 25.3555 19.2083 25.3555V24.3555ZM12.5417 17.6888C11.8973 17.6888 11.375 17.1665 11.375 16.5221H10.375C10.375 17.7188 11.345 18.6888 12.5417 18.6888V17.6888ZM5.875 31.0221C5.23067 31.0221 4.70833 30.4998 4.70833 29.8555H3.70833C3.70833 31.0521 4.67838 32.0221 5.875 32.0221V31.0221ZM23.7083 26.5221C23.7083 27.7188 24.6784 28.6888 25.875 28.6888V27.6888C25.2307 27.6888 24.7083 27.1665 24.7083 26.5221H23.7083ZM12.5417 24.3555C11.8973 24.3555 11.375 23.8331 11.375 23.1888H10.375C10.375 24.3854 11.345 25.3555 12.5417 25.3555V24.3555ZM18.0417 6.85547C18.0417 5.47475 16.9224 4.35547 15.5417 4.35547V5.35547C16.3701 5.35547 17.0417 6.02704 17.0417 6.85547H18.0417ZM23.7083 19.8555C23.7083 21.0521 24.6784 22.0221 25.875 22.0221V21.0221C25.2307 21.0221 24.7083 20.4998 24.7083 19.8555H23.7083ZM21.375 26.5221C21.375 25.3255 20.4049 24.3555 19.2083 24.3555V25.3555C19.8527 25.3555 20.375 25.8778 20.375 26.5221H21.375ZM25.875 24.3555C24.6784 24.3555 23.7083 25.3255 23.7083 26.5221H24.7083C24.7083 25.8778 25.2307 25.3555 25.875 25.3555V24.3555Z" fill="#F5F8FF" mask="url(#path-1-inside-1_2083_23412)"/>
</g>
<defs>
<clipPath id="clip0_2083_23412">
<rect width="40" height="40" fill="white" transform="translate(0.875 0.636719)"/>
</clipPath>
</defs>
</svg>
