<svg width="41" height="41" viewBox="0 0 41 41" fill="none" xmlns="http://www.w3.org/2000/svg">
<g clip-path="url(#clip0_2083_23419)">
<path d="M30.0417 12.5221H27.5417V10.8555C27.5403 9.52979 27.0131 8.25879 26.0757 7.3214C25.1383 6.384 23.8673 5.85679 22.5417 5.85547H5.04167C3.93687 5.85635 2.87757 6.29562 2.09636 7.07683C1.31515 7.85804 0.875883 8.91734 0.875 10.0221V30.8555C0.876324 32.1811 1.40353 33.4521 2.34093 34.3895C3.27832 35.3269 4.54932 35.8541 5.875 35.8555H30.0417C31.1465 35.8546 32.2058 35.4153 32.987 34.6341C33.7682 33.8529 34.2075 32.7936 34.2083 31.6888V16.6888C34.2075 15.584 33.7682 14.5247 32.987 13.7435C32.2058 12.9623 31.1465 12.523 30.0417 12.5221ZM5.04167 7.52214H22.5417C23.4253 7.52346 24.2724 7.87507 24.8972 8.49991C25.5221 9.12474 25.8737 9.97182 25.875 10.8555V12.5221H5.04167C4.71336 12.5221 4.38827 12.4575 4.08496 12.3318C3.78164 12.2062 3.50605 12.022 3.2739 11.7899C3.04175 11.5578 2.8576 11.2822 2.73197 10.9788C2.60633 10.6755 2.54167 10.3504 2.54167 10.0221C2.54167 9.69383 2.60633 9.36874 2.73197 9.06543C2.8576 8.76211 3.04175 8.48651 3.2739 8.25437C3.50605 8.02222 3.78164 7.83807 4.08496 7.71244C4.38827 7.5868 4.71336 7.52214 5.04167 7.52214ZM32.5417 27.5221H29.2083C28.3243 27.5221 27.4764 27.1709 26.8513 26.5458C26.2262 25.9207 25.875 25.0729 25.875 24.1888C25.875 23.3047 26.2262 22.4569 26.8513 21.8318C27.4764 21.2067 28.3243 20.8555 29.2083 20.8555H32.5417V27.5221ZM32.5417 19.1888H29.2083C28.5517 19.1888 27.9015 19.3181 27.2949 19.5694C26.6883 19.8207 26.1371 20.189 25.6728 20.6533C25.2085 21.1176 24.8402 21.6688 24.5889 22.2754C24.3377 22.882 24.2083 23.5322 24.2083 24.1888C24.2083 24.8454 24.3377 25.4956 24.5889 26.1022C24.8402 26.7088 25.2085 27.26 25.6728 27.7243C26.1371 28.1886 26.6883 28.5569 27.2949 28.8082C27.9015 29.0595 28.5517 29.1888 29.2083 29.1888H32.5417V31.6888C32.5417 32.3518 32.2783 32.9877 31.8094 33.4566C31.3406 33.9254 30.7047 34.1888 30.0417 34.1888H5.875C4.99135 34.1875 4.14427 33.8359 3.51944 33.211C2.8946 32.5862 2.54299 31.7391 2.54167 30.8555V13.3538C3.26167 13.8971 4.14 14.1905 5.04167 14.1888H30.0417C30.7047 14.1888 31.3406 14.4522 31.8094 14.921C32.2783 15.3899 32.5417 16.0258 32.5417 16.6888V19.1888Z" fill="#F6A649" stroke="#F6A649"/>
</g>
<defs>
<clipPath id="clip0_2083_23419">
<rect width="40" height="40" fill="white" transform="translate(0.875 0.230469)"/>
</clipPath>
</defs>
</svg>
