<svg width="41" height="41" viewBox="0 0 41 41" fill="none" xmlns="http://www.w3.org/2000/svg">
<path d="M28.5374 5.94922C28.5374 5.55139 28.6955 5.16986 28.9768 4.88856C29.2581 4.60725 29.6396 4.44922 30.0374 4.44922H35.0374C35.4352 4.44922 35.8168 4.60725 36.0981 4.88856C36.3794 5.16986 36.5374 5.55139 36.5374 5.94922V10.9492C36.5374 11.347 36.3794 11.7286 36.0981 12.0099C35.8168 12.2912 35.4352 12.4492 35.0374 12.4492C34.6396 12.4492 34.2581 12.2912 33.9768 12.0099C33.6955 11.7286 33.5374 11.347 33.5374 10.9492V9.56922L24.5974 18.5092C24.3162 18.7901 23.9349 18.9479 23.5374 18.9479C23.1399 18.9479 22.7587 18.7901 22.4774 18.5092L17.5374 13.5692L9.09742 22.0092C8.96009 22.1566 8.79449 22.2748 8.61049 22.3568C8.42649 22.4388 8.22787 22.4828 8.02646 22.4864C7.82506 22.49 7.625 22.4529 7.43822 22.3775C7.25145 22.302 7.08178 22.1897 6.93934 22.0473C6.7969 21.9049 6.68461 21.7352 6.60917 21.5484C6.53373 21.3616 6.49668 21.1616 6.50023 20.9602C6.50379 20.7588 6.54787 20.5601 6.62985 20.3761C6.71184 20.1921 6.83004 20.0265 6.97742 19.8892L16.4774 10.3892C16.7587 10.1083 17.1399 9.95054 17.5374 9.95054C17.9349 9.95054 18.3162 10.1083 18.5974 10.3892L23.5374 15.3292L31.4174 7.44922H30.0374C29.6396 7.44922 29.2581 7.29118 28.9768 7.00988C28.6955 6.72857 28.5374 6.34704 28.5374 5.94922ZM8.03742 28.4492C8.43524 28.4492 8.81677 28.6073 9.09808 28.8886C9.37938 29.1699 9.53742 29.5514 9.53742 29.9492V34.9492C9.53742 35.347 9.37938 35.7286 9.09808 36.0099C8.81677 36.2912 8.43524 36.4492 8.03742 36.4492C7.63959 36.4492 7.25806 36.2912 6.97676 36.0099C6.69545 35.7286 6.53742 35.347 6.53742 34.9492V29.9492C6.53742 29.5514 6.69545 29.1699 6.97676 28.8886C7.25806 28.6073 7.63959 28.4492 8.03742 28.4492ZM17.5374 23.9492C17.5374 23.5514 17.3794 23.1699 17.0981 22.8886C16.8168 22.6073 16.4352 22.4492 16.0374 22.4492C15.6396 22.4492 15.2581 22.6073 14.9768 22.8886C14.6955 23.1699 14.5374 23.5514 14.5374 23.9492V34.9492C14.5374 35.347 14.6955 35.7286 14.9768 36.0099C15.2581 36.2912 15.6396 36.4492 16.0374 36.4492C16.4352 36.4492 16.8168 36.2912 17.0981 36.0099C17.3794 35.7286 17.5374 35.347 17.5374 34.9492V23.9492ZM24.0374 26.4492C24.4352 26.4492 24.8168 26.6073 25.0981 26.8886C25.3794 27.1699 25.5374 27.5514 25.5374 27.9492V34.9492C25.5374 35.347 25.3794 35.7286 25.0981 36.0099C24.8168 36.2912 24.4352 36.4492 24.0374 36.4492C23.6396 36.4492 23.2581 36.2912 22.9768 36.0099C22.6955 35.7286 22.5374 35.347 22.5374 34.9492V27.9492C22.5374 27.5514 22.6955 27.1699 22.9768 26.8886C23.2581 26.6073 23.6396 26.4492 24.0374 26.4492ZM33.5374 19.9492C33.5374 19.5514 33.3794 19.1699 33.0981 18.8886C32.8168 18.6073 32.4352 18.4492 32.0374 18.4492C31.6396 18.4492 31.2581 18.6073 30.9768 18.8886C30.6955 19.1699 30.5374 19.5514 30.5374 19.9492V34.9492C30.5374 35.347 30.6955 35.7286 30.9768 36.0099C31.2581 36.2912 31.6396 36.4492 32.0374 36.4492C32.4352 36.4492 32.8168 36.2912 33.0981 36.0099C33.3794 35.7286 33.5374 35.347 33.5374 34.9492V19.9492Z" fill="#F6A649"/>
</svg>
