<svg width="72" height="73" viewBox="0 0 72 73" fill="none" xmlns="http://www.w3.org/2000/svg">
<rect y="0.761719" width="72" height="72" rx="10.6667" fill="white"/>
<g clip-path="url(#clip0_2083_23433)">
<path d="M51.25 36.2288V36.2188C51.25 30.3005 48.6733 24.9855 44.5817 21.3305L44.5617 21.3138C44.5112 21.2594 44.4547 21.2107 44.3933 21.1688L44.39 21.1672C40.756 17.9764 36.0827 16.2211 31.2467 16.2305C26.1933 16.2305 21.58 18.1072 18.0633 21.2038L18.085 21.1855C18.0426 21.2177 18.0035 21.2539 17.9683 21.2938C15.8542 23.1658 14.162 25.4673 13.0038 28.0427C11.8455 30.618 11.2478 33.41 11.25 36.2338C11.25 42.1505 13.8233 47.4655 17.9117 51.1222L17.9317 51.1388C17.9846 51.1989 18.0438 51.2531 18.1083 51.3005L18.1117 51.3022C21.7447 54.4882 26.4145 56.241 31.2467 56.2322C36.1014 56.2396 40.7912 54.4707 44.4317 51.2588L44.41 51.2772C46.5608 49.4073 48.2848 47.0972 49.4654 44.5033C50.6461 41.9094 51.2558 39.0921 51.2533 36.2422V36.2305L51.25 36.2288ZM43.8133 49.2372C42.8226 48.4358 41.7572 47.7314 40.6317 47.1338L40.5233 47.0805C41.545 44.1355 42.16 40.7405 42.2183 37.2088V37.1822H49.32C49.0805 41.7512 47.1139 46.0585 43.8183 49.2322L43.8133 49.2372ZM32.2033 46.7288C34.3417 46.8438 36.34 47.3138 38.1833 48.0788L38.0633 48.0355C36.5867 51.4022 34.5083 53.7155 32.2033 54.2238V46.7288ZM32.2033 44.8222V37.1822H40.3167C40.2523 40.3459 39.7037 43.4812 38.69 46.4788L38.755 46.2605C36.6858 45.41 34.485 44.924 32.25 44.8238L32.205 44.8222H32.2033ZM32.2033 35.2755V27.6355C34.4986 27.5308 36.7583 27.0283 38.8817 26.1505L38.75 26.1988C39.675 28.8972 40.2433 32.0072 40.3167 35.2405V35.2755H32.2033ZM32.2033 25.7288V18.2372C34.5083 18.7455 36.5867 21.0488 38.0633 24.4255C36.34 25.1422 34.3417 25.6105 32.2517 25.7272L32.2033 25.7288ZM36.96 19.0622C38.9239 19.7172 40.7607 20.7049 42.39 21.9822L42.3517 21.9522C41.6133 22.5322 40.785 23.0788 39.9117 23.5538L39.8183 23.6005C39.1126 21.9351 38.1423 20.3946 36.945 19.0388L36.96 19.0572V19.0622ZM30.2933 18.2422V25.7288C28.2375 25.624 26.2149 25.1673 24.3133 24.3788L24.4333 24.4222C25.9167 21.0555 27.9917 18.7438 30.2967 18.2355L30.2933 18.2422ZM22.68 23.5955C21.7766 23.1094 20.9157 22.548 20.1067 21.9172L20.1467 21.9472C21.7286 20.7074 23.5079 19.7428 25.41 19.0938L25.5367 19.0555C24.3707 20.3746 23.4206 21.8697 22.7217 23.4855L22.68 23.5955ZM30.2967 27.6338V35.2738H22.1833C22.2567 32.0055 22.825 28.8955 23.815 25.9788L23.75 26.1972C25.8184 27.0463 28.018 27.5318 30.2517 27.6322L30.2967 27.6338ZM30.2967 37.1805V44.8205C28.0014 44.9253 25.7417 45.4277 23.6183 46.3055L23.75 46.2572C22.825 43.5605 22.2567 40.4488 22.1833 37.2155V37.1805H30.2967ZM30.2967 46.7272V54.2188C27.9917 53.7105 25.9133 51.4072 24.4367 48.0305C26.16 47.3138 28.1583 46.8472 30.2483 46.7305L30.2967 46.7272ZM25.5467 53.3938C23.5833 52.7407 21.7466 51.7553 20.1167 50.4805L20.1567 50.5105C20.895 49.9305 21.7233 49.3838 22.5967 48.9088L22.69 48.8622C23.3898 50.5283 24.3601 52.0674 25.5617 53.4172L25.5467 53.4005V53.3938ZM39.82 48.8605C40.7867 49.3855 41.615 49.9305 42.3933 50.5388L42.3533 50.5088C40.7715 51.7486 38.9921 52.7132 37.09 53.3622L36.9633 53.4005C38.1293 52.0821 39.0794 50.5875 39.7783 48.9722L39.82 48.8638V48.8605ZM49.32 35.2755H42.2183C42.1672 31.8271 41.5722 28.4084 40.455 25.1455L40.5233 25.3755C41.7007 24.7556 42.8153 24.0233 43.8517 23.1888L43.8117 23.2188C47.1004 26.3806 49.0677 30.6719 49.3167 35.2272L49.32 35.2755ZM18.6867 23.2205C19.6467 24.0005 20.725 24.7155 21.8683 25.3238L21.9767 25.3772C20.955 28.3222 20.34 31.7172 20.2817 35.2488V35.2755H13.1783C13.4178 30.7065 15.3844 26.3992 18.68 23.2255L18.6867 23.2205ZM13.18 37.1822H20.2817C20.3328 40.6306 20.9279 44.0493 22.045 47.3122L21.9767 47.0822C20.725 47.7472 19.6483 48.4622 18.6483 49.2688L18.6883 49.2388C15.3996 46.0771 13.4323 41.7858 13.1833 37.2305L13.1817 37.1838L13.18 37.1822Z" fill="#F6A649" stroke="#F6A649" stroke-width="0.5"/>
</g>
<defs>
<clipPath id="clip0_2083_23433">
<rect width="40" height="40" fill="white" transform="translate(11.25 16.2305)"/>
</clipPath>
</defs>
</svg>
