<svg width="107" height="126" viewBox="0 0 107 126" fill="none" xmlns="http://www.w3.org/2000/svg">
<path fill-rule="evenodd" clip-rule="evenodd" d="M22.6971 0.154236C20.9202 0.705589 19.3904 2.08532 18.6965 3.76265C18.472 4.30568 18.3333 5.4243 18.3333 6.69283V8.74492H13.7373C11.2095 8.74492 8.56313 8.86885 7.85618 9.02023C3.86213 9.87628 0.966212 13.1134 0.688528 17.0321C0.357974 21.6982 3.71153 31.2862 7.85909 37.5334C11.6909 43.3051 17.2145 48.6484 22.5807 51.7745C24.1865 52.7099 24.1903 52.7148 25.4774 55.4437C29.4993 63.9704 34.5444 70.2562 40.5184 74.1836C41.7157 74.9708 43.1619 75.7948 43.7318 76.0145C44.852 76.4465 44.8879 76.5416 44.7805 78.7969C44.6425 81.6941 43.4265 84.5032 41.3364 86.7525C39.6997 88.5141 37.9897 89.5992 35.4309 90.4998C32.4083 91.5638 32.5342 91.1734 32.4496 99.7565L32.3787 106.965H28.8816C25.9387 106.965 25.1718 107.045 24.0424 107.472C22.2664 108.143 20.247 110.023 19.3746 111.817C18.7113 113.181 18.6953 113.314 18.6187 118.148C18.5532 122.291 18.6027 123.207 18.926 123.839C19.7435 125.436 17.393 125.335 53.8623 125.335C82.7788 125.335 87.0794 125.288 87.6911 124.969C89.0843 124.241 89.1488 123.963 89.1488 118.676C89.1488 112.697 88.918 111.859 86.6274 109.517C84.4871 107.329 83.3735 106.965 78.8326 106.965H75.3253V99.8978C75.3253 91.2834 75.4361 91.6116 72.1252 90.4116C69.513 89.4649 67.9175 88.4409 66.3409 86.6984C64.1927 84.3244 62.9568 81.2169 62.9568 78.189V76.4453L64.1087 75.881C71.0261 72.4925 77.4131 65.1971 82.0013 55.4437C83.1589 52.9828 83.3912 52.6531 84.3382 52.126C89.5172 49.2445 94.8944 44.2277 99.0262 38.4227C103.36 32.3333 107.14 21.924 106.794 17.0321C106.516 13.1134 103.62 9.87628 99.6259 9.02023C98.919 8.86885 96.2726 8.74492 93.7448 8.74492H89.1488V6.87507C89.1488 5.84658 89.0222 4.57829 88.8673 4.05633C88.503 2.82797 87.1801 1.27874 85.9095 0.592428L84.9048 0.0496477L54.1048 0.00751855C37.1649 -0.0155055 23.0313 0.0503825 22.6971 0.154236ZM83.5709 13.5866C83.5709 22.31 83.2973 27.572 82.5809 32.6263C80.617 46.4807 75.5326 58.2639 68.4171 65.452C64.9205 68.984 61.709 70.9768 57.9475 71.9485C55.6933 72.5307 52.106 72.5807 49.9199 72.0599C38.6115 69.3671 28.6876 54.6608 25.376 35.688C24.3133 29.6006 24.1285 27.0177 23.9856 16.2767L23.8467 5.80567H53.7088H83.5709V13.5866ZM18.4065 21.7878C18.5059 26.9753 18.6767 29.8984 19.0254 32.3814C19.491 35.6985 20.5057 41.0499 20.9961 42.775C21.1276 43.2375 21.1865 43.6654 21.1268 43.7254C20.8819 43.973 14.7042 37.3658 13.3124 35.3676C10.5072 31.3409 8.0274 25.7886 6.89775 21.0057C6.05814 17.4505 6.29872 16.1371 7.97865 15.1025C8.67735 14.6724 9.2235 14.6251 13.5112 14.6244L18.2687 14.6234L18.4065 21.7878ZM99.3252 14.9859C101.109 15.9174 101.426 17.4889 100.562 21.1142C99.162 26.9896 96.2491 32.884 92.3566 37.719C91.0441 39.3493 86.4935 43.8652 86.3298 43.6999C86.2842 43.6539 86.3545 43.2375 86.486 42.775C86.9764 41.0499 87.9911 35.6985 88.4567 32.3814C88.8054 29.8984 88.9762 26.9753 89.0756 21.7878L89.2134 14.6234H93.9224C97.6055 14.6234 98.7824 14.7023 99.3252 14.9859ZM52.5285 17.2469C51.7902 17.6281 51.3903 18.26 49.462 22.0925L47.2442 26.4999L42.7928 27.1461C40.3443 27.5015 38.0328 27.937 37.656 28.1138C36.7797 28.5248 36.2797 29.5082 36.2797 30.8199C36.2797 31.8239 36.3842 31.9613 39.7829 35.4247L43.2863 38.9947L42.5723 43.1586C41.6362 48.6175 41.6423 48.991 42.6822 50.0413C44.0413 51.4139 44.8042 51.2707 49.6558 48.7309L53.7498 46.5877L57.8401 48.7309C62.6849 51.2694 63.4425 51.4122 64.7999 50.0413C65.8398 48.991 65.8459 48.6175 64.9098 43.1586L64.1958 38.9947L67.6992 35.4247C71.0979 31.9613 71.2024 31.8239 71.2024 30.8199C71.2024 29.3801 70.6701 28.4702 69.5746 28.0379C69.0695 27.8385 66.7624 27.4157 64.448 27.0983L60.2403 26.5217L58.0843 22.1719C56.7973 19.5755 55.7023 17.6724 55.3676 17.451C54.4422 16.8384 53.4566 16.7676 52.5285 17.2469ZM55.0138 28.9427C56.3566 31.6725 56.5843 31.8327 59.7434 32.2657C60.9771 32.435 61.9867 32.6324 61.9867 32.7047C61.9867 32.7769 61.1682 33.6856 60.1678 34.7237C58.3547 36.6053 58.3489 36.6158 58.3618 37.9255C58.3688 38.6483 58.5155 40.0349 58.6877 41.0071L59.001 42.7745L56.6857 41.5582C55.4122 40.8892 54.1029 40.3418 53.776 40.3418C53.4488 40.3418 52.0968 40.9015 50.7712 41.5854C48.8749 42.5639 48.3889 42.7334 48.491 42.3814C48.7963 41.3309 49.1332 38.9373 49.1332 37.8194C49.1332 36.6474 49.0791 36.5556 47.3143 34.7237C46.3139 33.6856 45.4954 32.7769 45.4954 32.7047C45.4954 32.6324 46.5048 32.435 47.7387 32.2657C50.8978 31.8327 51.1255 31.6725 52.4683 28.9427C53.0952 27.668 53.6678 26.6253 53.741 26.6253C53.8143 26.6253 54.3869 27.668 55.0138 28.9427ZM57.2275 79.809C57.5064 82.8401 59.0168 86.7045 60.8934 89.1877C61.3797 89.8309 61.7321 90.403 61.6765 90.4589C61.621 90.515 58.0579 90.5316 53.7583 90.4961L45.9409 90.4315L46.7737 89.3292C48.8165 86.6256 50.2422 83.0449 50.4998 79.9722L50.6494 78.1846H53.8638H57.0781L57.2275 79.809ZM69.5048 101.699V106.965H53.8623H38.2198V101.699V96.4324H53.8623H69.5048V101.699ZM81.8733 113.027C83.1402 113.666 83.5702 114.752 83.5704 117.313L83.5709 119.457H53.8342H24.0972L24.1932 117.047C24.3012 114.332 24.6458 113.52 25.9302 112.956C26.5694 112.675 31.3083 112.616 53.8623 112.608C79.2473 112.6 81.08 112.627 81.8733 113.027Z" fill="url(#paint0_linear_1888_6230)"/>
<defs>
<linearGradient id="paint0_linear_1888_6230" x1="0.666016" y1="62.6696" x2="106.816" y2="62.6696" gradientUnits="userSpaceOnUse">
<stop stop-color="#041A47"/>
<stop offset="1" stop-color="#0A3FAD"/>
</linearGradient>
</defs>
</svg>
