<svg width="96" height="97" viewBox="0 0 96 97" fill="none" xmlns="http://www.w3.org/2000/svg">
<path fill-rule="evenodd" clip-rule="evenodd" d="M55.1613 5.81757C48.2952 8.82328 42.4815 11.4701 42.2419 11.6993C41.82 12.1029 41.8064 12.2316 41.8064 15.8098C41.8064 19.4733 41.8103 19.5073 42.2816 19.9785C42.9012 20.5983 43.4294 20.5778 45 19.873C45.7119 19.5536 46.3295 19.2923 46.3728 19.2923C46.4162 19.2923 46.4516 21.2958 46.4516 23.7446V28.1969H25.2494H4.0469L3.57194 28.6722C3.10935 29.1346 3.09677 29.225 3.09677 32.0685C3.09677 34.912 3.10935 35.0024 3.57194 35.4649C4.02948 35.9227 4.1431 35.9401 6.66871 35.9401H9.29032V39.8117V43.6833H6.66871C4.1431 43.6833 4.02948 43.7007 3.57194 44.1585C3.10935 44.621 3.09677 44.7114 3.09677 47.5549C3.09677 50.3984 3.10935 50.4888 3.57194 50.9512C3.96194 51.3415 4.23871 51.4265 5.12032 51.4265H6.19355V70.0101V88.5937H3.57194C1.04632 88.5937 0.93271 88.6112 0.475161 89.069C0.0125806 89.5314 0 89.6218 0 92.4653C0 95.3088 0.0125806 95.3992 0.475161 95.8617L0.950129 96.3369H48H95.0499L95.5248 95.8617C95.9874 95.3992 96 95.3088 96 92.4653C96 89.6218 95.9874 89.5314 95.5248 89.069C95.0673 88.6112 94.9537 88.5937 92.4281 88.5937H89.8064V70.0101V51.4265H90.8797C91.7613 51.4265 92.0381 51.3415 92.4281 50.9512C92.8906 50.4888 92.9032 50.3984 92.9032 47.5549C92.9032 44.7114 92.8906 44.621 92.4281 44.1585C92.0381 43.7683 91.7613 43.6833 90.8797 43.6833H89.8064V31.4878C89.8064 24.7802 89.8419 19.2923 89.8852 19.2923C89.9286 19.2923 90.5462 19.5536 91.2581 19.873C92.8287 20.5778 93.3569 20.5983 93.9764 19.9785C94.4475 19.5075 94.4516 19.4715 94.4516 15.838C94.4516 12.6293 94.4094 12.1227 94.1129 11.7713C93.7146 11.2994 68.688 0.313914 68.0638 0.33695C67.8335 0.345468 62.0274 2.81186 55.1613 5.81757ZM79.5703 8.5666C85.7857 11.2916 90.9799 13.5658 91.1129 13.6204C91.2751 13.6872 91.3548 14.1833 91.3548 15.127V16.5339L79.9214 11.5251C73.633 8.77005 68.3326 6.51601 68.1428 6.51601C67.8763 6.51601 53.9926 12.5075 46.0161 16.0645L44.9032 16.5609V15.1454V13.7301L56.371 8.69204C62.6781 5.92114 67.9357 3.64464 68.0541 3.63322C68.1726 3.6218 73.3548 5.84177 79.5703 8.5666ZM77.4379 13.8273L86.6129 17.8478L86.6626 30.7655L86.7124 43.6833H68.129H49.5457L49.5954 30.7729L49.6452 17.8625L58.7419 13.8536C63.7452 11.6488 67.9341 9.83609 68.0508 9.82583C68.1675 9.81538 72.3917 11.6161 77.4379 13.8273ZM51.5719 20.929L51.0968 21.404V27.4226V33.4412L51.5719 33.9162L52.0469 34.3915H58.8387H65.6305L66.1055 33.9162L66.5806 33.4412V27.4226V21.404L66.1055 20.929L65.6305 20.4537H58.8387H52.0469L51.5719 20.929ZM70.1526 20.929L69.6774 21.404V27.4226V33.4412L70.1526 33.9162L70.6275 34.3915H77.4193H84.2112L84.6861 33.9162L85.1613 33.4412V27.4226V21.404L84.6861 20.929L84.2112 20.4537H77.4193H70.6275L70.1526 20.929ZM63.4839 27.4226V31.2942H58.8387H54.1935V27.4226V23.551H58.8387H63.4839V27.4226ZM82.0645 27.4226V31.2942H77.4193H72.7742V27.4226V23.551H77.4193H82.0645V27.4226ZM46.4516 32.0685V32.8428H26.3226H6.19355V32.0685V31.2942H26.3226H46.4516V32.0685ZM18.5806 39.8117V43.6833H15.4839H12.3871V39.8117V35.9401H15.4839H18.5806V39.8117ZM27.871 39.8117V43.6833H24.7742H21.6774V39.8117V35.9401H24.7742H27.871V39.8117ZM37.1613 39.8117V43.6833H34.0645H30.9677V39.8117V35.9401H34.0645H37.1613V39.8117ZM46.4516 39.8117V43.6833H43.3548H40.2581V39.8117V35.9401H43.3548H46.4516V39.8117ZM89.8064 47.5549V48.3292H48H6.19355V47.5549V46.7806H48H89.8064V47.5549ZM46.4516 70.0101V88.5937H44.9032H43.3548V77.7533C43.3548 68.1047 43.3877 66.9128 43.6539 66.9128C43.8184 66.9128 44.1668 66.6989 44.4281 66.4376C44.8906 65.9751 44.9032 65.8847 44.9032 63.0412C44.9032 60.1977 44.8906 60.1073 44.4281 59.6449L43.9531 59.1696H27.871H11.7888L11.3139 59.6449C10.8513 60.1073 10.8387 60.1977 10.8387 63.0412C10.8387 65.8847 10.8513 65.9751 11.3139 66.4376C11.5752 66.6989 11.9235 66.9128 12.0881 66.9128C12.3542 66.9128 12.3871 68.1047 12.3871 77.7533V88.5937H10.8387H9.29032V70.0101V51.4265H27.871H46.4516V70.0101ZM86.7097 70.0101V88.5937H77.4193H68.129V78.2285V67.8631L67.6539 67.3881L67.1789 66.9128H59.6129H52.0469L51.5719 67.3881L51.0968 67.8631V78.2285V88.5937H50.3226H49.5484V70.0101V51.4265H68.129H86.7097V70.0101ZM41.8064 63.0412V63.8156H27.871H13.9355V63.0412V62.2669H27.871H41.8064V63.0412ZM40.2581 77.7533V88.5937H27.871H15.4839V77.7533V66.9128H27.871H40.2581V77.7533ZM70.1526 67.3881L69.6774 67.8631V73.8817V79.9003L70.1526 80.3753L70.6275 80.8506H77.4193H84.2112L84.6861 80.3753L85.1613 79.9003V73.8817V67.8631L84.6861 67.3881L84.2112 66.9128H77.4193H70.6275L70.1526 67.3881ZM65.0323 79.3019V88.5937H59.6129H54.1935V79.3019V70.0101H59.6129H65.0323V79.3019ZM82.0645 73.8817V77.7533H77.4193H72.7742V73.8817V70.0101H77.4193H82.0645V73.8817ZM60.8623 76.6799C60.415 77.1272 60.3871 77.2806 60.3871 79.3019C60.3871 81.3233 60.415 81.4766 60.8623 81.924C61.1617 82.2236 61.5584 82.3992 61.9355 82.3992C62.3125 82.3992 62.7093 82.2236 63.0087 81.924C63.456 81.4766 63.4839 81.3233 63.4839 79.3019C63.4839 77.2806 63.456 77.1272 63.0087 76.6799C62.7093 76.3802 62.3125 76.2046 61.9355 76.2046C61.5584 76.2046 61.1617 76.3802 60.8623 76.6799ZM92.9032 92.4653V93.2396H48H3.09677V92.4653V91.691H48H92.9032V92.4653Z" fill="url(#paint0_linear_1888_6241)"/>
<defs>
<linearGradient id="paint0_linear_1888_6241" x1="0" y1="48.3369" x2="96" y2="48.3369" gradientUnits="userSpaceOnUse">
<stop stop-color="#041A47"/>
<stop offset="1" stop-color="#0A3FAD"/>
</linearGradient>
</defs>
</svg>
