<svg width="105" height="97" viewBox="0 0 105 97" fill="none" xmlns="http://www.w3.org/2000/svg">
<path fill-rule="evenodd" clip-rule="evenodd" d="M24.6831 4.35814C16.61 8.75385 15.8584 9.28639 15.4115 10.9286C15.0789 12.1509 15.2999 16.4111 15.822 18.8426C17.1016 24.803 20.5019 31.4346 24.5596 35.8835L25.6234 37.05L25.1136 39.3588C23.9032 44.8411 23.8735 50.068 25.0216 55.4669C25.2487 56.5351 25.4488 57.4816 25.4659 57.5701C25.4832 57.6588 24.7149 58.0299 23.7585 58.395C22.8021 58.7599 21.7261 59.2687 21.3673 59.5253L20.7148 59.992L20.4978 59.419C19.7163 57.3542 18.5659 56.0469 16.7368 55.1449L15.5244 54.547H10.6398H5.75515L4.57918 55.1451C3.19133 55.851 1.73062 57.3454 1.11048 58.6935C0.667196 59.6574 0.666992 59.6657 0.666992 75.0924V90.5271L1.23117 91.6807C1.91827 93.0858 3.2589 94.3667 4.80367 95.0941C5.94932 95.6336 5.99654 95.6379 10.6398 95.6379C15.283 95.6379 15.3303 95.6336 16.4759 95.0941C18.7625 94.0174 20.3999 91.9365 20.6537 89.7852C20.7274 89.1599 20.8601 88.8045 20.9983 88.862C21.122 88.9135 24.1069 90.2585 27.6314 91.8506C31.1559 93.4429 34.682 94.9189 35.4672 95.1307C37.636 95.7156 39.7048 95.9411 44.8322 96.1514C50.8754 96.3992 73.9011 96.3986 75.8023 96.1504C77.565 95.9204 79.2889 95.3354 80.4592 94.57C81.2525 94.0511 100.418 76.4133 102.512 74.2747C103.007 73.7687 103.695 72.7568 104.04 72.0259C104.596 70.8478 104.667 70.4886 104.667 68.8572C104.667 67.2113 104.598 66.8714 104.015 65.6323C102.887 63.2378 100.757 61.5876 98.0035 60.9768C97.36 60.8339 96.8333 60.7018 96.8333 60.6832C96.8333 60.6646 97.0655 59.9663 97.3492 59.1314C98.4096 56.0113 98.8948 53.0027 99.0128 48.8181C99.1604 43.5908 98.7495 40.49 97.3067 35.9436C95.8557 31.3706 92.4538 25.283 91.011 24.6775C89.6227 24.0949 88.2851 25.0015 88.2851 26.5254C88.2851 27.0624 88.6179 27.7512 89.6187 29.2854C91.8947 32.7747 93.4997 36.6871 94.4257 41.0035C94.8065 42.7782 94.8768 43.7556 94.8843 47.3918C94.8947 52.2616 94.6474 54.0412 93.4356 57.8169C92.5144 60.6865 91.9236 61.8534 91.0893 62.4497C90.7224 62.7118 87.2624 65.8619 83.4005 69.4495C79.5386 73.0373 76.0583 76.1195 75.6665 76.2992C75.0421 76.5854 73.3205 76.6334 61.7249 76.6886C52.7014 76.7316 48.2578 76.6817 47.7476 76.5316C45.6077 75.9024 45.3022 73.1403 47.2538 72.0666C47.808 71.7618 48.8684 71.7068 55.9295 71.6171L63.9739 71.5149L65.3168 70.8505C67.7723 69.6355 69.349 67.3046 69.4744 64.7042C69.5359 63.4298 69.5741 63.3394 70.2191 62.9403C71.6204 62.0738 72.4306 61.3139 73.2209 60.1253C76.6583 54.9548 74.4107 48.1437 68.5647 46.0139C67.5592 45.6476 66.7468 45.5832 61.7249 45.4718C55.3334 45.3297 55.4111 45.3469 53.9563 43.7617C51.6553 41.2539 52.3167 37.4159 55.3403 35.7338L56.4333 35.1259L65.1519 35.0236L73.8706 34.9214L74.3615 34.3478C75.0539 33.5388 75.0156 32.5561 74.2589 31.7049L73.6652 31.0372L68.6619 30.9759L63.6584 30.9147V28.047V25.1794L63.0635 24.5818C62.3929 23.9082 61.5475 23.8017 60.6351 24.2756C59.7562 24.7321 59.5879 25.3769 59.5879 28.287V30.935H58.3944C53.3358 30.935 49.3479 34.1918 48.5602 38.9667C47.7398 43.9396 51.4786 48.8715 56.5723 49.5359C57.3913 49.6428 60.0355 49.733 62.4483 49.7365C66.7541 49.7426 66.8544 49.7526 67.8928 50.2723C70.8688 51.7618 71.6839 55.5748 69.576 58.1435C69.2546 58.535 68.6741 59.0271 68.286 59.237L67.5802 59.6189L66.7895 58.9833C66.3548 58.6336 65.5411 58.1364 64.9814 57.8784L63.9637 57.409L46.8233 57.3534L29.6827 57.2978L29.4794 56.5357C28.2045 51.7556 27.9621 46.7509 28.7738 41.9694C28.9545 40.9039 29.1182 40.0145 29.1371 39.9926C29.1562 39.9707 29.7986 40.2698 30.5646 40.657C32.4401 41.6051 33.2852 41.5937 35.1489 40.5944C39.5772 38.2201 43.7863 33.3271 46.8689 26.9696C48.3954 23.8213 49.2288 21.3835 49.8066 18.3765C50.037 17.1767 50.2257 16.1568 50.2257 16.1097C50.2257 16.0629 50.9942 15.789 51.9337 15.5013C58.8188 13.3918 66.3851 13.6118 73.1224 16.1171C76.3086 17.302 77.0098 17.3085 77.7073 16.1592C78.509 14.8386 77.9928 13.6463 76.297 12.9018C68.9756 9.68647 59.2769 9.04823 51.6351 11.2784L50.2969 11.6691L50.0476 10.7323C49.8832 10.1148 49.5355 9.54827 49.0279 9.07031C48.0229 8.12399 33.8768 0.456948 32.9259 0.343079C32.3097 0.269483 31.1978 0.811026 24.6831 4.35814ZM39.4152 8.25912C42.9543 10.1796 45.9337 11.8322 46.0363 11.932C46.3121 12.2004 46.1853 15.6692 45.835 17.4377C45.049 21.4054 43.0866 26.0053 40.5582 29.8067C39.0704 32.0438 35.9343 35.2947 34.165 36.434L32.8598 37.2744L31.8686 36.7112C28.6926 34.9067 24.9066 30.3327 22.4492 25.3311C20.5532 21.4722 19.5675 17.8881 19.3499 14.0613L19.2333 12.0092L25.9269 8.38934C29.6085 6.39837 32.7017 4.76905 32.8006 4.76864C32.8997 4.76802 35.8763 6.33888 39.4152 8.25912ZM35.0449 17.4353L31.8558 20.699L30.61 19.5771C29.9247 18.9601 29.1583 18.4014 28.9063 18.3356C27.6796 18.0148 26.4131 18.9963 26.4131 20.2677C26.4131 21.2586 26.6997 21.6337 29.1678 23.8729C30.9483 25.4881 31.1587 25.6197 31.9582 25.6197C32.8144 25.6197 32.8606 25.5805 36.8387 21.48C39.4197 18.8197 40.9156 17.1211 41.0247 16.7269C41.4148 15.3188 40.557 14.1715 39.114 14.1715C38.2461 14.1715 38.1893 14.2171 35.0449 17.4353ZM82.5707 18.4489C81.3455 19.6795 82.0088 21.6417 83.7282 21.8733C84.4531 21.971 84.6548 21.9044 85.2495 21.3706C85.8223 20.8567 85.9354 20.6136 85.9354 19.8956C85.9354 19.1842 85.8215 18.934 85.2752 18.4437C84.3717 17.6328 83.3814 17.6346 82.5707 18.4489ZM15.0115 58.8916C15.4011 59.088 15.9278 59.5615 16.1818 59.9436L16.6438 60.6382L16.643 75.0716C16.6424 89.1989 16.6336 89.5192 16.2307 90.1832C15.9781 90.5993 15.4611 91.0206 14.8931 91.2729C14.057 91.6443 13.6196 91.6776 10.3701 91.6167C6.46119 91.5433 6.02198 91.4288 5.14458 90.2544C4.7477 89.7231 4.7361 89.3475 4.68359 75.2969C4.6323 61.5557 4.64756 60.851 5.01025 60.1688C5.21927 59.7753 5.74722 59.2479 6.18337 58.9966C6.92279 58.571 7.22401 58.5399 10.6398 58.5371C13.7259 58.5344 14.4148 58.5904 15.0115 58.8916ZM63.6747 61.8705C65.7965 62.9976 65.9255 65.6926 63.9177 66.9464C63.1537 67.4238 63.1071 67.4268 55.1103 67.5284L47.071 67.6306L45.8022 68.2194C43.3241 69.3689 41.8233 71.6046 41.806 74.1725C41.7887 76.734 43.2832 79.0263 45.718 80.173L46.8675 80.7143L60.5412 80.771C75.5348 80.8331 76.1466 80.7939 78.1147 79.647C78.651 79.3344 82.31 76.089 86.246 72.4348C90.182 68.7806 93.6935 65.635 94.0492 65.4444C95.618 64.6044 97.811 64.8179 99.1693 65.9426C100.005 66.6342 100.689 67.9154 100.696 68.802C100.708 70.3649 100.47 70.6196 89.2714 81.0136C82.5933 87.212 78.1678 91.1711 77.6189 91.4378C76.1879 92.1337 73.9036 92.2619 63.0479 92.2564C45.5116 92.2474 38.2624 91.8831 35.6479 90.8793C35.1022 90.67 31.5192 89.0848 27.6851 87.3568L20.7144 84.2148V74.7678V65.3208L21.803 64.3213C22.4018 63.7716 23.4872 63.0274 24.215 62.6674C26.7766 61.4008 26.2659 61.4312 45.36 61.4124L62.7802 61.3954L63.6747 61.8705Z" fill="url(#paint0_linear_1888_6246)"/>
<defs>
<linearGradient id="paint0_linear_1888_6246" x1="0.666992" y1="48.3369" x2="104.667" y2="48.3369" gradientUnits="userSpaceOnUse">
<stop stop-color="#041A47"/>
<stop offset="1" stop-color="#0A3FAD"/>
</linearGradient>
</defs>
</svg>
