<svg width="42" height="41" viewBox="0 0 42 41" fill="none" xmlns="http://www.w3.org/2000/svg">
<g clip-path="url(#clip0_1888_9135)">
<path opacity="0.2" d="M21.0006 25.6653C26.5524 25.6653 31.053 21.1647 31.053 15.6129C31.053 10.0611 26.5524 5.56055 21.0006 5.56055C15.4488 5.56055 10.9482 10.0611 10.9482 15.6129C10.9482 21.1647 15.4488 25.6653 21.0006 25.6653Z" fill="white"/>
<path d="M28.5391 9.33008H36.0783" stroke="white" stroke-width="2.51309" stroke-linecap="round" stroke-linejoin="round"/>
<path d="M32.3086 5.56055V13.0998" stroke="white" stroke-width="2.51309" stroke-linecap="round" stroke-linejoin="round"/>
<path d="M5.7627 34.4604C7.30755 31.7864 9.52889 29.566 12.2036 28.0223C14.8782 26.4786 17.912 25.666 21.0002 25.666C24.0884 25.666 27.1222 26.4788 29.7968 28.0225C32.4714 29.5662 34.6927 31.7867 36.2375 34.4607" stroke="white" stroke-width="2.51309" stroke-linecap="round" stroke-linejoin="round"/>
<path d="M30.4326 19.0971C29.7607 20.9114 28.5792 22.493 27.0301 23.6521C25.4811 24.8112 23.6303 25.4983 21.7002 25.6311C19.7701 25.7638 17.8426 25.3364 16.1495 24.4003C14.4564 23.4641 13.0695 22.0591 12.1556 20.3539C11.2417 18.6487 10.8395 16.7158 10.9974 14.7876C11.1553 12.8594 11.8666 11.0177 13.0458 9.48393C14.225 7.95014 15.8219 6.78942 17.6448 6.14123C19.4677 5.49303 21.4389 5.38492 23.3217 5.8299" stroke="white" stroke-width="2.51309" stroke-linecap="round" stroke-linejoin="round"/>
</g>
<defs>
<clipPath id="clip0_1888_9135">
<rect width="40.2094" height="40.2094" fill="white" transform="translate(0.895508 0.535156)"/>
</clipPath>
</defs>
</svg>
