<svg width="49" height="49" viewBox="0 0 49 49" fill="none" xmlns="http://www.w3.org/2000/svg">
<g clip-path="url(#clip0_1888_9147)">
<path opacity="0.2" d="M10.2436 37.813C8.51789 36.0872 9.66252 32.4641 8.78412 30.3411C7.87355 28.1404 4.53223 26.3691 4.53223 24.0243C4.53223 21.6796 7.87356 19.9084 8.78413 17.7077C9.66253 15.5847 8.5179 11.9616 10.2436 10.2358C11.9694 8.51008 15.5925 9.6547 17.7155 8.77631C19.9163 7.86573 21.6876 4.52441 24.0323 4.52441C26.377 4.52441 28.1482 7.86575 30.349 8.77632C32.4719 9.65471 36.0951 8.51008 37.8208 10.2358C39.5466 11.9616 38.4019 15.5847 39.2803 17.7077C40.1909 19.9085 43.5322 21.6797 43.5322 24.0245C43.5322 26.3692 40.1909 28.1404 39.2803 30.3411C38.4019 32.4641 39.5466 36.0872 37.8208 37.813C36.0951 39.5387 32.4719 38.3941 30.3489 39.2725C28.1482 40.1831 26.3769 43.5244 24.0322 43.5244C21.6874 43.5244 19.9162 40.1831 17.7155 39.2725C15.5925 38.3941 11.9694 39.5387 10.2436 37.813Z" fill="url(#paint0_linear_1888_9147)"/>
<path d="M10.2436 37.813C8.51789 36.0872 9.66252 32.4641 8.78412 30.3411C7.87355 28.1404 4.53223 26.3691 4.53223 24.0243C4.53223 21.6796 7.87357 19.9084 8.78413 17.7077C9.66253 15.5847 8.5179 11.9616 10.2436 10.2358C11.9694 8.51008 15.5925 9.6547 17.7155 8.77631C19.9163 7.86573 21.6876 4.52441 24.0323 4.52441C26.377 4.52441 28.1482 7.86575 30.349 8.77632C32.4719 9.65471 36.0951 8.51008 37.8208 10.2358C39.5466 11.9616 38.4019 15.5847 39.2803 17.7077C40.1909 19.9085 43.5322 21.6797 43.5322 24.0245C43.5322 26.3692 40.1909 28.1404 39.2803 30.3411C38.4019 32.4641 39.5466 36.0872 37.8208 37.813C36.0951 39.5387 32.4719 38.3941 30.3489 39.2725C28.1482 40.1831 26.3769 43.5244 24.0322 43.5244C21.6874 43.5244 19.9162 40.1831 17.7155 39.2725C15.5925 38.3941 11.9694 39.5387 10.2436 37.813Z" stroke="url(#paint1_linear_1888_9147)" stroke-width="2.51309" stroke-linecap="round" stroke-linejoin="round"/>
<path d="M32.2822 19.5254L21.2822 30.0254L15.7822 24.7754" stroke="url(#paint2_linear_1888_9147)" stroke-width="2.51309" stroke-linecap="round" stroke-linejoin="round"/>
</g>
<defs>
<linearGradient id="paint0_linear_1888_9147" x1="24.0322" y1="4.52441" x2="24.0322" y2="43.5244" gradientUnits="userSpaceOnUse">
<stop stop-color="#F6A649"/>
<stop offset="1" stop-color="#90612B"/>
</linearGradient>
<linearGradient id="paint1_linear_1888_9147" x1="24.0322" y1="4.52441" x2="24.0322" y2="43.5244" gradientUnits="userSpaceOnUse">
<stop stop-color="#F6A649"/>
<stop offset="1" stop-color="#90612B"/>
</linearGradient>
<linearGradient id="paint2_linear_1888_9147" x1="24.0322" y1="19.5254" x2="24.0322" y2="30.0254" gradientUnits="userSpaceOnUse">
<stop stop-color="#F6A649"/>
<stop offset="1" stop-color="#90612B"/>
</linearGradient>
<clipPath id="clip0_1888_9147">
<rect width="48" height="48" fill="white" transform="translate(0.0322266 0.0244141)"/>
</clipPath>
</defs>
</svg>
