<svg width="229" height="55" viewBox="0 0 229 55" fill="none" xmlns="http://www.w3.org/2000/svg">
<path opacity="0.4" d="M228.941 46.4616C228.974 46.981 228.58 47.4291 228.061 47.4625L219.597 48.0062C219.077 48.0395 218.629 47.6455 218.596 47.1261C218.562 46.6067 218.956 46.1586 219.476 46.1252L227 45.6419L226.516 38.1182C226.483 37.5988 226.877 37.1507 227.396 37.1173C227.916 37.0839 228.364 37.478 228.397 37.9974L228.941 46.4616ZM1.7221 54.0222C1.38732 54.4207 0.792851 54.4724 0.394337 54.1376C-0.00419239 53.8028 -0.0558739 53.2084 0.278889 52.8099L1.7221 54.0222ZM221.46 42.5004C221.045 42.1865 220.963 41.5954 221.277 41.1803C221.591 40.7651 222.182 40.6831 222.597 40.997L221.46 42.5004ZM214.205 35.0006C214.636 35.2924 214.749 35.8783 214.457 36.3093C214.165 36.7403 213.579 36.8532 213.148 36.5615L214.205 35.0006ZM200.188 28.4389C199.737 28.178 199.584 27.6014 199.845 27.151C200.106 26.7007 200.682 26.5471 201.133 26.8081L200.188 28.4389ZM192.116 21.8579C192.578 22.0977 192.758 22.6666 192.518 23.1285C192.278 23.5905 191.709 23.7705 191.247 23.5307L192.116 21.8579ZM177.42 16.9703C176.942 16.7645 176.721 16.2101 176.927 15.7321C177.133 15.254 177.687 15.0332 178.165 15.239L177.42 16.9703ZM168.611 11.4106C169.099 11.5917 169.348 12.134 169.167 12.622C168.986 13.11 168.443 13.3587 167.955 13.1777L168.611 11.4106ZM153.422 8.44485C152.921 8.30445 152.628 7.78434 152.769 7.28316C152.909 6.78197 153.429 6.4895 153.93 6.62991L153.422 8.44485ZM143.935 4.14171C144.444 4.25238 144.766 4.75438 144.656 5.26296C144.545 5.77153 144.043 6.0941 143.535 5.98343L143.935 4.14171ZM128.467 3.43528C127.95 3.37322 127.582 2.90399 127.644 2.38723C127.706 1.87046 128.175 1.50185 128.692 1.56391L128.467 3.43528ZM118.43 0.677173C118.949 0.70441 119.349 1.14784 119.321 1.66761C119.294 2.18737 118.851 2.58664 118.331 2.55941L118.43 0.677173ZM103.25 2.58055C102.73 2.61158 102.284 2.21555 102.253 1.69599C102.222 1.17644 102.618 0.730112 103.137 0.699089L103.25 2.58055ZM93.1307 1.69349C93.6462 1.62177 94.1223 1.98154 94.194 2.49705C94.2657 3.01256 93.906 3.48861 93.3904 3.56033L93.1307 1.69349ZM78.7978 6.45531C78.2938 6.58534 77.7799 6.2822 77.6499 5.77822C77.5198 5.27425 77.823 4.76029 78.327 4.63026L78.7978 6.45531ZM68.6888 7.49603C69.1821 7.32985 69.7166 7.59497 69.8828 8.08821C70.049 8.58144 69.7839 9.116 69.2906 9.28219L68.6888 7.49603ZM55.4549 14.7568C54.9812 14.9724 54.4224 14.7633 54.2067 14.2896C53.991 13.8159 54.2002 13.257 54.6739 13.0414L55.4549 14.7568ZM45.6667 17.4975C46.1256 17.2521 46.6967 17.4252 46.9421 17.8842C47.1875 18.3432 47.0144 18.9142 46.5555 19.1596L45.6667 17.4975ZM33.7464 26.7779C33.3114 27.0636 32.7271 26.9425 32.4414 26.5074C32.1557 26.0723 32.2768 25.488 32.7119 25.2024L33.7464 26.7779ZM24.4816 30.951C24.8996 30.6409 25.4899 30.7285 25.7999 31.1466C26.11 31.5646 26.0224 32.1549 25.6043 32.4649L24.4816 30.951ZM14.0261 41.8353C13.6359 42.1797 13.0404 42.1425 12.696 41.7523C12.3516 41.3621 12.3887 40.7665 12.7789 40.4221L14.0261 41.8353ZM5.43402 47.3126C5.80193 46.9445 6.39864 46.9442 6.7668 47.3121C7.13497 47.68 7.13518 48.2767 6.76728 48.6449L5.43402 47.3126ZM228 46.522C227.378 47.2297 227.378 47.2298 227.378 47.2298C227.378 47.2298 227.378 47.2298 227.378 47.2298C227.378 47.2298 227.378 47.2298 227.378 47.2297C227.378 47.2296 227.378 47.2294 227.377 47.229C227.377 47.2283 227.375 47.2272 227.374 47.2256C227.37 47.2225 227.364 47.2176 227.357 47.2109C227.341 47.1975 227.318 47.1772 227.287 47.1501C227.224 47.0958 227.129 47.0142 227.003 46.9069C226.75 46.6921 226.372 46.3742 225.872 45.9646C224.873 45.1454 223.39 43.9598 221.46 42.5004L222.597 40.997C224.548 42.4724 226.051 43.6734 227.067 44.5072C227.576 44.9241 227.963 45.2492 228.224 45.4709C228.354 45.5817 228.453 45.6668 228.52 45.7245C228.553 45.7533 228.578 45.7754 228.595 45.7904C228.604 45.7979 228.611 45.8037 228.615 45.8077C228.618 45.8096 228.619 45.8112 228.621 45.8123C228.621 45.8129 228.622 45.8133 228.622 45.8136C228.622 45.8138 228.622 45.8139 228.623 45.814C228.623 45.8141 228.623 45.8141 228.623 45.8142C228.623 45.8142 228.623 45.8143 228 46.522ZM213.148 36.5615C209.455 34.0617 205.109 31.2906 200.188 28.4389L201.133 26.8081C206.096 29.6839 210.479 32.4787 214.205 35.0006L213.148 36.5615ZM191.247 23.5307C186.945 21.2972 182.324 19.0808 177.42 16.9703L178.165 15.239C183.114 17.369 187.776 19.6051 192.116 21.8579L191.247 23.5307ZM167.955 13.1777C163.306 11.4527 158.454 9.85447 153.422 8.44485L153.93 6.62991C159.015 8.05441 163.917 9.66888 168.611 11.4106L167.955 13.1777ZM143.535 5.98343C138.646 4.91968 133.617 4.05374 128.467 3.43528L128.692 1.56391C133.904 2.18988 138.992 3.06606 143.935 4.14171L143.535 5.98343ZM118.331 2.55941C115.808 2.42721 113.261 2.35844 110.692 2.35844L110.692 0.47362C113.295 0.47362 115.875 0.543299 118.43 0.677173L118.331 2.55941ZM110.692 2.35844C108.178 2.35844 105.697 2.43442 103.25 2.58055L103.137 0.699089C105.622 0.55075 108.14 0.47362 110.692 0.47362L110.692 2.35844ZM93.3904 3.56033C88.3611 4.26003 83.493 5.24393 78.7978 6.45531L78.327 4.63026C83.0883 3.40182 88.0269 2.40355 93.1307 1.69349L93.3904 3.56033ZM69.2906 9.28219C64.4605 10.9096 59.8436 12.7587 55.4549 14.7568L54.6739 13.0414C59.1171 11.0185 63.7937 9.14534 68.6888 7.49603L69.2906 9.28219ZM46.5555 19.1596C41.9738 21.6096 37.6969 24.1839 33.7464 26.7779L32.7119 25.2024C36.7056 22.58 41.0311 19.9763 45.6667 17.4975L46.5555 19.1596ZM25.6043 32.4649C21.1648 35.7573 17.2901 38.9547 14.0261 41.8353L12.7789 40.4221C16.0787 37.5099 19.9948 34.2784 24.4816 30.951L25.6043 32.4649ZM6.76728 48.6449C5.10697 50.3064 3.84197 51.6551 2.99381 52.5864C2.56975 53.052 2.24994 53.4132 2.03708 53.6568C1.93065 53.7787 1.85096 53.8711 1.79834 53.9326C1.77204 53.9633 1.75251 53.9862 1.73978 54.0013C1.73342 54.0088 1.72876 54.0143 1.7258 54.0178C1.72434 54.0195 1.72329 54.0208 1.72266 54.0215C1.72235 54.0219 1.72216 54.0221 1.72205 54.0222C1.722 54.0223 1.72199 54.0223 1.72199 54.0223C1.72199 54.0223 1.72202 54.0223 1.72202 54.0223C1.72205 54.0222 1.7221 54.0222 1.00049 53.416C0.278889 52.8099 0.27895 52.8098 0.278995 52.8097C0.279026 52.8097 0.279087 52.8096 0.279148 52.8095C0.27927 52.8094 0.279407 52.8093 0.279575 52.8091C0.279896 52.8087 0.280338 52.8081 0.280887 52.8075C0.281986 52.8062 0.283512 52.8044 0.285465 52.8021C0.289356 52.7974 0.294987 52.7908 0.302311 52.7822C0.316959 52.7649 0.338444 52.7396 0.366733 52.7066C0.423283 52.6406 0.507007 52.5434 0.617573 52.4169C0.838703 52.1637 1.16718 51.7928 1.60033 51.3172C2.4666 50.3661 3.75167 48.9962 5.43402 47.3126L6.76728 48.6449Z" fill="url(#paint0_linear_1888_9155)"/>
<defs>
<linearGradient id="paint0_linear_1888_9155" x1="114.5" y1="1.41603" x2="114.5" y2="53.416" gradientUnits="userSpaceOnUse">
<stop stop-color="#F6A649"/>
<stop offset="1" stop-color="#90612B"/>
</linearGradient>
</defs>
</svg>
