<svg width="78" height="124" viewBox="0 0 78 124" fill="none" xmlns="http://www.w3.org/2000/svg">
<path opacity="0.4" d="M76.8721 121.07C77.2029 120.904 77.3363 120.501 77.1702 120.17L74.4633 114.78C74.2972 114.449 73.8944 114.316 73.5637 114.482C73.2329 114.648 73.0995 115.051 73.2656 115.382L75.6717 120.173L70.8807 122.579C70.55 122.745 70.4165 123.148 70.5826 123.478C70.7487 123.809 71.1515 123.943 71.4823 123.777L76.8721 121.07ZM2.07233 0.860744C2.17052 0.503896 1.96083 0.135001 1.60397 0.0368108C1.24712 -0.061365 0.878232 0.148319 0.780046 0.505181L2.07233 0.860744ZM12.1257 59.1498L12.7633 58.9437L12.1257 59.1498ZM71.7157 117.857C71.3751 117.712 70.9815 117.871 70.8366 118.211C70.6917 118.552 70.8503 118.945 71.1909 119.09L71.7157 117.857ZM64.4675 115.978C64.7986 116.143 65.2011 116.009 65.3665 115.678C65.5318 115.347 65.3975 114.944 65.0664 114.779L64.4675 115.978ZM55.4587 109.462C55.1428 109.269 54.7304 109.369 54.5376 109.685C54.3449 110.001 54.4448 110.413 54.7608 110.606L55.4587 109.462ZM48.5695 106.581C48.8738 106.792 49.2913 106.716 49.502 106.412C49.7127 106.107 49.6369 105.69 49.3326 105.479L48.5695 106.581ZM40.6127 98.8256C40.3295 98.5873 39.9068 98.6238 39.6685 98.907C39.4302 99.1902 39.4666 99.6129 39.7498 99.8512L40.6127 98.8256ZM34.25 94.897C34.5163 95.1541 34.9405 95.1467 35.1976 94.8804C35.4547 94.6142 35.4473 94.1899 35.181 93.9328L34.25 94.897ZM27.7333 85.8998C27.4977 85.6144 27.0753 85.574 26.7899 85.8097C26.5045 86.0453 26.4641 86.4677 26.6998 86.7531L27.7333 85.8998ZM22.2176 80.8519C22.4291 81.1557 22.8467 81.2305 23.1505 81.0191C23.4543 80.8076 23.5291 80.39 23.3177 80.0862L22.2176 80.8519ZM17.6656 70.7147C17.4961 70.3857 17.0919 70.2563 16.7629 70.4259C16.4339 70.5954 16.3046 70.9995 16.4741 71.3285L17.6656 70.7147ZM13.3879 64.5935C13.5263 64.9368 13.9168 65.1029 14.2601 64.9645C14.6033 64.8261 14.7694 64.4356 14.631 64.0923L13.3879 64.5935ZM10.9603 53.2236C10.8517 52.8697 10.4768 52.6709 10.123 52.7795C9.76918 52.8881 9.57037 53.263 9.67895 53.6168L10.9603 53.2236ZM7.41877 45.9505C7.51928 46.3067 7.88952 46.514 8.24573 46.4135C8.60194 46.313 8.80922 45.9427 8.70871 45.5865L7.41877 45.9505ZM5.70636 34.0525C5.62121 33.6923 5.26019 33.4693 4.9 33.5545C4.53981 33.6396 4.31685 34.0006 4.40199 34.3608L5.70636 34.0525ZM2.70015 26.5295C2.77158 26.8927 3.12389 27.1292 3.48705 27.0578C3.85021 26.9863 4.0867 26.634 4.01526 26.2708L2.70015 26.5295ZM2.16613 14.5138C2.12548 14.1459 1.79429 13.8807 1.42641 13.9213C1.05854 13.962 0.793271 14.2932 0.833926 14.661L2.16613 14.5138ZM0.315012 6.63079C0.317913 7.0009 0.62029 7.29857 0.990395 7.29566C1.3605 7.29277 1.65818 6.99039 1.65528 6.62028L0.315012 6.63079ZM76.5713 120.471C76.7821 119.835 76.7822 119.835 76.7822 119.835L76.7822 119.835C76.7822 119.835 76.7822 119.835 76.7821 119.835C76.782 119.835 76.7818 119.835 76.7814 119.834C76.7807 119.834 76.7796 119.834 76.7779 119.833C76.7747 119.832 76.7696 119.83 76.7626 119.828C76.7487 119.823 76.7275 119.816 76.6991 119.807C76.6422 119.787 76.5567 119.758 76.4437 119.718C76.2177 119.638 75.8818 119.518 75.4462 119.355C74.5748 119.029 73.3046 118.533 71.7157 117.857L71.1909 119.09C72.7994 119.775 74.0881 120.278 74.9765 120.61C75.4207 120.776 75.7648 120.9 75.9989 120.982C76.1159 121.023 76.2054 121.054 76.2661 121.075C76.2964 121.085 76.3196 121.093 76.3354 121.099C76.3433 121.101 76.3493 121.103 76.3535 121.105C76.3556 121.105 76.3573 121.106 76.3585 121.106C76.359 121.106 76.3595 121.107 76.3599 121.107C76.36 121.107 76.3602 121.107 76.3603 121.107C76.3604 121.107 76.3604 121.107 76.3604 121.107C76.3605 121.107 76.3606 121.107 76.5713 120.471ZM65.0664 114.779C62.1855 113.34 58.9242 111.576 55.4587 109.462L54.7608 110.606C58.2621 112.742 61.5568 114.524 64.4675 115.978L65.0664 114.779ZM49.3326 105.479C46.4608 103.49 43.5255 101.276 40.6127 98.8256L39.7498 99.8512C42.6975 102.331 45.6666 104.571 48.5695 106.581L49.3326 105.479ZM35.181 93.9328C32.6151 91.4553 30.1117 88.7804 27.7333 85.8998L26.6998 86.7531C29.1127 89.6756 31.6508 92.3873 34.25 94.897L35.181 93.9328ZM23.3177 80.0862C21.2728 77.1484 19.3719 74.0269 17.6656 70.7147L16.4741 71.3285C18.209 74.6962 20.1409 77.8684 22.2176 80.8519L23.3177 80.0862ZM14.631 64.0923C13.9566 62.4196 13.3323 60.7036 12.7633 58.9437L11.488 59.356C12.0668 61.1464 12.7019 62.892 13.3879 64.5935L14.631 64.0923ZM12.7633 58.9437C12.1276 56.9773 11.5272 55.0711 10.9603 53.2236L9.67895 53.6168C10.2479 55.4708 10.8503 57.3834 11.488 59.356L12.7633 58.9437ZM8.70871 45.5865C7.52684 41.398 6.53575 37.561 5.70636 34.0525L4.40199 34.3608C5.23604 37.889 6.23199 41.7446 7.41877 45.9505L8.70871 45.5865ZM4.01526 26.2708C3.10417 21.6391 2.52357 17.7483 2.16613 14.5138L0.833926 14.661C1.19586 17.9362 1.78246 21.8643 2.70015 26.5295L4.01526 26.2708ZM1.65528 6.62028C1.63896 4.53625 1.74796 3.07902 1.85871 2.15137C1.91408 1.68758 1.96987 1.35624 2.01063 1.1452C2.03101 1.03968 2.04763 0.964227 2.05855 0.917317C2.06402 0.893869 2.06806 0.877568 2.07044 0.868189C2.07162 0.863507 2.0724 0.860563 2.07273 0.859334C2.07289 0.85872 2.07294 0.858527 2.07287 0.858757C2.07284 0.858879 2.07278 0.859107 2.07269 0.859441C2.07265 0.8596 2.0726 0.859793 2.07253 0.860005C2.07251 0.860126 2.07246 0.860304 2.07244 0.860357C2.07239 0.86055 2.07233 0.860744 1.42619 0.682963C0.780046 0.505181 0.779989 0.505392 0.779928 0.505604C0.779903 0.505677 0.779843 0.505904 0.779798 0.506063C0.779712 0.506396 0.779618 0.506747 0.779513 0.507118C0.77931 0.507873 0.779079 0.508733 0.778815 0.509685C0.778297 0.511616 0.777671 0.513967 0.776938 0.516738C0.775471 0.52228 0.773587 0.529528 0.77131 0.538491C0.766755 0.556416 0.760644 0.581244 0.75321 0.613154C0.738343 0.676974 0.71818 0.769094 0.694632 0.891046C0.647527 1.13492 0.586865 1.49808 0.527843 1.99249C0.409804 2.98125 0.298285 4.49531 0.315012 6.63079L1.65528 6.62028Z" fill="url(#paint0_linear_1888_16847)"/>
<defs>
<linearGradient id="paint0_linear_1888_16847" x1="15.0862" y1="68.3074" x2="55.4856" y2="55.247" gradientUnits="userSpaceOnUse">
<stop stop-color="#F6A649"/>
<stop offset="1" stop-color="#90612B"/>
</linearGradient>
</defs>
</svg>
