<svg width="58" height="159" viewBox="0 0 58 159" fill="none" xmlns="http://www.w3.org/2000/svg">
<path opacity="0.4" d="M41.5431 158.188C41.1881 158.293 40.8155 158.09 40.711 157.735L39.0074 151.949C38.9029 151.594 39.1059 151.221 39.461 151.117C39.816 151.012 40.1886 151.215 40.2931 151.57L41.8074 156.713L46.9504 155.199C47.3054 155.094 47.678 155.297 47.7825 155.652C47.8871 156.007 47.684 156.38 47.329 156.485L41.5431 158.188ZM0.690803 1.76753C0.361908 1.59777 0.232904 1.19354 0.402656 0.864647C0.572408 0.53575 0.976644 0.406751 1.30554 0.576497L0.690803 1.76753ZM54.2569 69.1081L54.9106 68.9604L54.2569 69.1081ZM43.1184 152.379C43.2711 152.041 43.6682 151.892 44.0053 152.045C44.3425 152.197 44.492 152.594 44.3393 152.931L43.1184 152.379ZM47.1834 146.171C47.0486 146.515 46.6599 146.685 46.3152 146.551C45.9705 146.416 45.8004 146.027 45.9352 145.682L47.1834 146.171ZM49.5382 135.42C49.6486 135.066 50.0245 134.87 50.3777 134.98C50.731 135.09 50.9279 135.466 50.8174 135.82L49.5382 135.42ZM52.838 128.789C52.744 129.147 52.3777 129.361 52.0197 129.268C51.6617 129.174 51.4476 128.807 51.5416 128.449L52.838 128.789ZM53.9252 117.83C53.993 117.466 54.3429 117.226 54.7068 117.294C55.0706 117.362 55.3106 117.712 55.2428 118.076L53.9252 117.83ZM56.401 110.849C56.3519 111.215 56.0147 111.473 55.6478 111.424C55.281 111.375 55.0234 111.038 55.0726 110.671L56.401 110.849ZM56.0778 99.8482C56.0967 99.4786 56.4116 99.1942 56.7812 99.2131C57.1509 99.2319 57.4352 99.5468 57.4164 99.9165L56.0778 99.8482ZM57.5759 92.5937C57.5789 92.9638 57.2812 93.2662 56.9111 93.2692C56.541 93.2721 56.2386 92.9745 56.2356 92.6044L57.5759 92.5937ZM55.6419 81.7539C55.6039 81.3857 55.8716 81.0565 56.2398 81.0186C56.608 80.9806 56.9372 81.2483 56.9751 81.6165L55.6419 81.7539ZM55.9819 74.3593C56.0445 74.724 55.7995 75.0705 55.4347 75.133C55.0699 75.1956 54.7235 74.9506 54.6609 74.5858L55.9819 74.3593ZM52.2828 64.1283C52.1799 63.7728 52.3846 63.4012 52.7402 63.2982C53.0957 63.1953 53.4673 63.4001 53.5703 63.7556L52.2828 64.1283ZM51.3124 56.9706C51.4429 57.3169 51.2679 57.7035 50.9216 57.834C50.5753 57.9645 50.1887 57.7896 50.0582 57.4433L51.3124 56.9706ZM45.7633 47.7751C45.5941 47.4459 45.7238 47.0419 46.053 46.8727C46.3822 46.7036 46.7862 46.8333 46.9554 47.1625L45.7633 47.7751ZM43.4572 40.9263C43.6498 41.2424 43.5496 41.6547 43.2336 41.8473C42.9175 42.0399 42.5051 41.9397 42.3126 41.6237L43.4572 40.9263ZM36.347 32.8847C36.1232 32.59 36.1807 32.1696 36.4755 31.9457C36.7703 31.7219 37.1907 31.7794 37.4145 32.0742L36.347 32.8847ZM32.912 26.5248C33.1542 26.8047 33.1236 27.228 32.8437 27.4701C32.5638 27.7123 32.1406 27.6817 31.8984 27.4018L32.912 26.5248ZM24.6068 19.711C24.3405 19.454 24.3329 19.0298 24.5899 18.7634C24.847 18.4971 25.2712 18.4895 25.5375 18.7465L24.6068 19.711ZM20.2603 13.9386C20.5409 14.18 20.5727 14.6031 20.3313 14.8837C20.0899 15.1643 19.6668 15.196 19.3862 14.9546L20.2603 13.9386ZM11.0722 8.39213C10.7721 8.17542 10.7046 7.75651 10.9213 7.45648C11.138 7.15644 11.5569 7.08887 11.8569 7.30559L11.0722 8.39213ZM5.92646 3.29078C6.23948 3.48826 6.33314 3.90211 6.13565 4.21514C5.93816 4.52817 5.5243 4.62183 5.21128 4.42433L5.92646 3.29078ZM41.3538 157.545C40.7654 157.225 40.7654 157.225 40.7654 157.225C40.7654 157.225 40.7654 157.225 40.7654 157.225C40.7654 157.225 40.7654 157.225 40.7654 157.224C40.7655 157.224 40.7656 157.224 40.7658 157.224C40.7661 157.223 40.7667 157.222 40.7675 157.221C40.7692 157.218 40.7717 157.213 40.7751 157.207C40.782 157.194 40.7924 157.175 40.8063 157.148C40.8341 157.096 40.8758 157.018 40.9305 156.913C41.0399 156.705 41.2011 156.392 41.407 155.982C41.8186 155.16 42.4086 153.946 43.1184 152.379L44.3393 152.931C43.6217 154.516 43.0242 155.746 42.6052 156.582C42.3957 157 42.2308 157.32 42.1179 157.535C42.0614 157.643 42.0179 157.725 41.9884 157.78C41.9736 157.808 41.9623 157.829 41.9545 157.843C41.9507 157.85 41.9477 157.856 41.9457 157.86C41.9446 157.862 41.9438 157.863 41.9433 157.864C41.943 157.865 41.9428 157.865 41.9426 157.865C41.9425 157.866 41.9424 157.866 41.9424 157.866C41.9424 157.866 41.9423 157.866 41.9423 157.866C41.9423 157.866 41.9423 157.866 41.3538 157.545ZM45.9352 145.682C47.0904 142.729 48.3314 139.28 49.5382 135.42L50.8174 135.82C49.6005 139.713 48.3488 143.191 47.1834 146.171L45.9352 145.682ZM51.5416 128.449C52.4165 125.115 53.2297 121.562 53.9252 117.83L55.2428 118.076C54.5409 121.842 53.7205 125.426 52.838 128.789L51.5416 128.449ZM55.0726 110.671C55.5406 107.176 55.8886 103.559 56.0778 99.8482L57.4164 99.9165C57.2252 103.667 56.8735 107.32 56.401 110.849L55.0726 110.671ZM56.2356 92.6044C56.2074 89.0469 56.0199 85.4228 55.6419 81.7539L56.9751 81.6165C57.3578 85.33 57.5474 88.9965 57.5759 92.5937L56.2356 92.6044ZM54.6609 74.5858C54.3573 72.8153 54.0058 71.0379 53.6032 69.2558L54.9106 68.9604C55.3185 70.7658 55.6744 72.5662 55.9819 74.3593L54.6609 74.5858ZM53.6032 69.2558C53.2093 67.5121 52.7677 65.803 52.2828 64.1283L53.5703 63.7556C54.0625 65.4555 54.5107 67.1904 54.9106 68.9604L53.6032 69.2558ZM50.0582 57.4433C48.7847 54.0644 47.3393 50.842 45.7633 47.7751L46.9554 47.1625C48.5536 50.2726 50.02 53.5417 51.3124 56.9706L50.0582 57.4433ZM42.3126 41.6237C40.4268 38.5284 38.4207 35.6157 36.347 32.8847L37.4145 32.0742C39.5139 34.8391 41.5461 37.7894 43.4572 40.9263L42.3126 41.6237ZM31.8984 27.4018C29.481 24.6078 27.0252 22.0446 24.6068 19.711L25.5375 18.7465C27.9824 21.1057 30.4662 23.698 32.912 26.5248L31.8984 27.4018ZM19.3862 14.9546C16.4068 12.3912 13.5818 10.2047 11.0722 8.39213L11.8569 7.30559C14.394 9.13802 17.2492 11.3479 20.2603 13.9386L19.3862 14.9546ZM5.21128 4.42433C3.79863 3.53307 2.66487 2.86698 1.88602 2.42463C1.49661 2.20345 1.19596 2.03822 0.99358 1.92877C0.892388 1.87404 0.815769 1.83325 0.764912 1.80638C0.73948 1.79295 0.720494 1.783 0.708093 1.77653C0.701888 1.77328 0.697337 1.77092 0.694447 1.76941C0.693005 1.76867 0.691977 1.76814 0.69137 1.76782C0.691063 1.76766 0.690865 1.76756 0.69077 1.7675C0.690723 1.76748 0.690704 1.76747 0.690708 1.76747C0.690711 1.76749 0.690737 1.7675 0.690737 1.7675C0.690767 1.7675 0.690803 1.76753 0.998171 1.17201C1.30554 0.576497 1.30559 0.576531 1.30564 0.576551C1.30567 0.576575 1.30574 0.576608 1.30579 0.576627C1.3059 0.576681 1.30604 0.576759 1.3062 0.576847C1.30653 0.577008 1.30696 0.577239 1.30749 0.577509C1.30857 0.578064 1.31006 0.578837 1.31197 0.579829C1.31579 0.581814 1.32128 0.584672 1.32842 0.588393C1.3427 0.595851 1.36359 0.606807 1.39092 0.621249C1.44559 0.650117 1.52609 0.692971 1.63121 0.749832C1.84145 0.863537 2.15021 1.03326 2.54797 1.25917C3.34345 1.71099 4.49504 2.38767 5.92646 3.29078L5.21128 4.42433Z" fill="url(#paint0_linear_1888_16846)"/>
<defs>
<linearGradient id="paint0_linear_1888_16846" x1="54.8537" y1="71.7498" x2="18.7851" y2="79.8988" gradientUnits="userSpaceOnUse">
<stop stop-color="#F6A649"/>
<stop offset="1" stop-color="#90612B"/>
</linearGradient>
</defs>
</svg>
