<svg width="201" height="40" viewBox="0 0 201 40" fill="none" xmlns="http://www.w3.org/2000/svg">
<path opacity="0.4" d="M200.957 6.86837C201.021 6.3518 200.654 5.88144 200.137 5.8178L191.719 4.78063C191.203 4.71699 190.732 5.08416 190.669 5.60073C190.605 6.11731 190.972 6.58766 191.489 6.65131L198.972 7.57323L198.05 15.0559C197.986 15.5725 198.353 16.0428 198.87 16.1065C199.386 16.1701 199.857 15.803 199.92 15.2864L200.957 6.86837ZM1.9572 0.618312C1.61625 0.225055 1.02105 0.182653 0.627809 0.523607C0.23455 0.864558 0.192155 1.45975 0.533096 1.853L1.9572 0.618312ZM78.0012 34.3244L78.2574 33.4175L78.0012 34.3244ZM193.176 10.3957C192.741 10.6812 192.62 11.2654 192.905 11.7006C193.19 12.1358 193.775 12.2573 194.21 11.9718L193.176 10.3957ZM185.323 17.4105C185.775 17.1521 185.932 16.5764 185.673 16.1246C185.415 15.6728 184.839 15.5161 184.387 15.7745L185.323 17.4105ZM170.672 22.8685C170.2 23.0879 169.995 23.6484 170.214 24.1204C170.434 24.5924 170.994 24.7971 171.466 24.5778L170.672 22.8685ZM161.927 28.6821C162.411 28.4905 162.648 27.9428 162.456 27.4589C162.265 26.975 161.717 26.7381 161.233 26.9297L161.927 28.6821ZM146.646 31.9424C146.146 32.0878 145.859 32.6109 146.005 33.1106C146.15 33.6104 146.673 33.8975 147.173 33.752L146.646 31.9424ZM137.086 36.3225C137.595 36.2116 137.917 35.7094 137.806 35.2008C137.695 34.6923 137.193 34.3701 136.684 34.4811L137.086 36.3225ZM121.475 36.929C120.957 36.9821 120.581 37.4449 120.634 37.9627C120.687 38.4804 121.15 38.8571 121.667 38.804L121.475 36.929ZM111.266 39.4451C111.787 39.4347 112.2 39.0044 112.19 38.484C112.179 37.9636 111.749 37.5502 111.228 37.5607L111.266 39.4451ZM95.8543 36.8637C95.3371 36.8053 94.8705 37.1773 94.8122 37.6945C94.7538 38.2117 95.1258 38.6783 95.643 38.7366L95.8543 36.8637ZM85.3553 37.0939C85.8649 37.1997 86.3638 36.8724 86.4697 36.3628C86.5755 35.8532 86.2482 35.3543 85.7386 35.2484L85.3553 37.0939ZM70.1581 31.0651C69.6594 30.9161 69.1343 31.1997 68.9854 31.6984C68.8364 32.1971 69.1199 32.7221 69.6186 32.8711L70.1581 31.0651ZM58.8855 29.5355C59.3807 29.6957 59.9121 29.4242 60.0723 28.929C60.2326 28.4338 59.9611 27.9025 59.4659 27.7422L58.8855 29.5355ZM43.6283 22.2579C43.1404 22.0765 42.5979 22.325 42.4166 22.8129C42.2353 23.3007 42.4837 23.8432 42.9716 24.0246L43.6283 22.2579ZM32.481 19.907C32.9616 20.1067 33.5132 19.8789 33.7129 19.3983C33.9126 18.9176 33.6848 18.3661 33.2042 18.1664L32.481 19.907ZM18.0053 11.1588C17.5431 10.9194 16.9744 11.1 16.735 11.5621C16.4956 12.0243 16.6762 12.593 17.1384 12.8324L18.0053 11.1588ZM7.33769 7.17548C7.77299 7.46079 8.35717 7.33919 8.64248 6.90388C8.92779 6.46858 8.8062 5.8844 8.3709 5.59908L7.33769 7.17548ZM200.022 6.75313C199.442 6.01026 199.442 6.01023 199.442 6.0102C199.442 6.0102 199.442 6.01018 199.442 6.01018C199.442 6.01018 199.442 6.01021 199.442 6.01026C199.442 6.01037 199.442 6.01058 199.441 6.0109C199.441 6.01154 199.439 6.0126 199.437 6.01408C199.433 6.01705 199.428 6.0217 199.419 6.02801C199.403 6.04062 199.378 6.05987 199.345 6.08555C199.278 6.13691 199.176 6.214 199.042 6.31521C198.772 6.51765 198.369 6.81657 197.839 7.19916C196.778 7.96436 195.207 9.06406 193.176 10.3957L194.21 11.9718C196.265 10.6237 197.859 9.50812 198.941 8.72793C199.482 8.33783 199.895 8.03155 200.174 7.82195C200.313 7.71715 200.419 7.63651 200.491 7.58165C200.527 7.55422 200.554 7.53324 200.573 7.5189C200.582 7.51172 200.589 7.50622 200.594 7.50239C200.596 7.50048 200.598 7.49899 200.6 7.49792C200.6 7.49739 200.601 7.49696 200.601 7.49664C200.601 7.49648 200.602 7.49635 200.602 7.49624C200.602 7.49619 200.602 7.49613 200.602 7.4961C200.602 7.49605 200.602 7.496 200.022 6.75313ZM184.387 15.7745C180.457 18.023 175.848 20.4625 170.672 22.8685L171.466 24.5778C176.696 22.1469 181.352 19.6823 185.323 17.4105L184.387 15.7745ZM161.233 26.9297C156.666 28.7386 151.786 30.4461 146.646 31.9424L147.173 33.752C152.374 32.2378 157.31 30.5106 161.927 28.6821L161.233 26.9297ZM136.684 34.4811C131.784 35.5507 126.701 36.3933 121.475 36.929L121.667 38.804C126.969 38.2605 132.122 37.4061 137.086 36.3225L136.684 34.4811ZM111.228 37.5607C106.196 37.6617 101.061 37.4509 95.8543 36.8637L95.643 38.7366C100.937 39.3337 106.155 39.5477 111.266 39.4451L111.228 37.5607ZM85.7386 35.2484C83.2553 34.7327 80.7605 34.1246 78.2574 33.4175L77.745 35.2313C80.2914 35.9507 82.8292 36.5692 85.3553 37.0939L85.7386 35.2484ZM78.2574 33.4175C75.4607 32.6274 72.762 31.8429 70.1581 31.0651L69.6186 32.8711C72.2317 33.6516 74.9395 34.4387 77.745 35.2313L78.2574 33.4175ZM59.4659 27.7422C53.6432 25.8578 48.3805 24.0243 43.6283 22.2579L42.9716 24.0246C47.7504 25.8009 53.0386 27.6432 58.8855 29.5355L59.4659 27.7422ZM33.2042 18.1664C27.0741 15.6194 22.0686 13.2637 18.0053 11.1588L17.1384 12.8324C21.2528 14.9637 26.3066 17.3416 32.481 19.907L33.2042 18.1664ZM8.3709 5.59908C5.9197 3.9925 4.29969 2.72824 3.30066 1.87503C2.80119 1.44846 2.45704 1.12472 2.24189 0.9124C2.13432 0.806243 2.05901 0.727942 2.01266 0.67857C1.98947 0.653881 1.97354 0.636428 1.96443 0.62634C1.95988 0.621297 1.95704 0.618096 1.95585 0.616752C1.95525 0.616078 1.95507 0.615871 1.9553 0.61613C1.95542 0.616262 1.95564 0.616508 1.95595 0.616869C1.9561 0.61705 1.95629 0.617264 1.9565 0.617502C1.95661 0.617623 1.95679 0.617827 1.95683 0.617886C1.95701 0.618094 1.9572 0.618312 1.24515 1.23566C0.533096 1.853 0.5333 1.85323 0.533502 1.85347C0.533587 1.85356 0.533803 1.85381 0.533944 1.85398C0.534256 1.85434 0.534591 1.85472 0.53495 1.85514C0.535668 1.85596 0.536496 1.85691 0.537419 1.85796C0.539265 1.86007 0.541521 1.86263 0.544203 1.86566C0.549537 1.8717 0.556546 1.87955 0.565265 1.88921C0.582689 1.90852 0.606973 1.93504 0.638504 1.96863C0.70158 2.03581 0.793644 2.13126 0.917958 2.25394C1.16657 2.4993 1.54417 2.85356 2.07661 3.30829C3.14145 4.2177 4.82599 5.52924 7.33769 7.17548L8.3709 5.59908Z" fill="url(#paint0_linear_1888_9156)"/>
<defs>
<linearGradient id="paint0_linear_1888_9156" x1="91.0255" y1="38.0039" x2="107.258" y2="-19.4539" gradientUnits="userSpaceOnUse">
<stop stop-color="#F6A649"/>
<stop offset="1" stop-color="#90612B"/>
</linearGradient>
</defs>
</svg>
