<svg width="209" height="208" viewBox="0 0 209 208" fill="none" xmlns="http://www.w3.org/2000/svg">
<path d="M121.881 17.3574C137.74 17.3499 153.123 22.7799 165.464 32.7418C177.805 42.7038 186.357 56.5955 189.694 72.1001C193.032 87.6048 190.953 103.785 183.804 117.942C176.656 132.1 164.869 143.378 150.411 149.897C145.79 160.114 138.759 169.058 129.922 175.961C121.085 182.864 110.705 187.521 99.6734 189.532C88.6414 191.543 77.2862 190.849 66.5817 187.507C55.8772 184.166 46.1429 178.278 38.2135 170.349C30.2842 162.42 24.3964 152.685 21.0553 141.981C17.7141 131.276 17.0193 119.921 19.0303 108.889C21.0413 97.8573 25.6981 87.4777 32.6015 78.6406C39.5049 69.8036 48.4487 62.7729 58.6659 58.1514C64.1591 45.9892 73.0457 35.6707 84.2589 28.4345C95.472 21.1984 108.535 17.3521 121.881 17.3574ZM87.2139 69.3574C73.4226 69.3574 60.1962 74.836 50.4443 84.5879C40.6924 94.3398 35.2139 107.566 35.2139 121.357C35.2139 135.149 40.6924 148.375 50.4443 158.127C60.1962 167.879 73.4226 173.357 87.2139 173.357C101.005 173.357 114.232 167.879 123.983 158.127C133.735 148.375 139.214 135.149 139.214 121.357C139.214 107.566 133.735 94.3398 123.983 84.5879C114.232 74.836 101.005 69.3574 87.2139 69.3574ZM121.881 34.6908C114.537 34.6892 107.276 36.2431 100.577 39.2501C93.8771 42.2571 87.8903 46.649 83.0106 52.1368C92.8062 51.5421 102.616 53.0337 111.793 56.513C120.969 59.9922 129.302 65.3798 136.241 72.3195C143.18 79.2592 148.566 87.5929 152.044 96.7695C155.523 105.946 157.013 115.757 156.417 125.552C164.297 118.546 169.861 109.31 172.371 99.0695C174.881 88.8286 174.219 78.0667 170.471 68.211C166.724 58.3553 160.07 49.8716 151.39 43.8851C142.71 37.8985 132.416 34.692 121.872 34.6908" fill="#FFAA45"/>
<circle cx="86.7727" cy="121.728" r="60.2727" fill="#001749" stroke="#FFAA45" stroke-width="5" stroke-linejoin="round" stroke-dasharray="17 17"/>
<path d="M101.689 99.29C105.023 99.29 108.357 99.2587 111.691 99.2963C117.442 99.361 122.754 100.877 127.469 104.243C132.738 108.004 135.926 113.112 137.085 119.451C138.05 124.728 137.672 129.922 135.619 134.919C133.206 140.791 128.967 144.923 123.252 147.588C119.573 149.302 115.679 150.071 111.63 150.077C104.241 150.087 96.8504 150.077 89.4615 150.094C89.0269 150.094 88.9016 149.979 88.9016 149.538C88.9162 144.965 88.9162 140.394 88.9016 135.821C88.9016 135.391 89.006 135.263 89.451 135.265C94.3226 135.282 99.1922 135.282 104.064 135.265C104.519 135.265 104.617 135.407 104.607 135.827C104.584 136.729 104.605 136.729 105.499 136.729C107.277 136.729 109.055 136.704 110.832 136.733C115.779 136.815 119.842 133.541 121.175 128.746C122.132 125.303 121.994 121.88 120.396 118.639C118.679 115.156 115.882 113.078 111.954 112.715C109.629 112.5 107.289 112.677 104.958 112.627C104.64 112.621 104.605 112.778 104.594 113.037C104.551 114.095 104.544 114.095 103.504 114.095C98.8559 114.095 94.2057 114.089 89.5575 114.106C89.0771 114.106 88.8932 114.02 88.8953 113.481C88.9183 108.946 88.9183 104.41 88.8953 99.8768C88.8932 99.3736 89.0416 99.2733 89.5158 99.2754C93.5727 99.2942 97.6275 99.2859 101.684 99.2859L101.689 99.29Z" fill="#F6A649"/>
<path d="M62.9349 99.288C70.5473 99.288 78.1598 99.2942 85.7722 99.2754C86.2673 99.2754 86.3843 99.4028 86.3822 99.8873C86.3613 103.886 86.3613 107.885 86.3822 111.882C86.3843 112.37 86.2611 112.496 85.7681 112.494C80.8588 112.475 75.9517 112.489 71.0424 112.469C70.539 112.467 70.4387 112.613 70.4387 113.089C70.4512 124.973 70.445 136.859 70.4638 148.743C70.4638 149.313 70.3134 149.436 69.7639 149.434C65.0406 149.411 60.3173 149.413 55.594 149.434C55.0759 149.436 54.9631 149.285 54.9631 148.788C54.9777 136.905 54.9694 125.019 54.9861 113.135C54.9861 112.604 54.8691 112.467 54.328 112.469C49.5859 112.494 44.8459 112.475 40.1038 112.496C39.6066 112.5 39.4979 112.368 39.5 111.886C39.5209 107.887 39.5209 103.888 39.5 99.8893C39.5 99.4195 39.5899 99.2754 40.0975 99.2754C47.71 99.2942 55.3224 99.288 62.9349 99.288Z" fill="#F6A649"/>
<path d="M82.4339 124.474C81.287 124.474 80.2697 124.465 79.2523 124.48C78.9828 124.484 78.8596 124.359 78.7426 124.146C78.2621 123.273 77.7712 122.404 77.2761 121.538C77.1466 121.31 77.063 120.955 76.6953 121.078C76.3632 121.189 76.5449 121.519 76.5366 121.74C76.5115 122.517 76.5136 123.294 76.5345 124.071C76.5428 124.388 76.4384 124.486 76.125 124.478C75.4231 124.459 74.717 124.461 74.0151 124.478C73.7205 124.484 73.5827 124.419 73.5848 124.085C73.5952 120.94 73.591 117.793 73.591 114.649C73.591 114.467 73.5555 114.267 73.8522 114.275C75.6257 114.325 77.4119 114.127 79.175 114.375C80.5914 114.573 81.6359 115.377 81.9242 116.827C82.2104 118.267 81.8302 119.554 80.5496 120.429C80.253 120.631 80.278 120.773 80.4347 121.036C81.0928 122.143 81.7341 123.26 82.4381 124.472L82.4339 124.474ZM76.5261 117.816C76.5261 118.546 76.8931 118.906 77.627 118.898C77.8109 118.896 77.9947 118.877 78.1765 118.848C78.5379 118.79 78.7614 118.568 78.8784 118.226C79.1458 117.449 78.7844 116.862 77.9676 116.756C76.593 116.576 76.5261 116.624 76.5261 117.819V117.816Z" fill="#F6A649"/>
<path d="M82.5384 130.264C82.5384 131.06 82.5008 131.857 82.5446 132.651C82.6825 135.155 80.8985 136.575 79.1186 136.882C77.8485 137.101 76.6034 137.019 75.4607 136.366C74.1906 135.639 73.4907 134.537 73.474 133.062C73.4511 131.083 73.4719 129.101 73.4594 127.121C73.4594 126.808 73.5534 126.708 73.8689 126.716C74.646 126.737 75.4252 126.746 76.2023 126.714C76.5951 126.698 76.6473 126.854 76.6452 127.19C76.6306 129.078 76.6327 130.966 76.641 132.853C76.6452 133.607 77.0755 134.161 77.7106 134.28C78.4146 134.411 79.0434 134.096 79.3192 133.486C79.4382 133.223 79.4362 132.947 79.4362 132.67C79.4362 130.855 79.4508 129.043 79.4257 127.228C79.4194 126.798 79.5511 126.695 79.9584 126.714C80.6603 126.748 81.3664 126.748 82.0683 126.714C82.4736 126.693 82.5572 126.84 82.5467 127.213C82.5217 128.23 82.5384 129.249 82.5384 130.266V130.264Z" fill="#F6A649"/>
<path d="M74.0778 144.316C74.0778 142.797 74.0882 141.279 74.0694 139.761C74.0652 139.4 74.1216 139.245 74.5394 139.25C76.7622 139.27 78.9849 139.266 81.2077 139.254C81.5586 139.252 81.7007 139.331 81.6798 139.709C81.6484 140.262 81.6547 140.82 81.6798 141.373C81.6944 141.716 81.5732 141.816 81.2369 141.812C80.0148 141.795 78.7906 141.841 77.5706 141.791C76.9084 141.764 77.1215 142.184 77.086 142.507C77.0463 142.885 77.0881 143.115 77.5915 143.092C78.6277 143.048 79.6659 143.09 80.7021 143.073C81.0322 143.067 81.1701 143.157 81.1533 143.507C81.1304 144.025 81.1283 144.545 81.1533 145.061C81.1701 145.412 81.0343 145.497 80.7021 145.491C79.6471 145.472 78.5901 145.5 77.5351 145.475C77.1654 145.466 77.0735 145.581 77.0776 145.938C77.0881 146.886 77.0714 146.888 77.9947 146.888C79.1625 146.888 80.3282 146.899 81.4959 146.882C81.8511 146.876 81.9869 146.974 81.966 147.35C81.9346 147.903 81.9409 148.461 81.9639 149.014C81.9764 149.333 81.8615 149.427 81.5503 149.427C79.198 149.417 76.8457 149.415 74.4935 149.432C74.1279 149.434 74.0715 149.3 74.0736 148.981C74.0882 147.425 74.0799 145.871 74.0799 144.316H74.0778Z" fill="#F6A649"/>
<path d="M101.244 128.621C100.45 128.621 99.821 128.612 99.1922 128.625C98.9081 128.631 98.8496 128.556 98.9352 128.274C99.1483 127.568 99.3447 126.854 99.5076 126.136C99.5745 125.843 99.7228 125.8 99.9714 125.802C100.638 125.81 101.304 125.793 101.971 125.81C102.322 125.818 102.38 125.701 102.271 125.384C101.975 124.53 101.173 123.92 100.222 123.883C99.9672 123.872 99.8628 123.795 99.961 123.555C100.226 122.907 100.483 122.254 100.784 121.621C100.945 121.285 101.265 121.249 101.599 121.385C104.01 122.379 104.914 124.81 104.239 126.691C104.001 127.355 103.796 128.166 103.253 128.51C102.666 128.884 101.816 128.564 101.244 128.621Z" fill="#F6A649"/>
<path d="M92.3339 123.674C93.2405 124.524 93.8463 125.465 93.861 126.685C93.8777 128.13 93.5288 129.504 92.8561 130.78C92.2127 132.002 91.2622 132.273 90.0318 131.624C89.146 131.158 88.5318 130.419 87.8905 129.523C88.0806 129.583 88.1495 129.594 88.2101 129.623C89.7477 130.383 90.9175 129.736 91.8931 128.65C92.5762 127.888 92.6117 127.395 91.8492 126.714C91.3019 126.226 91.3186 125.841 91.6257 125.28C91.8973 124.783 92.0895 124.242 92.336 123.674H92.3339Z" fill="#F6A649"/>
<path d="M97.0488 117.996C97.5168 120.606 97.7904 123.089 97.3267 125.597C97.1533 126.533 96.6206 127.541 95.8372 128.535C95.6408 128.456 95.7327 128.285 95.7307 128.159C95.668 125.612 95.6241 123.064 95.2418 120.539C95.2188 120.381 95.2335 120.253 95.3337 120.128C95.879 119.456 96.42 118.781 97.0488 117.998V117.996Z" fill="#F6A649"/>
</svg>
