<svg width="87" height="87" viewBox="0 0 87 87" fill="none" xmlns="http://www.w3.org/2000/svg">
<path d="M54.9811 55.4142C57.9371 55.4142 60.3361 57.8133 60.3361 60.7692V66.8953L60.3117 67.2258C59.3631 73.7344 53.5185 76.8618 43.7112 76.8618C33.9406 76.8618 28.0011 73.7712 26.719 67.339L26.6761 66.8892V60.7692C26.6761 57.8133 29.0752 55.4142 32.0311 55.4142H54.9811ZM56.4928 37.0542H74.8711C77.8271 37.0542 80.2261 39.4533 80.2261 42.4092V48.5353L80.2017 48.8658C79.2531 55.3744 73.4085 58.5018 63.6012 58.5018L63.0871 58.4956C62.6154 56.8186 61.6351 55.3291 60.2815 54.2325C58.9278 53.1358 57.2673 52.486 55.5289 52.3726L54.9811 52.3542H52.1598C53.7588 51.0649 55.0484 49.4335 55.9339 47.5801C56.8193 45.7266 57.2779 43.6983 57.2761 41.6442C57.2761 40.0347 57.0007 38.4924 56.4928 37.0542ZM12.1411 37.0542H30.5195C30.0115 38.4924 29.7361 40.0347 29.7361 41.6442C29.7361 45.714 31.5048 49.3768 34.3139 51.8952L34.8525 52.3542H32.0311C28.1694 52.3542 24.9136 54.9552 23.9221 58.5048L23.8212 58.5018C14.0506 58.5018 8.11111 55.4112 6.82897 48.979L6.78613 48.5292V42.4092C6.78613 39.4533 9.18517 37.0542 12.1411 37.0542ZM43.5061 30.9342C46.3466 30.9342 49.0707 32.0626 51.0793 34.0711C53.0878 36.0796 54.2161 38.8038 54.2161 41.6442C54.2161 44.4847 53.0878 47.2088 51.0793 49.2173C49.0707 51.2258 46.3466 52.3542 43.5061 52.3542C40.6657 52.3542 37.9415 51.2258 35.933 49.2173C33.9245 47.2088 32.7961 44.4847 32.7961 41.6442C32.7961 38.8038 33.9245 36.0796 35.933 34.0711C37.9415 32.0626 40.6657 30.9342 43.5061 30.9342ZM63.3961 12.5742C66.2366 12.5742 68.9607 13.7026 70.9693 15.7111C72.9778 17.7196 74.1061 20.4438 74.1061 23.2842C74.1061 26.1247 72.9778 28.8488 70.9693 30.8573C68.9607 32.8658 66.2366 33.9942 63.3961 33.9942C60.5557 33.9942 57.8315 32.8658 55.823 30.8573C53.8145 28.8488 52.6861 26.1247 52.6861 23.2842C52.6861 20.4438 53.8145 17.7196 55.823 15.7111C57.8315 13.7026 60.5557 12.5742 63.3961 12.5742ZM23.6161 12.5742C26.4566 12.5742 29.1807 13.7026 31.1892 15.7111C33.1978 17.7196 34.3261 20.4438 34.3261 23.2842C34.3261 26.1247 33.1978 28.8488 31.1892 30.8573C29.1807 32.8658 26.4566 33.9942 23.6161 33.9942C20.7757 33.9942 18.0515 32.8658 16.043 30.8573C14.0345 28.8488 12.9061 26.1247 12.9061 23.2842C12.9061 20.4438 14.0345 17.7196 16.043 15.7111C18.0515 13.7026 20.7757 12.5742 23.6161 12.5742Z" fill="url(#paint0_linear_1888_6603)"/>
<defs>
<linearGradient id="paint0_linear_1888_6603" x1="43.5061" y1="12.5742" x2="43.5061" y2="76.8618" gradientUnits="userSpaceOnUse">
<stop stop-color="#F6A649"/>
<stop offset="1" stop-color="#90612B"/>
</linearGradient>
</defs>
</svg>
