<svg width="28" height="29" viewBox="0 0 28 29" fill="none" xmlns="http://www.w3.org/2000/svg">
<path fill-rule="evenodd" clip-rule="evenodd" d="M6.28292 3.80977C5.22904 3.80977 4.37474 4.66407 4.37474 5.71795V13.73H25.674C25.9062 13.73 26.1288 13.8222 26.2929 13.9863C26.4571 14.1505 26.5493 14.3731 26.5493 14.6053C26.5493 14.8374 26.4571 15.0601 26.2929 15.2242C26.1288 15.3884 25.9062 15.4806 25.674 15.4806H25.3612C25.3694 15.5331 25.3741 15.5856 25.3776 15.6393C25.3822 15.707 25.3822 15.7794 25.3822 15.8494V15.8949C25.3822 16.3326 25.3822 16.5893 25.3636 16.8753C25.1978 19.4849 23.788 21.8961 21.7444 23.4716C21.7606 23.4973 21.7754 23.5238 21.7888 23.551L22.9559 25.8852C23.0083 25.9881 23.0398 26.1004 23.0486 26.2156C23.0574 26.3308 23.0433 26.4466 23.0071 26.5563C22.9709 26.666 22.9134 26.7675 22.8378 26.8548C22.7623 26.9422 22.6701 27.0137 22.5668 27.0653C22.4634 27.1169 22.3509 27.1476 22.2356 27.1555C22.1204 27.1634 22.0047 27.1484 21.8953 27.1114C21.7859 27.0743 21.6848 27.016 21.5981 26.9398C21.5113 26.8635 21.4404 26.7708 21.3896 26.6671L20.2599 24.4088C19.0923 25.0055 17.8036 25.3269 16.4926 25.3483H16.4844C15.6208 25.381 14.7758 25.4008 14.0032 25.4008C13.2306 25.4008 12.3856 25.381 11.522 25.3483H11.5138C10.2027 25.3269 8.91401 25.0055 7.74644 24.4088L6.61671 26.6671C6.56591 26.7708 6.49508 26.8635 6.4083 26.9398C6.32152 27.016 6.2205 27.0743 6.11107 27.1114C6.00164 27.1484 5.88597 27.1634 5.77072 27.1555C5.65547 27.1476 5.54292 27.1169 5.43957 27.0653C5.33621 27.0137 5.24409 26.9422 5.16852 26.8548C5.09295 26.7675 5.03542 26.666 4.99925 26.5563C4.96308 26.4466 4.94899 26.3308 4.95778 26.2156C4.96657 26.1004 4.99808 25.9881 5.05048 25.8852L6.21756 23.551C6.23098 23.5238 6.24578 23.4973 6.26191 23.4716C4.21835 21.8961 2.80735 19.4849 2.64279 16.8753C2.62595 16.5488 2.61972 16.2218 2.62411 15.8949V15.4806H2.33234C2.1002 15.4806 1.87756 15.3884 1.7134 15.2242C1.54925 15.0601 1.45703 14.8374 1.45703 14.6053C1.45703 14.3731 1.54925 14.1505 1.7134 13.9863C1.87756 13.8222 2.1002 13.73 2.33234 13.73H2.62411V5.71795C2.62405 4.86755 2.9202 4.04368 3.46168 3.38795C4.00317 2.73223 4.75615 2.28559 5.59122 2.12482C6.42628 1.96405 7.29127 2.09919 8.03751 2.507C8.78374 2.91481 9.36462 3.56982 9.6803 4.35946L9.80868 4.68041C10.7665 4.4359 11.7783 4.51467 12.6867 4.90449C13.2522 5.14822 13.7634 5.50213 14.1906 5.94557C14.6178 6.38901 14.9524 6.9131 15.1749 7.48725C15.258 7.69869 15.2557 7.93416 15.1683 8.14389C15.081 8.35362 14.9155 8.52117 14.7069 8.61115L7.75111 11.6059C7.64345 11.6524 7.52754 11.6768 7.41026 11.6776C7.29299 11.6785 7.17674 11.6557 7.06842 11.6108C6.9601 11.5658 6.86192 11.4996 6.77971 11.4159C6.69751 11.3323 6.63294 11.233 6.58986 11.1239C6.1312 9.95711 6.13956 8.65851 6.61321 7.49775C6.94587 6.6709 7.50338 5.9537 8.22261 5.42734L8.05455 5.00953C7.91296 4.6554 7.6685 4.35183 7.35272 4.13797C7.03693 3.92412 6.66431 3.8098 6.28292 3.80977ZM4.76338 15.4806H4.64667C4.57268 15.4854 4.5033 15.5182 4.45275 15.5725C4.4022 15.6267 4.37429 15.6982 4.37474 15.7724V15.8692C4.37474 16.3384 4.37474 16.5391 4.38991 16.7644C4.60582 20.1746 7.5352 23.216 10.9337 23.5603C11.1613 23.5837 11.2874 23.5872 11.5873 23.5988C12.437 23.6303 13.2597 23.6502 14.0032 23.6502C14.7466 23.6502 15.5694 23.6303 16.419 23.5988C16.719 23.5872 16.845 23.5825 17.0726 23.5592C20.4712 23.216 23.4005 20.1746 23.6176 16.7644C23.6316 16.5391 23.6316 16.3384 23.6316 15.8692V15.7537C23.6316 15.7514 23.6316 15.7514 23.6316 15.7537C23.6269 15.6829 23.5966 15.6163 23.5464 15.5662C23.4961 15.5162 23.4293 15.4862 23.3585 15.4818C23.3597 15.4818 23.3609 15.4818 23.3585 15.4818H23.3398L23.2441 15.4806H4.76338ZM11.9993 6.51507C11.6333 6.3581 11.2376 6.28235 10.8394 6.29303C10.4413 6.30371 10.0502 6.40056 9.69314 6.57692C9.0279 6.90477 8.50803 7.46788 8.23428 8.15715C8.04981 8.61028 7.97387 9.10028 8.01254 9.588L13.1244 7.38688C12.8294 7.00506 12.4417 6.70496 11.9981 6.51507" fill="url(#paint0_linear_3028_24406)"/>
<path d="M23.6316 15.7537V15.8692C23.6316 16.3384 23.6316 16.5391 23.6176 16.7644C23.4005 20.1746 20.4712 23.216 17.0726 23.5592C16.845 23.5825 16.719 23.5872 16.419 23.5988C15.5694 23.6303 14.7466 23.6502 14.0032 23.6502C13.2597 23.6502 12.437 23.6303 11.5873 23.5988C11.2874 23.5872 11.1613 23.5837 10.9337 23.5603C7.5352 23.216 4.60582 20.1746 4.38991 16.7644C4.37474 16.5391 4.37474 16.3384 4.37474 15.8692V15.7724C4.37429 15.6982 4.4022 15.6267 4.45275 15.5725C4.5033 15.5182 4.57268 15.4854 4.64667 15.4806H4.76338H23.2441L23.3398 15.4818H23.3585M23.6316 15.7537C23.6316 15.7514 23.6316 15.7514 23.6316 15.7537ZM23.6316 15.7537C23.6269 15.6829 23.5966 15.6163 23.5464 15.5662C23.4961 15.5162 23.4293 15.4862 23.3585 15.4818M23.3585 15.4818C23.3597 15.4818 23.3609 15.4818 23.3585 15.4818ZM11.9993 6.51507C11.6333 6.3581 11.2376 6.28235 10.8394 6.29303C10.4413 6.30371 10.0502 6.40056 9.69314 6.57692C9.0279 6.90477 8.50803 7.46788 8.23428 8.15715C8.04981 8.61028 7.97387 9.10028 8.01254 9.588L13.1244 7.38688C12.8294 7.00506 12.4417 6.70496 11.9981 6.51507M6.28292 3.80977C5.22904 3.80977 4.37474 4.66407 4.37474 5.71795V13.73H25.674C25.9062 13.73 26.1288 13.8222 26.2929 13.9863C26.4571 14.1505 26.5493 14.3731 26.5493 14.6053C26.5493 14.8374 26.4571 15.0601 26.2929 15.2242C26.1288 15.3884 25.9062 15.4806 25.674 15.4806H25.3612C25.3694 15.5331 25.3741 15.5856 25.3776 15.6393C25.3822 15.707 25.3822 15.7794 25.3822 15.8494V15.8949C25.3822 16.3326 25.3822 16.5893 25.3636 16.8753C25.1978 19.4849 23.788 21.8961 21.7444 23.4716C21.7606 23.4973 21.7754 23.5238 21.7888 23.551L22.9559 25.8852C23.0083 25.9881 23.0398 26.1004 23.0486 26.2156C23.0574 26.3308 23.0433 26.4466 23.0071 26.5563C22.9709 26.666 22.9134 26.7675 22.8378 26.8548C22.7623 26.9422 22.6701 27.0137 22.5668 27.0653C22.4634 27.1169 22.3509 27.1476 22.2356 27.1555C22.1204 27.1634 22.0047 27.1484 21.8953 27.1114C21.7859 27.0743 21.6848 27.016 21.5981 26.9398C21.5113 26.8635 21.4404 26.7708 21.3896 26.6671L20.2599 24.4088C19.0923 25.0055 17.8036 25.3269 16.4926 25.3483H16.4844C15.6208 25.381 14.7758 25.4008 14.0032 25.4008C13.2306 25.4008 12.3856 25.381 11.522 25.3483H11.5138C10.2027 25.3269 8.91401 25.0055 7.74644 24.4088L6.61671 26.6671C6.56591 26.7708 6.49508 26.8635 6.4083 26.9398C6.32152 27.016 6.2205 27.0743 6.11107 27.1114C6.00164 27.1484 5.88597 27.1634 5.77072 27.1555C5.65547 27.1476 5.54292 27.1169 5.43957 27.0653C5.33621 27.0137 5.24409 26.9422 5.16852 26.8548C5.09295 26.7675 5.03542 26.666 4.99925 26.5563C4.96308 26.4466 4.94899 26.3308 4.95778 26.2156C4.96657 26.1004 4.99808 25.9881 5.05048 25.8852L6.21756 23.551C6.23098 23.5238 6.24578 23.4973 6.26191 23.4716C4.21835 21.8961 2.80735 19.4849 2.64279 16.8753C2.62595 16.5488 2.61972 16.2218 2.62411 15.8949V15.4806H2.33234C2.1002 15.4806 1.87756 15.3884 1.7134 15.2242C1.54925 15.0601 1.45703 14.8374 1.45703 14.6053C1.45703 14.3731 1.54925 14.1505 1.7134 13.9863C1.87756 13.8222 2.1002 13.73 2.33234 13.73H2.62411V5.71795C2.62405 4.86755 2.9202 4.04368 3.46168 3.38795C4.00317 2.73223 4.75615 2.28559 5.59122 2.12482C6.42628 1.96405 7.29127 2.09919 8.03751 2.507C8.78374 2.91481 9.36462 3.56982 9.6803 4.35946L9.80868 4.68041C10.7665 4.4359 11.7783 4.51467 12.6867 4.90449C13.2522 5.14822 13.7634 5.50213 14.1906 5.94557C14.6178 6.38901 14.9524 6.9131 15.1749 7.48725C15.258 7.69869 15.2557 7.93416 15.1683 8.14389C15.081 8.35362 14.9155 8.52117 14.7069 8.61115L7.75111 11.6059C7.64345 11.6524 7.52754 11.6768 7.41026 11.6776C7.29299 11.6785 7.17674 11.6557 7.06842 11.6108C6.9601 11.5658 6.86192 11.4996 6.77971 11.4159C6.69751 11.3323 6.63294 11.233 6.58986 11.1239C6.1312 9.95711 6.13956 8.65851 6.61321 7.49775C6.94587 6.6709 7.50338 5.9537 8.22261 5.42734L8.05455 5.00953C7.91296 4.6554 7.6685 4.35183 7.35272 4.13797C7.03693 3.92412 6.66431 3.8098 6.28292 3.80977Z" stroke="white" stroke-width="0.2"/>
<defs>
<linearGradient id="paint0_linear_3028_24406" x1="14.0032" y1="2.05884" x2="14.0032" y2="27.1575" gradientUnits="userSpaceOnUse">
<stop stop-color="#F6A649"/>
<stop offset="1" stop-color="#90612B"/>
</linearGradient>
</defs>
</svg>
