<svg width="29" height="29" viewBox="0 0 29 29" fill="none" xmlns="http://www.w3.org/2000/svg">
<g clip-path="url(#clip0_3028_24390)">
<path d="M24.6094 8.47806H4.47719V5.85212C4.47719 5.61997 4.38497 5.39733 4.22081 5.23318C4.05666 5.06903 3.83402 4.97681 3.60188 4.97681C3.36973 4.97681 3.14709 5.06903 2.98294 5.23318C2.81878 5.39733 2.72656 5.61997 2.72656 5.85212V23.3584C2.72656 23.5905 2.81878 23.8132 2.98294 23.9773C3.14709 24.1415 3.36973 24.2337 3.60188 24.2337C3.83402 24.2337 4.05666 24.1415 4.22081 23.9773C4.38497 23.8132 4.47719 23.5905 4.47719 23.3584V19.8571H27.2353V23.3584C27.2353 23.5905 27.3275 23.8132 27.4917 23.9773C27.6558 24.1415 27.8785 24.2337 28.1106 24.2337C28.3428 24.2337 28.5654 24.1415 28.7296 23.9773C28.8937 23.8132 28.9859 23.5905 28.9859 23.3584V12.8546C28.9859 11.6939 28.5248 10.5807 27.7041 9.75992C26.8833 8.93916 25.7701 8.47806 24.6094 8.47806ZM4.47719 10.2287H12.355V18.1065H4.47719V10.2287ZM14.1056 18.1065V10.2287H24.6094C25.3058 10.2287 25.9737 10.5053 26.4662 10.9978C26.9587 11.4903 27.2353 12.1582 27.2353 12.8546V18.1065H14.1056Z" fill="url(#paint0_linear_3028_24390)" stroke="white" stroke-width="0.1"/>
</g>
<defs>
<linearGradient id="paint0_linear_3028_24390" x1="15.8563" y1="4.97681" x2="15.8563" y2="24.2337" gradientUnits="userSpaceOnUse">
<stop stop-color="#F6A649"/>
<stop offset="1" stop-color="#90612B"/>
</linearGradient>
<clipPath id="clip0_3028_24390">
<rect width="28.01" height="28.01" fill="white" transform="translate(0.976562 0.599854)"/>
</clipPath>
</defs>
</svg>
