<svg width="25" height="26" viewBox="0 0 25 26" fill="none" xmlns="http://www.w3.org/2000/svg">
<g clip-path="url(#clip0_3028_24427)">
<g clip-path="url(#clip1_3028_24427)">
<path d="M12.5116 24.1787C10.2224 24.1787 7.98471 23.4999 6.08137 22.228C4.17802 20.9563 2.69455 19.1487 1.81853 17.0338C0.942518 14.9189 0.713309 12.5917 1.1599 10.3466C1.60648 8.10145 2.7088 6.03915 4.32747 4.42049C5.94614 2.80183 8.00843 1.6995 10.2536 1.25292C12.4987 0.806327 14.8259 1.03553 16.9407 1.91155C19.0556 2.78756 20.8633 4.27104 22.1351 6.17438C23.4069 8.07773 24.0856 10.3154 24.0856 12.6046C24.0822 15.6732 22.8618 18.6151 20.6919 20.785C18.5221 22.9548 15.5802 24.1753 12.5116 24.1787ZM12.5116 2.08762C10.4315 2.08762 8.39817 2.70443 6.66866 3.86005C4.93915 5.01567 3.59117 6.6582 2.79516 8.57992C1.99916 10.5016 1.79089 12.6163 2.19668 14.6564C2.60248 16.6965 3.60413 18.5704 5.07495 20.0412C6.54578 21.512 8.41972 22.5137 10.4598 22.9195C12.4999 23.3253 14.6145 23.117 16.5362 22.321C18.458 21.525 20.1005 20.177 21.2561 18.4475C22.4118 16.718 23.0285 14.6846 23.0285 12.6046C23.0258 9.81619 21.9169 7.1427 19.9452 5.17098C17.9734 3.19925 15.3 2.09034 12.5116 2.08762ZM16.3696 14.9477C16.4022 14.3176 16.2089 13.6965 15.8244 13.1962C15.4774 12.7716 15.0289 12.4416 14.5203 12.2368C13.9808 12.0295 13.4284 11.8577 12.8665 11.7224V8.32733C13.3366 8.35209 13.7868 8.52495 14.1525 8.82116C14.3601 9.02168 14.5261 9.26122 14.6408 9.52609C14.7556 9.79091 14.8169 10.0758 14.8212 10.3643L16.0532 10.2538C16.0146 9.22496 15.6649 8.41735 15.0116 7.85665C14.4013 7.3557 13.645 7.06602 12.8562 7.03104V4.97342H12.1464V7.03104C11.3343 7.0357 10.5509 7.3324 9.93954 7.86694C9.64222 8.13795 9.40685 8.46981 9.24925 8.83996C9.09169 9.21011 9.01571 9.60989 9.02649 10.012C9.0129 10.3546 9.07006 10.6963 9.19442 11.0158C9.3188 11.3353 9.50759 11.6257 9.74926 11.869C10.231 12.3456 11.0172 12.7152 12.1078 12.9776H12.1438V16.8561C11.6445 16.7883 11.1694 16.5994 10.76 16.3057C10.2173 15.9122 9.91898 15.2769 9.85981 14.4179L8.65355 14.5336C8.65241 15.5201 9.03844 16.4677 9.72861 17.1725C10.2945 17.7383 11.1072 18.065 12.1541 18.1576V20.2332H12.8845V18.1755C13.8057 18.1982 14.7012 17.87 15.3896 17.2574C15.7081 16.966 15.9602 16.6097 16.1293 16.2127C16.2983 15.8155 16.3803 15.3868 16.3696 14.9554V14.9477ZM10.7112 10.9508C10.5506 10.8311 10.4226 10.673 10.3391 10.491C10.2555 10.309 10.2189 10.109 10.2328 9.90915C10.2212 9.67174 10.2727 9.43563 10.382 9.22461C10.4913 9.01363 10.6546 8.83538 10.8552 8.70799C11.2429 8.4679 11.6856 8.3315 12.1412 8.3119V11.5295C11.6431 11.4131 11.1659 11.2205 10.7266 10.9585L10.7112 10.9508ZM14.474 16.406C14.0039 16.7278 13.4464 16.8974 12.8768 16.8921V13.1755C13.4214 13.3135 13.948 13.5146 14.4457 13.7749C14.6698 13.9032 14.8535 14.0917 14.9762 14.3189C15.0989 14.5461 15.1556 14.8031 15.1402 15.0609C15.1494 15.3228 15.0934 15.5829 14.9771 15.8177C14.8608 16.0525 14.688 16.2547 14.474 16.406Z" fill="url(#paint0_linear_3028_24427)" stroke="url(#paint1_linear_3028_24427)" stroke-width="0.5"/>
</g>
</g>
<defs>
<linearGradient id="paint0_linear_3028_24427" x1="12.5116" y1="1.03052" x2="12.5116" y2="24.1787" gradientUnits="userSpaceOnUse">
<stop stop-color="#F6A649"/>
<stop offset="1" stop-color="#90612B"/>
</linearGradient>
<linearGradient id="paint1_linear_3028_24427" x1="12.5116" y1="1.03052" x2="12.5116" y2="24.1787" gradientUnits="userSpaceOnUse">
<stop stop-color="#F6A649"/>
<stop offset="1" stop-color="#90612B"/>
</linearGradient>
<clipPath id="clip0_3028_24427">
<rect width="25" height="25" fill="white" transform="translate(0.0078125 0.104736)"/>
</clipPath>
<clipPath id="clip1_3028_24427">
<rect width="25" height="25" fill="white" transform="translate(0.0078125 0.104736)"/>
</clipPath>
</defs>
</svg>
