<svg width="29" height="22" viewBox="0 0 29 22" fill="none" xmlns="http://www.w3.org/2000/svg">
<path d="M25.497 6.10129V3.76712C25.497 1.84143 23.9215 0.265869 21.9958 0.265869H17.3274C16.4288 0.265869 15.6118 0.615994 14.9933 1.17619C14.3747 0.615994 13.5578 0.265869 12.6591 0.265869H7.99078C6.06509 0.265869 4.48953 1.84143 4.48953 3.76712V6.10129C2.56384 6.10129 0.988281 7.67685 0.988281 9.60254V15.438C0.988281 17.3636 2.56384 18.9392 4.48953 18.9392V21.2734H6.8237V18.9392H23.1629V21.2734H25.497V18.9392C27.4227 18.9392 28.9983 17.3636 28.9983 15.438V9.60254C28.9983 7.67685 27.4227 6.10129 25.497 6.10129ZM17.3274 2.60004H21.9958C22.6377 2.60004 23.1629 3.12522 23.1629 3.76712V7.01161C22.4509 7.65351 21.9958 8.5755 21.9958 9.60254V11.9367H16.1604V3.76712C16.1604 3.12522 16.6856 2.60004 17.3274 2.60004ZM6.8237 3.76712C6.8237 3.12522 7.34889 2.60004 7.99078 2.60004H12.6591C13.301 2.60004 13.8262 3.12522 13.8262 3.76712V11.9367H7.99078V9.60254C7.99078 8.5755 7.53562 7.65351 6.8237 7.01161V3.76712ZM26.6641 15.438C26.6641 16.0798 26.1389 16.605 25.497 16.605H4.48953C3.84764 16.605 3.32245 16.0798 3.32245 15.438V9.60254C3.32245 8.96064 3.84764 8.43545 4.48953 8.43545C5.13143 8.43545 5.65661 8.96064 5.65661 9.60254V14.2709H24.3299V9.60254C24.3299 8.96064 24.8551 8.43545 25.497 8.43545C26.1389 8.43545 26.6641 8.96064 26.6641 9.60254V15.438Z" fill="url(#paint0_linear_3028_24399)" stroke="white" stroke-width="0.5"/>
<defs>
<linearGradient id="paint0_linear_3028_24399" x1="14.9933" y1="0.265869" x2="14.9933" y2="21.2734" gradientUnits="userSpaceOnUse">
<stop stop-color="#F6A649"/>
<stop offset="1" stop-color="#90612B"/>
</linearGradient>
</defs>
</svg>
