<svg width="26" height="26" viewBox="0 0 26 26" fill="none" xmlns="http://www.w3.org/2000/svg">
<g clip-path="url(#clip0_3028_24381)">
<g clip-path="url(#clip1_3028_24381)">
<path d="M25.1613 10.6436C24.6169 10.0992 23.9627 9.82696 23.1988 9.82696C22.4359 9.82604 21.7822 10.0978 21.2377 10.6422M25.1613 10.6436L21.2377 10.6422M25.1613 10.6436C25.7058 11.188 25.9775 11.8417 25.9766 12.6047L25.1613 10.6436ZM21.2377 10.6422L21.4498 10.8544C21.4498 10.8544 21.4498 10.8544 21.4498 10.8544L21.2377 10.6422ZM18.7322 0.541544L19.0322 0.42616V0.104736L18.7322 0.22012V0.541544ZM1.08426 7.32918L1.27656 7.25522V7.04918H0.976562L1.08426 7.32918ZM1.27656 24.8047H0.976562V25.1047H1.27656V24.8047ZM25.6766 24.8047V25.1047H25.9766V24.8047H25.6766ZM3.45434 22.3269V22.6269H3.75434H9.30989H9.60989V22.3269V12.9047H16.2544H16.5544V12.6047V4.13252V3.6951L16.1463 3.85265L3.64628 8.67904L3.45434 8.75315V8.95891V22.3269ZM11.7877 22.3269V22.6269H12.0877H16.2544H16.5544V22.3269V18.4603H18.7322V22.3269V22.6269H19.0322H23.1988H23.4988V22.3269V15.3825V15.0825H23.1988H12.0877H11.7877V15.3825V22.3269Z" fill="url(#paint0_linear_3028_24381)" stroke="white" stroke-width="0.6"/>
</g>
</g>
<defs>
<linearGradient id="paint0_linear_3028_24381" x1="13.4766" y1="0.104736" x2="13.4766" y2="25.1047" gradientUnits="userSpaceOnUse">
<stop stop-color="#F6A649"/>
<stop offset="1" stop-color="#90612B"/>
</linearGradient>
<clipPath id="clip0_3028_24381">
<rect width="25" height="25" fill="white" transform="translate(0.976562 0.104736)"/>
</clipPath>
<clipPath id="clip1_3028_24381">
<rect width="25" height="25" fill="white" transform="translate(0.976562 0.104736)"/>
</clipPath>
</defs>
</svg>
