<svg width="26" height="26" viewBox="0 0 26 26" fill="none" xmlns="http://www.w3.org/2000/svg">
<path d="M2.5825 4.29919V4.29901C2.58284 3.92044 2.71954 3.55409 2.96767 3.28114L2.96767 3.28114C3.21638 3.00756 3.5579 2.84959 3.91864 2.84919L3.91886 2.84919H22.1007H22.1009C22.4616 2.84959 22.8032 3.00755 23.0519 3.28116C23.3001 3.55411 23.4367 3.92046 23.4371 4.29901V4.29919V21.7992V21.7994C23.4367 22.1779 23.3001 22.5443 23.0518 22.8173M2.5825 4.29919L22.9039 22.6827M2.5825 4.29919V21.7992L2.5825 21.7994C2.58284 22.1779 2.71953 22.5443 2.96768 22.8172M2.5825 4.29919L2.7825 21.7992M23.0518 22.8173L22.9039 22.6827M23.0518 22.8173C23.0518 22.8172 23.0519 22.8172 23.0519 22.8172L22.9039 22.6827M23.0518 22.8173C22.8031 23.0909 22.4616 23.2488 22.1009 23.2492H22.1007H3.91886H3.91866C3.55791 23.2488 3.21639 23.0909 2.96768 22.8172M22.9039 22.6827C22.6909 22.9171 22.402 23.0489 22.1007 23.0492H3.91886C3.61757 23.0489 3.32871 22.9171 3.11566 22.6827M2.96768 22.8172L3.11566 22.6827M2.96768 22.8172C2.96767 22.8172 2.96766 22.8172 2.96765 22.8172L3.11566 22.6827M3.11566 22.6827C2.90262 22.4484 2.7828 22.1306 2.7825 21.7992M2.7825 21.7992V4.29919C2.7828 3.96777 2.90262 3.65002 3.11566 3.41567C3.32871 3.18132 3.61757 3.04952 3.91886 3.04919H22.1007C22.402 3.04952 22.6909 3.18132 22.9039 3.41567C23.117 3.65002 23.2368 3.96777 23.2371 4.29919L2.7825 21.7992ZM1.65734 1.78328L1.65734 1.78328C2.26076 1.11951 3.07462 0.750244 3.91897 0.749194H22.1005C22.945 0.750244 23.7588 1.11951 24.3622 1.78328C24.9662 2.4477 25.3088 3.35232 25.3098 4.2994V21.799C25.3088 22.746 24.9662 23.6507 24.3622 24.3152C23.7587 24.9789 22.9449 25.3482 22.1004 25.3492H3.9191C3.07469 25.3482 2.26079 24.9789 1.65735 24.3152C1.05331 23.6507 0.710705 22.746 0.709766 21.799L0.709766 4.29929C0.71073 3.35225 1.05334 2.44768 1.65734 1.78328Z" fill="url(#paint0_linear_3028_14823)" stroke="white" stroke-width="0.4"/>
<defs>
<linearGradient id="paint0_linear_3028_14823" x1="13.0098" y1="0.549194" x2="13.0098" y2="25.5492" gradientUnits="userSpaceOnUse">
<stop stop-color="#F6A649"/>
<stop offset="1" stop-color="#90612B"/>
</linearGradient>
</defs>
</svg>
