<svg width="15" height="16" viewBox="0 0 15 16" fill="none" xmlns="http://www.w3.org/2000/svg">
<path fill-rule="evenodd" clip-rule="evenodd" d="M3.33976 2.05418C2.74904 2.05418 2.27019 2.53303 2.27019 3.12375V7.61463H14.2088C14.3389 7.61463 14.4637 7.66632 14.5557 7.75833C14.6477 7.85034 14.6994 7.97513 14.6994 8.10526C14.6994 8.23538 14.6477 8.36017 14.5557 8.45218C14.4637 8.54419 14.3389 8.59588 14.2088 8.59588H14.0335C14.0381 8.62532 14.0407 8.65476 14.0426 8.68485C14.0453 8.72279 14.0453 8.76335 14.0453 8.8026V8.82811C14.0453 9.07343 14.0453 9.21735 14.0348 9.37762C13.9419 10.8403 13.1517 12.1919 12.0062 13.075C12.0152 13.0894 12.0235 13.1042 12.0311 13.1195L12.6852 14.4278C12.7146 14.4855 12.7323 14.5485 12.7372 14.613C12.7421 14.6776 12.7342 14.7425 12.714 14.804C12.6937 14.8655 12.6614 14.9224 12.6191 14.9713C12.5767 15.0203 12.5251 15.0604 12.4671 15.0893C12.4092 15.1183 12.3461 15.1354 12.2815 15.1399C12.2169 15.1443 12.1521 15.1359 12.0908 15.1151C12.0294 15.0944 11.9728 15.0617 11.9242 15.0189C11.8755 14.9762 11.8358 14.9243 11.8073 14.8661L11.1741 13.6003C10.5197 13.9348 9.79731 14.1149 9.06244 14.1269H9.05786C8.57378 14.1452 8.10016 14.1563 7.6671 14.1563C7.23404 14.1563 6.76042 14.1452 6.27633 14.1269H6.27175C5.53689 14.1149 4.81453 13.9348 4.16009 13.6003L3.52685 14.8661C3.49838 14.9243 3.45868 14.9762 3.41004 15.0189C3.36139 15.0617 3.30477 15.0944 3.24344 15.1151C3.1821 15.1359 3.11726 15.1443 3.05266 15.1399C2.98806 15.1354 2.92498 15.1183 2.86705 15.0893C2.80911 15.0604 2.75748 15.0203 2.71512 14.9713C2.67276 14.9224 2.64052 14.8655 2.62024 14.804C2.59997 14.7425 2.59207 14.6776 2.597 14.613C2.60192 14.5485 2.61958 14.4855 2.64896 14.4278L3.30313 13.1195C3.31065 13.1042 3.31894 13.0894 3.32799 13.075C2.18253 12.1919 1.39164 10.8403 1.2994 9.37762C1.28996 9.19461 1.28647 9.01135 1.28894 8.82811V8.59588H1.12539C0.995271 8.59588 0.870478 8.54419 0.778467 8.45218C0.686457 8.36017 0.634766 8.23538 0.634766 8.10526C0.634766 7.97513 0.686457 7.85034 0.778467 7.75833C0.870478 7.66632 0.995271 7.61463 1.12539 7.61463H1.28894V3.12375C1.2889 2.64708 1.4549 2.18529 1.75841 1.81775C2.06192 1.4502 2.48398 1.19985 2.95205 1.10974C3.42012 1.01963 3.90496 1.09537 4.32324 1.32396C4.74152 1.55254 5.06711 1.91969 5.24405 2.36229L5.31601 2.54219C5.85289 2.40514 6.42 2.44929 6.92919 2.66779C7.24614 2.8044 7.53271 3.00278 7.77217 3.25133C8.01163 3.49989 8.19918 3.79365 8.32388 4.11547C8.37046 4.23399 8.36913 4.36597 8.32018 4.48353C8.27123 4.60109 8.17849 4.695 8.06156 4.74544L4.16271 6.42404C4.10236 6.45011 4.03739 6.46379 3.97166 6.46426C3.90592 6.46473 3.84076 6.45199 3.78005 6.42678C3.71933 6.40158 3.6643 6.36444 3.61822 6.31756C3.57214 6.27067 3.53595 6.21501 3.51181 6.15387C3.25472 5.49987 3.2594 4.77199 3.52489 4.12136C3.71135 3.65789 4.02385 3.25589 4.42699 2.96086L4.33279 2.72667C4.25343 2.52817 4.1164 2.35801 3.9394 2.23815C3.7624 2.11828 3.55353 2.0542 3.33976 2.05418ZM2.48803 8.59588H2.42261C2.38114 8.59855 2.34225 8.61698 2.31392 8.64738C2.28558 8.67778 2.26994 8.71787 2.27019 8.75943V8.81372C2.27019 9.0767 2.27019 9.18922 2.2787 9.31547C2.39972 11.227 4.04169 12.9317 5.94663 13.1247C6.07419 13.1378 6.14484 13.1398 6.31297 13.1463C6.7892 13.164 7.25039 13.1751 7.6671 13.1751C8.0838 13.1751 8.54499 13.164 9.02123 13.1463C9.18935 13.1398 9.26 13.1371 9.38757 13.1241C11.2925 12.9317 12.9345 11.227 13.0562 9.31547C13.064 9.18922 13.064 9.0767 13.064 8.81372V8.74896C13.064 8.74765 13.064 8.74765 13.064 8.74896C13.0614 8.70929 13.0444 8.67193 13.0162 8.64388C12.988 8.61583 12.9506 8.599 12.9109 8.59654C12.9116 8.59654 12.9122 8.59654 12.9109 8.59654H12.9005L12.8468 8.59588H2.48803ZM6.54389 3.57055C6.33872 3.48257 6.11692 3.44011 5.89376 3.44609C5.67061 3.45208 5.4514 3.50637 5.25125 3.60522C4.87837 3.78898 4.58697 4.10462 4.43353 4.49096C4.33013 4.74495 4.28757 5.01961 4.30924 5.29298L7.17451 4.05921C7.00916 3.8452 6.79186 3.67699 6.54323 3.57055" fill="white"/>
<path d="M13.064 8.74896V8.81372C13.064 9.0767 13.064 9.18922 13.0562 9.31547C12.9345 11.227 11.2925 12.9317 9.38757 13.1241C9.26 13.1371 9.18935 13.1398 9.02123 13.1463C8.54499 13.164 8.0838 13.1751 7.6671 13.1751C7.25039 13.1751 6.7892 13.164 6.31297 13.1463C6.14484 13.1398 6.07419 13.1378 5.94663 13.1247C4.04169 12.9317 2.39972 11.227 2.2787 9.31547C2.27019 9.18922 2.27019 9.0767 2.27019 8.81372V8.75943C2.26994 8.71787 2.28558 8.67778 2.31392 8.64738C2.34225 8.61698 2.38114 8.59855 2.42261 8.59588H2.48803H12.8468L12.9005 8.59654H12.9109M13.064 8.74896C13.064 8.74765 13.064 8.74765 13.064 8.74896ZM13.064 8.74896C13.0614 8.70929 13.0444 8.67193 13.0162 8.64388C12.988 8.61583 12.9506 8.599 12.9109 8.59654M12.9109 8.59654C12.9116 8.59654 12.9122 8.59654 12.9109 8.59654ZM6.54389 3.57055C6.33872 3.48257 6.11692 3.44011 5.89376 3.44609C5.67061 3.45208 5.4514 3.50637 5.25125 3.60522C4.87837 3.78898 4.58697 4.10462 4.43353 4.49096C4.33013 4.74495 4.28757 5.01961 4.30924 5.29298L7.17451 4.05921C7.00916 3.8452 6.79186 3.67699 6.54323 3.57055M3.33976 2.05418C2.74904 2.05418 2.27019 2.53303 2.27019 3.12375V7.61463H14.2088C14.3389 7.61463 14.4637 7.66632 14.5557 7.75833C14.6477 7.85034 14.6994 7.97513 14.6994 8.10526C14.6994 8.23538 14.6477 8.36017 14.5557 8.45218C14.4637 8.54419 14.3389 8.59588 14.2088 8.59588H14.0335C14.0381 8.62532 14.0407 8.65476 14.0426 8.68485C14.0453 8.72279 14.0453 8.76335 14.0453 8.8026V8.82811C14.0453 9.07343 14.0453 9.21735 14.0348 9.37762C13.9419 10.8403 13.1517 12.1919 12.0062 13.075C12.0152 13.0894 12.0235 13.1042 12.0311 13.1195L12.6852 14.4278C12.7146 14.4855 12.7323 14.5485 12.7372 14.613C12.7421 14.6776 12.7342 14.7425 12.714 14.804C12.6937 14.8655 12.6614 14.9224 12.6191 14.9713C12.5767 15.0203 12.5251 15.0604 12.4671 15.0893C12.4092 15.1183 12.3461 15.1354 12.2815 15.1399C12.2169 15.1443 12.1521 15.1359 12.0908 15.1151C12.0294 15.0944 11.9728 15.0617 11.9242 15.0189C11.8755 14.9762 11.8358 14.9243 11.8073 14.8661L11.1741 13.6003C10.5197 13.9348 9.79731 14.1149 9.06244 14.1269H9.05786C8.57378 14.1452 8.10016 14.1563 7.6671 14.1563C7.23404 14.1563 6.76042 14.1452 6.27633 14.1269H6.27175C5.53689 14.1149 4.81453 13.9348 4.16009 13.6003L3.52685 14.8661C3.49838 14.9243 3.45868 14.9762 3.41004 15.0189C3.36139 15.0617 3.30477 15.0944 3.24344 15.1151C3.1821 15.1359 3.11726 15.1443 3.05266 15.1399C2.98806 15.1354 2.92498 15.1183 2.86705 15.0893C2.80911 15.0604 2.75748 15.0203 2.71512 14.9713C2.67276 14.9224 2.64052 14.8655 2.62024 14.804C2.59997 14.7425 2.59207 14.6776 2.597 14.613C2.60192 14.5485 2.61958 14.4855 2.64896 14.4278L3.30313 13.1195C3.31065 13.1042 3.31894 13.0894 3.32799 13.075C2.18253 12.1919 1.39164 10.8403 1.2994 9.37762C1.28996 9.19461 1.28647 9.01135 1.28894 8.82811V8.59588H1.12539C0.995271 8.59588 0.870478 8.54419 0.778467 8.45218C0.686457 8.36017 0.634766 8.23538 0.634766 8.10526C0.634766 7.97513 0.686457 7.85034 0.778467 7.75833C0.870478 7.66632 0.995271 7.61463 1.12539 7.61463H1.28894V3.12375C1.2889 2.64708 1.4549 2.18529 1.75841 1.81775C2.06192 1.4502 2.48398 1.19985 2.95205 1.10974C3.42012 1.01963 3.90496 1.09537 4.32324 1.32396C4.74152 1.55254 5.06711 1.91969 5.24405 2.36229L5.31601 2.54219C5.85289 2.40514 6.42 2.44929 6.92919 2.66779C7.24614 2.8044 7.53271 3.00278 7.77217 3.25133C8.01163 3.49989 8.19918 3.79365 8.32388 4.11547C8.37046 4.23399 8.36914 4.36597 8.32018 4.48353C8.27123 4.60109 8.17849 4.695 8.06156 4.74544L4.16271 6.42404C4.10236 6.45011 4.03739 6.46379 3.97166 6.46426C3.90592 6.46473 3.84076 6.45199 3.78005 6.42678C3.71933 6.40158 3.6643 6.36444 3.61822 6.31756C3.57214 6.27067 3.53595 6.21501 3.51181 6.15387C3.25472 5.49987 3.2594 4.77199 3.52489 4.12136C3.71135 3.65789 4.02385 3.25589 4.42699 2.96086L4.33279 2.72667C4.25343 2.52817 4.1164 2.35801 3.9394 2.23815C3.7624 2.11828 3.55353 2.0542 3.33976 2.05418Z" stroke="#0D0D0D" stroke-width="0.235501"/>
</svg>
