<svg width="17" height="17" viewBox="0 0 17 17" fill="none" xmlns="http://www.w3.org/2000/svg">
<g clip-path="url(#clip0_1147_36503)">
<path fill-rule="evenodd" clip-rule="evenodd" d="M3.67073 2.01238C3.06873 2.01238 2.58073 2.50038 2.58073 3.10238V7.67905H14.7474C14.88 7.67905 15.0072 7.73173 15.101 7.82549C15.1947 7.91926 15.2474 8.04644 15.2474 8.17905C15.2474 8.31166 15.1947 8.43883 15.101 8.5326C15.0072 8.62637 14.88 8.67905 14.7474 8.67905H14.5687C14.5734 8.70905 14.5761 8.73905 14.5781 8.76971C14.5807 8.80838 14.5807 8.84971 14.5807 8.88971V8.91571C14.5807 9.16571 14.5807 9.31238 14.5701 9.47571C14.4754 10.9664 13.6701 12.3437 12.5027 13.2437C12.5119 13.2584 12.5204 13.2735 12.5281 13.289L13.1947 14.6224C13.2247 14.6812 13.2427 14.7453 13.2477 14.8111C13.2527 14.8769 13.2447 14.9431 13.224 15.0057C13.2033 15.0684 13.1705 15.1264 13.1273 15.1763C13.0841 15.2262 13.0315 15.2671 12.9725 15.2965C12.9134 15.326 12.8491 15.3435 12.7833 15.348C12.7175 15.3525 12.6514 15.344 12.5889 15.3228C12.5264 15.3017 12.4687 15.2684 12.4191 15.2248C12.3695 15.1813 12.3291 15.1283 12.3001 15.069L11.6547 13.779C10.9878 14.1199 10.2516 14.3035 9.50273 14.3157H9.49806C9.00473 14.3344 8.52206 14.3457 8.08073 14.3457C7.6394 14.3457 7.15673 14.3344 6.6634 14.3157H6.65873C5.90983 14.3035 5.17368 14.1199 4.50673 13.779L3.8614 15.069C3.83238 15.1283 3.79192 15.1813 3.74235 15.2248C3.69278 15.2684 3.63507 15.3017 3.57257 15.3228C3.51006 15.344 3.44398 15.3525 3.37815 15.348C3.31231 15.3435 3.24803 15.326 3.18899 15.2965C3.12995 15.2671 3.07733 15.2262 3.03416 15.1763C2.99099 15.1264 2.95813 15.0684 2.93747 15.0057C2.91681 14.9431 2.90875 14.8769 2.91378 14.8111C2.9188 14.7453 2.9368 14.6812 2.96673 14.6224L3.6334 13.289C3.64106 13.2735 3.64951 13.2584 3.65873 13.2437C2.4914 12.3437 1.6854 10.9664 1.5914 9.47571C1.58178 9.28921 1.57822 9.10245 1.58073 8.91571V8.67905H1.41406C1.28145 8.67905 1.15428 8.62637 1.06051 8.5326C0.966741 8.43883 0.914062 8.31166 0.914062 8.17905C0.914062 8.04644 0.966741 7.91926 1.06051 7.82549C1.15428 7.73173 1.28145 7.67905 1.41406 7.67905H1.58073V3.10238C1.58069 2.61661 1.74986 2.146 2.05917 1.77143C2.36848 1.39686 2.7986 1.14174 3.27561 1.0499C3.75262 0.958064 4.24672 1.03526 4.67299 1.26821C5.09926 1.50116 5.43107 1.87532 5.6114 2.32638L5.68473 2.50971C6.23186 2.37004 6.80981 2.41504 7.32873 2.63771C7.65173 2.77694 7.94377 2.9791 8.18781 3.2324C8.43184 3.48571 8.62298 3.78508 8.75006 4.11305C8.79753 4.23383 8.79618 4.36833 8.74629 4.48814C8.6964 4.60794 8.60189 4.70365 8.48273 4.75505L4.5094 6.46571C4.4479 6.49228 4.38169 6.50622 4.31469 6.5067C4.2477 6.50718 4.1813 6.49419 4.11943 6.46851C4.05755 6.44283 4.00147 6.40498 3.95451 6.3572C3.90755 6.30942 3.87067 6.25269 3.84606 6.19038C3.58406 5.5239 3.58884 4.7821 3.8594 4.11905C4.04942 3.64673 4.36788 3.23705 4.77873 2.93638L4.68273 2.69771C4.60185 2.49543 4.46221 2.32202 4.28182 2.19986C4.10144 2.0777 3.88859 2.0124 3.67073 2.01238ZM2.80273 8.67905H2.73606C2.6938 8.68177 2.65417 8.70054 2.62529 8.73153C2.59641 8.76251 2.58047 8.80336 2.58073 8.84571V8.90105C2.58073 9.16905 2.58073 9.28371 2.5894 9.41238C2.71273 11.3604 4.38606 13.0977 6.3274 13.2944C6.4574 13.3077 6.5294 13.3097 6.70073 13.3164C7.18606 13.3344 7.65606 13.3457 8.08073 13.3457C8.5054 13.3457 8.9754 13.3344 9.46073 13.3164C9.63206 13.3097 9.70406 13.307 9.83406 13.2937C11.7754 13.0977 13.4487 11.3604 13.5727 9.41238C13.5807 9.28371 13.5807 9.16905 13.5807 8.90105V8.83505C13.5807 8.83371 13.5807 8.83371 13.5807 8.83505C13.5781 8.79462 13.5607 8.75655 13.532 8.72796C13.5033 8.69937 13.4652 8.68222 13.4247 8.67971C13.4254 8.67971 13.4261 8.67971 13.4247 8.67971H13.4141L13.3594 8.67905H2.80273ZM6.93606 3.55771C6.72698 3.46805 6.50094 3.42478 6.27352 3.43088C6.0461 3.43698 5.82271 3.49231 5.61873 3.59305C5.23873 3.78032 4.94177 4.10199 4.7854 4.49571C4.68002 4.75455 4.63664 5.03445 4.65873 5.31305L7.57873 4.05571C7.41022 3.83761 7.18877 3.66619 6.9354 3.55771" fill="black"/>
<path d="M13.5807 8.83505V8.90105C13.5807 9.16905 13.5807 9.28371 13.5727 9.41238C13.4487 11.3604 11.7754 13.0977 9.83406 13.2937C9.70406 13.307 9.63206 13.3097 9.46073 13.3164C8.9754 13.3344 8.5054 13.3457 8.08073 13.3457C7.65606 13.3457 7.18606 13.3344 6.70073 13.3164C6.5294 13.3097 6.4574 13.3077 6.3274 13.2944C4.38606 13.0977 2.71273 11.3604 2.5894 9.41238C2.58073 9.28371 2.58073 9.16905 2.58073 8.90105V8.84571C2.58047 8.80336 2.59641 8.76251 2.62529 8.73153C2.65417 8.70054 2.6938 8.68177 2.73606 8.67905H2.80273H13.3594L13.4141 8.67971H13.4247M13.5807 8.83505C13.5807 8.83371 13.5807 8.83371 13.5807 8.83505ZM13.5807 8.83505C13.5781 8.79462 13.5607 8.75655 13.532 8.72796C13.5033 8.69937 13.4652 8.68222 13.4247 8.67971M13.4247 8.67971C13.4254 8.67971 13.4261 8.67971 13.4247 8.67971ZM6.93606 3.55771C6.72698 3.46805 6.50094 3.42478 6.27352 3.43088C6.0461 3.43698 5.82271 3.49231 5.61873 3.59305C5.23873 3.78032 4.94177 4.10199 4.7854 4.49571C4.68002 4.75455 4.63664 5.03445 4.65873 5.31305L7.57873 4.05571C7.41022 3.83761 7.18877 3.66619 6.9354 3.55771M3.67073 2.01238C3.06873 2.01238 2.58073 2.50038 2.58073 3.10238V7.67905H14.7474C14.88 7.67905 15.0072 7.73173 15.101 7.82549C15.1947 7.91926 15.2474 8.04644 15.2474 8.17905C15.2474 8.31166 15.1947 8.43883 15.101 8.5326C15.0072 8.62637 14.88 8.67905 14.7474 8.67905H14.5687C14.5734 8.70905 14.5761 8.73905 14.5781 8.76971C14.5807 8.80838 14.5807 8.84971 14.5807 8.88971V8.91571C14.5807 9.16571 14.5807 9.31238 14.5701 9.47571C14.4754 10.9664 13.6701 12.3437 12.5027 13.2437C12.5119 13.2584 12.5204 13.2735 12.5281 13.289L13.1947 14.6224C13.2247 14.6812 13.2427 14.7453 13.2477 14.8111C13.2527 14.8769 13.2447 14.9431 13.224 15.0057C13.2033 15.0684 13.1705 15.1264 13.1273 15.1763C13.0841 15.2262 13.0315 15.2671 12.9725 15.2965C12.9134 15.326 12.8491 15.3435 12.7833 15.348C12.7175 15.3525 12.6514 15.344 12.5889 15.3228C12.5264 15.3017 12.4687 15.2684 12.4191 15.2248C12.3695 15.1813 12.3291 15.1283 12.3001 15.069L11.6547 13.779C10.9878 14.1199 10.2516 14.3035 9.50273 14.3157H9.49806C9.00473 14.3344 8.52206 14.3457 8.08073 14.3457C7.6394 14.3457 7.15673 14.3344 6.6634 14.3157H6.65873C5.90983 14.3035 5.17367 14.1199 4.50673 13.779L3.8614 15.069C3.83238 15.1283 3.79192 15.1813 3.74235 15.2248C3.69278 15.2684 3.63507 15.3017 3.57257 15.3228C3.51006 15.344 3.44398 15.3525 3.37815 15.348C3.31231 15.3435 3.24803 15.326 3.18899 15.2965C3.12995 15.2671 3.07733 15.2262 3.03416 15.1763C2.99099 15.1264 2.95813 15.0684 2.93747 15.0057C2.91681 14.9431 2.90875 14.8769 2.91378 14.8111C2.9188 14.7453 2.9368 14.6812 2.96673 14.6224L3.6334 13.289C3.64106 13.2735 3.64951 13.2584 3.65873 13.2437C2.4914 12.3437 1.6854 10.9664 1.5914 9.47571C1.58178 9.28921 1.57822 9.10245 1.58073 8.91571V8.67905H1.41406C1.28145 8.67905 1.15428 8.62637 1.06051 8.5326C0.966741 8.43883 0.914062 8.31166 0.914062 8.17905C0.914062 8.04644 0.966741 7.91926 1.06051 7.82549C1.15428 7.73173 1.28145 7.67905 1.41406 7.67905H1.58073V3.10238C1.58069 2.61661 1.74986 2.146 2.05917 1.77143C2.36848 1.39686 2.7986 1.14174 3.27561 1.0499C3.75262 0.958064 4.24672 1.03526 4.67299 1.26821C5.09926 1.50116 5.43107 1.87532 5.6114 2.32638L5.68473 2.50971C6.23186 2.37004 6.80981 2.41504 7.32873 2.63771C7.65173 2.77694 7.94377 2.9791 8.18781 3.2324C8.43184 3.48571 8.62298 3.78508 8.75006 4.11305C8.79753 4.23383 8.79618 4.36833 8.74629 4.48814C8.6964 4.60794 8.60189 4.70365 8.48273 4.75505L4.5094 6.46571C4.4479 6.49228 4.38169 6.50622 4.31469 6.5067C4.2477 6.50718 4.1813 6.49419 4.11943 6.46851C4.05755 6.44283 4.00147 6.40498 3.95451 6.3572C3.90755 6.30942 3.87067 6.25269 3.84606 6.19038C3.58406 5.5239 3.58884 4.7821 3.8594 4.11905C4.04942 3.64673 4.36788 3.23705 4.77873 2.93638L4.68273 2.69771C4.60185 2.49543 4.46221 2.32202 4.28182 2.19986C4.10144 2.0777 3.88859 2.0124 3.67073 2.01238Z" stroke="white" stroke-width="0.235501"/>
</g>
<defs>
<clipPath id="clip0_1147_36503">
<rect width="16" height="16" fill="white" transform="translate(0.078125 0.180176)"/>
</clipPath>
</defs>
</svg>
