<svg width="16" height="12" viewBox="0 0 16 12" fill="none" xmlns="http://www.w3.org/2000/svg">
<path d="M12.9522 2.67003H1.66778V1.19815C1.66778 1.06802 1.61609 0.943232 1.52408 0.851221C1.43207 0.759211 1.30727 0.70752 1.17715 0.70752C1.04703 0.70752 0.922236 0.759211 0.830225 0.851221C0.738214 0.943232 0.686523 1.06802 0.686523 1.19815V11.0107C0.686523 11.1408 0.738214 11.2656 0.830225 11.3576C0.922236 11.4496 1.04703 11.5013 1.17715 11.5013C1.30727 11.5013 1.43207 11.4496 1.52408 11.3576C1.61609 11.2656 1.66778 11.1408 1.66778 11.0107V9.04819H14.4241V11.0107C14.4241 11.1408 14.4758 11.2656 14.5678 11.3576C14.6598 11.4496 14.7846 11.5013 14.9147 11.5013C15.0449 11.5013 15.1696 11.4496 15.2617 11.3576C15.3537 11.2656 15.4054 11.1408 15.4054 11.0107V5.12317C15.4054 4.47256 15.1469 3.84859 14.6869 3.38854C14.2268 2.92849 13.6028 2.67003 12.9522 2.67003ZM1.66778 3.65129H6.08343V8.06694H1.66778V3.65129ZM7.06469 8.06694V3.65129H12.9522C13.3426 3.65129 13.717 3.80636 13.993 4.08239C14.269 4.35842 14.4241 4.7328 14.4241 5.12317V8.06694H7.06469Z" fill="white" stroke="#0D0D0D" stroke-width="0.157001"/>
</svg>
