<svg width="17" height="17" viewBox="0 0 17 17" fill="none" xmlns="http://www.w3.org/2000/svg">
<g clip-path="url(#clip0_1147_36499)">
<path d="M13.8711 4.68018H2.37109V3.18018C2.37109 3.04757 2.31842 2.92039 2.22465 2.82662C2.13088 2.73285 2.0037 2.68018 1.87109 2.68018C1.73849 2.68018 1.61131 2.73285 1.51754 2.82662C1.42377 2.92039 1.37109 3.04757 1.37109 3.18018V13.1802C1.37109 13.3128 1.42377 13.44 1.51754 13.5337C1.61131 13.6275 1.73849 13.6802 1.87109 13.6802C2.0037 13.6802 2.13088 13.6275 2.22465 13.5337C2.31842 13.44 2.37109 13.3128 2.37109 13.1802V11.1802H15.3711V13.1802C15.3711 13.3128 15.4238 13.44 15.5175 13.5337C15.6113 13.6275 15.7385 13.6802 15.8711 13.6802C16.0037 13.6802 16.1309 13.6275 16.2246 13.5337C16.3184 13.44 16.3711 13.3128 16.3711 13.1802V7.18018C16.3711 6.51713 16.1077 5.88125 15.6389 5.41241C15.17 4.94357 14.5341 4.68018 13.8711 4.68018ZM2.37109 5.68018H6.87109V10.1802H2.37109V5.68018ZM7.87109 10.1802V5.68018H13.8711C14.2689 5.68018 14.6504 5.83821 14.9318 6.11952C15.2131 6.40082 15.3711 6.78235 15.3711 7.18018V10.1802H7.87109Z" fill="black" stroke="white" stroke-width="0.157001"/>
</g>
<defs>
<clipPath id="clip0_1147_36499">
<rect width="16" height="16" fill="white" transform="translate(0.367188 0.180176)"/>
</clipPath>
</defs>
</svg>
