<svg width="30" height="30" viewBox="0 0 30 30" fill="none" xmlns="http://www.w3.org/2000/svg">
<path d="M15.3427 4.09229C11.3707 4.09229 8.14266 7.32029 8.14266 11.2923V14.7603C8.14266 15.4923 7.83066 16.6083 7.45866 17.2323L6.07866 19.5243C5.22666 20.9403 5.81466 22.5123 7.37466 23.0403C12.5467 24.7683 18.1267 24.7683 23.2987 23.0403C24.7507 22.5603 25.3867 20.8443 24.5947 19.5243L23.2147 17.2323C22.8547 16.6083 22.5427 15.4923 22.5427 14.7603V11.2923C22.5427 7.33229 19.3027 4.09229 15.3427 4.09229Z" stroke="#234FA9" stroke-width="1.8" stroke-miterlimit="10" stroke-linecap="round"/>
<path d="M17.5689 4.44022C17.1969 4.33222 16.8129 4.24822 16.4169 4.20022C15.2649 4.05622 14.1609 4.14022 13.1289 4.44022C13.4769 3.55222 14.3409 2.92822 15.3489 2.92822C16.3569 2.92822 17.2209 3.55222 17.5689 4.44022Z" stroke="#234FA9" stroke-width="1.8" stroke-miterlimit="10" stroke-linecap="round" stroke-linejoin="round"/>
<path d="M18.9461 23.4722C18.9461 25.4522 17.3261 27.0722 15.3461 27.0722C14.3621 27.0722 13.4501 26.6642 12.8021 26.0162C12.1541 25.3682 11.7461 24.4562 11.7461 23.4722" stroke="#234FA9" stroke-width="1.8" stroke-miterlimit="10"/>
</svg>
