<svg width="33" height="32" viewBox="0 0 33 32" fill="none" xmlns="http://www.w3.org/2000/svg">
<path d="M4.70602 28.7504C4.08279 28.7504 3.59079 28.55 3.23002 28.1493C2.89745 27.779 2.71841 27.2933 2.69288 26.6921L2.68945 26.5396V5.06299C2.68945 4.38261 2.86964 3.84413 3.23002 3.44756C3.5626 3.08109 4.00736 2.88375 4.56431 2.85556L4.7066 2.85156H20.0249C20.6401 2.85156 21.1281 3.05004 21.4889 3.44699C21.8215 3.81271 22.0005 4.29975 22.026 4.90813L22.0289 5.06242V8.82813H29.2575C29.8251 8.82813 30.2843 8.99899 30.6352 9.34071L30.7209 9.42985C31.0538 9.79937 31.2329 10.2849 31.258 10.8864L31.2615 11.039V26.5396C31.2615 27.2116 31.0813 27.7481 30.7209 28.1493C30.3883 28.5188 29.947 28.718 29.3969 28.747L29.2569 28.7504H4.70602ZM22.0283 26.5396C22.0283 26.6272 22.0253 26.7123 22.0192 26.795H28.6123C28.8474 26.795 29.0216 26.7382 29.1352 26.6247C29.2323 26.5272 29.2877 26.3824 29.3015 26.1904L29.3055 26.0904V11.4887C29.3055 11.2457 29.2487 11.0674 29.1352 10.9538C29.038 10.8567 28.8961 10.8013 28.7095 10.7876L28.6123 10.7841L22.0283 10.7836V26.5396ZM19.3809 4.80756H5.35002C5.10698 4.80756 4.92869 4.86413 4.81517 4.97728C4.71802 5.0748 4.6626 5.21956 4.64888 5.41156L4.64545 5.51213V26.0904C4.64545 26.3331 4.70202 26.5112 4.81517 26.6247C4.91269 26.7218 5.05745 26.7773 5.24945 26.791L5.35002 26.795L8.13117 26.7944V23.2116C8.13117 22.7327 8.23021 22.3695 8.42831 22.1218L8.49002 22.051C8.70717 21.8262 9.02983 21.7038 9.45802 21.6836L9.58945 21.6807H15.1289C15.6306 21.6807 15.999 21.8041 16.234 22.051C16.4477 22.2758 16.5643 22.6158 16.5837 23.071L16.5866 23.211L16.586 26.7944H19.3803C19.6154 26.7944 19.7895 26.7378 19.9026 26.6247C19.9997 26.5272 20.0554 26.3824 20.0695 26.1904L20.0729 26.0904V5.51213C20.0729 5.26909 20.0161 5.0908 19.9026 4.97728C19.7895 4.86413 19.6159 4.80756 19.3809 4.80756ZM14.6066 23.2721H10.1117C9.87631 23.2721 9.74774 23.3792 9.72602 23.5933L9.72317 23.6607L9.7226 26.7944H14.9946V23.6607C14.9946 23.4253 14.8877 23.2967 14.674 23.275L14.6066 23.2721ZM26.6449 22.0693C26.8971 22.0693 27.0336 22.1849 27.0546 22.4161L27.0575 22.4824V24.3773C27.0575 24.6298 26.9418 24.7666 26.7106 24.7876L26.6449 24.7904H24.6889C24.4443 24.7904 24.3115 24.6748 24.2906 24.4436L24.2883 24.3773V22.4824C24.2883 22.2298 24.4007 22.0931 24.6255 22.0721L24.6889 22.0693H26.6449ZM26.6449 17.4293C26.8971 17.4293 27.0336 17.5449 27.0546 17.7761L27.0575 17.8418V19.7367C27.0575 19.9893 26.9418 20.126 26.7106 20.147L26.6449 20.1498H24.6889C24.4443 20.1498 24.3115 20.0342 24.2906 19.803L24.2883 19.7367V17.8418C24.2883 17.5893 24.4007 17.4525 24.6255 17.4316L24.6889 17.4287L26.6449 17.4293ZM10.6946 16.4447C11.0016 16.4447 11.1668 16.5862 11.19 16.8693L11.1929 16.943V19.239C11.1929 19.5453 11.0514 19.7102 10.7683 19.7338L10.6946 19.7367H8.32602C8.0346 19.7367 7.87764 19.5954 7.85517 19.3127L7.85231 19.2384V16.943C7.85231 16.6367 7.98679 16.4716 8.25574 16.4476L8.32602 16.4447H10.6946ZM16.3803 16.4447C16.6866 16.4447 16.8515 16.5862 16.8752 16.8693L16.878 16.943V19.239C16.878 19.5453 16.7365 19.7102 16.4535 19.7338L16.3797 19.7367H14.0232C13.7241 19.7367 13.5632 19.5954 13.5403 19.3127L13.5375 19.2384V16.943C13.5375 16.6367 13.6754 16.4716 13.9512 16.4476L14.0232 16.4447H16.3803ZM26.6449 12.7881C26.8971 12.7881 27.0336 12.9039 27.0546 13.1356L27.0575 13.2013V15.0967C27.0575 15.3489 26.9418 15.4855 26.7106 15.5064L26.6449 15.5093H24.6889C24.4443 15.5093 24.3115 15.3937 24.2906 15.1624L24.2883 15.0967V13.2013C24.2883 12.9495 24.4007 12.8127 24.6255 12.791L24.6889 12.7881H26.6449ZM10.6946 11.6338C11.0016 11.6338 11.1668 11.7756 11.19 12.059L11.1929 12.1321V14.4281C11.1929 14.7352 11.0514 14.9003 10.7683 14.9236L10.6946 14.9264H8.32602C8.0346 14.9264 7.87764 14.7849 7.85517 14.5018L7.85231 14.4281V12.1321C7.85231 11.8258 7.98679 11.6609 8.25574 11.6373L8.32602 11.6344L10.6946 11.6338ZM16.3803 11.6338C16.6866 11.6338 16.8515 11.7756 16.8752 12.059L16.878 12.1321V14.4281C16.878 14.7352 16.7365 14.9003 16.4535 14.9236L16.3797 14.9264H14.0232C13.7241 14.9264 13.5632 14.7849 13.5403 14.5018L13.5375 14.4281V12.1321C13.5375 11.8258 13.6754 11.6609 13.9512 11.6373L14.0232 11.6344L16.3803 11.6338ZM10.6946 6.82413C11.0016 6.82413 11.1668 6.96547 11.19 7.24813L11.1929 7.32242V9.61785C11.1929 9.92413 11.0514 10.0891 10.7683 10.1127L10.6946 10.1161H8.32602C8.0346 10.1161 7.87764 9.97461 7.85517 9.69156L7.85231 9.61785V7.32185C7.85231 7.01556 7.98679 6.85061 8.25574 6.82699L8.32602 6.82413H10.6946ZM16.3803 6.82413C16.6866 6.82413 16.8515 6.96547 16.8752 7.24813L16.878 7.32242V9.61785C16.878 9.92413 16.7365 10.0891 16.4535 10.1127L16.3797 10.1161H14.0232C13.7241 10.1161 13.5632 9.97461 13.5403 9.69156L13.5375 9.61785V7.32185C13.5375 7.01556 13.6754 6.85061 13.9512 6.82699L14.0232 6.82413H16.3803Z" fill="url(#paint0_linear_1389_2436)"/>
<defs>
<linearGradient id="paint0_linear_1389_2436" x1="2.68945" y1="15.801" x2="31.2615" y2="15.801" gradientUnits="userSpaceOnUse">
<stop stop-color="#041A47"/>
<stop offset="1" stop-color="#0A3FAD"/>
</linearGradient>
</defs>
</svg>
