<svg width="18" height="16" viewBox="0 0 18 16" fill="none" xmlns="http://www.w3.org/2000/svg">
<path d="M5.49981 2.05979L6.4957 1.80268C6.94904 1.68544 7.43666 1.71363 7.86753 1.88197C8.29841 2.0503 8.64309 2.34729 8.83723 2.71748L9.45696 3.89918C9.62395 4.21751 9.67047 4.57268 9.58998 4.91483C9.5095 5.25698 9.30606 5.56895 9.00821 5.80695L7.92533 6.6724C7.91238 6.68343 7.90145 6.69609 7.89294 6.70994C7.77955 6.90843 7.95173 7.43859 8.49107 8.23976C9.0994 9.14274 9.56914 9.49961 9.78692 9.44459L11.2082 9.07178C11.5974 8.9699 12.014 8.97497 12.3997 9.08627C12.7854 9.19758 13.1208 9.40954 13.3589 9.69245L14.2396 10.7379C14.5161 11.0661 14.6442 11.4692 14.6 11.8723C14.5559 12.2754 14.3426 12.6511 13.9996 12.9295L13.2419 13.544C12.9784 13.7579 12.6585 13.914 12.3093 13.999C11.9602 14.084 11.5923 14.0953 11.2369 14.032C9.12699 13.6556 7.23661 12.1993 5.54961 9.69502C3.86201 7.18919 3.33587 5.05516 4.01379 3.3001C4.12727 3.00628 4.32159 2.74018 4.58035 2.5243C4.8391 2.30842 5.15408 2.14909 5.49981 2.05979ZM5.76078 2.79822C5.55333 2.85178 5.36397 2.94735 5.2087 3.07686C5.05343 3.20637 4.9368 3.36601 4.86869 3.5423C4.28436 5.05464 4.7577 6.97579 6.32952 9.30935C7.90014 11.6414 9.60274 12.9526 11.4211 13.2766C11.6343 13.3145 11.8551 13.3077 12.0645 13.2566C12.274 13.2056 12.4659 13.1119 12.624 12.9835L13.3811 12.3695C13.5658 12.2196 13.6808 12.0174 13.7046 11.8003C13.7284 11.5832 13.6595 11.3661 13.5107 11.1894L12.63 10.1434C12.5018 9.99112 12.3213 9.877 12.1136 9.81707C11.906 9.75713 11.6817 9.75437 11.4721 9.80918L10.0473 10.183C9.25898 10.3841 8.51746 9.821 7.71236 8.62491C7.03024 7.61292 6.79386 6.88169 7.08543 6.37106C7.14222 6.27164 7.21782 6.18405 7.3122 6.10829L8.39508 5.24285C8.55552 5.11469 8.66512 4.94669 8.70848 4.76242C8.75184 4.57815 8.7268 4.38687 8.63685 4.21542L8.01652 3.03425C7.91199 2.83486 7.72636 2.67491 7.4943 2.58425C7.26224 2.4936 6.99961 2.47844 6.75547 2.54162L5.76078 2.79822Z" fill="url(#paint0_linear_1147_36543)" stroke="url(#paint1_linear_1147_36543)" stroke-width="0.239972"/>
<defs>
<linearGradient id="paint0_linear_1147_36543" x1="9.16757" y1="1.73145" x2="9.16757" y2="14.0724" gradientUnits="userSpaceOnUse">
<stop stop-color="#F6A649"/>
<stop offset="1" stop-color="#90612B"/>
</linearGradient>
<linearGradient id="paint1_linear_1147_36543" x1="9.16757" y1="1.73145" x2="9.16757" y2="14.0724" gradientUnits="userSpaceOnUse">
<stop stop-color="#F6A649"/>
<stop offset="1" stop-color="#90612B"/>
</linearGradient>
</defs>
</svg>
