<svg width="16" height="16" viewBox="0 0 16 16" fill="none" xmlns="http://www.w3.org/2000/svg">
<g clip-path="url(#clip0_1147_36532)">
<path d="M12.1641 2.50098H3.23439C2.70809 2.50098 2.20336 2.71005 1.83121 3.08219C1.45907 3.45433 1.25 3.95907 1.25 4.48536V9.44632C1.25 9.97262 1.45907 10.4774 1.83121 10.8495C2.20336 11.2216 2.70809 11.4307 3.23439 11.4307H8.69144L11.668 13.4151V11.4307H12.1641C12.6904 11.4307 13.1951 11.2216 13.5673 10.8495C13.9394 10.4774 14.1485 9.97262 14.1485 9.44632V4.48536C14.1485 3.95907 13.9394 3.45433 13.5673 3.08219C13.1951 2.71005 12.6904 2.50098 12.1641 2.50098Z" stroke="url(#paint0_linear_1147_36532)" stroke-width="1.07987" stroke-linecap="round" stroke-linejoin="round"/>
<path d="M10.7902 6.47472L10.573 6.68159L10.7902 6.47472C10.6549 6.33259 10.4681 6.24984 10.27 6.24984C10.0719 6.24984 9.88514 6.33259 9.74977 6.47472C9.61488 6.61635 9.54151 6.80546 9.54151 6.99975C9.54151 7.19405 9.61488 7.38315 9.74977 7.52479C9.88514 7.66692 10.0719 7.74967 10.27 7.74967C10.4681 7.74967 10.6549 7.66692 10.7902 7.52479L10.573 7.31791L10.7902 7.52479C10.9251 7.38315 10.9985 7.19405 10.9985 6.99975C10.9985 6.80546 10.9251 6.61635 10.7902 6.47472ZM5.64797 7.52479C5.78286 7.38315 5.85623 7.19405 5.85623 6.99975C5.85623 6.80546 5.78286 6.61635 5.64797 6.47472C5.5126 6.33259 5.3258 6.24984 5.12774 6.24984C4.92968 6.24984 4.74288 6.33259 4.60751 6.47472C4.47262 6.61635 4.39925 6.80546 4.39925 6.99975C4.39925 7.19405 4.47262 7.38315 4.60751 7.52479C4.74288 7.66692 4.92968 7.74967 5.12774 7.74967C5.3258 7.74967 5.5126 7.66692 5.64797 7.52479ZM8.2191 7.52479C8.35399 7.38315 8.42736 7.19405 8.42736 6.99975C8.42736 6.80546 8.35399 6.61635 8.2191 6.47472C8.08373 6.33259 7.89693 6.24984 7.69887 6.24984C7.50081 6.24984 7.31401 6.33259 7.17864 6.47472C7.04375 6.61635 6.97038 6.80546 6.97038 6.99975C6.97038 7.19405 7.04375 7.38315 7.17864 7.52479C7.31401 7.66692 7.50081 7.74967 7.69887 7.74967C7.89693 7.74967 8.08373 7.66692 8.2191 7.52479Z" stroke="url(#paint1_linear_1147_36532)" stroke-width="0.59993" stroke-linecap="round" stroke-linejoin="round"/>
</g>
<defs>
<linearGradient id="paint0_linear_1147_36532" x1="7.69925" y1="2.50098" x2="7.69925" y2="13.4151" gradientUnits="userSpaceOnUse">
<stop stop-color="#F6A649"/>
<stop offset="1" stop-color="#90612B"/>
</linearGradient>
<linearGradient id="paint1_linear_1147_36532" x1="7.69887" y1="6.5498" x2="7.69887" y2="7.4497" gradientUnits="userSpaceOnUse">
<stop stop-color="#F6A649"/>
<stop offset="1" stop-color="#90612B"/>
</linearGradient>
<clipPath id="clip0_1147_36532">
<rect width="14.3983" height="14.3983" fill="white" transform="translate(0.650391 0.700195)"/>
</clipPath>
</defs>
</svg>
