<svg width="41" height="40" viewBox="0 0 41 40" fill="none" xmlns="http://www.w3.org/2000/svg">
<g clip-path="url(#clip0_1386_5429)">
<path d="M27.6426 26.6693C27.6426 24.8276 22.4192 23.3359 15.9759 23.3359M27.6426 26.6693C27.6426 28.5109 22.4192 30.0026 15.9759 30.0026C9.53258 30.0026 4.30924 28.5109 4.30924 26.6693M27.6426 26.6693V34.8976C27.6426 36.7959 22.4192 38.3359 15.9759 38.3359C9.53258 38.3359 4.30924 36.7976 4.30924 34.8976V26.6693M27.6426 26.6693C34.0159 26.6693 39.3092 25.0243 39.3092 23.3359V6.66927M15.9759 23.3359C9.53258 23.3359 4.30924 24.8276 4.30924 26.6693M15.9759 23.3359C8.61258 23.3359 2.64258 21.6909 2.64258 20.0026V11.6693M15.9759 8.33594C8.61258 8.33594 2.64258 9.8276 2.64258 11.6693M2.64258 11.6693C2.64258 13.5109 8.61258 15.0026 15.9759 15.0026C15.9759 16.6909 21.3976 18.3359 27.7709 18.3359C34.1442 18.3359 39.3092 16.6909 39.3092 15.0026M39.3092 6.66927C39.3092 4.8276 34.1426 3.33594 27.7709 3.33594C21.3992 3.33594 16.2326 4.8276 16.2326 6.66927M39.3092 6.66927C39.3092 8.51094 34.1426 10.0026 27.7709 10.0026C21.3992 10.0026 16.2326 8.51094 16.2326 6.66927M16.2326 6.66927V23.6126" stroke="#F6A649" stroke-width="2"/>
</g>
<defs>
<clipPath id="clip0_1386_5429">
<rect width="40" height="40" fill="white" transform="translate(0.976562)"/>
</clipPath>
</defs>
</svg>
