<svg width="40" height="40" viewBox="0 0 40 40" fill="none" xmlns="http://www.w3.org/2000/svg">
<g clip-path="url(#clip0_1386_5435)">
<path d="M17.0251 27.9665L21.8399 29.5715C21.8399 29.5715 33.8769 27.1641 35.4818 27.1641C37.0868 27.1641 37.0868 28.769 35.4818 30.3739C33.8769 31.9789 28.2596 36.7937 23.4448 36.7937C18.63 36.7937 15.4201 34.3863 12.2102 34.3863H4.18555" stroke="#F6A649" stroke-width="2" stroke-linecap="round" stroke-linejoin="round"/>
<path d="M37.4748 10.3133L25.2447 1.76272C25.092 1.65669 24.9034 1.6152 24.72 1.64732C24.5366 1.67944 24.3733 1.78256 24.2658 1.93415L15.6694 14.1321C15.5788 14.2843 15.5492 14.4649 15.5864 14.6378C15.6237 14.8107 15.725 14.9631 15.8702 15.0646C16.0154 15.1661 16.1938 15.2093 16.3697 15.1854C16.5456 15.1615 16.706 15.0724 16.819 14.9358L25.0085 3.31527L36.661 11.468C36.8136 11.5581 36.9948 11.5874 37.1684 11.5501C37.3419 11.5127 37.495 11.4116 37.5971 11.2667C37.6991 11.1219 37.7426 10.9441 37.7189 10.7689C37.6952 10.5936 37.6059 10.4338 37.469 10.3214L37.4748 10.3133Z" fill="#041A47"/>
<path d="M35.2925 21.1812L31.8214 21.7891L30.6102 14.8729L23.668 16.0887L24.8792 23.0049L21.4081 23.6128L19.7124 13.9301L18.5662 15.5565L20.0197 23.8559C20.0839 24.2228 20.2918 24.549 20.5977 24.7628C20.9035 24.9766 21.2821 25.0605 21.6504 24.996L26.5099 24.145L25.2987 17.2288L29.464 16.4993L30.6752 23.4155L35.5347 22.5644C35.903 22.5 36.2306 22.2924 36.4456 21.9874C36.6605 21.6824 36.7452 21.3049 36.6809 20.9381L35.1984 12.4727L33.5677 11.3326L35.2925 21.1812Z" fill="#041A47"/>
<path d="M37.4748 10.3133L25.2447 1.76272C25.092 1.65669 24.9034 1.6152 24.72 1.64732C24.5366 1.67944 24.3733 1.78256 24.2658 1.93415L15.6694 14.1321C15.5788 14.2843 15.5492 14.4649 15.5864 14.6378C15.6237 14.8107 15.725 14.9631 15.8702 15.0646C16.0154 15.1661 16.1938 15.2093 16.3697 15.1854C16.5456 15.1615 16.706 15.0724 16.819 14.9358L25.0085 3.31527L36.661 11.468C36.8136 11.5581 36.9948 11.5874 37.1684 11.5501C37.3419 11.5127 37.495 11.4116 37.5971 11.2667C37.6991 11.1219 37.7426 10.9441 37.7189 10.7689C37.6952 10.5936 37.6059 10.4338 37.469 10.3214L37.4748 10.3133Z" stroke="#041A47" stroke-width="0.55"/>
<path d="M35.2925 21.1812L31.8214 21.7891L30.6102 14.8729L23.668 16.0887L24.8792 23.0049L21.4081 23.6128L19.7124 13.9301L18.5662 15.5565L20.0197 23.8559C20.0839 24.2228 20.2918 24.549 20.5977 24.7628C20.9035 24.9766 21.2821 25.0605 21.6504 24.996L26.5099 24.145L25.2987 17.2288L29.464 16.4993L30.6752 23.4155L35.5347 22.5644C35.903 22.5 36.2306 22.2924 36.4456 21.9874C36.6605 21.6824 36.7452 21.3049 36.6809 20.9381L35.1984 12.4727L33.5677 11.3326L35.2925 21.1812Z" stroke="#041A47" stroke-width="0.55"/>
<path d="M4.18555 24.7545C5.79049 23.1496 9.00036 20.7422 12.2102 20.7422C15.4201 20.7422 23.0436 23.9521 24.2473 25.557C25.451 27.1619 21.8399 29.5693 21.8399 29.5693" stroke="#F6A649" stroke-width="2" stroke-linecap="round" stroke-linejoin="round"/>
</g>
<defs>
<clipPath id="clip0_1386_5435">
<rect width="38.5185" height="40" fill="white" transform="translate(0.976562)"/>
</clipPath>
</defs>
</svg>
