<svg width="15" height="16" viewBox="0 0 15 16" fill="none" xmlns="http://www.w3.org/2000/svg">
<g clip-path="url(#clip0_1147_36537)">
<path d="M10.3053 7.88563L13.9954 4.6796V11.0551L10.3053 7.88563ZM5.55022 8.42857L6.84607 9.55344C7.04945 9.72622 7.31461 9.83061 7.60438 9.83061H7.61458H7.62238C7.91275 9.83061 8.17791 9.72562 8.38369 9.55164L8.38189 9.55284L9.67774 8.42797L13.6169 11.811H1.61288L5.55022 8.42857ZM1.60748 3.91949H13.6241L7.85215 8.93251C7.78726 8.98384 7.70692 9.01174 7.62418 9.0117H7.61578H7.60798C7.52494 9.01181 7.44434 8.98367 7.37941 8.93191L7.38001 8.93251L1.60748 3.91949ZM1.23492 4.679L4.92449 7.88503L1.23492 11.0527V4.679ZM14.1934 3.21457C14.0494 3.14258 13.8803 3.10059 13.7009 3.10059H1.53129C1.3574 3.10063 1.18591 3.14109 1.03034 3.21877L1.03694 3.21577C0.850709 3.30763 0.693872 3.44973 0.584149 3.62603C0.474425 3.80233 0.416188 4.0058 0.416016 4.21346V11.5158C0.416333 11.8113 0.533873 12.0947 0.742846 12.3036C0.951818 12.5126 1.23515 12.6302 1.53069 12.6305H13.6991C13.9946 12.6302 14.2779 12.5126 14.4869 12.3036C14.6959 12.0947 14.8134 11.8113 14.8137 11.5158V4.21346C14.8137 3.77731 14.5624 3.39935 14.1964 3.21757L14.1898 3.21457H14.1934Z" fill="url(#paint0_linear_1147_36537)" stroke="url(#paint1_linear_1147_36537)" stroke-width="0.119986"/>
</g>
<defs>
<linearGradient id="paint0_linear_1147_36537" x1="7.61488" y1="3.10059" x2="7.61488" y2="12.6305" gradientUnits="userSpaceOnUse">
<stop stop-color="#F6A649"/>
<stop offset="1" stop-color="#90612B"/>
</linearGradient>
<linearGradient id="paint1_linear_1147_36537" x1="7.61488" y1="3.10059" x2="7.61488" y2="12.6305" gradientUnits="userSpaceOnUse">
<stop stop-color="#F6A649"/>
<stop offset="1" stop-color="#90612B"/>
</linearGradient>
<clipPath id="clip0_1147_36537">
<rect width="14.3983" height="14.3983" fill="white" transform="translate(0.416016 0.700195)"/>
</clipPath>
</defs>
</svg>
