<svg width="17" height="13" viewBox="0 0 17 13" fill="none" xmlns="http://www.w3.org/2000/svg">
<path d="M14.4397 3.84409V2.53575C14.4397 1.45637 13.5566 0.573242 12.4772 0.573242H9.86053C9.35682 0.573242 8.8989 0.769493 8.55219 1.0835C8.20548 0.769493 7.74756 0.573242 7.24385 0.573242H4.62717C3.54779 0.573242 2.66466 1.45637 2.66466 2.53575V3.84409C1.58528 3.84409 0.702148 4.72722 0.702148 5.80661V9.07746C0.702148 10.1568 1.58528 11.04 2.66466 11.04V12.3483H3.973V11.04H13.1314V12.3483H14.4397V11.04C15.5191 11.04 16.4022 10.1568 16.4022 9.07746V5.80661C16.4022 4.72722 15.5191 3.84409 14.4397 3.84409ZM9.86053 1.88158H12.4772C12.837 1.88158 13.1314 2.17596 13.1314 2.53575V4.35435C12.7323 4.71414 12.4772 5.23094 12.4772 5.80661V7.11495H9.20636V2.53575C9.20636 2.17596 9.50074 1.88158 9.86053 1.88158ZM3.973 2.53575C3.973 2.17596 4.26738 1.88158 4.62717 1.88158H7.24385C7.60365 1.88158 7.89802 2.17596 7.89802 2.53575V7.11495H4.62717V5.80661C4.62717 5.23094 4.37204 4.71414 3.973 4.35435V2.53575ZM15.0939 9.07746C15.0939 9.43725 14.7995 9.73163 14.4397 9.73163H2.66466C2.30487 9.73163 2.01049 9.43725 2.01049 9.07746V5.80661C2.01049 5.44681 2.30487 5.15244 2.66466 5.15244C3.02445 5.15244 3.31883 5.44681 3.31883 5.80661V8.42329H13.7856V5.80661C13.7856 5.44681 14.0799 5.15244 14.4397 5.15244C14.7995 5.15244 15.0939 5.44681 15.0939 5.80661V9.07746Z" fill="white" stroke="#0D0D0D" stroke-width="0.549503"/>
</svg>
