<svg width="16" height="17" viewBox="0 0 16 17" fill="none" xmlns="http://www.w3.org/2000/svg">
<g clip-path="url(#clip0_1147_36507)">
<path d="M14.002 6.1805V4.84717C14.002 3.74717 13.102 2.84717 12.002 2.84717H9.33529C8.82195 2.84717 8.35529 3.04717 8.00195 3.36717C7.64862 3.04717 7.18195 2.84717 6.66862 2.84717H4.00195C2.90195 2.84717 2.00195 3.74717 2.00195 4.84717V6.1805C0.901953 6.1805 0.00195312 7.0805 0.00195312 8.1805V11.5138C0.00195312 12.6138 0.901953 13.5138 2.00195 13.5138V14.8472H3.33529V13.5138H12.6686V14.8472H14.002V13.5138C15.102 13.5138 16.002 12.6138 16.002 11.5138V8.1805C16.002 7.0805 15.102 6.1805 14.002 6.1805ZM9.33529 4.1805H12.002C12.3686 4.1805 12.6686 4.4805 12.6686 4.84717V6.7005C12.262 7.06717 12.002 7.59384 12.002 8.1805V9.51384H8.66862V4.84717C8.66862 4.4805 8.96862 4.1805 9.33529 4.1805ZM3.33529 4.84717C3.33529 4.4805 3.63529 4.1805 4.00195 4.1805H6.66862C7.03529 4.1805 7.33529 4.4805 7.33529 4.84717V9.51384H4.00195V8.1805C4.00195 7.59384 3.74195 7.06717 3.33529 6.7005V4.84717ZM14.6686 11.5138C14.6686 11.8805 14.3686 12.1805 14.002 12.1805H2.00195C1.63529 12.1805 1.33529 11.8805 1.33529 11.5138V8.1805C1.33529 7.81384 1.63529 7.51383 2.00195 7.51383C2.36862 7.51383 2.66862 7.81384 2.66862 8.1805V10.8472H13.3353V8.1805C13.3353 7.81384 13.6353 7.51383 14.002 7.51383C14.3686 7.51383 14.6686 7.81384 14.6686 8.1805V11.5138Z" fill="black" stroke="white" stroke-width="0.549503"/>
</g>
<defs>
<clipPath id="clip0_1147_36507">
<rect width="16" height="16" fill="white" transform="translate(0.00195312 0.180176)"/>
</clipPath>
</defs>
</svg>
