<svg width="11" height="12" viewBox="0 0 11 12" fill="none" xmlns="http://www.w3.org/2000/svg">
<path d="M5.75 0.430664C7.07608 0.430664 8.34785 0.957448 9.28553 1.89513C10.2232 2.83281 10.75 4.10458 10.75 5.43066C10.75 7.13844 9.81889 8.53622 8.83778 9.539C8.3476 10.0346 7.81274 10.4839 7.24 10.8812L7.00333 11.0423L6.89222 11.1162L6.68278 11.2496L6.49611 11.3634L6.265 11.4979C6.10813 11.5874 5.93063 11.6345 5.75 11.6345C5.56937 11.6345 5.39187 11.5874 5.235 11.4979L5.00389 11.3634L4.715 11.1857L4.60833 11.1162L4.38056 10.9646C3.76268 10.5465 3.18717 10.0691 2.66222 9.539C1.68111 8.53566 0.75 7.13844 0.75 5.43066C0.75 4.10458 1.27678 2.83281 2.21447 1.89513C3.15215 0.957448 4.42392 0.430664 5.75 0.430664ZM5.75 3.764C5.53113 3.764 5.3144 3.80711 5.11219 3.89086C4.90999 3.97462 4.72625 4.09739 4.57149 4.25215C4.41672 4.40692 4.29396 4.59065 4.2102 4.79286C4.12644 4.99507 4.08333 5.21179 4.08333 5.43066C4.08333 5.64953 4.12644 5.86626 4.2102 6.06847C4.29396 6.27068 4.41672 6.45441 4.57149 6.60918C4.72625 6.76394 4.90999 6.88671 5.11219 6.97046C5.3144 7.05422 5.53113 7.09733 5.75 7.09733C6.19203 7.09733 6.61595 6.92174 6.92851 6.60918C7.24107 6.29662 7.41667 5.87269 7.41667 5.43066C7.41667 4.98864 7.24107 4.56471 6.92851 4.25215C6.61595 3.93959 6.19203 3.764 5.75 3.764Z" fill="url(#paint0_linear_1888_9509)"/>
<defs>
<linearGradient id="paint0_linear_1888_9509" x1="0.75" y1="6.03259" x2="10.75" y2="6.03259" gradientUnits="userSpaceOnUse">
<stop stop-color="#041A47"/>
<stop offset="1" stop-color="#0A3FAD"/>
</linearGradient>
</defs>
</svg>
