<svg width="9" height="10" viewBox="0 0 9 10" fill="none" xmlns="http://www.w3.org/2000/svg">
<path d="M4.5543 -0.000976562C5.68992 -0.000976562 6.77902 0.450145 7.58202 1.25315C8.38503 2.05615 8.83615 3.14525 8.83615 4.28087C8.83615 5.74335 8.03877 6.94037 7.19858 7.79911C6.7788 8.22352 6.32077 8.6083 5.83029 8.94855L5.62762 9.08652L5.53247 9.1498L5.35311 9.26398L5.19325 9.36151L4.99533 9.47665C4.861 9.55332 4.70899 9.59365 4.5543 9.59365C4.39962 9.59365 4.24761 9.55332 4.11327 9.47665L3.91536 9.36151L3.66796 9.20927L3.57662 9.1498L3.38155 9.01992C2.85243 8.66192 2.35958 8.25304 1.91003 7.79911C1.06984 6.93989 0.272461 5.74335 0.272461 4.28087C0.272461 3.14525 0.723582 2.05615 1.52658 1.25315C2.32959 0.450145 3.41869 -0.000976562 4.5543 -0.000976562ZM4.5543 2.85359C4.36687 2.85359 4.18127 2.8905 4.00811 2.96223C3.83494 3.03396 3.6776 3.13909 3.54506 3.27163C3.41253 3.40416 3.3074 3.5615 3.23567 3.73467C3.16394 3.90784 3.12702 4.09343 3.12702 4.28087C3.12702 4.4683 3.16394 4.6539 3.23567 4.82706C3.3074 5.00023 3.41253 5.15757 3.54506 5.29011C3.6776 5.42264 3.83494 5.52778 4.00811 5.5995C4.18127 5.67123 4.36687 5.70815 4.5543 5.70815C4.93284 5.70815 5.29588 5.55777 5.56354 5.29011C5.83121 5.02244 5.98159 4.65941 5.98159 4.28087C5.98159 3.90233 5.83121 3.53929 5.56354 3.27163C5.29588 3.00396 4.93284 2.85359 4.5543 2.85359Z" fill="url(#paint0_linear_3792_3180)"/>
<defs>
<linearGradient id="paint0_linear_3792_3180" x1="0.272461" y1="4.79634" x2="8.83615" y2="4.79634" gradientUnits="userSpaceOnUse">
<stop stop-color="#041A47"/>
<stop offset="1" stop-color="#0A3FAD"/>
</linearGradient>
</defs>
</svg>
