<svg width="30" height="30" viewBox="0 0 30 30" fill="none" xmlns="http://www.w3.org/2000/svg">
<path d="M11.5211 23.4002C11.5211 24.4082 11.6771 25.3922 11.9651 26.3042C7.35713 24.7082 3.87713 20.4722 3.51713 15.5162C3.15713 10.2482 6.19313 5.32824 11.1011 3.26424C12.3731 2.73624 13.0211 3.12024 13.2971 3.39624C13.5611 3.66024 13.9331 4.29624 13.4051 5.50824C12.8651 6.75624 12.6011 8.07624 12.6011 9.44424C12.6131 11.8922 13.5731 14.1602 15.1331 15.9002C12.9371 17.6522 11.5211 20.3642 11.5211 23.4002Z" fill="#234FA9"/>
<path d="M26.1754 21.8639C23.7994 25.0919 20.0314 26.9879 16.0114 26.9879C15.8194 26.9879 15.6274 26.9759 15.4354 26.9639C14.2354 26.9159 13.0714 26.6879 11.9674 26.3039C11.6794 25.3919 11.5234 24.4079 11.5234 23.3999C11.5234 20.3639 12.9394 17.6519 15.1354 15.8999C16.8994 17.8799 19.4314 19.1639 22.2274 19.2839C22.9834 19.3199 23.7394 19.2599 24.4834 19.1279C25.8274 18.8879 26.3674 19.3919 26.5594 19.7159C26.7634 20.0399 26.9794 20.7479 26.1754 21.8639Z" fill="#F6A649"/>
</svg>
