<svg width="41" height="40" viewBox="0 0 41 40" fill="none" xmlns="http://www.w3.org/2000/svg">
<path d="M6.32812 8.33073C6.32813 7.22566 6.76711 6.16585 7.54851 5.38445C8.32992 4.60305 9.38972 4.16406 10.4948 4.16406H27.1615C28.2665 4.16406 29.3263 4.60305 30.1077 5.38445C30.8891 6.16585 31.3281 7.22566 31.3281 8.33073V17.4974C31.3281 17.7184 31.2403 17.9304 31.084 18.0867C30.9278 18.2429 30.7158 18.3307 30.4948 18.3307C30.2738 18.3307 30.0618 18.2429 29.9055 18.0867C29.7493 17.9304 29.6615 17.7184 29.6615 17.4974V8.33073C29.6615 7.66769 29.3981 7.0318 28.9292 6.56296C28.4604 6.09412 27.8245 5.83073 27.1615 5.83073H10.4948C9.83175 5.83073 9.19587 6.09412 8.72702 6.56296C8.25818 7.0318 7.99479 7.66769 7.99479 8.33073V31.6641C7.99479 32.3271 8.25818 32.963 8.72702 33.4318C9.19587 33.9007 9.83175 34.1641 10.4948 34.1641H22.1615C22.3825 34.1641 22.5944 34.2519 22.7507 34.4081C22.907 34.5644 22.9948 34.7764 22.9948 34.9974C22.9948 35.2184 22.907 35.4304 22.7507 35.5867C22.5944 35.7429 22.3825 35.8307 22.1615 35.8307H10.4948C9.38972 35.8307 8.32992 35.3917 7.54851 34.6103C6.76711 33.8289 6.32813 32.7691 6.32812 31.6641V8.33073Z" fill="#F6A649" stroke="#F6A649" stroke-width="0.5"/>
<path d="M30.4939 22.5004C30.7149 22.5004 30.9269 22.5882 31.0831 22.7445C31.2394 22.9008 31.3272 23.1127 31.3272 23.3337V24.4454H31.6089C33.1922 24.4454 34.6606 25.5854 34.6606 27.2221C34.6606 27.4431 34.5728 27.655 34.4165 27.8113C34.2602 27.9676 34.0482 28.0554 33.8272 28.0554C33.6062 28.0554 33.3943 27.9676 33.238 27.8113C33.0817 27.655 32.9939 27.4431 32.9939 27.2221C32.9939 26.7054 32.4839 26.1121 31.6089 26.1121H29.0989C28.3822 26.1121 27.9939 26.6004 27.9939 26.9721C27.9939 27.3271 28.0806 27.4471 28.1322 27.5021C28.2089 27.5837 28.3639 27.6787 28.7156 27.7837L32.7439 28.9521C33.1822 29.0821 33.6856 29.2821 34.0706 29.6921C34.4822 30.1304 34.6606 30.6987 34.6606 31.3621C34.6606 32.8587 33.3089 33.8887 31.8889 33.8887H31.3272V35.0004C31.3272 35.2214 31.2394 35.4334 31.0831 35.5897C30.9269 35.7459 30.7149 35.8337 30.4939 35.8337C30.2729 35.8337 30.0609 35.7459 29.9046 35.5897C29.7484 35.4334 29.6606 35.2214 29.6606 35.0004V33.8887H29.3789C27.7956 33.8887 26.3272 32.7487 26.3272 31.1121C26.3272 30.8911 26.415 30.6791 26.5713 30.5228C26.7276 30.3665 26.9395 30.2787 27.1606 30.2787C27.3816 30.2787 27.5935 30.3665 27.7498 30.5228C27.9061 30.6791 27.9939 30.8911 27.9939 31.1121C27.9939 31.6287 28.5039 32.2221 29.3789 32.2221H31.8889C32.6056 32.2221 32.9939 31.7337 32.9939 31.3621C32.9939 31.0071 32.9072 30.8871 32.8556 30.8321C32.7789 30.7504 32.6239 30.6554 32.2722 30.5504L28.2439 29.3821C27.8056 29.2521 27.3022 29.0521 26.9172 28.6421C26.5056 28.2037 26.3272 27.6354 26.3272 26.9721C26.3272 25.4754 27.6789 24.4454 29.0989 24.4454H29.6606V23.3337C29.6606 23.1127 29.7484 22.9008 29.9046 22.7445C30.0609 22.5882 30.2729 22.5004 30.4939 22.5004ZM11.3272 18.3337C11.3272 18.1127 11.415 17.9008 11.5713 17.7445C11.7276 17.5882 11.9395 17.5004 12.1606 17.5004H12.9939C13.2149 17.5004 13.4269 17.5882 13.5831 17.7445C13.7394 17.9008 13.8272 18.1127 13.8272 18.3337C13.8272 18.5547 13.7394 18.7667 13.5831 18.923C13.4269 19.0793 13.2149 19.1671 12.9939 19.1671H12.1606C11.9395 19.1671 11.7276 19.0793 11.5713 18.923C11.415 18.7667 11.3272 18.5547 11.3272 18.3337ZM16.3272 18.3337C16.3272 18.1127 16.415 17.9008 16.5713 17.7445C16.7276 17.5882 16.9395 17.5004 17.1606 17.5004H25.4939C25.7149 17.5004 25.9269 17.5882 26.0831 17.7445C26.2394 17.9008 26.3272 18.1127 26.3272 18.3337C26.3272 18.5547 26.2394 18.7667 26.0831 18.923C25.9269 19.0793 25.7149 19.1671 25.4939 19.1671H17.1606C16.9395 19.1671 16.7276 19.0793 16.5713 18.923C16.415 18.7667 16.3272 18.5547 16.3272 18.3337ZM11.3272 23.3337C11.3272 23.1127 11.415 22.9008 11.5713 22.7445C11.7276 22.5882 11.9395 22.5004 12.1606 22.5004H12.9939C13.2149 22.5004 13.4269 22.5882 13.5831 22.7445C13.7394 22.9008 13.8272 23.1127 13.8272 23.3337C13.8272 23.5548 13.7394 23.7667 13.5831 23.923C13.4269 24.0793 13.2149 24.1671 12.9939 24.1671H12.1606C11.9395 24.1671 11.7276 24.0793 11.5713 23.923C11.415 23.7667 11.3272 23.5548 11.3272 23.3337ZM16.3272 23.3337C16.3272 23.1127 16.415 22.9008 16.5713 22.7445C16.7276 22.5882 16.9395 22.5004 17.1606 22.5004H22.9939C23.2149 22.5004 23.4269 22.5882 23.5831 22.7445C23.7394 22.9008 23.8272 23.1127 23.8272 23.3337C23.8272 23.5548 23.7394 23.7667 23.5831 23.923C23.4269 24.0793 23.2149 24.1671 22.9939 24.1671H17.1606C16.9395 24.1671 16.7276 24.0793 16.5713 23.923C16.415 23.7667 16.3272 23.5548 16.3272 23.3337ZM11.3272 28.3337C11.3272 28.1127 11.415 27.9008 11.5713 27.7445C11.7276 27.5882 11.9395 27.5004 12.1606 27.5004H12.9939C13.2149 27.5004 13.4269 27.5882 13.5831 27.7445C13.7394 27.9008 13.8272 28.1127 13.8272 28.3337C13.8272 28.5548 13.7394 28.7667 13.5831 28.923C13.4269 29.0793 13.2149 29.1671 12.9939 29.1671H12.1606C11.9395 29.1671 11.7276 29.0793 11.5713 28.923C11.415 28.7667 11.3272 28.5548 11.3272 28.3337ZM16.3272 28.3337C16.3272 28.1127 16.415 27.9008 16.5713 27.7445C16.7276 27.5882 16.9395 27.5004 17.1606 27.5004H20.4939C20.7149 27.5004 20.9269 27.5882 21.0831 27.7445C21.2394 27.9008 21.3272 28.1127 21.3272 28.3337C21.3272 28.5548 21.2394 28.7667 21.0831 28.923C20.9269 29.0793 20.7149 29.1671 20.4939 29.1671H17.1606C16.9395 29.1671 16.7276 29.0793 16.5713 28.923C16.415 28.7667 16.3272 28.5548 16.3272 28.3337ZM11.8006 7.5004H25.8539C26.0639 7.5004 26.2689 7.5004 26.4422 7.51374C26.6322 7.5304 26.8589 7.56707 27.0839 7.68207C27.3975 7.84186 27.6524 8.09681 27.8122 8.4104C27.9289 8.63707 27.9639 8.8604 27.9789 9.05207C27.9939 9.2254 27.9939 9.4304 27.9939 9.6404V12.0271C27.9939 12.2371 27.9939 12.4421 27.9789 12.6154C27.9669 12.8383 27.9102 13.0565 27.8122 13.2571C27.6524 13.5707 27.3975 13.8256 27.0839 13.9854C26.8833 14.0834 26.6651 14.14 26.4422 14.1521C26.2464 14.164 26.0501 14.169 25.8539 14.1671H11.8006C11.5906 14.1671 11.3856 14.1671 11.2122 14.1537C10.9892 14.1412 10.771 14.0839 10.5706 13.9854C10.257 13.8256 10.002 13.5707 9.84223 13.2571C9.74426 13.0565 9.68758 12.8383 9.67556 12.6154C9.66363 12.4195 9.65863 12.2233 9.66056 12.0271V9.6404C9.66056 9.4304 9.66056 9.2254 9.67389 9.05207C9.69056 8.86207 9.72723 8.6354 9.84223 8.4104C10.002 8.09681 10.257 7.84186 10.5706 7.68207C10.7711 7.58411 10.9893 7.52743 11.2122 7.5154C11.4081 7.50348 11.6043 7.49847 11.8006 7.5004ZM11.3372 9.17707V9.18707C11.3272 9.2854 11.3272 9.4204 11.3272 9.66707V12.0004C11.3246 12.1638 11.3279 12.3272 11.3372 12.4904H11.3472C11.4456 12.5004 11.5806 12.5004 11.8272 12.5004H25.8272C26.0739 12.5004 26.2106 12.5004 26.3072 12.4921H26.3172V12.4804C26.3263 12.3206 26.3297 12.1605 26.3272 12.0004V9.66707C26.3299 9.50367 26.3266 9.34022 26.3172 9.17707H26.3072C26.1474 9.16797 25.9873 9.16464 25.8272 9.16707H11.8272C11.6638 9.1644 11.5004 9.16773 11.3372 9.17707Z" fill="#F6A649" stroke="#F6A649" stroke-width="0.5"/>
</svg>
