<svg width="17" height="17" viewBox="0 0 17 17" fill="none" xmlns="http://www.w3.org/2000/svg">
<path d="M15.1569 9.58333H9.32357V15.4167C9.32357 15.7261 9.20065 16.0228 8.98186 16.2416C8.76307 16.4604 8.46632 16.5833 8.1569 16.5833C7.84748 16.5833 7.55074 16.4604 7.33195 16.2416C7.11315 16.0228 6.99024 15.7261 6.99024 15.4167V9.58333H1.1569C0.847482 9.58333 0.550736 9.46042 0.331943 9.24162C0.113151 9.02283 -0.00976562 8.72609 -0.00976562 8.41667C-0.00976562 8.10725 0.113151 7.8105 0.331943 7.59171C0.550736 7.37292 0.847482 7.25 1.1569 7.25H6.99024V1.41667C6.99024 1.10725 7.11315 0.810501 7.33195 0.591708C7.55074 0.372916 7.84748 0.25 8.1569 0.25C8.46632 0.25 8.76307 0.372916 8.98186 0.591708C9.20065 0.810501 9.32357 1.10725 9.32357 1.41667V7.25H15.1569C15.4663 7.25 15.7631 7.37292 15.9819 7.59171C16.2007 7.8105 16.3236 8.10725 16.3236 8.41667C16.3236 8.72609 16.2007 9.02283 15.9819 9.24162C15.7631 9.46042 15.4663 9.58333 15.1569 9.58333Z" fill="url(#paint0_linear_1147_44634)"/>
<defs>
<linearGradient id="paint0_linear_1147_44634" x1="8.1569" y1="0.25" x2="8.1569" y2="16.5833" gradientUnits="userSpaceOnUse">
<stop stop-color="#F6A649"/>
<stop offset="1" stop-color="#90612B"/>
</linearGradient>
</defs>
</svg>
