<svg width="197" height="207" viewBox="0 0 197 207" fill="none" xmlns="http://www.w3.org/2000/svg">
<path d="M196.02 110.485L184.444 91.2569L191.311 69.6777C192.24 66.7327 191.083 63.4984 188.53 61.9572L169.798 50.586L166.354 28.1159C165.874 25.0507 163.421 22.7641 160.479 22.6359L138.875 21.745L125.912 3.52837C124.145 1.0408 120.944 0.213371 118.299 1.55365L98.7831 11.3281L79.2605 1.54572C76.6084 0.221302 73.4229 1.04873 71.6468 3.52837L58.6849 21.745L37.0814 22.6359C34.1468 22.7562 31.6855 25.0428 31.2136 28.108L27.7682 50.5781L9.03765 61.9493C6.48468 63.4904 5.31865 66.7248 6.24871 69.6697L13.1144 91.2489L1.54694 110.485C-0.0307817 113.108 0.373376 116.536 2.49959 118.686L18.0985 134.439L16.3451 157.117C16.1091 160.223 17.9693 163.055 20.7959 163.922L41.5622 170.222L50.0131 191.175C51.1716 194.024 54.0748 195.677 56.9553 195.018L78.1397 190.445L94.8595 204.866C95.9942 205.837 97.3886 206.342 98.7831 206.342C100.178 206.342 101.564 205.837 102.708 204.866L119.428 190.445L140.612 195.018C143.485 195.661 146.403 194.032 147.554 191.175L156.005 170.222L176.772 163.922C179.598 163.063 181.457 160.223 181.221 157.117L179.469 134.439L195.068 118.686C197.194 116.536 197.598 113.108 196.02 110.485ZM143.569 79.0992L100.201 147.519C98.5622 150.072 96.0255 151.781 93.5027 151.781C90.9874 151.781 88.1758 150.296 86.3848 148.402L54.5467 114.336C52.3753 112.009 52.3753 108.238 54.5467 105.91L62.4039 97.4837C64.5753 95.1891 68.1036 95.1891 70.2599 97.4837L90.9799 119.648L125.15 65.7375C126.864 63.0173 130.348 62.3273 132.878 64.1646L142.091 70.8329C144.629 72.6794 145.284 76.3949 143.569 79.0992Z" fill="url(#paint0_linear_3080_20907)"/>
<defs>
<linearGradient id="paint0_linear_3080_20907" x1="0.587891" y1="103.629" x2="196.98" y2="103.629" gradientUnits="userSpaceOnUse">
<stop stop-color="#041A47"/>
<stop offset="1" stop-color="#0A3FAD"/>
</linearGradient>
</defs>
</svg>
