<svg width="30" height="30" viewBox="0 0 30 30" fill="none" xmlns="http://www.w3.org/2000/svg">
<path d="M21.1201 15C21.1201 16.5913 20.488 18.1174 19.3628 19.2426C18.2375 20.3679 16.7114 21 15.1201 21C13.5288 21 12.0027 20.3679 10.8775 19.2426C9.75226 18.1174 9.12012 16.5913 9.12012 15C9.12012 13.4087 9.75226 11.8826 10.8775 10.7574C12.0027 9.63214 13.5288 9 15.1201 9C16.7114 9 18.2375 9.63214 19.3628 10.7574C20.488 11.8826 21.1201 13.4087 21.1201 15Z" fill="#285ABE"/>
<path fill-rule="evenodd" clip-rule="evenodd" d="M15.1197 2.09961C15.3584 2.09961 15.5873 2.19443 15.7561 2.36321C15.9249 2.532 16.0197 2.76091 16.0197 2.99961V5.39961C16.0197 5.6383 15.9249 5.86722 15.7561 6.03601C15.5873 6.20479 15.3584 6.29961 15.1197 6.29961C14.881 6.29961 14.6521 6.20479 14.4833 6.03601C14.3145 5.86722 14.2197 5.6383 14.2197 5.39961V2.99961C14.2197 2.76091 14.3145 2.532 14.4833 2.36321C14.6521 2.19443 14.881 2.09961 15.1197 2.09961ZM2.21973 14.9996C2.21973 14.7609 2.31455 14.532 2.48333 14.3632C2.65211 14.1944 2.88103 14.0996 3.11973 14.0996H5.51973C5.75842 14.0996 5.98734 14.1944 6.15612 14.3632C6.32491 14.532 6.41973 14.7609 6.41973 14.9996C6.41973 15.2383 6.32491 15.4672 6.15612 15.636C5.98734 15.8048 5.75842 15.8996 5.51973 15.8996H3.11973C2.88103 15.8996 2.65211 15.8048 2.48333 15.636C2.31455 15.4672 2.21973 15.2383 2.21973 14.9996ZM23.8197 14.9996C23.8197 14.7609 23.9145 14.532 24.0833 14.3632C24.2521 14.1944 24.481 14.0996 24.7197 14.0996H27.1197C27.3584 14.0996 27.5873 14.1944 27.7561 14.3632C27.9249 14.532 28.0197 14.7609 28.0197 14.9996C28.0197 15.2383 27.9249 15.4672 27.7561 15.636C27.5873 15.8048 27.3584 15.8996 27.1197 15.8996H24.7197C24.481 15.8996 24.2521 15.8048 24.0833 15.636C23.9145 15.4672 23.8197 15.2383 23.8197 14.9996ZM15.1197 23.6996C15.3584 23.6996 15.5873 23.7944 15.7561 23.9632C15.9249 24.132 16.0197 24.3609 16.0197 24.5996V26.9996C16.0197 27.2383 15.9249 27.4672 15.7561 27.636C15.5873 27.8048 15.3584 27.8996 15.1197 27.8996C14.881 27.8996 14.6521 27.8048 14.4833 27.636C14.3145 27.4672 14.2197 27.2383 14.2197 26.9996V24.5996C14.2197 24.3609 14.3145 24.132 14.4833 23.9632C14.6521 23.7944 14.881 23.6996 15.1197 23.6996Z" fill="#F7B161"/>
<path opacity="0.5" d="M5.12363 5.05894C5.28458 4.8829 5.50883 4.77795 5.74711 4.76715C5.98539 4.75635 6.21822 4.84058 6.39443 5.00134L9.05963 7.43974C9.23209 7.60171 9.33384 7.82508 9.34284 8.06151C9.35185 8.29793 9.2674 8.5284 9.10776 8.70302C8.94812 8.87765 8.72613 8.98239 8.48985 8.99457C8.25357 9.00676 8.02199 8.92541 7.84523 8.76814L5.18003 6.32974C5.09268 6.25002 5.0219 6.15388 4.97174 6.0468C4.92157 5.93972 4.89299 5.8238 4.88764 5.70567C4.88229 5.58754 4.90027 5.46952 4.94056 5.35834C4.98085 5.24716 5.04265 5.14502 5.12243 5.05774M25.118 5.05894C25.1979 5.14614 25.2598 5.24823 25.3002 5.35936C25.3406 5.47049 25.3586 5.58849 25.3534 5.70662C25.3482 5.82475 25.3197 5.94069 25.2696 6.04781C25.2196 6.15493 25.1489 6.25114 25.0616 6.33094L22.394 8.76694C22.3078 8.85146 22.2054 8.91775 22.0929 8.96187C21.9805 9.00599 21.8603 9.02703 21.7396 9.02373C21.6189 9.02044 21.5001 8.99288 21.3902 8.94269C21.2803 8.89251 21.1817 8.82072 21.1002 8.73162C21.0187 8.64252 20.9559 8.53792 20.9156 8.42405C20.8754 8.31018 20.8585 8.18937 20.8659 8.06883C20.8733 7.94828 20.9049 7.83046 20.9588 7.72238C21.0127 7.6143 21.0878 7.51818 21.1796 7.43974L23.846 5.00134C23.9333 4.92155 24.0355 4.85975 24.1466 4.81947C24.2578 4.77918 24.3758 4.7612 24.494 4.76655C24.6121 4.7719 24.728 4.80047 24.8351 4.85064C24.9422 4.90081 25.0383 4.97159 25.118 5.05894ZM21.1508 21.0297C21.3196 20.8612 21.5483 20.7665 21.7868 20.7665C22.0253 20.7665 22.2541 20.8612 22.4228 21.0297L25.0904 23.6961C25.1763 23.7792 25.2449 23.8785 25.292 23.9884C25.3391 24.0982 25.3639 24.2163 25.3649 24.3358C25.3658 24.4553 25.343 24.5738 25.2977 24.6844C25.2524 24.795 25.1855 24.8954 25.101 24.9799C25.0164 25.0644 24.9159 25.1311 24.8053 25.1763C24.6947 25.2215 24.5761 25.2443 24.4566 25.2432C24.3371 25.2421 24.2191 25.2172 24.1093 25.17C23.9995 25.1227 23.9002 25.0541 23.8172 24.9681L21.1508 22.3017C20.9823 22.133 20.8876 21.9042 20.8876 21.6657C20.8876 21.4272 20.9823 21.1985 21.1508 21.0297ZM9.08963 21.0297C9.25817 21.1985 9.35284 21.4272 9.35284 21.6657C9.35284 21.9042 9.25817 22.133 9.08963 22.3017L6.42323 24.9693C6.25262 25.1283 6.02696 25.2149 5.7938 25.2107C5.56064 25.2066 5.33818 25.1122 5.17328 24.9473C5.00839 24.7824 4.91393 24.5599 4.90982 24.3268C4.90571 24.0936 4.99225 23.8679 5.15123 23.6973L7.81763 21.0297C7.98638 20.8612 8.21513 20.7665 8.45363 20.7665C8.69213 20.7665 8.92088 20.8612 9.08963 21.0297Z" fill="#F7B161"/>
</svg>
