<svg width="18" height="19" viewBox="0 0 18 19" fill="none" xmlns="http://www.w3.org/2000/svg">
<g clip-path="url(#clip0_753_22139)">
<path fill-rule="evenodd" clip-rule="evenodd" d="M8.09189 2.37891C7.1489 2.37891 6.24453 2.75351 5.57774 3.4203C4.91094 4.0871 4.53634 4.99147 4.53634 5.93446C4.53634 6.87745 4.91094 7.78182 5.57774 8.44862C6.24453 9.11542 7.1489 9.49002 8.09189 9.49002C9.03489 9.49002 9.93926 9.11542 10.6061 8.44862C11.2728 7.78182 11.6475 6.87745 11.6475 5.93446C11.6475 4.99147 11.2728 4.0871 10.6061 3.4203C9.93926 2.75351 9.03489 2.37891 8.09189 2.37891ZM8.09189 10.2011C6.38878 10.2011 4.83856 10.6946 3.69865 11.3901C3.12976 11.7371 2.64336 12.1467 2.29207 12.5919C1.94647 13.0285 1.69189 13.5526 1.69189 14.1122C1.69189 14.7131 1.98416 15.1867 2.40514 15.5245C2.80336 15.8445 3.32887 16.0564 3.88709 16.2043C5.00923 16.5009 6.50683 16.6011 8.09189 16.6011C8.25592 16.6011 8.41829 16.5999 8.57901 16.5976C8.6981 16.5959 8.81488 16.5644 8.91862 16.5059C9.02236 16.4474 9.10974 16.3637 9.17274 16.2627C9.23573 16.1616 9.27233 16.0463 9.27918 15.9274C9.28602 15.8085 9.26288 15.6897 9.21189 15.5821C8.94225 15.0114 8.80259 14.3879 8.80301 13.7567C8.80301 12.8664 9.07536 12.0415 9.54043 11.3581C9.60956 11.2566 9.6512 11.1388 9.66129 11.0164C9.67138 10.894 9.64959 10.771 9.59802 10.6595C9.54646 10.548 9.46689 10.4517 9.36707 10.3801C9.26725 10.3085 9.15058 10.264 9.02843 10.2509C8.72218 10.2177 8.41 10.2011 8.09189 10.2011Z" fill="#374151"/>
<path d="M12.8602 13.0519L13.9161 11.9959C14.1106 11.8015 14.4256 11.8015 14.6201 11.9959C14.8144 12.1902 14.8144 12.5056 14.6201 12.6999L13.5641 13.7559L14.6201 14.8118C14.8144 15.0061 14.8144 15.3215 14.6201 15.5158C14.4258 15.7101 14.1104 15.7101 13.9161 15.5158L12.8602 14.4598L11.8042 15.5158C11.6099 15.7101 11.2945 15.7101 11.1002 15.5158C10.9058 15.3213 10.9059 15.0061 11.1002 14.8118L12.1562 13.7559L11.1002 12.6999C10.9058 12.5054 10.9059 12.1902 11.1002 11.9959C11.2945 11.8017 11.6097 11.8015 11.8042 11.9959L12.8602 13.0519Z" fill="#374151" stroke="#374151" stroke-width="0.355556"/>
</g>
<defs>
<clipPath id="clip0_753_22139">
<rect width="17.0667" height="17.0667" fill="white" transform="translate(0.266602 0.957031)"/>
</clipPath>
</defs>
</svg>
