<svg width="28" height="28" viewBox="0 0 28 28" fill="none" xmlns="http://www.w3.org/2000/svg">
<g clip-path="url(#clip0_3001_28140)">
<path fill-rule="evenodd" clip-rule="evenodd" d="M12.8281 2.33594C11.281 2.33594 9.7973 2.95052 8.70334 4.04448C7.60937 5.13844 6.99479 6.62217 6.99479 8.16927C6.99479 9.71637 7.60937 11.2001 8.70334 12.2941C9.7973 13.388 11.281 14.0026 12.8281 14.0026C14.3752 14.0026 15.859 13.388 16.9529 12.2941C18.0469 11.2001 18.6615 9.71637 18.6615 8.16927C18.6615 6.62217 18.0469 5.13844 16.9529 4.04448C15.859 2.95052 14.3752 2.33594 12.8281 2.33594ZM12.8281 15.1693C10.034 15.1693 7.49062 15.9789 5.62046 17.1199C4.68712 17.6893 3.88913 18.3613 3.31279 19.0916C2.74579 19.8079 2.32812 20.6678 2.32812 21.5859C2.32812 22.5718 2.80762 23.3488 3.49829 23.9029C4.15162 24.4279 5.01379 24.7756 5.92962 25.0183C7.77062 25.5048 10.2276 25.6693 12.8281 25.6693C13.0972 25.6693 13.3636 25.6673 13.6273 25.6634C13.8227 25.6608 14.0143 25.609 14.1845 25.513C14.3547 25.417 14.498 25.2798 14.6014 25.114C14.7047 24.9481 14.7648 24.759 14.776 24.5639C14.7872 24.3688 14.7493 24.174 14.6656 23.9974C14.2232 23.0611 13.9941 22.0382 13.9948 21.0026C13.9948 19.5419 14.4416 18.1886 15.2046 17.0674C15.318 16.9008 15.3864 16.7077 15.4029 16.5068C15.4195 16.3059 15.3837 16.1042 15.2991 15.9213C15.2145 15.7383 15.084 15.5804 14.9202 15.463C14.7564 15.3455 14.565 15.2724 14.3646 15.2509C13.8622 15.1965 13.35 15.1693 12.8281 15.1693Z" fill="url(#paint0_linear_3001_28140)"/>
<path d="M21.4762 20.1846H23.9262C24.3774 20.1846 24.7428 20.5501 24.7428 21.0013C24.7428 21.4521 24.377 21.818 23.9262 21.818H21.4762V24.268C21.4762 24.7188 21.1103 25.0846 20.6595 25.0846C20.2087 25.0846 19.8428 24.7188 19.8428 24.268V21.818H17.3928C16.942 21.818 16.5762 21.4521 16.5762 21.0013C16.5762 20.5501 16.942 20.1846 17.3928 20.1846H19.8428V17.7346C19.8428 17.2834 20.2087 16.918 20.6595 16.918C21.1103 16.918 21.4762 17.2834 21.4762 17.7346V20.1846Z" fill="url(#paint1_linear_3001_28140)" stroke="url(#paint2_linear_3001_28140)" stroke-width="0.355556"/>
</g>
<defs>
<linearGradient id="paint0_linear_3001_28140" x1="2.32812" y1="14.0026" x2="18.6615" y2="14.0026" gradientUnits="userSpaceOnUse">
<stop stop-color="#041A47"/>
<stop offset="1" stop-color="#0A3FAD"/>
</linearGradient>
<linearGradient id="paint1_linear_3001_28140" x1="16.5762" y1="21.0013" x2="24.7428" y2="21.0013" gradientUnits="userSpaceOnUse">
<stop stop-color="#041A47"/>
<stop offset="1" stop-color="#0A3FAD"/>
</linearGradient>
<linearGradient id="paint2_linear_3001_28140" x1="16.5762" y1="21.0013" x2="24.7428" y2="21.0013" gradientUnits="userSpaceOnUse">
<stop stop-color="#041A47"/>
<stop offset="1" stop-color="#0A3FAD"/>
</linearGradient>
<clipPath id="clip0_3001_28140">
<rect width="28" height="28" fill="white"/>
</clipPath>
</defs>
</svg>
