<svg width="15" height="16" viewBox="0 0 15 16" fill="none" xmlns="http://www.w3.org/2000/svg">
<path fill-rule="evenodd" clip-rule="evenodd" d="M11.8451 3.43134C11.2627 2.84868 10.5708 2.38696 9.80926 2.07277C9.04771 1.75857 8.23154 1.59811 7.40773 1.60061C3.95045 1.60061 1.13602 4.40098 1.13462 7.84364C1.13314 8.8979 1.40034 9.93443 1.91006 10.8557C1.94902 10.9261 1.96006 11.0089 1.9387 11.0864L1.21995 13.698C1.15866 13.9207 1.36146 14.1262 1.58493 14.0679L4.29287 13.3609C4.36648 13.3417 4.4445 13.3515 4.51206 13.3865C5.40566 13.8491 6.39781 14.0907 7.4052 14.0903H7.40773C10.8647 14.0903 13.6789 11.2897 13.6806 7.8473C13.6827 7.0263 13.5215 6.21308 13.2063 5.45496C12.8912 4.69684 12.4285 4.00896 11.8451 3.43134ZM7.40773 13.0366H7.40548C6.47223 13.0369 5.55595 12.7871 4.75192 12.3133L4.66906 12.2644C4.60024 12.2237 4.51804 12.2122 4.44069 12.2324L3.09106 12.5847C2.86761 12.6431 2.66481 12.4376 2.72607 12.2149L3.07987 10.9287C3.10222 10.8475 3.08936 10.7606 3.04444 10.6893L2.99093 10.6044C2.4691 9.77818 2.19263 8.82081 2.19368 7.84364C2.19368 4.98282 4.53369 2.65518 7.4097 2.65518C8.78935 2.65272 10.1135 3.19836 11.0909 4.1721C12.0682 5.14584 12.6188 6.46793 12.6215 7.84758C12.6204 10.7087 10.2815 13.0366 7.40773 13.0366ZM10.2674 9.15046C10.1108 9.07228 9.33942 8.69489 9.19656 8.64286C9.0537 8.59084 8.94824 8.56468 8.84391 8.72104C8.73958 8.8774 8.43896 9.22723 8.34756 9.33269C8.25617 9.43814 8.16477 9.44967 8.00813 9.37149C7.8515 9.29332 7.34615 9.1288 6.74744 8.5973C6.28146 8.18363 5.96706 7.67294 5.87566 7.51687C5.78427 7.36079 5.86582 7.27614 5.94428 7.19853C6.01486 7.1285 6.10092 7.0163 6.17938 6.92518C6.25784 6.83407 6.28399 6.76883 6.33602 6.66478C6.38804 6.56073 6.36217 6.46961 6.32308 6.39172C6.28399 6.31382 5.97043 5.54581 5.83995 5.23338C5.71256 4.9291 5.58348 4.97044 5.4873 4.96566C5.39591 4.96116 5.29045 4.96004 5.18668 4.96004C5.10735 4.9621 5.0293 4.9805 4.9574 5.01408C4.8855 5.04766 4.82129 5.0957 4.76879 5.1552C4.62509 5.31156 4.22014 5.68952 4.22014 6.45668C4.22014 7.22384 4.78257 7.96625 4.86019 8.0703C4.9378 8.17435 5.96537 9.75001 7.53766 10.4258C7.82961 10.5508 8.12792 10.6605 8.43137 10.7542C8.80679 10.8729 9.14847 10.8563 9.41844 10.8161C9.71962 10.7714 10.3465 10.4387 10.4767 10.0743C10.6069 9.7098 10.6071 9.39765 10.5681 9.33269C10.529 9.26773 10.4244 9.22836 10.2674 9.15046Z" fill="url(#paint0_linear_1147_36540)"/>
<defs>
<linearGradient id="paint0_linear_1147_36540" x1="7.38131" y1="1.60059" x2="7.38131" y2="14.1992" gradientUnits="userSpaceOnUse">
<stop stop-color="#F6A649"/>
<stop offset="1" stop-color="#90612B"/>
</linearGradient>
</defs>
</svg>
