<svg width="23" height="23" viewBox="0 0 23 23" fill="none" xmlns="http://www.w3.org/2000/svg">
<path d="M10.1671 11.6003C10.1671 11.8987 10.2857 12.1849 10.4966 12.3958C10.7076 12.6068 10.9938 12.7253 11.2921 12.7253C11.5905 12.7253 11.8766 12.6068 12.0876 12.3958C12.2986 12.1849 12.4171 11.8987 12.4171 11.6003C12.4171 11.302 12.2986 11.0158 12.0876 10.8048C11.8766 10.5939 11.5905 10.4753 11.2921 10.4753C10.9938 10.4753 10.7076 10.5939 10.4966 10.8048C10.2857 11.0158 10.1671 11.302 10.1671 11.6003ZM14.8546 11.6003C14.8546 11.8987 14.9732 12.1849 15.1841 12.3958C15.3951 12.6068 15.6813 12.7253 15.9796 12.7253C16.278 12.7253 16.5641 12.6068 16.7751 12.3958C16.9861 12.1849 17.1046 11.8987 17.1046 11.6003C17.1046 11.302 16.9861 11.0158 16.7751 10.8048C16.5641 10.5939 16.278 10.4753 15.9796 10.4753C15.6813 10.4753 15.3951 10.5939 15.1841 10.8048C14.9732 11.0158 14.8546 11.302 14.8546 11.6003ZM5.47963 11.6003C5.47963 11.8987 5.59815 12.1849 5.80913 12.3958C6.02011 12.6068 6.30626 12.7253 6.60463 12.7253C6.90299 12.7253 7.18914 12.6068 7.40012 12.3958C7.6111 12.1849 7.72963 11.8987 7.72963 11.6003C7.72963 11.302 7.6111 11.0158 7.40012 10.8048C7.18914 10.5939 6.90299 10.4753 6.60463 10.4753C6.30626 10.4753 6.02011 10.5939 5.80913 10.8048C5.59815 11.0158 5.47963 11.302 5.47963 11.6003ZM20.9765 7.53159C20.4468 6.273 19.6874 5.14331 18.7195 4.173C17.7583 3.20833 16.6172 2.44151 15.3609 1.91597C14.0718 1.37456 12.7031 1.10034 11.2921 1.10034H11.2453C9.82494 1.10737 8.44916 1.38862 7.15541 1.94175C5.90985 2.47268 4.77948 3.24086 3.82728 4.20347C2.86869 5.17144 2.11634 6.29644 1.59603 7.55034C1.05697 8.84878 0.785094 10.2292 0.792125 11.6496C0.800078 13.2772 1.18515 14.8809 1.91713 16.3347V19.8972C1.91713 20.1832 2.03071 20.4574 2.2329 20.6596C2.43509 20.8618 2.70931 20.9753 2.99525 20.9753H6.56009C8.01391 21.7073 9.61758 22.0924 11.2453 22.1003H11.2945C12.6984 22.1003 14.0601 21.8285 15.3421 21.2964C16.5921 20.7772 17.7289 20.0193 18.689 19.0652C19.657 18.1066 20.4187 16.9863 20.9507 15.7371C21.5038 14.4433 21.7851 13.0675 21.7921 11.6472C21.7992 10.2199 21.5226 8.83472 20.9765 7.53159ZM17.4351 17.7972C15.7921 19.4238 13.6124 20.3191 11.2921 20.3191H11.2523C9.839 20.3121 8.43509 19.9605 7.19525 19.2996L6.99837 19.1941H3.69838V15.8941L3.59291 15.6972C2.93197 14.4574 2.58041 13.0535 2.57338 11.6402C2.564 9.30347 3.45697 7.10972 5.09525 5.45737C6.73119 3.80503 8.91791 2.89097 11.2546 2.88159H11.2945C12.4663 2.88159 13.6031 3.10894 14.6742 3.55894C15.7195 3.99722 16.657 4.62769 17.4632 5.43394C18.2671 6.23784 18.8999 7.17769 19.3382 8.223C19.7929 9.30581 20.0203 10.4542 20.0156 11.6402C20.0015 13.9746 19.0851 16.1613 17.4351 17.7972Z" fill="url(#paint0_linear_3285_15332)" stroke="url(#paint1_linear_3285_15332)"/>
<defs>
<linearGradient id="paint0_linear_3285_15332" x1="0.791992" y1="11.6003" x2="21.7923" y2="11.6003" gradientUnits="userSpaceOnUse">
<stop stop-color="#041A47"/>
<stop offset="1" stop-color="#0A3FAD"/>
</linearGradient>
<linearGradient id="paint1_linear_3285_15332" x1="0.791992" y1="11.6003" x2="21.7923" y2="11.6003" gradientUnits="userSpaceOnUse">
<stop stop-color="#041A47"/>
<stop offset="1" stop-color="#0A3FAD"/>
</linearGradient>
</defs>
</svg>
