<svg width="24" height="24" viewBox="0 0 24 24" fill="none" xmlns="http://www.w3.org/2000/svg">
<path d="M15.1845 2.02909C15.4979 1.95706 15.826 1.9844 16.1231 2.10731C16.4203 2.23022 16.6718 2.4426 16.8427 2.71496L18.3817 5.17202C18.5057 5.36992 18.673 5.53718 18.8709 5.66127L21.328 7.20022C21.6009 7.37104 21.8138 7.6227 21.937 7.92018C22.0602 8.21766 22.0876 8.54615 22.0154 8.85993L21.3651 11.6839C21.3127 11.9122 21.3127 12.1493 21.3651 12.3775L22.0154 15.2031C22.0869 15.5164 22.0592 15.8442 21.936 16.1411C21.8128 16.4379 21.6003 16.6891 21.328 16.8597L18.8709 18.4002C18.673 18.5243 18.5057 18.6916 18.3817 18.8895L16.8427 21.3465C16.672 21.6192 16.4206 21.8319 16.1234 21.955C15.8262 22.0782 15.4981 22.1058 15.1845 22.0339L12.359 21.3837C12.1313 21.3315 11.8947 21.3315 11.6669 21.3837L8.84139 22.0339C8.52783 22.1058 8.19968 22.0782 7.90251 21.955C7.60535 21.8319 7.35394 21.6192 7.18322 21.3465L5.64426 18.8895C5.51973 18.6914 5.35193 18.5241 5.15347 18.4002L2.69796 16.8613C2.42531 16.6905 2.21262 16.4391 2.08942 16.142C1.96623 15.8448 1.93866 15.5166 2.01054 15.2031L2.65925 12.3775C2.71171 12.1493 2.71171 11.9122 2.65925 11.6839L2.00899 8.85993C1.93691 8.54599 1.96454 8.21739 2.08803 7.91989C2.21153 7.62239 2.42474 7.37082 2.69796 7.20022L5.15347 5.66127C5.35193 5.53736 5.51973 5.37009 5.64426 5.17202L7.18322 2.71496C7.35406 2.44289 7.60531 2.2307 7.90214 2.10781C8.19897 1.98492 8.52667 1.95741 8.83984 2.02909L11.6669 2.6778C11.8947 2.73002 12.1313 2.73002 12.359 2.6778L15.1845 2.02909Z" stroke="url(#paint0_linear_3285_15237)" stroke-width="2.51042"/>
<path d="M8.16699 12.8603L11.3177 15.8779L15.8618 8.18311" stroke="url(#paint1_linear_3285_15237)" stroke-width="2.51042" stroke-linecap="round" stroke-linejoin="round"/>
<defs>
<linearGradient id="paint0_linear_3285_15237" x1="1.96973" y1="12.0314" x2="22.0548" y2="12.0314" gradientUnits="userSpaceOnUse">
<stop stop-color="#041A47"/>
<stop offset="1" stop-color="#0A3FAD"/>
</linearGradient>
<linearGradient id="paint1_linear_3285_15237" x1="8.16699" y1="12.0305" x2="15.8618" y2="12.0305" gradientUnits="userSpaceOnUse">
<stop stop-color="#041A47"/>
<stop offset="1" stop-color="#0A3FAD"/>
</linearGradient>
</defs>
</svg>
