<svg width="23" height="23" viewBox="0 0 23 23" fill="none" xmlns="http://www.w3.org/2000/svg">
<path d="M12.5663 2.21939C12.4658 2.20501 12.3901 2.11974 12.3901 2.01827V0.210351C12.3901 0.0909547 12.4942 -0.00216759 12.6126 0.0129662C17.6539 0.657159 21.5996 4.68942 22.1657 9.76238C22.8203 15.752 18.5718 21.149 12.6133 21.9193C12.4947 21.9347 12.3901 21.8415 12.3901 21.722V19.9143C12.3901 19.8129 12.4661 19.7276 12.5664 19.7132C16.5029 19.1465 19.5774 16.0106 20.078 12.0489C20.2211 10.897 20.1357 9.72819 19.8266 8.60934C19.5176 7.4905 18.991 6.44357 18.2769 5.52845C17.5629 4.61332 16.6754 3.84796 15.6653 3.27614C14.7067 2.73352 13.6556 2.37529 12.5663 2.21939ZM4.43837 2.5729C4.35977 2.48825 4.3685 2.35476 4.459 2.28298C6.04457 1.02553 7.95109 0.237858 9.96172 0.00946112C10.0792 -0.0038871 10.1809 0.0889342 10.1809 0.207198V2.08756C10.1809 2.18773 10.1071 2.27234 10.0082 2.28815C8.55456 2.52058 7.18161 3.10944 6.02007 4.00241C5.93655 4.06662 5.81753 4.05815 5.74584 3.98095L4.43837 2.5729ZM0.515703 9.92807C0.397295 9.92807 0.304427 9.82611 0.318005 9.70849C0.549899 7.69961 1.3394 5.79555 2.59708 4.212C2.67069 4.11933 2.80837 4.11295 2.89206 4.19664L4.18973 5.49431C4.26157 5.56615 4.26823 5.68019 4.20715 5.76137C3.32593 6.9327 2.74922 8.30455 2.52884 9.7537C2.51368 9.85333 2.42876 9.92807 2.32799 9.92807H0.515703ZM2.90421 17.8664C2.82022 17.951 2.68134 17.9443 2.60785 17.8505C1.36308 16.2612 0.575699 14.3621 0.330736 12.3582C0.3163 12.2401 0.409345 12.1372 0.528317 12.1372H2.33815C2.4393 12.1372 2.52442 12.2125 2.5392 12.3126C2.75285 13.7585 3.33258 15.133 4.20837 16.3046C4.26888 16.3855 4.26226 16.4988 4.19105 16.5705L2.90421 17.8664ZM4.46492 19.7222C4.37232 19.6481 4.3667 19.51 4.45118 19.4267L5.81176 18.0857C5.82273 18.0749 5.83752 18.0688 5.85293 18.0688C5.86598 18.0688 5.87866 18.0732 5.88898 18.0812C7.08723 19.01 8.50806 19.624 10.0056 19.8453C10.1057 19.86 10.1809 19.9451 10.1809 20.0463V21.855C10.1809 21.9744 10.0774 22.0675 9.95896 22.0524C7.94904 21.7955 6.04323 20.986 4.46492 19.7222ZM11.1024 16.1567C11.1742 16.313 11.3963 16.3127 11.4677 16.1563L12.9777 12.8459C12.9977 12.802 13.0328 12.7668 13.0766 12.7467L16.4086 11.2163C16.565 11.1445 16.5645 10.922 16.4077 10.8509L13.0774 9.34069C13.0331 9.32058 12.9976 9.28506 12.9775 9.24073L11.4678 5.91177C11.3967 5.7548 11.1738 5.75453 11.1022 5.91133L9.58252 9.24117C9.56241 9.28523 9.52705 9.32054 9.48296 9.3406L6.16201 10.851C6.00551 10.9222 6.00497 11.1443 6.16113 11.2162L9.48384 12.7468C9.52739 12.7669 9.56233 12.8018 9.58233 12.8454L11.1024 16.1567Z" fill="url(#paint0_linear_3285_15273)"/>
<defs>
<linearGradient id="paint0_linear_3285_15273" x1="0.294922" y1="11.0326" x2="22.2322" y2="11.0326" gradientUnits="userSpaceOnUse">
<stop stop-color="#041A47"/>
<stop offset="1" stop-color="#0A3FAD"/>
</linearGradient>
</defs>
</svg>
