<svg width="25" height="24" viewBox="0 0 25 24" fill="none" xmlns="http://www.w3.org/2000/svg">
<path d="M3.29758 21.5667C2.83016 21.5667 2.46116 21.4164 2.19058 21.1159C1.94116 20.8381 1.80687 20.4739 1.78773 20.023L1.78516 19.9086V3.80115C1.78516 3.29086 1.9203 2.88701 2.19058 2.58958C2.44001 2.31472 2.77358 2.16672 3.1913 2.14558L3.29801 2.14258H14.7867C15.2482 2.14258 15.6142 2.29144 15.8847 2.58915C16.1342 2.86344 16.2684 3.22872 16.2876 3.68501L16.2897 3.80072V6.62501H21.7112C22.1369 6.62501 22.4813 6.75315 22.7444 7.00944L22.8087 7.07629C23.0584 7.35343 23.1927 7.71758 23.2116 8.16872L23.2142 8.28315V19.9086C23.2142 20.4126 23.079 20.815 22.8087 21.1159C22.5593 21.393 22.2283 21.5424 21.8157 21.5641L21.7107 21.5667H3.29758ZM16.2893 19.9086C16.2893 19.9743 16.287 20.0381 16.2824 20.1001H21.2273C21.4036 20.1001 21.5343 20.0576 21.6194 19.9724C21.6923 19.8993 21.7339 19.7907 21.7442 19.6467L21.7472 19.5717V8.62043C21.7472 8.43815 21.7046 8.30444 21.6194 8.21929C21.5466 8.14644 21.4402 8.10486 21.3002 8.09458L21.2273 8.09201L16.2893 8.09158V19.9086ZM14.3037 3.60958H3.78058C3.5983 3.60958 3.46458 3.65201 3.37944 3.73686C3.30658 3.81001 3.26501 3.91858 3.25473 4.06258L3.25216 4.13801V19.5717C3.25216 19.7537 3.29458 19.8873 3.37944 19.9724C3.45258 20.0453 3.56116 20.0869 3.70516 20.0971L3.78058 20.1001L5.86644 20.0997V17.4126C5.86644 17.0534 5.94073 16.781 6.0893 16.5953L6.13558 16.5421C6.29844 16.3736 6.54044 16.2817 6.86158 16.2666L6.96016 16.2644H11.1147C11.491 16.2644 11.7673 16.357 11.9436 16.5421C12.1039 16.7107 12.1913 16.9657 12.2059 17.3071L12.208 17.4121L12.2076 20.0997H14.3033C14.4796 20.0997 14.6102 20.0573 14.695 19.9724C14.7679 19.8993 14.8096 19.7907 14.8202 19.6467L14.8227 19.5717V4.13801C14.8227 3.95572 14.7802 3.82201 14.695 3.73686C14.6102 3.65201 14.48 3.60958 14.3037 3.60958ZM10.723 17.458H7.35187C7.1753 17.458 7.07887 17.5383 7.06258 17.6989L7.06044 17.7494L7.06001 20.0997H11.014V17.7494C11.014 17.5729 10.9339 17.4764 10.7736 17.4601L10.723 17.458ZM19.7517 16.5559C19.9409 16.5559 20.0433 16.6426 20.059 16.816L20.0612 16.8657V18.2869C20.0612 18.4763 19.9744 18.5789 19.801 18.5946L19.7517 18.5967H18.2847C18.1013 18.5967 18.0017 18.51 17.986 18.3366L17.9843 18.2869V16.8657C17.9843 16.6763 18.0686 16.5737 18.2372 16.558L18.2847 16.5559H19.7517ZM19.7517 13.0759C19.9409 13.0759 20.0433 13.1626 20.059 13.336L20.0612 13.3853V14.8064C20.0612 14.9959 19.9744 15.0984 19.801 15.1141L19.7517 15.1163H18.2847C18.1013 15.1163 18.0017 15.0296 17.986 14.8561L17.9843 14.8064V13.3853C17.9843 13.1959 18.0686 13.0933 18.2372 13.0776L18.2847 13.0754L19.7517 13.0759ZM7.78901 12.3374C8.0193 12.3374 8.14316 12.4436 8.16058 12.6559L8.16273 12.7111V14.4331C8.16273 14.6629 8.05658 14.7866 7.8443 14.8043L7.78901 14.8064H6.01258C5.79401 14.8064 5.6763 14.7004 5.65944 14.4884L5.6573 14.4327V12.7111C5.6573 12.4814 5.75816 12.3576 5.95987 12.3396L6.01258 12.3374H7.78901ZM12.0533 12.3374C12.283 12.3374 12.4067 12.4436 12.4244 12.6559L12.4266 12.7111V14.4331C12.4266 14.6629 12.3204 14.7866 12.1082 14.8043L12.0529 14.8064H10.2854C10.0612 14.8064 9.94044 14.7004 9.9233 14.4884L9.92115 14.4327V12.7111C9.92115 12.4814 10.0246 12.3576 10.2314 12.3396L10.2854 12.3374H12.0533ZM19.7517 9.59501C19.9409 9.59501 20.0433 9.68186 20.059 9.85558L20.0612 9.90486V11.3264C20.0612 11.5156 19.9744 11.618 19.801 11.6337L19.7517 11.6359H18.2847C18.1013 11.6359 18.0017 11.5491 17.986 11.3757L17.9843 11.3264V9.90486C17.9843 9.71601 18.0686 9.61343 18.2372 9.59715L18.2847 9.59501H19.7517ZM7.78901 8.72929C8.0193 8.72929 8.14316 8.83558 8.16058 9.04815L8.16273 9.10301V10.825C8.16273 11.0553 8.05658 11.1791 7.8443 11.1966L7.78901 11.1987H6.01258C5.79401 11.1987 5.6763 11.0926 5.65944 10.8803L5.6573 10.825V9.10301C5.6573 8.87329 5.75816 8.74958 5.95987 8.73186L6.01258 8.72972L7.78901 8.72929ZM12.0533 8.72929C12.283 8.72929 12.4067 8.83558 12.4244 9.04815L12.4266 9.10301V10.825C12.4266 11.0553 12.3204 11.1791 12.1082 11.1966L12.0529 11.1987H10.2854C10.0612 11.1987 9.94044 11.0926 9.9233 10.8803L9.92115 10.825V9.10301C9.92115 8.87329 10.0246 8.74958 10.2314 8.73186L10.2854 8.72972L12.0533 8.72929ZM7.78901 5.12201C8.0193 5.12201 8.14316 5.22801 8.16058 5.44001L8.16273 5.49572V7.21729C8.16273 7.44701 8.05658 7.57072 7.8443 7.58844L7.78901 7.59101H6.01258C5.79401 7.59101 5.6763 7.48486 5.65944 7.27258L5.6573 7.21729V5.49529C5.6573 5.26558 5.75816 5.14186 5.95987 5.12415L6.01258 5.12201H7.78901ZM12.0533 5.12201C12.283 5.12201 12.4067 5.22801 12.4244 5.44001L12.4266 5.49572V7.21729C12.4266 7.44701 12.3204 7.57072 12.1082 7.58844L12.0529 7.59101H10.2854C10.0612 7.59101 9.94044 7.48486 9.9233 7.27258L9.92115 7.21729V5.49529C9.92115 5.26558 10.0246 5.14186 10.2314 5.12415L10.2854 5.12201H12.0533Z" fill="url(#paint0_linear_2672_23378)" stroke="url(#paint1_linear_2672_23378)" stroke-width="0.5"/>
<defs>
<linearGradient id="paint0_linear_2672_23378" x1="1.78516" y1="11.8546" x2="23.2142" y2="11.8546" gradientUnits="userSpaceOnUse">
<stop stop-color="#041A47"/>
<stop offset="1" stop-color="#0A3FAD"/>
</linearGradient>
<linearGradient id="paint1_linear_2672_23378" x1="1.78516" y1="11.8546" x2="23.2142" y2="11.8546" gradientUnits="userSpaceOnUse">
<stop stop-color="#041A47"/>
<stop offset="1" stop-color="#0A3FAD"/>
</linearGradient>
</defs>
</svg>
