<svg width="25" height="17" viewBox="0 0 25 17" fill="none" xmlns="http://www.w3.org/2000/svg">
<path d="M16.777 8.57634L22.928 3.23234V13.8593L16.777 8.57634ZM8.85097 9.48134L11.011 11.3563C11.35 11.6443 11.792 11.8183 12.275 11.8183H12.292H12.305C12.789 11.8183 13.231 11.6433 13.574 11.3533L13.571 11.3553L15.731 9.48034L22.297 15.1193H2.28797L8.85097 9.48134ZM2.27897 1.96534H22.309L12.688 10.3213C12.5803 10.4078 12.4461 10.4544 12.308 10.4533H12.294H12.281C12.1424 10.4543 12.0078 10.4073 11.9 10.3203L11.901 10.3213L2.27897 1.96534ZM1.65797 3.23134L7.80797 8.57534L1.65797 13.8553V3.23134ZM23.258 0.790342C23.018 0.670342 22.736 0.600342 22.437 0.600342H2.15197C1.86226 0.601489 1.57664 0.668873 1.31697 0.797342L1.32797 0.792342C1.01783 0.945824 0.756665 1.18278 0.573823 1.47656C0.390982 1.77034 0.293718 2.10931 0.292969 2.45534V14.6273C0.293498 15.12 0.489421 15.5922 0.837749 15.9406C1.18608 16.2889 1.65836 16.4848 2.15097 16.4853H22.434C22.9266 16.4848 23.3989 16.2889 23.7472 15.9406C24.0955 15.5922 24.2914 15.12 24.292 14.6273V2.45534C24.292 1.72834 23.873 1.09834 23.263 0.795342L23.252 0.790342H23.258Z" fill="url(#paint0_linear_3285_15290)" stroke="url(#paint1_linear_3285_15290)"/>
<defs>
<linearGradient id="paint0_linear_3285_15290" x1="0.292969" y1="8.54284" x2="24.292" y2="8.54284" gradientUnits="userSpaceOnUse">
<stop stop-color="#041A47"/>
<stop offset="1" stop-color="#0A3FAD"/>
</linearGradient>
<linearGradient id="paint1_linear_3285_15290" x1="0.292969" y1="8.54284" x2="24.292" y2="8.54284" gradientUnits="userSpaceOnUse">
<stop stop-color="#041A47"/>
<stop offset="1" stop-color="#0A3FAD"/>
</linearGradient>
</defs>
</svg>
