<svg width="25" height="24" viewBox="0 0 25 24" fill="none" xmlns="http://www.w3.org/2000/svg">
<g clip-path="url(#clip0_2672_23366)">
<path d="M23.3391 8.84438C24.7088 7.47469 24.0842 5.87489 23.3391 5.09691L20.0518 1.80965C18.6712 0.439966 17.0823 1.06454 16.3044 1.80965L14.4416 3.68339H11.6036C9.52166 3.68339 8.31633 4.77914 7.70271 6.03925L2.83758 10.9044V15.2874L2.05959 16.0544C0.689904 17.4351 1.31448 19.0239 2.05959 19.8019L5.34685 23.0891C5.93855 23.6808 6.57409 23.9 7.17675 23.9C7.95474 23.9 8.66697 23.5165 9.09432 23.0891L12.0528 20.1197H15.9866C17.8494 20.1197 18.7917 18.9582 19.1314 17.8186C20.3696 17.4899 21.049 16.5475 21.3229 15.6271C23.0213 15.1888 23.6569 13.578 23.6569 12.4494V9.16214H23.0104L23.3391 8.84438ZM21.4653 12.4494C21.4653 12.9425 21.2572 13.5451 20.3696 13.5451H19.2738V14.6409C19.2738 15.134 19.0657 15.7367 18.1781 15.7367H17.0823V16.8324C17.0823 17.3255 16.8742 17.9282 15.9866 17.9282H11.1543L7.56027 21.5222C7.22058 21.84 7.02335 21.6537 6.90281 21.5332L3.62652 18.2678C3.30875 17.9282 3.49503 17.7309 3.61556 17.6104L5.02908 16.1859V11.8029L7.22058 9.6114V11.3536C7.22058 12.6795 8.09718 14.6409 10.5078 14.6409C12.9185 14.6409 13.7951 12.6795 13.7951 11.3536H21.4653V12.4494ZM21.7831 7.28841L19.9203 9.16214H11.6036V11.3536C11.6036 11.8467 11.3954 12.4494 10.5078 12.4494C9.62028 12.4494 9.41208 11.8467 9.41208 11.3536V8.06639C9.41208 7.56235 9.59836 5.87489 11.6036 5.87489H15.3401L17.8384 3.37658C18.1781 3.05881 18.3753 3.24509 18.4959 3.36562L21.7722 6.63096C22.0899 6.97064 21.9037 7.16788 21.7831 7.28841Z" fill="url(#paint0_linear_2672_23366)" stroke="url(#paint1_linear_2672_23366)" stroke-width="0.5"/>
</g>
<defs>
<linearGradient id="paint0_linear_2672_23366" x1="1.24994" y1="12.45" x2="24.1487" y2="12.45" gradientUnits="userSpaceOnUse">
<stop stop-color="#041A47"/>
<stop offset="1" stop-color="#0A3FAD"/>
</linearGradient>
<linearGradient id="paint1_linear_2672_23366" x1="1.24994" y1="12.45" x2="24.1487" y2="12.45" gradientUnits="userSpaceOnUse">
<stop stop-color="#041A47"/>
<stop offset="1" stop-color="#0A3FAD"/>
</linearGradient>
<clipPath id="clip0_2672_23366">
<rect width="24" height="24" fill="white" transform="translate(0.25)"/>
</clipPath>
</defs>
</svg>
