<svg width="23" height="22" viewBox="0 0 23 22" fill="none" xmlns="http://www.w3.org/2000/svg">
<path fill-rule="evenodd" clip-rule="evenodd" d="M3.6843 2.22357C4.99995 0.915485 7.1664 1.14791 8.268 2.62032L9.6323 4.44082C10.5296 5.63864 10.4496 7.31212 9.38474 8.37048L9.12745 8.62777C9.09827 8.73578 9.09531 8.84919 9.1188 8.95858C9.1869 9.39965 9.55555 10.3337 11.0993 11.8688C12.6431 13.4039 13.5836 13.7715 14.0311 13.8406C14.1439 13.8633 14.2604 13.86 14.3717 13.8309L14.8127 13.392C15.7598 12.4515 17.2127 12.2753 18.3846 12.912L20.4494 14.0363C22.2191 14.9963 22.6656 17.4006 21.217 18.8416L19.6808 20.3681C19.1964 20.8492 18.5456 21.2502 17.7521 21.3248C15.7954 21.5075 11.2366 21.274 6.44425 16.5098C1.9719 12.0623 1.11354 8.18346 1.00435 6.27214C0.9503 5.30567 1.40651 4.48839 1.98812 3.91111L3.6843 2.22357ZM6.97073 3.59219C6.42263 2.86031 5.40211 2.80194 4.82699 3.37382L3.12972 5.06027C2.77297 5.41486 2.60216 5.80621 2.62378 6.18025C2.71027 7.69914 3.40215 11.1985 7.58802 15.3606C11.9793 19.7259 16.0343 19.8568 17.6019 19.7097C17.9219 19.6805 18.2397 19.5141 18.537 19.2189L20.0721 17.6914C20.697 17.0709 20.5597 15.9401 19.6754 15.4601L17.6105 14.3369C17.0397 14.0277 16.3716 14.1293 15.9565 14.5423L15.4646 15.032L14.8917 14.4569C15.4646 15.032 15.4635 15.0331 15.4625 15.0331L15.4614 15.0352L15.4581 15.0385L15.4506 15.045L15.4344 15.0601C15.3887 15.1024 15.3395 15.1408 15.2873 15.1747C15.2008 15.232 15.0863 15.2958 14.9425 15.3487C14.6506 15.4579 14.2636 15.5163 13.7857 15.4428C12.8485 15.299 11.6063 14.6601 9.95554 13.019C8.30584 11.378 7.66153 10.1434 7.51666 9.20722C7.44207 8.72939 7.50153 8.34237 7.6118 8.05049C7.67249 7.88624 7.75938 7.73291 7.86909 7.59644L7.90368 7.55861L7.91882 7.54239L7.92531 7.5359L7.92855 7.53266L7.93071 7.5305L8.24206 7.22131C8.70475 6.7597 8.76962 5.99539 8.33395 5.4127L6.97073 3.59219Z" fill="url(#paint0_linear_3285_15306)"/>
<path d="M1.00435 6.27214C1.11354 8.18346 1.9719 12.0623 6.44425 16.5098C11.2366 21.274 15.7954 21.5075 17.7522 21.3248C18.5456 21.2502 19.1964 20.8492 19.6808 20.3681L21.217 18.8416C22.6656 17.4006 22.2191 14.9963 20.4494 14.0363L18.3846 12.912C17.2127 12.2753 15.7598 12.4515 14.8127 13.392L14.3717 13.8309C14.2604 13.86 14.1439 13.8633 14.0311 13.8406C13.5836 13.7715 12.6431 13.4039 11.0993 11.8688C9.55555 10.3337 9.1869 9.39965 9.1188 8.95858C9.0953 8.84919 9.09827 8.73578 9.12745 8.62777L9.38474 8.37048C10.4496 7.31212 10.5296 5.63864 9.6323 4.44082L8.268 2.62032C7.1664 1.14791 4.99995 0.915485 3.6843 2.22357L1.98812 3.91111C1.40651 4.48839 0.9503 5.30567 1.00435 6.27214ZM1.00435 6.27214L1.81407 6.22674M7.93071 7.5305L7.92855 7.53266L7.92531 7.5359L7.91882 7.54239L7.90368 7.55861L7.86909 7.59644C7.75938 7.73291 7.67249 7.88624 7.6118 8.05049C7.50153 8.34237 7.44207 8.72939 7.51666 9.20722C7.66153 10.1434 8.30584 11.378 9.95554 13.019C11.6063 14.6601 12.8485 15.299 13.7857 15.4428C14.2636 15.5163 14.6506 15.4579 14.9425 15.3487C15.0863 15.2958 15.2008 15.232 15.2873 15.1747C15.3395 15.1408 15.3887 15.1024 15.4344 15.0601L15.4506 15.045L15.4581 15.0385L15.4614 15.0352L15.4625 15.0331C15.4635 15.0331 15.4646 15.032 14.8917 14.4569L15.4646 15.032L15.9565 14.5423C16.3716 14.1293 17.0397 14.0277 17.6105 14.3369L19.6754 15.4601C20.5597 15.9401 20.697 17.0709 20.0721 17.6914L18.537 19.2189C18.2397 19.5141 17.9219 19.6805 17.6019 19.7097C16.0343 19.8568 11.9793 19.7259 7.58802 15.3606C3.40215 11.1985 2.71027 7.69914 2.62378 6.18025C2.60216 5.80621 2.77297 5.41486 3.12972 5.06027L4.82699 3.37382C5.40211 2.80194 6.42263 2.86031 6.97073 3.59219L8.33395 5.4127C8.76962 5.99539 8.70475 6.7597 8.24206 7.22131L7.93071 7.5305ZM7.93071 7.5305L8.50367 8.10346" stroke="url(#paint1_linear_3285_15306)"/>
<defs>
<linearGradient id="paint0_linear_3285_15306" x1="1" y1="11.366" x2="22.0825" y2="11.366" gradientUnits="userSpaceOnUse">
<stop stop-color="#041A47"/>
<stop offset="1" stop-color="#0A3FAD"/>
</linearGradient>
<linearGradient id="paint1_linear_3285_15306" x1="1" y1="11.366" x2="22.0825" y2="11.366" gradientUnits="userSpaceOnUse">
<stop stop-color="#041A47"/>
<stop offset="1" stop-color="#0A3FAD"/>
</linearGradient>
</defs>
</svg>
