<svg width="24" height="24" viewBox="0 0 24 24" fill="none" xmlns="http://www.w3.org/2000/svg">
<path d="M4.85714 2C4.09938 2 3.37266 2.30102 2.83684 2.83684C2.30102 3.37266 2 4.09938 2 4.85714V6.28571C2 7.13857 2.37429 7.90571 2.96714 8.42857C2.66316 8.69671 2.4197 9.02646 2.25295 9.39592C2.08621 9.76537 1.99998 10.1661 2 10.5714V13.4286C2 14.2814 2.37429 15.0471 2.96714 15.5714C2.66316 15.8396 2.4197 16.1693 2.25295 16.5388C2.08621 16.9082 1.99998 17.3089 2 17.7143V19.1429C2 19.9006 2.30102 20.6273 2.83684 21.1632C3.37266 21.699 4.09938 22 4.85714 22H19.1429C19.9006 22 20.6273 21.699 21.1632 21.1632C21.699 20.6273 22 19.9006 22 19.1429V17.7143C22 16.8614 21.6257 16.0957 21.0329 15.5714C21.6257 15.0471 22 14.2814 22 13.4286V10.5714C22 9.71857 21.6257 8.95143 21.0329 8.42857C21.6257 7.90571 22 7.13857 22 6.28571V4.85714C22 4.09938 21.699 3.37266 21.1632 2.83684C20.6273 2.30102 19.9006 2 19.1429 2H4.85714ZM3.42857 17.7143C3.42857 17.3354 3.57908 16.972 3.84699 16.7041C4.1149 16.4362 4.47826 16.2857 4.85714 16.2857H7.71429V20.5714H4.85714C4.47826 20.5714 4.1149 20.4209 3.84699 20.153C3.57908 19.8851 3.42857 19.5217 3.42857 19.1429V17.7143ZM9.14286 20.5714V16.2857H19.1429C19.5217 16.2857 19.8851 16.4362 20.153 16.7041C20.4209 16.972 20.5714 17.3354 20.5714 17.7143V19.1429C20.5714 19.5217 20.4209 19.8851 20.153 20.153C19.8851 20.4209 19.5217 20.5714 19.1429 20.5714H9.14286ZM9.14286 14.8571V9.14286H19.1429C19.5217 9.14286 19.8851 9.29337 20.153 9.56128C20.4209 9.82919 20.5714 10.1925 20.5714 10.5714V13.4286C20.5714 13.8075 20.4209 14.1708 20.153 14.4387C19.8851 14.7066 19.5217 14.8571 19.1429 14.8571H9.14286ZM7.71429 9.14286V14.8571H4.85714C4.47826 14.8571 4.1149 14.7066 3.84699 14.4387C3.57908 14.1708 3.42857 13.8075 3.42857 13.4286V10.5714C3.42857 10.1925 3.57908 9.82919 3.84699 9.56128C4.1149 9.29337 4.47826 9.14286 4.85714 9.14286H7.71429ZM7.71429 7.71429H4.85714C4.47826 7.71429 4.1149 7.56378 3.84699 7.29587C3.57908 7.02796 3.42857 6.6646 3.42857 6.28571V4.85714C3.42857 4.47826 3.57908 4.1149 3.84699 3.84699C4.1149 3.57908 4.47826 3.42857 4.85714 3.42857H7.71429V7.71429ZM9.14286 7.71429V3.42857H19.1429C19.5217 3.42857 19.8851 3.57908 20.153 3.84699C20.4209 4.1149 20.5714 4.47826 20.5714 4.85714V6.28571C20.5714 6.6646 20.4209 7.02796 20.153 7.29587C19.8851 7.56378 19.5217 7.71429 19.1429 7.71429H9.14286Z" fill="url(#paint0_linear_2672_23354)" stroke="url(#paint1_linear_2672_23354)"/>
<defs>
<linearGradient id="paint0_linear_2672_23354" x1="2" y1="12" x2="22" y2="12" gradientUnits="userSpaceOnUse">
<stop stop-color="#041A47"/>
<stop offset="1" stop-color="#0A3FAD"/>
</linearGradient>
<linearGradient id="paint1_linear_2672_23354" x1="2" y1="12" x2="22" y2="12" gradientUnits="userSpaceOnUse">
<stop stop-color="#041A47"/>
<stop offset="1" stop-color="#0A3FAD"/>
</linearGradient>
</defs>
</svg>
