<svg width="23" height="24" viewBox="0 0 23 24" fill="none" xmlns="http://www.w3.org/2000/svg">
<path d="M10.8167 19.9225C11.162 19.9225 11.4364 19.9225 11.7562 19.8644C11.8734 19.8431 11.9883 19.9199 12.0085 20.0373C12.1031 20.5881 12.2569 21.127 12.4699 21.5654C12.5306 21.6903 12.4619 21.8448 12.3253 21.8698C11.8623 21.9543 11.3395 22.0265 10.8167 22.0265C5.0308 22.0265 0.296875 17.2926 0.296875 11.5067C0.296875 5.72075 5.0308 0.986816 10.8167 0.986816C16.6026 0.986816 21.3366 5.72075 21.3366 11.5067C21.3366 12.0326 21.2524 12.5271 21.1682 13.0846C21.147 13.1906 21.0309 13.2473 20.9329 13.2017C20.429 12.9673 19.9182 12.7997 19.3473 12.6989C19.23 12.6782 19.1532 12.5634 19.1745 12.4462C19.2326 12.1264 19.2326 11.8519 19.2326 11.5067C19.2326 6.87793 15.4454 3.09078 10.8167 3.09078C6.18799 3.09078 2.40084 6.87793 2.40084 11.5067C2.40084 16.1354 6.18799 19.9225 10.8167 19.9225ZM11.3427 11.7066C11.3427 11.7782 11.3808 11.8444 11.4427 11.8803L14.3415 13.5635C14.4659 13.6357 14.476 13.8112 14.3618 13.8987C14.0731 14.1199 13.7942 14.3508 13.5598 14.6264C13.4931 14.7048 13.3796 14.7276 13.2914 14.6746L9.86224 12.6171C9.80175 12.5809 9.76473 12.5155 9.76473 12.4449V6.44757C9.76473 6.33665 9.85465 6.24674 9.96557 6.24674H11.1419C11.2528 6.24674 11.3427 6.33665 11.3427 6.44757V11.7066ZM16.787 17.5866C16.8309 17.5666 16.8662 17.5314 16.8863 17.4876L17.9973 15.0627C18.069 14.9062 18.2915 14.9065 18.3627 15.0632L19.4644 17.487C19.4845 17.5312 19.5199 17.5666 19.5641 17.5867L21.9879 18.6884C22.1446 18.7597 22.145 18.9822 21.9885 19.0539L19.5636 20.1649C19.5197 20.185 19.4846 20.2202 19.4645 20.2641L18.3626 22.6796C18.2913 22.8359 18.0692 22.8363 17.9974 22.6801L16.8862 20.2636C16.8661 20.22 16.8312 20.185 16.7876 20.165L14.371 19.0537C14.2149 18.9819 14.2152 18.7599 14.3716 18.6886L16.787 17.5866Z" fill="url(#paint0_linear_3285_15224)" stroke="url(#paint1_linear_3285_15224)" stroke-width="0.502083"/>
<defs>
<linearGradient id="paint0_linear_3285_15224" x1="0.296875" y1="12.0326" x2="22.3885" y2="12.0326" gradientUnits="userSpaceOnUse">
<stop stop-color="#041A47"/>
<stop offset="1" stop-color="#0A3FAD"/>
</linearGradient>
<linearGradient id="paint1_linear_3285_15224" x1="0.296875" y1="12.0326" x2="22.3885" y2="12.0326" gradientUnits="userSpaceOnUse">
<stop stop-color="#041A47"/>
<stop offset="1" stop-color="#0A3FAD"/>
</linearGradient>
</defs>
</svg>
