<svg width="22" height="22" viewBox="0 0 22 22" fill="none" xmlns="http://www.w3.org/2000/svg">
<path d="M16.756 13.1924L13.6188 11.6238C13.5261 11.5777 13.4229 11.5569 13.3196 11.5634C13.2164 11.57 13.1166 11.6037 13.0305 11.6611L11.4933 12.6856C10.7151 12.2871 10.0819 11.654 9.68347 10.8758L10.709 9.3395C10.7664 9.25339 10.8 9.15366 10.8066 9.05038C10.8131 8.9471 10.7923 8.84392 10.7462 8.75126L9.17759 5.61401C9.12881 5.51585 9.05359 5.43328 8.96039 5.37559C8.8672 5.31791 8.75974 5.28741 8.65014 5.28754C7.66207 5.28754 6.71448 5.68004 6.01582 6.37871C5.31715 7.07737 4.92464 8.02496 4.92464 9.01303C4.92724 11.2484 5.81638 13.3914 7.397 14.972C8.97763 16.5527 11.1207 17.4418 13.356 17.4444C14.3441 17.4444 15.2917 17.0519 15.9903 16.3532C16.689 15.6546 17.0815 14.707 17.0815 13.7189C17.0815 13.6096 17.0511 13.5024 16.9936 13.4094C16.9361 13.3164 16.8538 13.2413 16.756 13.1924ZM13.356 16.2679C11.4326 16.2656 9.58866 15.5005 8.22861 14.1404C6.86855 12.7804 6.10345 10.9364 6.10112 9.01303C6.10117 8.39783 6.32372 7.8034 6.72769 7.33943C7.13167 6.87545 7.68981 6.57322 8.29915 6.48852L9.54033 8.97087L8.5217 10.4983C8.46818 10.5789 8.43535 10.6714 8.42612 10.7677C8.41688 10.8639 8.43153 10.961 8.46876 11.0503C9.00967 12.3363 10.0327 13.3594 11.3188 13.9003C11.408 13.9375 11.5051 13.9522 11.6014 13.9429C11.6976 13.9337 11.7902 13.9009 11.8707 13.8473L13.3982 12.8287L15.8805 14.0699C15.7958 14.6792 15.4936 15.2374 15.0296 15.6414C14.5656 16.0453 13.9712 16.2679 13.356 16.2679ZM11.0031 1.36597C9.26953 1.3656 7.56567 1.8159 6.05865 2.67267C4.55163 3.52944 3.29322 4.76326 2.40688 6.25308C1.52054 7.74291 1.03672 9.43755 1.00288 11.1708C0.969043 12.904 1.38635 14.6162 2.21386 16.1395L1.07464 19.5581C0.993994 19.8 0.98229 20.0595 1.04084 20.3076C1.0994 20.5557 1.2259 20.7826 1.40616 20.9629C1.58642 21.1431 1.81333 21.2696 2.06144 21.3282C2.30956 21.3868 2.56908 21.375 2.81092 21.2944L6.22955 20.1552C7.56777 20.8814 9.05414 21.2924 10.5753 21.357C12.0965 21.4215 13.6124 21.1378 15.0073 20.5276C16.4022 19.9173 17.6394 18.9966 18.6244 17.8356C19.6095 16.6746 20.3164 15.304 20.6913 13.8283C21.0662 12.3526 21.0992 10.8108 20.7878 9.32043C20.4763 7.83006 19.8287 6.43048 18.8942 5.22842C17.9597 4.02635 16.7631 3.05355 15.3955 2.38418C14.028 1.71481 12.5256 1.36656 11.0031 1.36597ZM11.0031 20.1895C9.45203 20.1899 7.92829 19.7814 6.58543 19.0052C6.49589 18.9538 6.39456 18.9264 6.29131 18.9258C6.22802 18.9261 6.16517 18.9364 6.10504 18.9562L2.43935 20.1777C2.4048 20.1893 2.36773 20.1909 2.33228 20.1826C2.29684 20.1742 2.26442 20.1561 2.23867 20.1304C2.21292 20.1046 2.19485 20.0722 2.18648 20.0368C2.17812 20.0013 2.17979 19.9642 2.19131 19.9297L3.41288 16.2679C3.43931 16.1888 3.44861 16.105 3.44016 16.022C3.43171 15.939 3.4057 15.8587 3.36386 15.7866C2.39058 14.1053 1.99937 12.1498 2.25091 10.2235C2.50245 8.29715 3.38269 6.50769 4.75506 5.13271C6.12744 3.75773 7.91522 2.8741 9.84106 2.6189C11.7669 2.3637 13.7231 2.75121 15.4062 3.72129C17.0894 4.69138 18.4053 6.18982 19.1499 7.98414C19.8945 9.77845 20.0261 11.7683 19.5243 13.6451C19.0225 15.5218 17.9153 17.1805 16.3746 18.3638C14.8339 19.5471 12.9457 20.1889 11.0031 20.1895Z" fill="url(#paint0_linear_3285_15322)" stroke="url(#paint1_linear_3285_15322)"/>
<defs>
<linearGradient id="paint0_linear_3285_15322" x1="1.00098" y1="11.366" x2="20.9992" y2="11.366" gradientUnits="userSpaceOnUse">
<stop stop-color="#041A47"/>
<stop offset="1" stop-color="#0A3FAD"/>
</linearGradient>
<linearGradient id="paint1_linear_3285_15322" x1="1.00098" y1="11.366" x2="20.9992" y2="11.366" gradientUnits="userSpaceOnUse">
<stop stop-color="#041A47"/>
<stop offset="1" stop-color="#0A3FAD"/>
</linearGradient>
</defs>
</svg>
