<svg width="160" height="135" viewBox="0 0 160 135" fill="none" xmlns="http://www.w3.org/2000/svg">
<path d="M120.403 0.637329C100.158 0.637329 83.6089 16.1502 81.8481 35.896H14.7722C7.02533 35.896 0.6875 42.2433 0.6875 49.9998V120.517C0.6875 128.273 7.02533 134.621 14.7722 134.621H130.966C138.713 134.621 145.051 128.273 145.051 120.517V69.3918C153.677 62.3409 159.135 51.5866 159.135 39.4214C159.135 18.0907 141.705 0.637329 120.403 0.637329ZM14.7722 42.9469H81.8481C82.9035 55.1121 89.595 65.5127 99.2767 71.8601L75.1585 92.6631C73.7494 93.8962 71.8127 93.8962 70.5796 92.6631L13.3632 43.1247C13.715 42.9469 14.2426 42.9469 14.7722 42.9469ZM7.7289 120.517V49.9998C7.7289 49.2943 7.90479 48.5888 8.0826 47.8834L51.2143 85.2584L8.0826 122.633C7.90479 121.928 7.7289 121.223 7.7289 120.517ZM130.966 127.568H14.7722C14.2426 127.568 13.715 127.568 13.3632 127.392L56.6727 89.8411L66.0026 97.9513C67.9393 99.714 70.4037 100.595 72.87 100.595C75.3344 100.595 77.7988 99.714 79.7355 97.9513L89.0654 89.8411L132.375 127.392C132.023 127.568 131.495 127.568 130.966 127.568ZM138.009 120.517C138.009 121.223 137.833 121.928 137.655 122.633L94.5238 85.2584L105.966 75.3855C110.367 77.1483 115.298 78.2075 120.403 78.2075C126.741 78.2075 132.727 76.6206 138.009 73.9746V120.517ZM120.403 71.1546C102.974 71.1546 88.7136 56.8749 88.7136 39.4214C88.7136 21.968 102.974 7.68829 120.403 7.68829C137.833 7.68829 152.092 21.968 152.092 39.4214C152.092 56.8749 137.833 71.1546 120.403 71.1546Z" fill="url(#paint0_linear_240_3374)"/>
<path d="M137.834 30.6077C139.241 29.1967 139.241 27.0803 137.834 25.6712C136.425 24.2603 134.136 24.2603 132.903 25.8471L113.01 45.7688L108.079 40.8323C106.848 39.4214 104.56 39.4214 103.151 40.8323C101.741 42.2433 101.741 44.3578 103.151 45.7688L110.546 53.1734C111.249 53.877 112.129 54.2307 113.01 54.2307C113.889 54.2307 114.771 53.877 115.474 53.1734L137.834 30.6077Z" fill="url(#paint1_linear_240_3374)"/>
<defs>
<linearGradient id="paint0_linear_240_3374" x1="79.9114" y1="0.637329" x2="79.9114" y2="134.621" gradientUnits="userSpaceOnUse">
<stop stop-color="#F6A649"/>
<stop offset="1" stop-color="#90612B"/>
</linearGradient>
<linearGradient id="paint1_linear_240_3374" x1="102.094" y1="39.4324" x2="138.889" y2="39.4324" gradientUnits="userSpaceOnUse">
<stop stop-color="#041A47"/>
<stop offset="1" stop-color="#0A3FAD"/>
</linearGradient>
</defs>
</svg>
