<svg width="284" height="194" viewBox="0 0 284 194" fill="none" xmlns="http://www.w3.org/2000/svg">
<path d="M44.5026 91.8884C47.4279 91.8797 47.441 96.2669 44.5157 96.2713C41.5904 96.28 41.5773 91.8928 44.5026 91.8884Z" fill="white"/>
<path d="M35.5168 88.1929C34.2133 89.9147 35.3337 92.4626 35.8089 94.3193C36.2972 96.2411 36.7898 98.1673 37.2824 100.089C37.4481 100.737 36.441 101.011 36.2797 100.363C35.665 97.9629 35.0503 95.5628 34.44 93.1627C33.9779 91.3495 33.3806 89.306 34.6231 87.6711C35.0198 87.1493 35.9222 87.6624 35.5168 88.1929Z" fill="url(#paint0_linear_240_3937)"/>
<mask id="mask0_240_3937" style="mask-type:luminance" maskUnits="userSpaceOnUse" x="0" y="59" width="284" height="135">
<path d="M283.027 59.087H0.716248V193.138H283.027V59.087Z" fill="white"/>
</mask>
<g mask="url(#mask0_240_3937)">
<path d="M282.676 185.733C283.77 187.116 282.1 191.486 280.195 191.49L72.6033 193.142C71.1952 193.142 65.9941 192.464 64.7081 191.912C49.8418 189.042 35.782 186.812 30.241 185.451C28.9462 185.133 27.9391 184.151 27.586 182.872C20.6019 157.579 5.26038 86.6235 1.46317 70.4965C1.28876 69.7748 1.12311 69.053 0.94873 68.3269C-0.032196 64.0353 2.20865 61.783 4.05713 60.3395C4.78082 59.7742 6.06689 59.109 7.49249 59.1046L194.489 177.598L282.676 185.733Z" fill="url(#paint1_linear_240_3937)"/>
</g>
<path d="M4.909 62.7867C7.02341 72.5003 9.15091 82.2139 11.2697 91.9275C17.068 118.446 23.76 144.956 30.2122 171.427C30.3517 171.988 30.4912 172.545 30.622 173.106C31.0231 174.732 31.4111 176.354 31.7947 177.989C31.8994 178.458 32.3266 178.789 32.8105 178.789L230.148 178.354L228.278 170.319L203.071 62.3476C202.644 60.504 200.66 59.0126 198.637 59.017L7.77327 59.4387C5.75912 59.4431 4.47304 60.9388 4.909 62.7867Z" fill="white"/>
<path d="M229.784 178.067L32.8081 178.498C32.4593 178.498 32.1498 178.258 32.0757 177.924C31.6877 176.289 31.304 174.663 30.9029 173.036C30.7678 172.48 30.6283 171.919 30.4888 171.358C29.1504 165.866 27.8032 160.379 26.4561 154.888C21.3859 134.239 16.1456 112.885 11.5506 91.8668L8.52068 77.9965C7.40897 72.9049 6.29727 67.8133 5.18556 62.7217C5.00246 61.9521 5.14633 61.226 5.58665 60.6738C6.06621 60.0651 6.84657 59.7259 7.77518 59.7259L198.635 59.3085C200.531 59.3085 202.388 60.6999 202.785 62.413L229.784 178.067ZM32.8081 179.076L230.508 178.641L228.555 170.254L203.352 62.2869C202.894 60.3216 200.784 58.7302 198.643 58.7302C198.635 58.7302 7.77081 59.152 7.77081 59.152C6.68091 59.152 5.71744 59.5781 5.13326 60.3173C4.57957 61.0086 4.40083 61.9087 4.62317 62.8478C5.73051 67.9394 6.84657 73.031 7.95828 78.1226L10.9882 91.9885C15.5832 113.016 20.8235 134.369 25.8937 155.022C27.2408 160.514 28.5923 166.006 29.9264 171.493C30.0659 172.054 30.2097 172.615 30.3405 173.171C30.7416 174.797 31.1253 176.424 31.5133 178.05C31.6441 178.645 32.189 179.076 32.8081 179.076Z" fill="url(#paint2_linear_240_3937)"/>
<path d="M7.88666 75.6222L4.58208 61.5736L5.98587 59.9301L7.77766 59.4344L198.637 59.017L200.355 59.3648L202.308 60.8214L203.546 64.3781L206.07 75.1874L7.88666 75.6222Z" fill="url(#paint3_linear_240_3937)"/>
<path d="M104.984 58.1959C105.041 57.9263 105.289 57.7132 105.542 57.6393C107.133 57.1697 109.322 58.148 110.652 58.9437C111.149 59.2438 111.101 59.809 110.808 60.1525C110.787 60.2134 110.761 60.2742 110.717 60.3351C109.601 61.9917 108.742 63.744 107.129 64.9875C106.78 65.2571 106.24 65.031 106.035 64.7049C105.464 63.7875 105.215 62.8005 105.097 61.7352C104.98 60.6395 104.77 59.2785 104.984 58.1959Z" fill="#F5FAFF"/>
<path d="M88.4859 58.6217C89.8766 57.426 91.5114 56.826 93.2684 56.3825C93.8831 56.2259 94.3801 56.7694 94.2536 57.3608C93.9092 59.0435 93.6171 60.7392 93.3992 62.4437C93.2684 63.4698 93.094 64.6177 91.8166 64.6916C89.5671 64.8264 88.0238 59.0217 88.4859 58.6217Z" fill="#F5FAFF"/>
<path d="M30.2122 171.428C30.3517 171.989 30.4912 172.545 30.622 173.106C31.0231 174.732 31.4111 176.354 31.7948 177.989C31.8994 178.459 32.3266 178.789 32.8105 178.789L230.148 178.354L228.278 170.319L30.2122 171.428Z" fill="#FEEEDB"/>
<path d="M229.493 177.837L32.8093 178.268C32.5651 178.268 32.3515 178.102 32.3036 177.876C31.9156 176.237 31.5275 174.607 31.1308 172.985C30.9957 172.424 30.8562 171.863 30.7167 171.302C29.3783 165.815 28.0311 160.323 26.6797 154.832C21.6138 134.183 16.3692 112.834 11.7785 91.8152L8.74857 77.9492C7.63686 72.8577 6.52516 67.7661 5.41345 62.6745C5.24779 61.9701 5.37422 61.3136 5.76659 60.8135C6.20691 60.2613 6.91753 59.957 7.77637 59.957L198.636 59.5352C200.432 59.5352 202.189 60.8483 202.564 62.4658L229.493 177.837ZM32.8093 179.307C32.8136 179.307 230.147 178.872 230.147 178.872C230.308 178.872 230.457 178.798 230.557 178.676C230.653 178.555 230.692 178.389 230.653 178.237L228.783 170.206L203.575 62.231C203.091 60.1396 200.925 58.5004 198.645 58.5004C198.636 58.5004 7.772 58.9221 7.772 58.9221C6.60799 58.9221 5.58348 59.3787 4.95134 60.1744C4.35843 60.9222 4.16225 61.8875 4.39767 62.9006C5.50937 67.9878 6.62108 73.0794 7.73277 78.171L10.7627 92.037C15.3577 113.069 20.6024 134.426 25.6726 155.08C27.0197 160.571 28.3668 166.058 29.7052 171.55C29.8447 172.111 29.9842 172.667 30.115 173.224C30.5161 174.854 30.9041 176.476 31.2878 178.107C31.4404 178.798 32.0812 179.307 32.8093 179.307Z" fill="url(#paint4_linear_240_3937)"/>
<path d="M38.4711 173.062C40.1452 173.062 40.1539 175.571 38.4754 175.576C36.8057 175.576 36.797 173.067 38.4711 173.062Z" fill="white"/>
<path d="M99.4667 51.7652C101.476 46.5997 100.901 41.6168 101.001 36.2209C101.067 32.8599 101.62 29.3727 103.735 26.6421C107.017 22.4071 113.814 21.6506 116.465 26.8378C116.7 26.8639 116.936 26.9769 117.141 27.2291C119.939 30.638 120.096 35.0121 119.861 39.2602C119.713 41.9603 119.181 44.5344 118.326 47.0998C117.934 48.2911 117.158 49.4607 117.359 50.7521C117.45 51.3348 118.483 52.4609 118.749 53.0436C122.381 61.0744 118.148 70.2923 111.159 74.7969C107.231 78.3493 101.272 77.0101 98.1762 72.8229C93.0449 65.8747 96.7724 58.7134 99.4667 51.7652Z" fill="#572D2D"/>
<path d="M42.6547 173.054C44.3288 173.05 44.3375 175.563 42.659 175.567C40.9849 175.567 40.9806 173.059 42.6547 173.054Z" fill="white"/>
<path d="M33.0085 100.063C33.7758 106.085 45.6601 158.062 45.6907 158.253C46.2705 160.158 46.7588 160.179 47.84 160.153L180.847 159.44C181.61 159.44 182.216 158.692 182.099 157.897L181.924 156.684L169.347 99.1848C169.255 98.55 168.658 98.0369 168.008 98.0413L34.0113 98.8935C33.3617 98.9066 32.9257 99.4283 33.0085 100.063Z" fill="#FEEEDB"/>
<path d="M30.0308 86.6927C30.7981 92.7148 31.6875 93.7888 31.718 93.9801C32.2935 95.8845 32.7861 95.9019 33.8673 95.8802L166.87 95.1671C167.638 95.1628 168.244 94.4193 168.126 93.6236L167.947 92.4104L166.369 85.8144C166.277 85.1796 165.68 84.6709 165.031 84.6709L31.0336 85.5231C30.3883 85.5405 29.948 86.0579 30.0308 86.6927Z" fill="#FEEEDB"/>
<path d="M176.773 102.593C176.215 102.593 175.731 102.198 175.626 101.65C175.313 100.054 175.103 98.8715 175.02 98.228C174.942 97.5932 175.378 97.0757 176.023 97.0583L194.059 96.8975C194.708 96.8975 195.31 97.4062 195.397 98.041L196.09 101.189C196.247 101.911 195.694 102.593 194.953 102.593H176.773Z" fill="#FEEEDB"/>
<path d="M176.962 108.181C176.779 107.325 176.609 106.507 176.448 105.733C176.265 104.846 176.945 104.011 177.856 104.011H195.543C196.219 104.011 196.807 104.481 196.951 105.142L197.483 107.586C197.675 108.481 196.995 109.32 196.075 109.32H178.371C177.686 109.32 177.102 108.847 176.962 108.181Z" fill="#FEEEDB"/>
<path d="M178.382 114.816C178.169 113.837 177.964 112.885 177.768 111.959C177.633 111.328 178.112 110.737 178.757 110.737H197.351C197.831 110.737 198.24 111.068 198.345 111.533L198.964 114.389C199.104 115.02 198.62 115.616 197.975 115.616H179.372C178.897 115.616 178.483 115.281 178.382 114.816Z" fill="#FEEEDB"/>
<path d="M179.706 120.899C179.523 120.06 179.34 119.234 179.161 118.412C179.009 117.703 179.554 117.03 180.286 117.03H198.614C199.15 117.03 199.621 117.403 199.734 117.93L200.275 120.412C200.428 121.125 199.883 121.799 199.155 121.799H180.827C180.286 121.799 179.82 121.421 179.706 120.899Z" fill="#FEEEDB"/>
<path d="M181.095 127.221C180.895 126.317 180.699 125.412 180.498 124.512C180.35 123.847 180.864 123.217 181.549 123.217H200.012C200.522 123.217 200.958 123.564 201.067 124.06L201.655 126.765C201.799 127.434 201.289 128.065 200.6 128.065H182.146C181.64 128.065 181.204 127.712 181.095 127.221Z" fill="#FEEEDB"/>
<path d="M182.604 134.004C182.381 133.013 182.155 132.004 181.932 130.995C181.758 130.217 182.355 129.478 183.153 129.478H201.237C201.825 129.478 202.335 129.891 202.457 130.46L203.111 133.469C203.281 134.243 202.688 134.978 201.891 134.978H183.824C183.236 134.978 182.73 134.578 182.604 134.004Z" fill="#FEEEDB"/>
<path d="M46.7908 173.045C48.4605 173.041 48.4692 175.554 46.7951 175.554C45.121 175.558 45.1123 173.05 46.7908 173.045Z" fill="white"/>
<path d="M23.8704 64.6049C27.0136 64.6005 27.0267 69.3138 23.8834 69.3182C20.7402 69.3269 20.7271 64.6136 23.8704 64.6049Z" fill="white"/>
<path d="M14.0579 64.6049C17.2011 64.6005 17.2142 69.3138 14.0709 69.3182C10.932 69.3269 10.9146 64.6136 14.0579 64.6049Z" fill="white"/>
<path d="M77.3774 50.4609C78.197 49.5348 79.0646 48.6434 79.9583 47.7869C81.1528 46.6346 82.1512 45.2824 82.6569 43.6866C84.2002 38.8212 82.6089 33.5687 84.2961 28.6554C84.5838 27.8249 85.4775 27.6858 86.0792 27.9988C89.4186 26.9205 94.3145 26.877 95.3477 30.9251C96.2894 34.6253 95.9188 39.1299 96.1542 42.9431C96.394 46.7955 96.6687 50.6522 96.66 54.522C96.6512 59.7223 96.7384 66.7487 92.8104 70.7533C90.7134 72.8882 87.7402 73.9926 85.0852 75.2579C81.6454 76.9058 78.2014 78.5537 74.7573 80.2016C74.3518 80.8539 73.1922 81.1495 72.669 80.2669C69.5824 75.0362 68.8674 68.8141 70.3541 62.9572C71.566 58.2048 74.1556 54.0742 77.3774 50.4609Z" fill="#572D2D"/>
<path d="M89.9719 43.7644C89.3223 46.2167 88.6204 48.7646 87.0074 50.7865C85.1851 53.0692 82.5388 54.4606 80.7949 56.8607C77.0369 62.0306 76.6141 68.8527 79.5132 74.5139C79.8184 75.1052 78.9203 75.6313 78.6151 75.0356C75.9165 69.7745 75.8468 63.535 78.6674 58.2999C80.0712 55.6955 82.0636 53.8041 84.3306 51.9474C87.064 49.7038 88.0886 46.8037 88.9692 43.4905C89.1436 42.8469 90.1463 43.1209 89.9719 43.7644Z" fill="#2F1717"/>
<path d="M230.236 178.024L281.955 185.133C282.391 185.25 282.805 185.92 282.805 185.92L74.0751 187.177C72.9373 187.181 71.8125 186.907 70.8011 186.385L31.9743 178.68L230.236 178.024Z" fill="url(#paint5_linear_240_3937)"/>
<path d="M106.982 58.069C108.098 58.1125 109.179 58.3169 110.208 58.743C110.805 58.9908 111.237 59.5343 111.049 60.2126C110.98 60.4735 110.779 60.7257 110.531 60.8996C110.557 61.1344 110.513 61.3779 110.365 61.5779C109.737 62.4388 108.612 62.8954 107.614 62.2867C106.799 61.7823 106.376 60.6822 105.949 59.8691C105.552 59.1039 106.027 58.0299 106.982 58.069Z" fill="#F5FAFF"/>
<path d="M88.7807 60.0739C88.2663 59.5782 88.2227 58.6999 89.0161 58.2129C90.5115 57.3042 92.1376 56.7911 93.8902 56.8867C95.0193 56.9476 95.6035 58.5173 94.5005 59.113C93.9381 59.4173 93.2362 59.6695 92.7349 60.0652C92.5213 60.2391 92.4646 59.9217 92.6608 60.3391C92.7785 60.5913 92.8352 60.8652 92.9659 61.1174C93.6548 62.487 91.5883 63.7045 90.8908 62.3262C90.8472 62.2349 90.7992 62.1392 90.7556 62.0435C89.8968 61.6348 89.0379 61.0218 88.7807 60.0739Z" fill="#F5FAFF"/>
<path d="M111.05 65.796C111.665 65.9613 114.773 66.1656 115.405 66.3004C116.011 66.4308 116.334 67.0831 116.098 67.6527C113.552 73.7704 105.688 77.1662 98.6513 75.3487C94.4094 74.253 87.7959 73.8225 84.3474 71.0441C83.7196 70.5354 83.6717 70.7354 84.282 70.205C85.9954 68.7136 89.4264 66.0308 90.0018 63.7568C91.2879 58.6826 91.6236 50.5474 92.0509 45.3428C92.0988 44.7645 92.9184 44.247 92.9228 44.2427C94.3179 40.0468 97.932 41.5512 100.883 43.6905C104.559 46.3602 108.051 50.1734 109.895 54.3085C110.165 54.9215 109.921 55.5042 109.502 55.839C109.132 57.5738 108.84 59.3174 108.696 61.0958C108.517 63.3176 108.705 65.1569 111.05 65.796Z" fill="#F7946D"/>
<path d="M32.7677 179.933C40.7982 181.924 48.9027 183.59 57.0159 185.203C60.896 185.972 64.776 186.733 68.6517 187.516C72.5361 188.299 76.7214 187.886 80.6799 187.873C96.7276 187.816 112.775 187.716 128.819 187.599C161.106 187.355 193.385 187.029 225.672 186.794C243.686 186.664 261.704 186.559 279.722 186.52C280.389 186.516 280.389 187.555 279.722 187.555C247.344 187.629 214.965 187.899 182.59 188.181C150.264 188.464 117.941 188.76 85.615 188.89C81.2379 188.907 76.8609 188.92 72.4838 188.933C68.1504 188.942 63.7515 187.59 59.5096 186.751C50.4721 184.964 41.4346 183.146 32.4931 180.933C31.8435 180.772 32.1182 179.772 32.7677 179.933Z" fill="url(#paint6_linear_240_3937)"/>
<path d="M122.998 170.958L48.0436 171.297C52.4904 158.344 58.0795 146.617 63.4723 138.274C63.3197 137.804 63.4331 137.265 63.9911 136.943C73.046 131.725 84.2371 135.239 93.7454 137.191C99.6571 138.4 105.595 138.304 111.498 139.256C114.859 139.795 117.815 141.1 119.96 143.609C120.531 142.987 121.983 143.256 122.14 144.413C123.299 152.979 123.744 162.279 123.26 170.901C123.195 170.914 123.025 170.958 122.998 170.958Z" fill="#B0C4D6"/>
<path d="M56.224 115.521C56.333 112.442 56.5161 109.333 56.7385 106.355C57.4316 97.2848 58.5303 89.4409 59.315 87.3581C60.9542 83.0014 64.7994 79.136 68.5835 76.7837C70.4625 75.6271 72.5769 74.3096 74.8003 72.9791C76.9366 71.6877 79.1687 70.392 81.3528 69.2006C83.5501 68.018 85.6907 66.9353 87.6525 66.1048C87.9271 65.9874 88.616 65.2178 88.8557 65.7831C91.2928 71.5051 94.6933 71.7356 99.3363 71.7399C101.468 71.7399 110.449 64.8743 110.671 64.8091C110.776 64.7569 112.624 64.9787 112.755 64.97C114.992 64.8395 117.272 64.6961 119.56 64.5873C120.62 64.5395 121.684 64.496 122.747 64.47C123.75 64.4352 124.757 64.4134 125.76 64.4134C128.249 64.383 130.721 64.4569 133.145 64.6656C139.004 65.1743 144.75 67.5484 150.156 69.7224C150.697 69.9442 150.784 70.5355 150.588 70.9399C150.666 71.0877 150.692 71.279 150.601 71.5008C147.976 78.062 142.422 88.4582 139.174 92.8367C138.821 93.3106 138.494 93.715 138.198 94.0368C137.583 94.7107 135.656 93.6107 135.996 94.4585C145.173 116.838 124.653 149.962 124.36 150.283C120.393 154.592 113.474 155.157 108.09 155.553C99.0093 156.218 89.6361 155.536 80.821 153.21C73.4489 151.257 60.8103 145.974 57.8502 138.13C56.1979 133.761 55.8883 124.773 56.224 115.521Z" fill="#F5FAFF"/>
<path d="M121.796 64.6308C122.101 64.5742 122.415 64.5177 122.746 64.4699C123.644 64.3221 124.621 64.1873 125.654 64.0786C134.687 63.122 148.036 63.6568 158.024 64.9699C169.451 66.4787 184.016 67.8396 195.351 69.9702C195.7 70.0398 195.962 70.2224 196.132 70.4572C196.249 70.5311 196.358 70.6267 196.459 70.7659C200.687 76.6097 201.463 89.1669 195.164 93.6106C194.553 94.0411 182.822 95.989 177.298 96.1455C168.47 96.3934 158.116 96.9195 149.357 95.7325C146.127 95.2976 142.434 94.7585 139.579 93.0932C139.439 93.0149 139.3 92.928 139.173 92.8366C136.915 91.3192 135.786 88.819 134.565 86.458C131.753 81.0273 120.671 71.6746 119.769 67.1266C119.52 65.8569 120.056 64.9656 121.796 64.6308Z" fill="#F5FAFF"/>
<path d="M179.108 68.0179C184.627 62.7133 205.518 58.7218 211.831 56.4086C216.692 54.6259 222.032 52.291 227.146 53.778C229.749 51.5823 232.556 49.6822 235.547 48.0516C235.604 48.0212 235.661 47.9995 235.722 47.9777C236.397 47.3733 236.192 47.9995 236.428 49.1734C237.967 56.9478 243.87 61.3002 243.368 61.8306C242.222 63.0481 241.005 64.1786 239.715 65.2221C239.31 65.5482 238.904 65.9961 238.939 66.5135C239.676 77.0271 227.543 83.9623 217.812 87.9755C206.547 92.628 190.865 96.4847 172.59 96.289C171.448 96.276 175.459 71.5268 179.108 68.0179Z" fill="#F5FAFF"/>
<path d="M89.9495 43.6338C87.1681 38.0857 84.888 31.9027 89.191 26.672C93.8645 20.9935 102.518 20.5369 108.661 23.998C116.238 28.2721 118.331 37.3422 119.547 45.273C119.987 48.1384 120.724 51.9517 118.88 54.4692C116.726 59.1303 110.257 58.8259 106.01 58.1737C99.3358 57.1432 95.5691 54.6953 92.4432 48.4689C91.6803 46.9427 90.791 45.3209 89.9495 43.6338Z" fill="#F7946D"/>
<path d="M172.39 82.2405C173.58 81.6622 174.98 81.6839 176.24 82.0535C176.261 82.0448 176.275 82.0318 176.301 82.0274C176.824 81.9187 177.094 82.11 177.186 82.4057C177.408 82.5231 177.36 82.784 177.194 82.9101C177.129 83.2231 176.955 83.5492 176.706 83.758C175.542 84.745 173.589 85.1537 172.155 84.5536C170.93 84.0406 171.392 82.7231 172.39 82.2405Z" fill="white"/>
<path d="M198.945 83.3754C200.497 82.0058 203.937 80.7101 205.685 82.4015C208.628 85.2494 200.746 88.4887 198.862 88.1452C196.072 87.6365 197.441 84.7016 198.945 83.3754Z" fill="white"/>
<path d="M195.494 85.2975C191.923 84.354 188.588 82.3278 185.288 80.719C184.687 80.4234 185.214 79.532 185.816 79.8233C189.029 81.393 192.294 83.3801 195.773 84.2975C196.418 84.4714 196.144 85.4671 195.494 85.2975Z" fill="url(#paint7_linear_240_3937)"/>
<path d="M124.299 15.7366C126.069 25.4806 135.873 74.6528 135.873 74.6615C136.567 78.1834 137.953 79.927 141.702 79.927L250.226 79.6835C254.159 79.7009 254.159 78.4574 253.648 75.9703L253.138 73.6223L241.529 17.1193C241.328 16.0975 240.905 13.6365 237.439 13.6365L125.82 13.8843C124.774 13.8843 124.116 14.7104 124.299 15.7366Z" fill="#DAE8F5"/>
<path d="M218.469 32.2114C227.463 38.3769 236.453 44.5468 245.447 50.7124C246.724 51.5864 248.001 52.4647 249.279 53.343C249.828 53.7169 249.305 54.6126 248.756 54.2343C239.762 48.0688 230.772 41.9032 221.778 35.7377C220.501 34.8594 219.223 33.9811 217.946 33.1071C217.397 32.7288 217.92 31.8331 218.469 32.2114Z" fill="#F6A649"/>
<path d="M157.03 35.712C150.116 41.9645 143.21 48.2518 136.117 54.3043C135.354 54.9521 133.981 56.6175 132.895 56.7131C132.228 56.7696 132.233 55.7348 132.895 55.6783C132.551 55.7044 132.786 55.687 132.965 55.5522C133.166 55.4043 133.358 55.2522 133.549 55.1C134.195 54.5826 134.827 54.0434 135.454 53.5086C137.399 51.8476 139.321 50.1519 141.24 48.4605C145.338 44.8342 149.41 41.1818 153.477 37.5208C154.414 36.6772 155.356 35.825 156.293 34.9772C156.79 34.5293 157.527 35.2598 157.03 35.712Z" fill="#F6A649"/>
<path d="M126.492 14.9501C139.501 23.6984 152.675 32.225 166.012 40.4645C170.807 43.4299 175.624 46.3475 180.499 49.1737C182.635 50.4129 184.78 51.6304 186.942 52.8217C188.882 53.887 192.13 54.3349 193.974 52.8652C201.917 46.517 209.407 39.5471 216.945 32.7293C223.872 26.4638 230.721 20.1113 237.636 13.8327C238.128 13.3848 238.865 14.1153 238.372 14.5631C224.404 27.2595 210.693 40.2776 196.189 52.3739C195.496 52.9522 194.794 53.6696 194.013 54.1348C193.141 54.661 192.008 54.7392 191.018 54.7566C188.45 54.8001 186.711 53.8914 184.536 52.6696C179.814 50.0259 175.162 47.2649 170.537 44.4561C160.876 38.5862 151.337 32.5032 141.859 26.3333C136.541 22.8723 131.235 19.3851 125.964 15.8458C125.415 15.4719 125.934 14.5762 126.492 14.9501Z" fill="#F6A649"/>
<path d="M243.444 52.626C241.539 51.2738 242.916 48.2997 244.398 47.004C246.918 44.8038 250.746 43.0907 254.133 43.782C257.726 44.5125 258.07 47.4692 257.02 50.4476C257.569 50.7259 258.022 51.1259 258.319 51.6781C259.33 53.5565 258.371 55.5827 256.95 57.0741C257.181 57.2741 257.39 57.5002 257.569 57.7611C259.047 59.9003 257.316 62.1569 255.289 63.0179C255.21 63.0527 255.132 63.0613 255.053 63.0657C255.367 63.4309 255.594 63.8788 255.694 64.4266C256.03 66.2311 254.277 68.2877 252.599 68.8095C252.481 68.8617 252.35 68.8877 252.207 68.866C252.002 68.853 251.832 68.7703 251.701 68.6356C250.515 67.9051 249.29 67.2094 248.139 66.418C247.372 65.8919 246.679 65.2006 246.561 64.2353C246.417 63.0309 247.08 62.3352 247.995 61.9482C247.773 61.8917 247.555 61.8308 247.332 61.7656C246.587 61.5439 245.746 61.196 245.467 60.4047C245.035 59.2003 245.715 58.2437 246.748 57.5263C246.199 57.5306 245.645 57.5089 245.079 57.435C244.024 57.2958 242.947 56.9349 242.489 55.887C241.879 54.4913 242.437 53.4304 243.444 52.626Z" fill="#F7946D"/>
<path d="M87.4332 68.5442C87.4157 66.0528 87.3765 63.5353 87.5683 61.0525C87.686 59.5742 88.122 58.5176 89.5432 57.9611C89.722 57.8871 89.8745 57.9002 90.0141 57.9437C90.2102 57.9263 90.4151 57.9958 90.5895 58.2002C92.5078 60.4612 94.8445 62.1961 97.7567 62.97C101.118 63.8657 108.547 64.4266 109.419 59.409C109.449 59.2307 109.536 59.1133 109.632 59.0176C109.802 58.8176 110.064 58.7046 110.395 58.835C111.812 59.3742 112.422 60.4525 112.579 61.9308C112.828 64.3831 112.749 67.0398 112.3 69.4617C111.559 73.4749 92.8609 76.7186 87.4462 69.3486C87.2239 69.0486 87.2675 68.7573 87.4332 68.5442Z" fill="#F5FAFF"/>
<path d="M131.292 88.9013C129.701 90.497 127.974 92.0319 126.784 93.9624C126.435 94.532 125.537 94.0102 125.886 93.4406C127.124 91.4275 128.903 89.8274 130.559 88.1665C131.03 87.6969 131.767 88.4273 131.292 88.9013Z" fill="url(#paint8_linear_240_3937)"/>
<path d="M112.784 66.4267C115.065 71.4487 106.659 72.1922 103.756 72.5836C98.3759 73.314 92.739 73.1749 88.0001 70.2356C87.4333 69.8834 87.9565 68.9877 88.5276 69.3399C92.2289 71.64 96.5667 72.1618 100.852 71.8574C102.975 71.7096 113.826 71.2183 111.886 66.9485C111.612 66.3441 112.505 65.818 112.784 66.4267Z" fill="url(#paint9_linear_240_3937)"/>
<path d="M108.687 30.3679C109.432 29.4852 110.587 29.1548 111.708 29.3895C112.663 29.5896 114.149 30.3635 114.276 31.4418C114.372 32.2288 113.726 33.2115 112.859 33.0419C112.222 32.9202 111.595 32.855 110.949 32.9202C110.448 32.968 109.968 33.0984 109.467 32.9941C108.211 32.7419 107.915 31.281 108.687 30.3679Z" fill="#572D2D"/>
<path d="M97.0511 33.868C97.8097 32.7288 98.9389 31.7766 100.369 31.62C101.563 31.4852 103.342 32.0505 103.251 33.4767C103.146 35.0985 101.175 34.6724 100.138 35.2594C99.5274 35.6072 98.7514 35.9594 98.0364 35.7637C97.2778 35.5594 96.5629 34.6072 97.0511 33.868Z" fill="#572D2D"/>
<path d="M131.227 72.7311C130.6 68.1135 132.758 64.735 136.332 62.0132C136.455 61.9218 136.572 61.8827 136.686 61.8784C138.416 60.6913 141.991 58.9304 142.418 61.561C142.462 61.8131 142.139 62.2393 142.078 62.4697C144.049 61.3827 147.602 60.8435 146.822 63.4437C146.438 64.709 145.649 65.6003 144.642 66.3395C146.752 65.4264 148.055 65.4699 148.221 67.5526C148.291 68.4352 147.82 69.057 147.458 69.4396C149.198 69.0918 149.455 70.6658 149.128 72.7094C148.892 74.1964 146.843 74.8443 146.739 77.1357C146.669 78.6271 147.162 79.6315 148.365 84.4231C148.962 86.7884 148.256 88.945 147.258 91.1452C145.876 94.1845 143.604 96.5846 141.25 98.976C141.233 98.9934 129.662 95.2889 129.64 95.2063C130.896 93.5801 134.876 87.3928 134.846 85.7623C134.484 80.4924 131.925 77.8097 131.227 72.7311Z" fill="#F7946D"/>
<path d="M62.3358 83.0188C62.3925 82.7188 68.3041 72.8226 86.0347 93.0411C93.058 101.046 97.9451 108.046 105.723 115.121C108.522 117.669 110.775 120.869 112.777 124.16C116.077 129.578 96.8029 139.657 95.9484 139.487C89.4177 138.187 78.4228 134.848 68.0425 118.221C62.0132 108.572 53.9523 93.3585 62.3358 83.0188Z" fill="#F5FAFF"/>
<path d="M89.9036 120.49C92.1532 115.503 86.1587 119.081 90.1914 115.468C107.416 100.028 121.084 96.3234 127.043 94.919C127.357 94.8407 127.95 94.432 128.172 94.1711C129.589 92.4928 131.132 90.5709 132.554 88.8926C132.859 88.536 133.221 88.436 133.561 88.4969C133.761 88.423 133.984 88.3926 134.232 88.4317C135.898 88.6926 137.467 89.2752 138.893 90.1144C140.567 91.084 142.032 92.4058 143.213 93.9624C143.867 94.8233 144.438 95.7538 144.909 96.7408C145.397 97.7887 144.573 99.2105 144.124 100.128C143.658 101.058 143.082 101.919 142.437 102.732C143.483 107.711 143.523 110.911 141.8 114.468C141.155 115.82 140.248 117.233 139.045 118.807C138.265 119.829 137.559 120.707 136.878 121.49C133.905 124.981 131.717 126.482 127.122 129.964C117.02 137.613 96.6872 146.987 86.3593 136.095C85.5745 135.269 87.5756 125.655 89.9036 120.49Z" fill="#F5FAFF"/>
<path d="M126.602 94.1492C120.677 97.0277 115.097 100.389 109.865 104.376C104.621 108.372 99.4981 112.472 94.0137 116.142C93.4556 116.516 92.9325 115.616 93.4861 115.246C98.9749 111.581 104.097 107.476 109.338 103.485C114.574 99.493 120.15 96.1363 126.074 93.2535C126.676 92.9622 127.203 93.8579 126.602 94.1492Z" fill="url(#paint10_linear_240_3937)"/>
<path d="M93.343 110.307C90.688 110.725 88.3076 111.833 86.3109 113.629C85.8183 114.077 85.0772 113.346 85.5742 112.899C87.6973 110.985 90.2346 109.755 93.064 109.307C93.7223 109.207 94.0013 110.203 93.343 110.307Z" fill="url(#paint11_linear_240_3937)"/>
<path d="M78.746 84.8578C83.0097 88.5971 86.8766 92.8191 90.6128 97.0715C94.2749 101.233 97.9588 105.528 100.884 110.25C101.237 110.82 100.339 111.342 99.986 110.777C97.0345 106.007 93.3071 101.685 89.6014 97.4889C85.948 93.3495 82.1683 89.2363 78.0092 85.5882C77.5078 85.1491 78.2446 84.4186 78.746 84.8578Z" fill="url(#paint12_linear_240_3937)"/>
<path d="M63.9086 112.685C67.2568 117.96 71.2589 122.703 75.5314 127.26C79.346 131.339 83.3394 135.43 88.1088 138.408C90.4936 139.9 93.1486 141.148 95.9736 141.474C98.8291 141.804 101.89 141.443 104.667 140.748C109.889 139.439 114.702 136.517 119.315 133.843C124.93 130.591 130.14 126.817 134.892 122.399C135.38 121.942 136.117 122.673 135.629 123.129C131.265 127.182 126.526 130.743 121.416 133.808C116.625 136.687 111.555 139.796 106.162 141.409C100.913 142.983 95.263 143.174 90.2538 140.778C84.9481 138.243 80.5406 133.991 76.5123 129.804C71.5467 124.647 66.8514 119.26 63.0106 113.207C62.6531 112.642 63.5511 112.12 63.9086 112.685Z" fill="url(#paint13_linear_240_3937)"/>
<path d="M130.485 93.5805C134.448 94.8067 138.476 97.2503 140.752 100.785C141.114 101.35 140.211 101.868 139.854 101.307C137.731 98.0112 133.903 95.7241 130.21 94.5806C129.57 94.3805 129.844 93.3805 130.485 93.5805Z" fill="url(#paint14_linear_240_3937)"/>
<path d="M146.207 71.0613C144.158 72.7918 143.194 75.2702 143.512 77.9225C143.595 78.5834 142.553 78.5791 142.475 77.9225C142.122 75.0311 143.242 72.2135 145.47 70.3265C145.98 69.9003 146.717 70.6308 146.207 71.0613Z" fill="#CB5B45"/>
<path d="M143.536 67.592C140.55 69.5181 138.945 72.9009 139.272 76.4142C139.333 77.0794 138.292 77.0751 138.23 76.4142C137.873 72.5314 139.735 68.8094 143.009 66.6963C143.575 66.3354 144.099 67.2311 143.536 67.592Z" fill="#CB5B45"/>
<path d="M140.6 64.3742C139.314 65.6569 137.74 67.0004 136.86 68.6005C135.84 70.4571 135.7 72.7225 135.827 74.7922C135.87 75.4618 134.828 75.4574 134.789 74.7922C134.658 72.7181 134.82 70.4354 135.731 68.5266C136.637 66.6265 138.399 65.109 139.868 63.6437C140.339 63.1698 141.076 63.9046 140.6 64.3742Z" fill="#CB5B45"/>
<path d="M77.2109 21.5194C77.9258 18.7801 81.1825 17.5061 84.1165 18.4149C87.9486 19.6062 89.4745 23.2455 91.0396 26.2196C91.2445 26.6066 91.1791 26.9849 90.9698 27.2762C91.0701 27.5893 90.9916 27.9328 90.6123 28.2197C87.9704 30.2155 84.147 29.6981 81.1432 28.5719C77.8517 27.3414 76.4087 24.5934 77.2109 21.5194Z" fill="#572D2D"/>
<path d="M244.588 51.5166C247.461 48.5904 251.982 47.9078 255.609 49.8166C256.198 50.1296 255.675 51.0253 255.082 50.7123C251.864 49.0165 247.862 49.66 245.325 52.2471C244.858 52.7254 244.122 51.9949 244.588 51.5166Z" fill="#CB5B45"/>
<path d="M247.721 55.9957C250.306 54.9913 253.113 55.2826 255.45 56.7653C256.013 57.1218 255.489 58.0175 254.923 57.661C252.795 56.3087 250.349 56.0826 248 56.9914C247.372 57.2349 247.102 56.2305 247.721 55.9957Z" fill="#CB5B45"/>
<path d="M249.306 61.413C251.158 60.9956 252.994 61.4739 254.411 62.7305C254.912 63.174 254.175 63.9045 253.674 63.461C252.545 62.4609 251.058 62.0826 249.585 62.4131C248.931 62.5609 248.652 61.5609 249.306 61.413Z" fill="#CB5B45"/>
<path d="M85.4736 26.1154C85.7178 25.698 85.9881 25.2893 86.2845 24.8936C89.6894 20.3412 96.0413 18.7281 101.469 18.5976C113.737 18.2976 118.729 29.4504 118.607 29.7417C119.078 30.8809 118.149 33.1462 117.403 31.9723C114.461 27.3242 108.937 24.7588 103.91 24.8067C103.553 24.811 103.278 25.1067 103.261 25.4632C103.117 28.3677 101.866 31.3809 100.44 33.7332C98.9143 36.2507 96.8653 38.4335 94.4544 40.1249C93.2294 40.9814 91.9171 41.7119 90.5395 42.3032C88.9003 43.012 86.1755 44.5251 85.1728 42.038C83.1543 37.0334 82.6748 30.8939 85.4736 26.1154Z" fill="#572D2D"/>
<path d="M93.4977 49.0256C94.7838 51.5997 96.1571 54.4215 98.6072 56.0999C101.14 57.8348 104.48 58.0217 107.453 58.1435C108.12 58.1696 108.12 59.2044 107.453 59.1783C104.296 59.0522 100.774 58.8218 98.0797 56.9912C95.4596 55.2129 93.9729 52.2997 92.5997 49.5474C92.3032 48.956 93.2013 48.4299 93.4977 49.0256Z" fill="#CB5B45"/>
<path d="M100.169 35.9421C100.574 35.5595 101.171 35.4812 101.686 35.6508C103.796 36.3508 103.552 41.0033 101.176 40.0423C100.269 39.6728 99.8243 38.4553 99.7677 37.5509C99.7328 37.0074 99.7502 36.3378 100.169 35.9421Z" fill="#2E060A"/>
<path d="M110.774 33.9546C111.171 33.5416 111.764 33.4633 112.274 33.6546C114.362 34.4329 114.131 39.1201 111.781 38.0505C110.883 37.6418 110.461 36.6809 110.395 35.6982C110.356 35.1112 110.365 34.3808 110.774 33.9546Z" fill="#2E060A"/>
<path d="M108.412 36.4071C109.328 36.7898 110.16 37.4637 110.278 38.5072C110.409 39.6508 109.659 40.5813 108.835 41.2857C108.334 41.7161 107.593 40.9856 108.103 40.5508C108.565 40.1552 109.075 39.6986 109.219 39.0725C109.397 38.2942 108.822 37.6898 108.137 37.4072C107.527 37.155 107.797 36.1549 108.412 36.4071Z" fill="#CB5B45"/>
<path d="M106.647 40.482C106.421 40.4428 106.207 40.5515 106.054 40.7081C105.584 41.1863 104.847 40.4515 105.318 39.9776C105.749 39.5341 106.325 39.3862 106.926 39.4819C107.201 39.5297 107.358 39.8689 107.288 40.1211C107.205 40.4124 106.926 40.5254 106.647 40.482Z" fill="#CB5B45"/>
<path d="M104.556 43.6211C106.71 43.2863 111.196 42.2472 111.261 42.3776C111.384 42.4211 111.479 42.508 111.493 42.6428C111.606 43.6342 111.51 44.1907 110.664 44.7516C108.776 45.9952 104.975 46.2126 104.277 44.0168C104.225 43.8603 104.347 43.6559 104.556 43.6211Z" fill="white"/>
<path d="M88.0986 23.611C86.3243 24.7458 85.2387 26.5981 85.1297 28.6939C85.0949 29.3591 84.0573 29.3591 84.0922 28.6939C84.2186 26.2242 85.4829 24.0502 87.5711 22.7153C88.1379 22.3544 88.661 23.2501 88.0986 23.611Z" fill="#2F1717"/>
<path d="M93.3021 25.0196C89.5136 29.4415 90.0542 35.5027 90.8956 40.8465C90.9959 41.4987 89.9932 41.7813 89.8929 41.1204C88.9905 35.3593 88.5022 29.0285 92.5653 24.2891C93.0013 23.7804 93.7337 24.5152 93.3021 25.0196Z" fill="#2F1717"/>
<path d="M87.0714 32.3988C86.5526 34.1858 87.1847 35.8946 87.8735 37.5425C88.1264 38.16 87.1237 38.4252 86.8665 37.8208C86.1035 35.9859 85.4975 34.0945 86.0687 32.1248C86.2561 31.4813 87.2588 31.7553 87.0714 32.3988Z" fill="#2F1717"/>
<path d="M88.0709 39.9904C91.3319 36.0337 96.4588 44.6689 94.9111 47.6952C93.5901 50.2779 90.6692 47.843 89.4136 46.4342C88.0578 44.9081 86.5189 41.8688 88.0709 39.9904Z" fill="#F7946D"/>
<path d="M89.654 40.7467C91.1102 41.4033 92.1695 42.699 92.5575 44.2382C92.7145 44.8861 91.7161 45.1644 91.5548 44.5165C91.2279 43.2077 90.3559 42.1946 89.1309 41.6424C88.5205 41.3685 89.0481 40.4771 89.654 40.7467Z" fill="#CB5B45"/>
<path d="M62.7086 145.787C67.9183 151.639 75.2904 155.074 82.7846 157.018C90.8717 159.118 99.4034 159.614 107.709 158.766C112.229 158.301 116.702 157.396 121.014 155.961C121.651 155.748 121.921 156.748 121.289 156.957C113.359 159.605 104.827 160.501 96.4956 160.096C88.16 159.688 79.6849 157.975 72.1995 154.196C68.3674 152.261 64.8317 149.731 61.9718 146.517C61.5271 146.022 62.2595 145.287 62.7086 145.787Z" fill="url(#paint15_linear_240_3937)"/>
<path d="M113.24 8.35339C114.3 4.9619 116.711 2.07914 120.447 1.17039C126.001 -0.181852 132.056 2.46177 134.982 7.3142C137.907 12.1579 136.63 17.793 132.327 21.3367C126.092 26.4761 114.936 23.7716 112.987 15.6147C112.425 13.2667 112.512 10.6883 113.24 8.35339Z" fill="#F5FAFF"/>
<path d="M123.696 8.94982C124.464 8.48893 125.619 8.19326 126.395 8.82373C127.694 9.88465 126.003 11.2543 125.179 11.7717C124.058 12.4761 122.327 12.8457 121.399 13.811C120.828 14.411 121.129 15.111 121.883 15.2893C122.676 15.4763 123.736 15.3328 124.551 15.3415C125.558 15.3545 126.569 15.3545 127.581 15.3371C128.248 15.3328 128.252 14.2936 127.581 14.3023C126.421 14.3197 125.257 14.3153 124.093 14.2979C123.57 14.2936 123.051 14.2849 122.528 14.2718C122.319 14.1936 122.249 14.2501 122.323 14.4371C122.524 14.311 122.729 14.1936 122.938 14.0849C124.442 13.2805 126.199 12.7152 127.276 11.3108C128.087 10.2499 128.178 8.78459 126.988 7.95411C125.846 7.15842 124.302 7.37582 123.173 8.05847C122.598 8.40197 123.121 9.29767 123.696 8.94982Z" fill="url(#paint16_linear_240_3937)"/>
<path d="M70.5499 92.1711C71.3259 90.7145 73.2616 90.297 74.5128 91.4362C74.6872 91.5928 74.8267 91.7623 74.9574 91.9406C75.2888 92.2754 75.5591 92.6885 75.7378 93.145C76.1389 94.1712 76.3307 95.4538 76.0256 96.5278C75.6463 97.8757 74.4081 98.7845 73.0087 98.7062C69.6954 98.5192 69.2987 94.5103 70.5499 92.1711Z" fill="white"/>
<path d="M106.396 83.9443C106.496 84.1235 106.444 84.0579 106.396 83.9443V83.9443Z" fill="white"/>
<path d="M104.3 82.3185C106.249 82.2619 107.373 84.4273 107.177 86.1491C106.937 88.2797 104.697 90.2363 102.682 88.684C101.845 88.0405 101.584 87.1187 101.505 86.1056C101.361 84.3273 102.277 82.375 104.3 82.3185Z" fill="white"/>
<path d="M119.768 67.1261C119.777 67.1392 119.781 67.1566 119.79 67.1696C120.662 69.1697 123.029 70.1567 124.821 68.6218C126.103 67.5218 126.19 65.8956 125.758 64.4129C125.724 64.2999 125.693 64.1868 125.654 64.0781C124.621 64.1868 123.644 64.3216 122.746 64.4695C121.682 64.4955 120.618 64.539 119.559 64.5868C119.359 65.3999 119.424 66.3043 119.768 67.1261Z" fill="white"/>
<path d="M162.361 88.045C163.189 87.8015 164.1 87.6928 164.924 88.0319C165.922 88.445 166.546 89.5146 166.345 90.5886C166.088 91.9626 164.619 93.0322 163.329 93.5931C163.228 93.6366 163.128 93.6757 163.023 93.7105C162.962 93.7322 162.901 93.7627 162.845 93.7801C162.574 93.8757 162.287 93.9018 161.999 93.8801C161.859 93.8757 161.72 93.867 161.576 93.8366C160.582 93.6496 159.723 92.8974 159.492 91.9104C159.065 90.1147 160.748 88.5146 162.361 88.045Z" fill="white"/>
<path d="M108.404 122.517C108.587 121.339 109.163 120.252 109.939 119.356C110.78 118.386 112.118 117.421 113.47 117.665C115.423 118.012 115.815 120.008 115.148 121.6C114.647 122.795 113.775 123.778 112.633 124.413C112.406 124.543 112.153 124.621 111.905 124.652C111.417 124.856 110.885 124.978 110.292 124.987C108.901 125.013 108.212 123.73 108.404 122.517Z" fill="white"/>
<path d="M125.942 97.5111C127.454 97.1284 128.832 98.1763 128.897 99.6199C129.303 100.22 129.355 100.985 128.985 101.681C128.169 103.211 126.426 104.207 124.686 104.116C123.644 104.055 122.702 103.264 122.724 102.163C122.763 100.259 123.954 98.0068 125.942 97.5111Z" fill="white"/>
<path d="M134.873 119.29C134.926 120.442 135.806 121.29 136.879 121.49C137.559 120.708 138.265 119.829 139.046 118.808C140.249 117.234 141.156 115.82 141.801 114.468C141.605 114.355 141.391 114.264 141.147 114.199C139.229 113.668 137.084 115.029 135.959 116.486C135.357 117.273 134.825 118.277 134.873 119.29Z" fill="white"/>
<path d="M138.119 92.4929C138.115 94.1886 139.571 95.6235 141.301 95.3887C142.252 95.267 142.884 94.6974 143.211 93.9625C142.029 92.4059 140.565 91.0841 138.891 90.1145C138.402 90.8058 138.128 91.6798 138.119 92.4929Z" fill="white"/>
<path d="M82.7323 124.017C83.9182 123.769 85.2871 124.273 86.2593 124.934C86.3726 125.013 86.4773 125.1 86.5732 125.195C87.3448 125.83 87.9116 126.665 88.2647 127.661C88.7137 128.939 87.5497 130.048 86.3726 130.13C84.341 130.278 82.0828 129.2 81.0888 127.387C80.3084 125.96 81.2021 124.339 82.7323 124.017Z" fill="white"/>
<path d="M72.37 139.304C73.9874 140.113 75.3432 141.495 76.0756 143.148C76.3503 143.774 76.3808 144.469 76.1018 145.039C75.9012 146.291 74.371 147.23 73.1765 146.461C71.3672 145.296 70.0594 143.582 69.4926 141.508C69.0174 139.787 70.879 138.556 72.37 139.304Z" fill="white"/>
<path d="M105.736 144.878C106.268 144 107.139 143.187 108.168 142.965C109.476 142.678 110.863 143.382 111.194 144.726C111.826 147.274 109.079 152.783 105.906 150.557C104.048 149.257 104.768 146.483 105.736 144.878Z" fill="white"/>
<path d="M56.739 106.354C59.9433 108.068 60.6888 116.994 56.2638 115.533C56.2507 115.529 56.2376 115.529 56.2246 115.52C56.3335 112.442 56.5166 109.333 56.739 106.354Z" fill="white"/>
<path d="M74.8018 72.9791C75.0372 73.1531 75.2944 73.3053 75.556 73.44C77.4306 74.401 80.635 75.001 81.6333 72.5096C81.6551 72.4487 81.6682 72.3922 81.6856 72.3313C81.7597 72.2487 81.8295 72.1617 81.8818 72.0748C82.4922 71.0312 82.139 69.9529 81.3543 69.2007C79.1701 70.3921 76.938 71.6878 74.8018 72.9791Z" fill="white"/>
<path d="M7.49627 61.0649C5.45597 62.1997 7.03851 65.9434 7.43524 67.6783C7.91915 69.7958 8.40743 71.9133 8.89135 74.0308C9.03957 74.6787 8.03686 74.957 7.88864 74.3047C7.1911 71.2655 6.4892 68.2305 5.79602 65.1912C5.38622 63.3781 5.05925 61.2301 6.96876 60.1692C7.5573 59.8431 8.08046 60.7388 7.49627 61.0649Z" fill="url(#paint17_linear_240_3937)"/>
<defs>
<linearGradient id="paint0_linear_240_3937" x1="35.592" y1="87.4534" x2="35.592" y2="100.733" gradientUnits="userSpaceOnUse">
<stop stop-color="#F6A649"/>
<stop offset="1" stop-color="#90612B"/>
</linearGradient>
<linearGradient id="paint1_linear_240_3937" x1="141.867" y1="59.1046" x2="141.867" y2="193.142" gradientUnits="userSpaceOnUse">
<stop stop-color="#F6A649"/>
<stop offset="1" stop-color="#90612B"/>
</linearGradient>
<linearGradient id="paint2_linear_240_3937" x1="117.519" y1="58.7302" x2="117.519" y2="179.076" gradientUnits="userSpaceOnUse">
<stop stop-color="#F6A649"/>
<stop offset="1" stop-color="#90612B"/>
</linearGradient>
<linearGradient id="paint3_linear_240_3937" x1="105.326" y1="59.017" x2="105.326" y2="75.6222" gradientUnits="userSpaceOnUse">
<stop stop-color="#F6A649"/>
<stop offset="1" stop-color="#90612B"/>
</linearGradient>
<linearGradient id="paint4_linear_240_3937" x1="117.484" y1="58.5004" x2="117.484" y2="179.307" gradientUnits="userSpaceOnUse">
<stop stop-color="#F6A649"/>
<stop offset="1" stop-color="#90612B"/>
</linearGradient>
<linearGradient id="paint5_linear_240_3937" x1="157.39" y1="178.024" x2="157.39" y2="187.177" gradientUnits="userSpaceOnUse">
<stop stop-color="#F6A649"/>
<stop offset="1" stop-color="#90612B"/>
</linearGradient>
<linearGradient id="paint6_linear_240_3937" x1="156.172" y1="179.916" x2="156.172" y2="188.934" gradientUnits="userSpaceOnUse">
<stop stop-color="#F6A649"/>
<stop offset="1" stop-color="#90612B"/>
</linearGradient>
<linearGradient id="paint7_linear_240_3937" x1="190.582" y1="79.7656" x2="190.582" y2="85.3169" gradientUnits="userSpaceOnUse">
<stop stop-color="#F6A649"/>
<stop offset="1" stop-color="#90612B"/>
</linearGradient>
<linearGradient id="paint8_linear_240_3937" x1="128.626" y1="88.0151" x2="128.626" y2="94.2086" gradientUnits="userSpaceOnUse">
<stop stop-color="#F6A649"/>
<stop offset="1" stop-color="#90612B"/>
</linearGradient>
<linearGradient id="paint9_linear_240_3937" x1="100.464" y1="66.1562" x2="100.464" y2="72.9547" gradientUnits="userSpaceOnUse">
<stop stop-color="#F6A649"/>
<stop offset="1" stop-color="#90612B"/>
</linearGradient>
<linearGradient id="paint10_linear_240_3937" x1="110.059" y1="93.196" x2="110.059" y2="116.231" gradientUnits="userSpaceOnUse">
<stop stop-color="#F6A649"/>
<stop offset="1" stop-color="#90612B"/>
</linearGradient>
<linearGradient id="paint11_linear_240_3937" x1="89.5642" y1="109.3" x2="89.5642" y2="113.769" gradientUnits="userSpaceOnUse">
<stop stop-color="#F6A649"/>
<stop offset="1" stop-color="#90612B"/>
</linearGradient>
<linearGradient id="paint12_linear_240_3937" x1="89.4033" y1="84.7222" x2="89.4033" y2="111.02" gradientUnits="userSpaceOnUse">
<stop stop-color="#F6A649"/>
<stop offset="1" stop-color="#90612B"/>
</linearGradient>
<linearGradient id="paint13_linear_240_3937" x1="99.3585" y1="112.442" x2="99.3585" y2="142.587" gradientUnits="userSpaceOnUse">
<stop stop-color="#F6A649"/>
<stop offset="1" stop-color="#90612B"/>
</linearGradient>
<linearGradient id="paint14_linear_240_3937" x1="135.341" y1="93.5542" x2="135.341" y2="101.549" gradientUnits="userSpaceOnUse">
<stop stop-color="#F6A649"/>
<stop offset="1" stop-color="#90612B"/>
</linearGradient>
<linearGradient id="paint15_linear_240_3937" x1="91.7411" y1="145.62" x2="91.7411" y2="160.189" gradientUnits="userSpaceOnUse">
<stop stop-color="#F6A649"/>
<stop offset="1" stop-color="#90612B"/>
</linearGradient>
<linearGradient id="paint16_linear_240_3937" x1="124.592" y1="7.44543" x2="124.592" y2="15.3859" gradientUnits="userSpaceOnUse">
<stop stop-color="#F6A649"/>
<stop offset="1" stop-color="#90612B"/>
</linearGradient>
<linearGradient id="paint17_linear_240_3937" x1="7.19405" y1="60.0989" x2="7.19405" y2="74.6767" gradientUnits="userSpaceOnUse">
<stop stop-color="#F6A649"/>
<stop offset="1" stop-color="#90612B"/>
</linearGradient>
</defs>
</svg>
