<svg width="196" height="182" viewBox="0 0 196 182" fill="none" xmlns="http://www.w3.org/2000/svg">
<g clip-path="url(#clip0_240_3828)">
<path d="M52.7724 131.478L44.0765 133.278C36.1266 134.923 29.9144 141.135 28.2693 149.085L26.4707 157.78L24.6711 149.085C23.0259 141.135 16.8138 134.923 8.86384 133.278L0.167969 131.478L8.86384 129.679C16.8138 128.034 23.0259 121.822 24.6711 113.873L26.4707 105.178L28.2693 113.873C29.9144 121.822 36.1266 128.034 44.0765 129.679L52.7724 131.478Z" fill="#FEEEDB"/>
<path d="M167.797 156.399L161.558 158.12C155.854 159.696 151.399 165.637 150.219 173.242L148.927 181.562L147.635 173.242C146.456 165.637 141.998 159.696 136.294 158.12L130.055 156.399L136.294 154.678C141.998 153.105 146.456 147.161 147.635 139.556L148.927 131.238L150.219 139.556C151.399 147.161 155.854 153.105 161.558 154.678L167.797 156.399Z" fill="#FEEEDB"/>
<path d="M20.2641 59.3613L17.3203 60.1827C14.628 60.9335 12.5249 63.7703 11.9677 67.3987L11.3586 71.3689L10.7496 67.3987C10.1923 63.7703 8.08927 60.9335 5.39699 60.1827L2.45312 59.3613L5.39699 58.5399C8.08927 57.7891 10.1923 54.9534 10.7496 51.3238L11.3586 47.3536L11.9677 51.3238C12.5249 54.9534 14.628 57.7891 17.3203 58.5399L20.2641 59.3613Z" fill="#FEEEDB"/>
<path d="M195.654 89.994L193.243 90.6676C191.04 91.2817 189.317 93.6036 188.861 96.5761L188.362 99.8263L187.863 96.5761C187.407 93.6036 185.685 91.2817 183.481 90.6676L181.07 89.994L183.481 89.3214C185.685 88.7073 187.407 86.3843 187.863 83.413L188.362 80.1627L188.861 83.413C189.317 86.3843 191.04 88.7073 193.243 89.3214L195.654 89.994Z" fill="#FEEEDB"/>
<path d="M148.624 13.5779L145.304 14.504C142.269 15.3518 139.897 18.5492 139.27 22.6417L138.582 27.1191L137.895 22.6417C137.267 18.5492 134.895 15.3518 131.859 14.504L128.539 13.5779L131.859 12.6517C134.895 11.805 137.267 8.60657 137.895 4.51398L138.582 0.0377197L139.27 4.51398C139.897 8.60657 142.269 11.805 145.304 12.6517L148.624 13.5779Z" fill="#FEEEDB"/>
<path d="M47.4636 20.1689L45.8471 20.6187C44.3697 21.0311 43.2155 22.5879 42.9099 24.5801L42.5755 26.7587L42.2412 24.5801C41.9356 22.5879 40.7814 21.0311 39.304 20.6187L37.6875 20.1689L39.304 19.718C40.7814 19.3056 41.9356 17.7489 42.2412 15.7566L42.5755 13.578L42.9099 15.7566C43.2155 17.7489 44.3697 19.3056 45.8471 19.718L47.4636 20.1689Z" fill="#FEEEDB"/>
<path d="M151.529 89.0065L145.173 78.9131L148.943 67.5853C149.453 66.0394 148.818 64.3416 147.416 63.5326L137.131 57.5634L135.24 45.7679C134.977 44.1589 133.629 42.9585 132.014 42.8912L120.152 42.4236L113.034 32.8609C112.064 31.5551 110.307 31.1208 108.855 31.8243L98.1388 36.9554L87.4195 31.8202C85.9633 31.1249 84.2142 31.5593 83.239 32.8609L76.122 42.4236L64.2602 42.8912C62.6489 42.9544 61.2974 44.1547 61.0383 45.7638L59.1466 57.5592L48.8622 63.5284C47.4604 64.3374 46.8202 66.0353 47.3308 67.5812L51.1006 78.9089L44.7492 89.0065C43.883 90.3838 44.1049 92.183 45.2723 93.3119L53.8372 101.581L52.8745 113.486C52.7449 115.116 53.7663 116.603 55.3183 117.058L66.7205 120.365L71.3606 131.364C71.9967 132.86 73.5907 133.727 75.1724 133.382L86.8041 130.981L95.9844 138.551C96.6074 139.061 97.3731 139.326 98.1388 139.326C98.9044 139.326 99.6659 139.061 100.294 138.551L109.474 130.981L121.106 133.382C122.683 133.719 124.286 132.864 124.918 131.364L129.558 120.365L140.96 117.058C142.512 116.607 143.533 115.116 143.403 113.486L142.441 101.581L151.006 93.3119C152.173 92.183 152.395 90.3838 151.529 89.0065ZM122.729 72.5311L98.9175 108.447C98.0175 109.787 96.6247 110.684 95.2394 110.684C93.8584 110.684 92.3146 109.905 91.3312 108.911L73.8499 91.0284C72.6576 89.8065 72.6576 87.827 73.8499 86.6051L78.164 82.1818C79.3563 80.9773 81.2935 80.9773 82.4775 82.1818L93.8542 93.817L112.616 65.517C113.557 64.089 115.47 63.7268 116.859 64.6913L121.918 68.1917C123.311 69.1611 123.671 71.1115 122.729 72.5311Z" fill="url(#paint0_linear_240_3828)"/>
</g>
<defs>
<linearGradient id="paint0_linear_240_3828" x1="98.1391" y1="31.4897" x2="98.1391" y2="139.326" gradientUnits="userSpaceOnUse">
<stop stop-color="#F6A649"/>
<stop offset="1" stop-color="#90612B"/>
</linearGradient>
<clipPath id="clip0_240_3828">
<rect width="195.488" height="181.524" fill="white" transform="translate(0.167969 0.0378418)"/>
</clipPath>
</defs>
</svg>
