<svg width="160" height="135" viewBox="0 0 160 135" fill="none" xmlns="http://www.w3.org/2000/svg">
<path d="M120.4 0.949646C100.156 0.949646 83.607 16.4622 81.8462 36.2075H14.7719C7.02519 36.2075 0.6875 42.5547 0.6875 50.311V120.827C0.6875 128.583 7.02519 134.93 14.7719 134.93H130.963C138.71 134.93 145.047 128.583 145.047 120.827V69.7026C153.673 62.6518 159.132 51.8978 159.132 39.7329C159.132 18.4027 141.702 0.949646 120.4 0.949646ZM14.7719 43.2583H81.8462C82.9016 55.4232 89.5929 65.8235 99.2744 72.1707L75.1568 92.9733C73.7478 94.2064 71.8111 94.2064 70.578 92.9733L13.3629 43.4361C13.7147 43.2583 14.2423 43.2583 14.7719 43.2583ZM7.72874 120.827V50.311C7.72874 49.6055 7.90463 48.9 8.08243 48.1946L51.2131 85.5688L8.08243 122.943C7.90463 122.238 7.72874 121.532 7.72874 120.827ZM130.963 127.877H14.7719C14.2423 127.877 13.7147 127.877 13.3629 127.702L56.6714 90.1514L66.0011 98.2614C67.9377 100.024 70.4021 100.905 72.8683 100.905C75.3327 100.905 77.797 100.024 79.7337 98.2614L89.0634 90.1514L132.372 127.702C132.02 127.877 131.492 127.877 130.963 127.877ZM138.006 120.827C138.006 121.532 137.83 122.238 137.652 122.943L94.5216 85.5688L105.964 75.6961C110.365 77.4588 115.295 78.518 120.4 78.518C126.738 78.518 132.724 76.9312 138.006 74.2852V120.827ZM120.4 71.4653C102.972 71.4653 88.7116 57.1859 88.7116 39.7329C88.7116 22.2798 102.972 8.00044 120.4 8.00044C137.83 8.00044 152.088 22.2798 152.088 39.7329C152.088 57.1859 137.83 71.4653 120.4 71.4653Z" fill="url(#paint0_linear_240_3412)"/>
<path d="M106.131 25.6413L106.131 25.6416C105.545 26.2286 105.215 27.0242 105.215 27.8539C105.215 28.6835 105.545 29.4791 106.131 30.0661L106.131 30.0662L115.94 39.8789L106.131 49.6915C106.131 49.6915 106.131 49.6916 106.131 49.6916C105.544 50.2783 105.215 51.0742 105.215 51.904C105.215 52.7338 105.544 53.5296 106.131 54.1164C106.718 54.7031 107.514 55.0328 108.344 55.0328C109.173 55.0328 109.969 54.7031 110.556 54.1164L120.369 44.3074L130.181 54.1164C130.181 54.1164 130.181 54.1164 130.181 54.1164C130.768 54.7032 131.564 55.0328 132.394 55.0328C133.224 55.0328 134.019 54.7031 134.606 54.1164C135.193 53.5296 135.523 52.7338 135.523 51.904C135.523 51.0742 135.193 50.2783 134.606 49.6916C134.606 49.6916 134.606 49.6915 134.606 49.6915L124.797 39.8789L134.606 30.0663C134.897 29.7757 135.127 29.4308 135.284 29.0512C135.442 28.6716 135.523 28.2647 135.523 27.8539C135.523 27.443 135.442 27.0361 135.284 26.6565C135.127 26.2769 134.897 25.932 134.606 25.6414C134.316 25.3509 133.971 25.1204 133.591 24.9632C133.211 24.8059 132.805 24.725 132.394 24.725C131.983 24.725 131.576 24.8059 131.196 24.9632C130.817 25.1204 130.472 25.3509 130.181 25.6414C130.181 25.6414 130.181 25.6414 130.181 25.6414L120.369 35.4504L110.556 25.6414L110.556 25.6413C109.969 25.055 109.173 24.7257 108.344 24.7257C107.514 24.7257 106.718 25.055 106.131 25.6413Z" fill="url(#paint1_linear_240_3412)" stroke="url(#paint2_linear_240_3412)" stroke-width="0.711111"/>
<defs>
<linearGradient id="paint0_linear_240_3412" x1="79.9096" y1="0.949646" x2="79.9096" y2="134.93" gradientUnits="userSpaceOnUse">
<stop stop-color="#F6A649"/>
<stop offset="1" stop-color="#90612B"/>
</linearGradient>
<linearGradient id="paint1_linear_240_3412" x1="105.57" y1="39.8789" x2="135.167" y2="39.8789" gradientUnits="userSpaceOnUse">
<stop stop-color="#041A47"/>
<stop offset="1" stop-color="#0A3FAD"/>
</linearGradient>
<linearGradient id="paint2_linear_240_3412" x1="105.57" y1="39.8789" x2="135.167" y2="39.8789" gradientUnits="userSpaceOnUse">
<stop stop-color="#041A47"/>
<stop offset="1" stop-color="#0A3FAD"/>
</linearGradient>
</defs>
</svg>
