<svg width="49" height="49" viewBox="0 0 49 49" fill="none" xmlns="http://www.w3.org/2000/svg">
<path d="M33.5 16.5892C33.5 19.5892 32.5 23.5892 27.7 25.1892C29.1 21.7892 29.3 18.3892 28.3 15.1892C26.9 10.9892 22.3 7.78919 19.1 5.98919C18.3 5.38919 16.9 6.18919 17.1 7.38919C17.1 9.58919 16.5 12.7892 13.1 16.1892C8.7 20.5892 6.5 25.1892 6.5 29.5892C6.5 35.3892 10.5 42.5892 18.5 42.5892C10.5 34.5892 16.5 27.5892 16.5 27.5892C18.1 39.3892 26.5 42.5892 30.5 42.5892C33.9 42.5892 40.5 40.1892 40.5 29.7892C40.5 23.5892 37.9 18.7892 35.7 15.9892C35.1 14.9892 33.7 15.5892 33.5 16.5892Z" fill="url(#paint0_linear_1890_28633)"/>
<defs>
<linearGradient id="paint0_linear_1890_28633" x1="23.5" y1="5.78516" x2="23.5" y2="42.5892" gradientUnits="userSpaceOnUse">
<stop stop-color="#F6A649"/>
<stop offset="1" stop-color="#90612B"/>
</linearGradient>
</defs>
</svg>
