<svg width="25" height="24" viewBox="0 0 25 24" fill="none" xmlns="http://www.w3.org/2000/svg">
<path d="M17.2236 7.99968C17.2236 9.49968 16.7236 11.4997 14.3236 12.2997C15.0236 10.5997 15.1236 8.89968 14.6236 7.29968C13.9236 5.19968 11.6236 3.59968 10.0236 2.69968C9.62363 2.39968 8.92363 2.79968 9.02363 3.39968C9.02363 4.49968 8.72363 6.09968 7.02363 7.79968C4.82363 9.99968 3.72363 12.2997 3.72363 14.4997C3.72363 17.3997 5.72363 20.9997 9.72363 20.9997C5.72363 16.9997 8.72363 13.4997 8.72363 13.4997C9.52363 19.3997 13.7236 20.9997 15.7236 20.9997C17.4236 20.9997 20.7236 19.7997 20.7236 14.5997C20.7236 11.4997 19.4236 9.09968 18.3236 7.69968C18.0236 7.19968 17.3236 7.49968 17.2236 7.99968Z" fill="#041A47"/>
</svg>
