<svg width="49" height="49" viewBox="0 0 49 49" fill="none" xmlns="http://www.w3.org/2000/svg">
<path d="M27.5201 6.86734C26.2161 4.49734 22.7841 4.49734 21.4781 6.86734C19.7607 9.98812 18.3449 13.2656 17.2501 16.6553C17.1985 16.788 17.1076 16.9017 16.9897 16.9814C16.8718 17.0611 16.7324 17.1029 16.5901 17.1013C13.656 17.1776 10.7315 17.4691 7.8401 17.9733C5.1661 18.4393 3.9881 21.6473 6.0201 23.6333C8.20378 25.7709 10.5378 27.7493 13.0041 29.5534C13.1022 29.6195 13.1763 29.7157 13.2152 29.8274C13.2542 29.9392 13.2559 30.0605 13.2201 30.1733C12.123 33.4695 11.3395 36.8619 10.8801 40.3054C10.5001 43.1534 13.5141 44.9014 15.8681 43.6934C18.7259 42.2287 21.4584 40.5317 24.0381 38.6194C24.1732 38.5238 24.3346 38.4725 24.5001 38.4725C24.6656 38.4725 24.827 38.5238 24.9621 38.6194C27.5403 40.5339 30.273 42.2311 33.1321 43.6934C35.4861 44.9014 38.5021 43.1534 38.1221 40.3054C37.6619 36.8625 36.8777 33.4708 35.7801 30.1754C35.7447 30.0621 35.747 29.9405 35.7867 29.8287C35.8264 29.7169 35.9013 29.621 36.0001 29.5553C38.4651 27.7511 40.7977 25.7727 42.9801 23.6353C45.0121 21.6473 43.8341 18.4393 41.1601 17.9733C38.268 17.469 35.3428 17.1775 32.4081 17.1013C32.2661 17.1025 32.1272 17.0605 32.0096 16.9808C31.8921 16.9012 31.8016 16.7876 31.7501 16.6553C30.6587 13.2643 29.2408 9.98649 27.5201 6.86734Z" fill="url(#paint0_linear_1890_27776)"/>
<defs>
<linearGradient id="paint0_linear_1890_27776" x1="24.5001" y1="5.08984" x2="24.5001" y2="44.0812" gradientUnits="userSpaceOnUse">
<stop stop-color="#F6A649"/>
<stop offset="1" stop-color="#90612B"/>
</linearGradient>
</defs>
</svg>
