<svg width="25" height="25" viewBox="0 0 25 25" fill="none" xmlns="http://www.w3.org/2000/svg">
<path d="M14.2334 3.80867C13.5814 2.62367 11.8654 2.62367 11.2124 3.80867C10.3537 5.36906 9.64585 7.00782 9.09844 8.70267C9.07262 8.76898 9.02721 8.82585 8.96825 8.86569C8.90929 8.90553 8.83959 8.92645 8.76844 8.92567C7.3014 8.9638 5.83914 9.10953 4.39344 9.36167C3.05644 9.59467 2.46744 11.1987 3.48344 12.1917C4.57528 13.2604 5.74226 14.2496 6.97544 15.1517C7.0245 15.1848 7.06153 15.2328 7.081 15.2887C7.10047 15.3446 7.10132 15.4053 7.08344 15.4617C6.53489 17.1098 6.14316 18.806 5.91344 20.5277C5.72344 21.9517 7.23044 22.8257 8.40744 22.2217C9.83632 21.4894 11.2026 20.6408 12.4924 19.6847C12.56 19.6369 12.6407 19.6112 12.7234 19.6112C12.8062 19.6112 12.8869 19.6369 12.9544 19.6847C14.2435 20.642 15.6099 21.4906 17.0394 22.2217C18.2164 22.8257 19.7244 21.9517 19.5344 20.5277C19.3043 18.8063 18.9123 17.1104 18.3634 15.4627C18.3457 15.4061 18.3469 15.3452 18.3667 15.2893C18.3866 15.2334 18.424 15.1855 18.4734 15.1527C19.7059 14.2506 20.8722 13.2614 21.9634 12.1927C22.9794 11.1987 22.3904 9.59467 21.0534 9.36167C19.6074 9.10948 18.1448 8.96375 16.6774 8.92567C16.6065 8.92625 16.537 8.90523 16.4782 8.8654C16.4195 8.82557 16.3742 8.76882 16.3484 8.70267C15.8028 7.00717 15.0938 5.36824 14.2334 3.80867Z" fill="#041A47"/>
</svg>
