<svg width="57" height="57" viewBox="0 0 57 57" fill="none" xmlns="http://www.w3.org/2000/svg">
<path d="M28.4993 27.8315L24.8477 30.6852C24.6439 30.8205 24.4479 30.8228 24.2597 30.6922C24.0715 30.5615 24.0162 30.3904 24.094 30.1788L25.4754 25.5472L21.84 22.9105C21.6456 22.7752 21.595 22.5963 21.6884 22.3738C21.7817 22.1514 21.9341 22.0394 22.1457 22.0378H26.67L28.0513 17.4342C28.1291 17.2226 28.2785 17.1168 28.4993 17.1168C28.7202 17.1168 28.8696 17.2226 28.9474 17.4342L30.331 22.0378H34.839C35.0521 22.0378 35.2077 22.1491 35.3057 22.3715C35.4037 22.594 35.3547 22.7728 35.1587 22.9082L31.5117 25.5472L32.893 30.1788C32.9708 30.3904 32.9156 30.5615 32.7274 30.6922C32.5391 30.8228 32.3431 30.8205 32.1394 30.6852L28.4993 27.8315ZM28.4993 47.1678L19.2523 49.9305C18.6535 50.1436 18.1005 50.0542 17.5933 49.6622C17.0862 49.2702 16.8327 48.76 16.8327 48.1315V35.2888C15.3549 33.836 14.2077 32.1342 13.391 30.1835C12.5743 28.2328 12.166 26.1461 12.166 23.9232C12.166 19.3701 13.7496 15.51 16.9167 12.3428C20.0838 9.17573 23.9447 7.5914 28.4993 7.58984C33.054 7.58829 36.9149 9.17184 40.082 12.3405C43.2491 15.5092 44.8327 19.3701 44.8327 23.9232C44.8327 26.1461 44.4244 28.2328 43.6077 30.1835C42.791 32.1342 41.6438 33.8352 40.166 35.2865V48.1292C40.166 48.7576 39.9125 49.2678 39.4053 49.6598C38.8982 50.0518 38.346 50.1413 37.7487 49.9282L28.4993 47.1678ZM28.4993 37.9232C32.3882 37.9232 35.6938 36.5621 38.416 33.8398C41.1382 31.1176 42.4994 27.8121 42.4994 23.9232C42.4994 20.0343 41.1382 16.7287 38.416 14.0065C35.6938 11.2843 32.3882 9.92318 28.4993 9.92318C24.6105 9.92318 21.3049 11.2843 18.5827 14.0065C15.8605 16.7287 14.4993 20.0343 14.4993 23.9232C14.4993 27.8121 15.8605 31.1176 18.5827 33.8398C21.3049 36.5621 24.6105 37.9232 28.4993 37.9232Z" fill="url(#paint0_linear_1890_26987)"/>
<defs>
<linearGradient id="paint0_linear_1890_26987" x1="28.4993" y1="7.58984" x2="28.4993" y2="50.0431" gradientUnits="userSpaceOnUse">
<stop stop-color="#F6A649"/>
<stop offset="1" stop-color="#90612B"/>
</linearGradient>
</defs>
</svg>
