<svg width="25" height="24" viewBox="0 0 25 24" fill="none" xmlns="http://www.w3.org/2000/svg">
<path d="M12.7236 11.675L11.1586 12.898C11.0713 12.956 10.9873 12.957 10.9066 12.901C10.826 12.845 10.8023 12.7717 10.8356 12.681L11.4276 10.696L9.86963 9.566C9.7863 9.508 9.76463 9.43133 9.80463 9.336C9.84463 9.24067 9.90997 9.19267 10.0006 9.192H11.9396L12.5316 7.219C12.565 7.12833 12.629 7.083 12.7236 7.083C12.8183 7.083 12.8823 7.12833 12.9156 7.219L13.5086 9.192H15.4406C15.532 9.192 15.5986 9.23967 15.6406 9.335C15.6826 9.43033 15.6616 9.507 15.5776 9.565L14.0146 10.696L14.6066 12.681C14.64 12.7717 14.6163 12.845 14.5356 12.901C14.455 12.957 14.371 12.956 14.2836 12.898L12.7236 11.675ZM12.7236 19.962L8.76063 21.146C8.50397 21.2373 8.26697 21.199 8.04963 21.031C7.8323 20.863 7.72363 20.6443 7.72363 20.375V14.871C7.0903 14.2483 6.59863 13.519 6.24863 12.683C5.89863 11.847 5.72363 10.9527 5.72363 10C5.72363 8.04867 6.4023 6.39433 7.75963 5.037C9.11697 3.67967 10.7716 3.00067 12.7236 3C14.6756 2.99933 16.3303 3.678 17.6876 5.036C19.045 6.394 19.7236 8.04867 19.7236 10C19.7236 10.9527 19.5486 11.847 19.1986 12.683C18.8486 13.519 18.357 14.248 17.7236 14.87V20.374C17.7236 20.6433 17.615 20.862 17.3976 21.03C17.1803 21.198 16.9436 21.2363 16.6876 21.145L12.7236 19.962ZM12.7236 16C14.3903 16 15.807 15.4167 16.9736 14.25C18.1403 13.0833 18.7236 11.6667 18.7236 10C18.7236 8.33333 18.1403 6.91667 16.9736 5.75C15.807 4.58333 14.3903 4 12.7236 4C11.057 4 9.6403 4.58333 8.47363 5.75C7.30697 6.91667 6.72363 8.33333 6.72363 10C6.72363 11.6667 7.30697 13.0833 8.47363 14.25C9.6403 15.4167 11.057 16 12.7236 16Z" fill="#041A47"/>
</svg>
