<svg width="55" height="59" viewBox="0 0 55 59" fill="none" xmlns="http://www.w3.org/2000/svg">
<path d="M51.8185 40.564L43.4552 38.4452C43.2364 38.3893 43.0325 38.2622 42.8478 38.0609L36.2744 31.277C35.4657 30.4445 34.3506 29.9664 33.2138 29.9664H16.6729C15.2367 29.9664 13.8968 30.7006 13.0864 31.9319L9.33185 37.6415C9.10868 37.9806 8.7446 38.1837 8.35865 38.1837H4.45534C2.84325 38.1837 1.53223 39.5357 1.53223 41.1964V48.0966C1.53223 49.4479 2.37678 50.6079 3.62829 50.9812L6.76406 51.9419C7.03713 52.0312 7.31543 52.0745 7.61562 52.0745H8.01471C8.65796 54.5623 10.8398 56.3589 13.3997 56.3589C15.9596 56.3589 18.1406 54.5559 18.7777 52.0745H36.8476C37.4891 54.5749 39.6876 56.3771 42.2545 56.3771C44.8214 56.3771 47.0356 54.5685 47.6719 52.0745H51.1201C52.7321 52.0745 54.0432 50.7224 54.0432 49.0618V43.4873C54.0432 42.1028 53.1294 40.9014 51.8185 40.564ZM35.0359 32.5524L40.5628 38.2558H26.8503V31.7703H33.2138C33.8894 31.7703 34.5545 32.0555 35.0359 32.5524ZM15.2542 38.2558C15.1142 38.2558 15.0363 38.1701 15.0022 38.1186C14.968 38.0681 14.919 37.9636 14.9698 37.8274L17.2006 31.7703H25.1V38.2558H15.2542ZM13.3988 54.5551C11.4568 54.5551 9.81757 53.054 9.58391 51.0435C9.56289 50.8965 9.55765 50.7485 9.55765 50.5943C9.55765 48.4105 11.2809 46.6344 13.3997 46.6344C15.5185 46.6344 17.2338 48.4105 17.2338 50.5943C17.2338 50.7495 17.2268 50.8983 17.205 51.0643C16.9731 53.054 15.3365 54.5551 13.3988 54.5551ZM42.2545 54.5731C40.3071 54.5731 38.6636 53.0648 38.4299 51.0435C38.4089 50.8965 38.4037 50.7485 38.4037 50.5943C38.4037 48.4007 40.1313 46.6164 42.2545 46.6164C44.3777 46.6164 46.114 48.4015 46.114 50.5943C46.114 50.7495 46.1071 50.8983 46.0851 51.0643C45.8532 53.064 44.2069 54.5731 42.2545 54.5731ZM52.2929 49.0618C52.2929 49.7285 51.7669 50.2704 51.1201 50.2704H47.8564C47.8538 50.2227 47.8459 50.1767 47.8425 50.1298C47.8355 50.0413 47.8268 49.953 47.8153 49.8655C47.8032 49.7635 47.7882 49.6626 47.7699 49.5615C47.755 49.4749 47.7374 49.3892 47.7191 49.3045C47.6973 49.2061 47.6727 49.1096 47.6465 49.0131C47.6237 48.9292 47.5993 48.8463 47.5721 48.7641C47.5414 48.6704 47.5081 48.5775 47.4732 48.4854C47.4426 48.4051 47.4111 48.3258 47.3769 48.2473C47.3375 48.1571 47.2956 48.0688 47.2526 47.9813C47.2151 47.9054 47.1774 47.8297 47.1371 47.7566C47.0899 47.6709 47.039 47.587 46.9884 47.504C46.9446 47.4327 46.9009 47.3614 46.8535 47.2929C46.7984 47.2118 46.7406 47.1343 46.6821 47.0566C46.6321 46.9899 46.5822 46.924 46.5298 46.86C46.4677 46.7852 46.4019 46.713 46.3364 46.6408C46.2811 46.5804 46.2261 46.5191 46.1682 46.4604C46.0992 46.3909 46.0264 46.3252 45.9538 46.2593C45.8935 46.2052 45.8348 46.1492 45.7727 46.0979C45.6965 46.0346 45.617 45.9761 45.5382 45.9165C45.4742 45.8688 45.4113 45.8191 45.3447 45.774C45.2625 45.718 45.1768 45.6667 45.0918 45.6152C45.0235 45.5738 44.957 45.5305 44.8879 45.4925C44.7994 45.4438 44.7076 45.4015 44.6165 45.3573C44.5457 45.323 44.4765 45.287 44.4039 45.2554C44.3085 45.2147 44.2105 45.1805 44.1125 45.1454C44.0399 45.1192 43.9689 45.0893 43.8955 45.0659C43.7913 45.0334 43.6846 45.0082 43.5787 44.982C43.5077 44.964 43.4385 44.9423 43.3667 44.9279C43.2469 44.9027 43.1243 44.8873 43.0027 44.8702C42.9414 44.862 42.8819 44.8486 42.8198 44.8422C42.6343 44.8233 42.4471 44.8125 42.2563 44.8125C42.0655 44.8125 41.879 44.8224 41.6944 44.8422C41.6305 44.8486 41.5684 44.862 41.5045 44.871C41.3845 44.8873 41.2647 44.9027 41.1483 44.9271C41.0729 44.9423 41.0003 44.9649 40.9268 44.9838C40.8244 45.01 40.7211 45.0334 40.6213 45.0651C40.5435 45.0893 40.4682 45.121 40.3912 45.149C40.2984 45.1832 40.2048 45.2147 40.1147 45.2535C40.0377 45.287 39.9632 45.3257 39.888 45.3617C39.8021 45.4033 39.7156 45.443 39.6325 45.4889C39.5571 45.5305 39.4863 45.5764 39.4127 45.6207C39.333 45.6693 39.2535 45.7162 39.1765 45.7695C39.1047 45.8181 39.0364 45.8714 38.9672 45.9237C38.8938 45.9787 38.8194 46.0338 38.7494 46.0925C38.682 46.1484 38.6189 46.2079 38.5542 46.2665C38.4868 46.3278 38.4186 46.3891 38.3537 46.4542C38.2916 46.5163 38.2331 46.5822 38.1744 46.6471C38.1131 46.7148 38.0518 46.7824 37.9933 46.8527C37.9372 46.9214 37.8838 46.9917 37.8313 47.062C37.7761 47.1351 37.7218 47.2082 37.6702 47.2849C37.6204 47.3578 37.574 47.4337 37.5276 47.5094C37.4794 47.5879 37.4314 47.6673 37.3867 47.7485C37.3439 47.8261 37.3044 47.9054 37.265 47.9849C37.2239 48.0696 37.1828 48.1543 37.1452 48.241C37.1101 48.3221 37.0777 48.4043 37.0462 48.4872C37.0121 48.5775 36.9797 48.6676 36.95 48.7596C36.9228 48.8435 36.8974 48.9292 36.8738 49.0149C36.8476 49.1096 36.824 49.2043 36.803 49.3009C36.7836 49.3874 36.7663 49.4749 36.7514 49.5633C36.7338 49.6626 36.7199 49.7617 36.7066 49.8619C36.6961 49.9504 36.6866 50.0395 36.6796 50.1288C36.6761 50.1759 36.6681 50.2218 36.6655 50.2686H18.9755C18.9729 50.2209 18.965 50.1759 18.9614 50.128C18.9545 50.0395 18.9457 49.9522 18.9344 49.8646C18.9221 49.7635 18.9072 49.6626 18.8898 49.5633C18.8749 49.4767 18.8573 49.391 18.839 49.3053C18.817 49.208 18.7934 49.1122 18.7672 49.0167C18.7436 48.932 18.719 48.8489 18.6928 48.766C18.6631 48.673 18.6298 48.5829 18.5957 48.4918C18.5641 48.4097 18.5326 48.3294 18.4985 48.2491C18.46 48.1615 18.4197 48.075 18.3769 47.9893C18.3384 47.9118 18.2999 47.8343 18.2578 47.7576C18.2124 47.6745 18.1642 47.5942 18.1143 47.514C18.0688 47.4399 18.0232 47.367 17.9752 47.2947C17.9226 47.2172 17.8667 47.1423 17.8098 47.0666C17.7582 46.9979 17.7074 46.9294 17.6531 46.8636C17.5936 46.7915 17.5305 46.722 17.4676 46.6525C17.4097 46.5894 17.3538 46.5263 17.2933 46.4658C17.2268 46.3991 17.1578 46.3368 17.0886 46.2737C17.0265 46.2169 16.9643 46.1592 16.8996 46.1051C16.8269 46.0446 16.7517 45.9896 16.6764 45.9327C16.609 45.8822 16.5425 45.8299 16.4733 45.7831C16.3946 45.7298 16.3132 45.6811 16.2318 45.6315C16.1609 45.5882 16.0918 45.5431 16.0182 45.5035C15.9325 45.4564 15.8441 45.415 15.7557 45.3725C15.6831 45.3375 15.6113 45.2996 15.5369 45.268C15.4441 45.2283 15.3487 45.1959 15.2533 45.1606C15.1789 45.1336 15.1063 45.1038 15.031 45.0795C14.9286 45.0471 14.8236 45.0226 14.7186 44.9964C14.6468 44.9784 14.5777 44.9568 14.505 44.9415C14.3843 44.9163 14.2609 44.8999 14.1375 44.8837C14.078 44.8756 14.0202 44.863 13.9607 44.8566C13.776 44.8378 13.5887 44.827 13.3997 44.827C13.2107 44.827 13.0225 44.8368 12.8378 44.8566C12.7774 44.863 12.7197 44.8756 12.6602 44.8837C12.5368 44.9009 12.4134 44.9163 12.2926 44.9415C12.2199 44.9568 12.1508 44.9784 12.0799 44.9964C11.9749 45.0226 11.869 45.0471 11.7666 45.0795C11.6914 45.1029 11.6196 45.1326 11.5461 45.1598C11.4498 45.1949 11.3535 45.2283 11.2599 45.268C11.1864 45.2996 11.1164 45.3365 11.0437 45.3707C10.9544 45.4142 10.8643 45.4556 10.7776 45.5035C10.7059 45.5431 10.6376 45.5872 10.5676 45.6297C10.4853 45.6801 10.4022 45.729 10.3226 45.7839C10.2543 45.8308 10.1895 45.8814 10.123 45.9309C10.046 45.9887 9.96899 46.0446 9.89548 46.1059C9.83158 46.1592 9.7712 46.216 9.70993 46.271C9.63905 46.335 9.56816 46.3991 9.50076 46.4668C9.44213 46.5263 9.38611 46.5876 9.3301 46.6499C9.26534 46.7202 9.20145 46.7906 9.14018 46.8645C9.0868 46.9286 9.03692 46.9961 8.98703 47.063C8.92927 47.1397 8.87151 47.2162 8.81724 47.2965C8.76999 47.366 8.72622 47.4373 8.68159 47.5094C8.63083 47.5915 8.58182 47.6737 8.53457 47.7584C8.49343 47.8333 8.45493 47.909 8.41729 47.9857C8.3744 48.0724 8.33239 48.1597 8.29389 48.2491C8.25975 48.3276 8.22912 48.4069 8.1985 48.4864C8.16349 48.5783 8.13023 48.6712 8.0996 48.765C8.07334 48.8471 8.04884 48.9292 8.02609 49.0123C7.99983 49.1086 7.97532 49.2052 7.95344 49.3035C7.93507 49.3884 7.91756 49.4731 7.90268 49.5588C7.88518 49.659 7.87029 49.7599 7.85805 49.861C7.84754 49.9486 7.83792 50.0359 7.83091 50.1244C7.82742 50.1713 7.81953 50.2173 7.81691 50.2642H7.6165C7.49659 50.2642 7.39507 50.2488 7.27955 50.2109L4.12276 49.244C3.62129 49.0942 3.28434 48.6306 3.28434 48.0904V41.19C3.28434 40.5235 3.81033 39.9813 4.45708 39.9813H8.3604C9.32835 39.9813 10.235 39.4825 10.7838 38.6473L14.5383 32.9375C14.6993 32.6922 14.905 32.4947 15.1264 32.3207L13.3367 37.1787C13.096 37.831 13.18 38.5616 13.5634 39.1352C13.9467 39.7098 14.5803 40.0534 15.2577 40.0534H42.6361C42.7665 40.1085 42.9012 40.1546 43.0386 40.1896L51.4019 42.3085C51.9287 42.4437 52.2963 42.9264 52.2963 43.4811V49.0555L52.2929 49.0618Z" fill="url(#paint0_linear_3065_7224)" stroke="url(#paint1_linear_3065_7224)" stroke-width="1.5"/>
<path d="M27.657 41.7379H26.4253C25.9412 41.7379 25.5498 42.1421 25.5498 42.6402C25.5498 43.1384 25.9412 43.5426 26.4253 43.5426H27.657C28.1411 43.5426 28.5325 43.1384 28.5325 42.6402C28.5325 42.1421 28.1411 41.7379 27.657 41.7379Z" fill="url(#paint2_linear_3065_7224)" stroke="url(#paint3_linear_3065_7224)" stroke-width="0.655544"/>
<path d="M19.7603 2.29407C18.2612 2.29407 17.042 3.55147 17.042 5.0966V22.5432C17.042 24.0883 18.262 25.3458 19.7603 25.3458H35.8041C37.3042 25.3458 38.5233 24.0883 38.5233 22.5432V5.0966C38.5233 3.55147 37.3034 2.29407 35.8041 2.29407H19.7603ZM36.773 5.0966V22.5432C36.773 23.0933 36.338 23.5417 35.8041 23.5417H19.7603C19.2264 23.5417 18.7924 23.0933 18.7924 22.5432V5.0966C18.7924 4.54637 19.2264 4.09807 19.7603 4.09807H35.8041C36.338 4.09807 36.773 4.54637 36.773 5.0966Z" fill="url(#paint4_linear_3065_7224)" stroke="url(#paint5_linear_3065_7224)" stroke-width="0.655544"/>
<path d="M30.1236 7.02405H24.7549C24.2711 7.02405 23.8799 7.42816 23.8799 7.92606V19.6359C23.8799 20.1338 24.2711 20.5379 24.7549 20.5379C25.2388 20.5379 25.63 20.1338 25.63 19.6359V15.2106H30.1236C31.8711 15.2106 33.293 13.7449 33.293 11.9436V10.2902C33.293 8.48891 31.8711 7.02405 30.1236 7.02405ZM31.5429 11.9445C31.5429 12.7518 30.9058 13.4075 30.1236 13.4075H25.63V8.82806H30.1236C30.9067 8.82806 31.5429 9.48471 31.5429 10.2911V11.9445Z" fill="url(#paint6_linear_3065_7224)" stroke="url(#paint7_linear_3065_7224)" stroke-width="0.655544"/>
<defs>
<linearGradient id="paint0_linear_3065_7224" x1="27.7877" y1="29.9664" x2="27.7877" y2="56.3771" gradientUnits="userSpaceOnUse">
<stop stop-color="#F6A649"/>
<stop offset="1" stop-color="#90612B"/>
</linearGradient>
<linearGradient id="paint1_linear_3065_7224" x1="27.7877" y1="29.9664" x2="27.7877" y2="56.3771" gradientUnits="userSpaceOnUse">
<stop stop-color="#F6A649"/>
<stop offset="1" stop-color="#90612B"/>
</linearGradient>
<linearGradient id="paint2_linear_3065_7224" x1="27.0411" y1="41.7379" x2="27.0411" y2="43.5426" gradientUnits="userSpaceOnUse">
<stop stop-color="#F6A649"/>
<stop offset="1" stop-color="#90612B"/>
</linearGradient>
<linearGradient id="paint3_linear_3065_7224" x1="27.0411" y1="41.7379" x2="27.0411" y2="43.5426" gradientUnits="userSpaceOnUse">
<stop stop-color="#F6A649"/>
<stop offset="1" stop-color="#90612B"/>
</linearGradient>
<linearGradient id="paint4_linear_3065_7224" x1="27.7827" y1="2.29407" x2="27.7827" y2="25.3458" gradientUnits="userSpaceOnUse">
<stop stop-color="#F6A649"/>
<stop offset="1" stop-color="#90612B"/>
</linearGradient>
<linearGradient id="paint5_linear_3065_7224" x1="27.7827" y1="2.29407" x2="27.7827" y2="25.3458" gradientUnits="userSpaceOnUse">
<stop stop-color="#F6A649"/>
<stop offset="1" stop-color="#90612B"/>
</linearGradient>
<linearGradient id="paint6_linear_3065_7224" x1="28.5864" y1="7.02405" x2="28.5864" y2="20.5379" gradientUnits="userSpaceOnUse">
<stop stop-color="#F6A649"/>
<stop offset="1" stop-color="#90612B"/>
</linearGradient>
<linearGradient id="paint7_linear_3065_7224" x1="28.5864" y1="7.02405" x2="28.5864" y2="20.5379" gradientUnits="userSpaceOnUse">
<stop stop-color="#F6A649"/>
<stop offset="1" stop-color="#90612B"/>
</linearGradient>
</defs>
</svg>
