<svg width="67" height="37" viewBox="0 0 67 37" fill="none" xmlns="http://www.w3.org/2000/svg">
<path d="M62.9319 10.4561H59.4233V5.08009C59.4233 3.12719 57.8327 1.53857 55.8773 1.53857H50.5238C48.5684 1.53857 46.9778 3.12719 46.9778 5.08009V14.0441H20.4072V5.08009C20.4072 3.12719 18.8165 1.53857 16.8612 1.53857H11.5077C9.55236 1.53857 7.96173 3.12719 7.96173 5.08009V10.4561H4.45322C2.49786 10.4561 0.907227 12.0447 0.907227 13.9976V23.5102C0.907227 25.463 2.49786 27.0516 4.45322 27.0516H7.96173V32.4277C7.96173 34.3806 9.55236 35.9691 11.5077 35.9691H16.8612C18.8165 35.9691 20.4072 34.3806 20.4072 32.4277V25.3183H46.9788V32.4277C46.9788 34.3806 48.5696 35.9691 50.5249 35.9691H55.8783C57.8337 35.9691 59.4243 34.3806 59.4243 32.4277V27.0516H62.9328C64.8882 27.0516 66.4788 25.463 66.4788 23.5102V13.9976C66.4778 12.0457 64.8872 10.4561 62.9319 10.4561ZM4.45221 24.017C4.17764 24.017 3.94563 23.7853 3.94563 23.5112V13.9986C3.94563 13.7244 4.17764 13.4927 4.45221 13.4927H7.96073V24.017H4.45221ZM17.3678 32.4277C17.3678 32.7018 17.1357 32.9335 16.8612 32.9335H11.5077C11.2332 32.9335 11.0012 32.7018 11.0012 32.4277V5.08009C11.0012 4.80587 11.2332 4.57416 11.5077 4.57416H16.8612C17.1357 4.57416 17.3678 4.80587 17.3678 5.08009V15.5619V23.8005V32.4277ZM20.4072 22.2826V17.0797H46.9788V22.2826H20.4072ZM56.3849 32.4277C56.3849 32.7018 56.1529 32.9335 55.8783 32.9335H50.5249C50.2503 32.9335 50.0182 32.7018 50.0182 32.4277V23.8005V15.5619V5.08009C50.0182 4.80587 50.2503 4.57416 50.5249 4.57416H55.8783C56.1529 4.57416 56.3849 4.80587 56.3849 5.08009V32.4277ZM63.4384 23.5112C63.4384 23.7853 63.2063 24.017 62.9319 24.017H59.4233V13.4917H62.9319C63.2063 13.4917 63.4384 13.7234 63.4384 13.9976V23.5112Z" fill="url(#paint0_linear_3065_7287)"/>
<defs>
<linearGradient id="paint0_linear_3065_7287" x1="33.693" y1="1.53857" x2="33.693" y2="35.9691" gradientUnits="userSpaceOnUse">
<stop stop-color="#F6A649"/>
<stop offset="1" stop-color="#90612B"/>
</linearGradient>
</defs>
</svg>
