<svg width="51" height="61" viewBox="0 0 51 61" fill="none" xmlns="http://www.w3.org/2000/svg">
<path d="M43.6319 34.4276V33.5604C43.6319 32.3677 42.9289 31.3513 41.9254 30.8498C42.649 29.515 42.9972 28.0514 42.4647 26.9536C42.2873 26.5809 41.9802 26.2081 41.5023 25.9439L41.905 17.1959C43.2156 16.9587 44.2122 15.8271 44.2122 14.4583V11.653C44.2122 10.1148 42.9494 8.86122 41.3999 8.86122H30.2601V6.71996C30.2601 4.39574 28.3557 2.51196 26.0213 2.51196H20.2671C17.9258 2.51196 16.0282 4.40251 16.0282 6.71996V8.86122H4.89526C3.34578 8.86122 2.08301 10.1148 2.08301 11.653V14.4583C2.08301 15.8271 3.07959 16.9587 4.39014 17.1959L6.01469 52.547C6.17169 56.0299 9.0522 58.7541 12.5607 58.7541H33.7345C34.2192 58.7541 34.5535 58.7541 34.6833 58.7473C34.7856 58.7473 35.0178 58.7608 35.359 58.7608C37.9666 58.7608 46.7241 58.3406 48.5397 52.8384C50.2939 47.5328 46.1643 40.6346 42.9357 36.3318C43.3658 35.81 43.6319 35.1526 43.6319 34.4276ZM46.5944 52.2015C45.2566 56.2604 37.5775 56.8364 34.7311 56.7145C34.7037 56.7145 34.6696 56.7145 34.6424 56.7145C31.7892 56.8364 24.1099 56.2604 22.7654 52.2015C21.2704 47.6547 25.2499 41.2648 28.2601 37.3008C28.5537 37.3956 28.8608 37.4566 29.1816 37.4566H40.5739C40.7787 37.4566 40.9767 37.4363 41.1678 37.3956C44.1711 41.3664 48.0756 47.6954 46.5876 52.2015H46.5944ZM8.06246 52.4521L6.44473 17.2433H39.8504L39.4683 25.5847C39.1679 25.6051 38.8471 25.6458 38.4921 25.7202C38.4306 25.4356 38.3761 25.0494 38.3283 24.758C38.1235 23.3621 37.8164 21.2413 36.0076 21.2413C34.3146 21.2413 33.5298 22.7726 32.8949 24.006C32.4717 24.8259 32.0348 25.6728 31.4273 26.093C31.3249 26.0253 31.1952 25.9235 31.0998 25.8423C30.5194 25.3882 29.1612 24.3108 27.7073 25.6593C26.5399 26.7434 27.1407 28.8711 28.0486 30.7414C26.9292 31.1886 26.1374 32.2796 26.1374 33.5467V34.4141C26.1374 35.0172 26.3215 35.5795 26.6288 36.0539C23.3796 40.3365 19.0384 47.404 20.8199 52.8249C21.4069 54.5935 22.7106 55.8404 24.2943 56.7145H12.5607C10.1443 56.7145 8.17166 54.8375 8.06246 52.4454V52.4521ZM4.13759 11.653C4.13759 11.2329 4.47888 10.8941 4.90209 10.8941H41.4068C41.83 10.8941 42.1713 11.2329 42.1713 11.653V14.4583C42.1713 14.8784 41.83 15.2172 41.4068 15.2172H4.89526C4.47206 15.2172 4.13077 14.8784 4.13077 14.4583V11.653H4.13759ZM18.0828 6.72673C18.0828 5.52735 19.0656 4.55158 20.2739 4.55158H26.0281C27.2363 4.55158 28.2192 5.52735 28.2192 6.72673V8.86799H18.0828V6.72673ZM41.5909 34.4276C41.5909 34.9766 41.1406 35.4237 40.5876 35.4237H29.1953C28.6424 35.4237 28.1918 34.9766 28.1918 34.4276V33.5604C28.1918 33.0114 28.6424 32.5642 29.1953 32.5642H40.5876C41.1406 32.5642 41.5909 33.0114 41.5909 33.5604V34.4276ZM39.7343 30.5246H30.2534C29.4138 28.9525 28.9086 27.5296 29.1134 27.1501C29.1953 27.0755 29.2362 27.0552 29.2431 27.0485C29.3659 27.0755 29.6594 27.3059 29.83 27.4415C30.3488 27.8479 31.2089 28.5323 32.2259 27.9903C33.4956 27.3194 34.1508 26.0523 34.7241 24.9343C35.1951 24.0195 35.5366 23.396 35.905 23.2944C36.0893 23.6197 36.2258 24.5413 36.301 25.0563C36.4649 26.1879 36.6081 27.1636 37.3249 27.638C37.6593 27.8616 38.0689 27.9226 38.4648 27.8142C39.7684 27.4754 40.492 27.5838 40.6081 27.8345C40.8402 28.3223 40.4442 29.4608 39.7276 30.5314L39.7343 30.5246Z" fill="url(#paint0_linear_3065_7293)" stroke="url(#paint1_linear_3065_7293)" stroke-width="0.819669"/>
<defs>
<linearGradient id="paint0_linear_3065_7293" x1="25.5205" y1="2.51196" x2="25.5205" y2="58.7608" gradientUnits="userSpaceOnUse">
<stop stop-color="#F6A649"/>
<stop offset="1" stop-color="#90612B"/>
</linearGradient>
<linearGradient id="paint1_linear_3065_7293" x1="25.5205" y1="2.51196" x2="25.5205" y2="58.7608" gradientUnits="userSpaceOnUse">
<stop stop-color="#F6A649"/>
<stop offset="1" stop-color="#90612B"/>
</linearGradient>
</defs>
</svg>
