<svg width="47" height="61" viewBox="0 0 47 61" fill="none" xmlns="http://www.w3.org/2000/svg">
<path d="M24.9835 21.1875C25.4927 21.1875 25.9055 20.7747 25.9055 20.2655C25.9055 19.7563 25.4927 19.3435 24.9835 19.3435C24.4743 19.3435 24.0615 19.7563 24.0615 20.2655C24.0615 20.7747 24.4743 21.1875 24.9835 21.1875Z" fill="url(#paint0_linear_3065_7298)" stroke="url(#paint1_linear_3065_7298)" stroke-width="0.4917"/>
<path d="M15.7667 21.1875C16.2759 21.1875 16.6886 20.7747 16.6886 20.2655C16.6886 19.7563 16.2759 19.3435 15.7667 19.3435C15.2575 19.3435 14.8447 19.7563 14.8447 20.2655C14.8447 20.7747 15.2575 21.1875 15.7667 21.1875Z" fill="url(#paint2_linear_3065_7298)" stroke="url(#paint3_linear_3065_7298)" stroke-width="0.4917"/>
<path d="M17.7513 16.6329L15.0823 15.2209C14.8564 15.1015 14.5784 15.1882 14.459 15.4127C14.3396 15.6376 14.4258 15.917 14.6508 16.0359L17.3199 17.4479C17.3885 17.4843 17.4628 17.5014 17.5352 17.5014C17.7002 17.5014 17.8601 17.4124 17.9431 17.2561C18.062 17.0307 17.9763 16.7518 17.7513 16.6329Z" fill="url(#paint4_linear_3065_7298)" stroke="url(#paint5_linear_3065_7298)" stroke-width="0.4917"/>
<path d="M23.2107 17.5014C23.2831 17.5014 23.3568 17.4843 23.4259 17.4479L26.0951 16.0359C26.32 15.917 26.4062 15.6381 26.2867 15.4127C26.1675 15.1882 25.8898 15.1015 25.6635 15.2209L22.9946 16.6329C22.7696 16.7518 22.6834 17.0307 22.8027 17.2561C22.8858 17.4124 23.0457 17.5014 23.2107 17.5014Z" fill="url(#paint6_linear_3065_7298)" stroke="url(#paint7_linear_3065_7298)" stroke-width="0.4917"/>
<path d="M21.6507 24.1902C21.9071 24.1902 22.1351 24.1408 22.3377 24.0094C22.5837 23.8495 22.7469 23.59 22.8207 23.2382C22.9359 22.6915 22.7713 22.1296 22.356 21.6543C21.9735 21.2163 21.4157 20.9019 20.7851 20.7693C20.1543 20.6369 19.5173 20.6996 18.9904 20.9453C18.4193 21.2127 18.0413 21.6607 17.926 22.2065C17.8431 22.5993 17.9564 22.8814 18.0666 23.0487C18.4151 23.5807 19.202 23.7426 20.035 23.9141L20.5218 24.0167C20.9464 24.1091 21.3216 24.1902 21.6507 24.1902ZM18.8378 22.5435C18.8282 22.5298 18.8074 22.4969 18.8282 22.397C18.8821 22.141 19.0785 21.9221 19.3804 21.7805C19.6017 21.6769 19.8658 21.6239 20.1406 21.6239C20.2898 21.6239 20.443 21.6396 20.5942 21.6719C21.0238 21.7621 21.4124 21.977 21.6608 22.2615C21.8807 22.5126 21.9715 22.7919 21.9177 23.0483C21.8974 23.1455 21.8664 23.2152 21.835 23.2355C21.6935 23.3277 21.1737 23.2152 20.715 23.1157L20.2194 23.0109C19.6662 22.8977 18.9766 22.7556 18.8378 22.5435Z" fill="url(#paint8_linear_3065_7298)" stroke="url(#paint9_linear_3065_7298)" stroke-width="0.4917"/>
<path d="M22.7388 6.95019C22.7388 5.64792 21.6789 4.58813 20.3767 4.58813C19.0744 4.58813 18.0146 5.64792 18.0146 6.95019C18.0146 8.25245 19.0744 9.31224 20.3767 9.31224C21.6789 9.31224 22.7388 8.2529 22.7388 6.95019ZM18.9366 6.95019C18.9366 6.15592 19.5823 5.51009 20.3767 5.51009C21.1709 5.51009 21.8168 6.15592 21.8168 6.95019C21.8168 7.74446 21.1709 8.39028 20.3767 8.39028C19.5823 8.39028 18.9366 7.74446 18.9366 6.95019Z" fill="url(#paint10_linear_3065_7298)" stroke="url(#paint11_linear_3065_7298)" stroke-width="0.4917"/>
<path d="M27.57 46.3479H13.1785C12.9237 46.3479 12.7178 46.5538 12.7178 46.8087V50.7308C12.7178 50.9857 12.9237 51.1916 13.1785 51.1916H27.57C27.8249 51.1916 28.0308 50.9857 28.0308 50.7308V46.8087C28.0308 46.5538 27.8249 46.3479 27.57 46.3479ZM27.1092 50.2696H13.6393V47.269H27.1092V50.2696Z" fill="url(#paint12_linear_3065_7298)" stroke="url(#paint13_linear_3065_7298)" stroke-width="0.4917"/>
<path d="M42.1777 43.6679L38.4998 41.0872C38.4938 40.9443 38.5316 40.6706 38.5933 40.449C39.3136 38.0637 38.2606 37.4711 38.1385 37.4111C37.9767 37.3319 37.7892 37.361 37.652 37.4705L37.8442 33.4917C37.8442 33.4894 37.8432 33.4877 37.8432 33.485C37.8432 33.4817 37.8446 33.4784 37.8446 33.4753C37.845 33.4232 37.8349 33.3733 37.8188 33.3255C37.8142 33.3115 37.8078 33.3001 37.8022 33.2868C37.7855 33.249 37.7648 33.2148 37.7391 33.1826C37.7298 33.1716 37.7225 33.1604 37.7124 33.1499C37.6764 33.113 37.6367 33.0803 37.5893 33.0563L37.5837 33.0535L37.0898 32.8075L37.693 22.8365C38.3251 22.6466 38.7905 22.0656 38.7905 21.3725C38.7905 20.5259 38.1018 19.837 37.2553 19.837C36.4088 19.837 35.7201 20.5259 35.7201 21.3725C35.7201 22.0486 36.1623 22.618 36.7709 22.8222L36.1942 32.3637L35.4652 32.001C35.3427 31.9397 35.198 31.937 35.0722 31.9927L31.6755 33.507C31.6703 33.5094 31.6672 33.514 31.662 33.5167C31.6509 33.5221 31.6389 33.525 31.6279 33.5314C31.5915 33.5531 31.5598 33.5798 31.5311 33.6092C31.5261 33.6148 31.5224 33.6208 31.5174 33.6268C31.4861 33.6628 31.4617 33.7029 31.4427 33.7463C31.4386 33.7554 31.434 33.7637 31.4307 33.773C31.416 33.814 31.4054 33.8564 31.403 33.9005L31.1474 38.236C30.718 38.3204 30.412 38.5203 30.2429 38.8403C29.989 39.3218 30.1471 39.8951 30.3209 40.2866C30.1521 40.4347 30.059 40.6043 30.0066 40.7461C29.9969 40.7721 29.9932 40.7992 29.9859 40.8259C28.9527 39.9295 27.8442 39.1439 26.6744 38.4913L26.0592 37.2011C25.4619 35.6103 24.4423 35.1075 23.6968 35.0341V33.9181C26.6618 32.8023 28.9966 30.4443 29.9843 28.7974C30.2535 28.349 30.5055 27.8006 30.7377 27.173C32.097 27.1554 33.3756 26.1679 33.9318 24.6545C34.6381 22.7328 33.894 20.6438 32.2721 19.9983C32.2445 19.9872 32.2114 19.9803 32.1827 19.9701C32.2768 18.9185 32.3312 17.8319 32.3468 16.736C32.6716 16.8033 33.0145 16.7586 33.3098 16.5849L33.0753 16.1881L33.3351 16.5697C33.7023 16.3526 33.9434 15.9863 33.9962 15.5632C34.0498 15.137 33.9051 14.7185 33.5995 14.4148C33.3895 14.2061 33.1484 14.007 32.8924 13.813C33.1457 12.7222 33.8197 8.97799 31.9505 6.11208C30.7931 4.33788 28.8888 3.25677 26.3361 2.90655C26.2329 2.88121 23.753 2.29272 20.3756 2.29272C16.9973 2.29272 14.5175 2.88121 14.4585 2.8978C11.8607 3.25633 9.95639 4.33788 8.79941 6.11208C6.92963 8.97799 7.60418 12.7222 7.8576 13.813C7.60188 14.007 7.36044 14.2056 7.15034 14.4148C6.84485 14.7185 6.69971 15.137 6.75362 15.5632C6.80614 15.9863 7.04758 16.3526 7.44016 16.5849C7.65073 16.7093 7.88616 16.7692 8.12162 16.7692C8.21561 16.7692 8.30914 16.7586 8.40176 16.7393C8.41744 17.8347 8.47226 18.9204 8.56579 19.9711C8.53815 19.9807 8.50636 19.9877 8.47963 19.9983C6.8582 20.6434 6.11361 22.7324 6.81996 24.6545C7.3761 26.1659 8.65287 27.1526 10.0103 27.1724C10.2425 27.8001 10.4946 28.3486 10.7636 28.7974C11.752 30.4443 14.0871 32.8033 17.0531 33.9185V35.0328C16.3076 35.1028 15.2883 35.5983 14.7023 37.1645L14.0719 38.4876C9.40255 41.0895 3.56327 46.9002 1.946 59.8393C1.92941 59.9701 1.97042 60.1019 2.05751 60.2014C2.1455 60.3005 2.27085 60.3572 2.40308 60.3572H8.20917C8.45061 60.3572 8.6515 60.1706 8.66855 59.9291C8.67178 59.884 8.94823 56.1963 9.97205 53.5319L10.2379 59.9157C10.248 60.1623 10.4512 60.3572 10.6982 60.3572H30.0503C30.2973 60.3572 30.5005 60.1623 30.5105 59.9157L30.7443 54.3108C30.7503 54.2757 30.7511 54.2415 30.7484 54.2057L30.9488 49.3941L40.5312 51.3075C40.5335 51.3079 40.5355 51.3071 40.5372 51.3075C40.7106 51.3485 40.8865 51.3793 41.0653 51.3923C41.2145 51.4029 41.3603 51.4079 41.5021 51.4079C42.1357 51.4079 42.7002 51.3042 43.184 51.0983C44.139 50.6928 44.7846 49.7475 44.8671 48.6328C45.1099 45.3679 42.5117 43.8495 42.1777 43.6679ZM37.2553 20.7582C37.5934 20.7582 37.869 21.0338 37.869 21.3719C37.869 21.7103 37.5934 21.9859 37.2553 21.9859C36.917 21.9859 36.6415 21.7103 36.6415 21.3719C36.6415 21.0338 36.9166 20.7582 37.2553 20.7582ZM32.2828 34.6366L33.6301 35.2753L33.3295 39.2517C33.0213 39.0926 32.9158 38.9705 32.9148 38.9705C32.8968 38.9421 32.8757 38.9163 32.8517 38.8923C32.5404 38.5807 32.2799 38.4025 32.0666 38.302L32.2828 34.6366ZM34.552 35.2977L36.887 34.2102L36.6728 38.6434L36.1609 39.2692C35.6495 39.9286 35.1357 39.7974 35.0883 39.783C35.0648 39.7747 35.0408 39.7687 35.0168 39.7646C34.7142 39.7112 34.4533 39.6512 34.2277 39.5885L34.552 35.2977ZM35.2487 32.9227L36.3221 33.4567L34.1147 34.4848L32.9655 33.9402L35.2487 32.9227ZM31.0584 39.2701C31.1083 39.1761 31.3086 39.1163 31.5942 39.1099C31.6008 39.1093 31.6068 39.1093 31.6132 39.1089C31.6602 39.1226 31.8445 39.1941 32.1763 39.52C32.3422 39.7333 32.9609 40.3333 34.8336 40.6674C35.0639 40.7314 36.0495 40.918 36.8826 39.8424L37.8912 38.6088C37.9483 38.9014 37.9493 39.3963 37.7095 40.1908C37.6561 40.379 37.5667 40.7512 37.5779 41.0995C35.4049 42.2467 35.3154 44.8434 35.3675 45.8448C34.7502 46.0066 33.4263 46.2623 32.5698 45.7577C32.1527 45.5125 31.9021 45.112 31.803 44.5333C31.7841 44.4232 31.7243 44.3217 31.6372 44.2517C31.6035 44.2246 30.9548 43.6894 31.0036 43.031C31.7547 43.4738 33.214 44.2283 34.4583 44.2283C34.5063 44.2283 34.5543 44.2273 34.6017 44.225C34.856 44.2126 35.0519 43.9964 35.0395 43.7421C35.0271 43.4872 34.8119 43.2859 34.5567 43.3043C33.2964 43.372 31.5064 42.2692 31.105 42.0108C30.9636 41.7522 30.7871 41.295 30.8718 41.0624C30.8755 41.0517 30.8834 41.0361 30.8948 41.019C31.3432 41.3484 32.3468 41.9661 33.9558 42.3158C33.9889 42.3232 34.0221 42.3259 34.0543 42.3259C34.2664 42.3259 34.457 42.179 34.5046 41.9632C34.5584 41.7144 34.4003 41.4688 34.152 41.4148C32.42 41.0384 31.4864 40.3232 31.2935 40.1628C31.1313 39.8891 30.9645 39.4463 31.0584 39.2701ZM25.2119 37.5605L26.588 40.4504C25.6435 40.0983 24.2166 39.6936 22.6449 39.6936C22.3478 39.6936 22.0455 39.7079 21.74 39.7403L23.5356 35.9457C23.9084 35.9558 24.6848 36.1586 25.2119 37.5605ZM19.5282 40.7554L19.9969 41.4241C20.0834 41.547 20.2241 41.6204 20.3743 41.6204C20.5245 41.6204 20.6659 41.5466 20.752 41.4232L21.2184 40.755C22.3316 40.5375 23.4453 40.6106 24.4119 40.7978C24.2404 42.8771 22.4974 44.5166 20.3752 44.5166C18.2524 44.5166 16.5089 42.8757 16.3384 40.7955C17.3028 40.6103 18.4151 40.5379 19.5282 40.7554ZM33.0673 24.3369C32.6989 25.3383 31.9068 26.0438 31.0576 26.2079C31.5081 24.718 31.8625 22.9083 32.085 20.9388C33.1323 21.4757 33.5778 22.948 33.0673 24.3369ZM31.3146 19.2218L30.0857 17.884C29.9946 17.7844 29.8618 17.7264 29.7273 17.7356C29.5919 17.7416 29.4655 17.8061 29.3827 17.9139L29.0667 18.3213L28.0828 14.5549C29.6079 15.0277 30.7503 15.607 31.4317 16.1817C31.4303 17.2024 31.3889 18.2231 31.3146 19.2218ZM9.57396 6.61209C10.5793 5.07383 12.2653 4.13097 14.6299 3.80194C14.6539 3.79641 17.1056 3.21439 20.3747 3.21439C23.6368 3.21439 26.0965 3.79641 26.1656 3.81069C28.4851 4.13097 30.1711 5.07383 31.1764 6.61209C32.6749 8.90471 32.3122 11.9637 32.0657 13.2522C29.4231 11.6771 25.1693 10.7397 20.3747 10.7397C15.58 10.7397 11.3262 11.6771 8.68376 13.2522C8.43816 11.9637 8.07508 8.90471 9.57396 6.61209ZM7.88249 15.7757C7.71937 15.6794 7.6779 15.5296 7.66778 15.4489C7.65026 15.3079 7.69818 15.1697 7.80001 15.0683C9.88082 12.9987 14.817 11.6614 20.3752 11.6614C25.9334 11.6614 30.8695 12.9983 32.9504 15.0683C33.0522 15.1697 33.1 15.3084 33.0826 15.4489C33.0729 15.5296 33.0315 15.6794 32.8688 15.7752L32.8424 15.7904C32.6675 15.895 32.4413 15.8586 32.2805 15.7019C31.4297 14.8692 29.7927 14.0346 27.5336 13.4379C27.5175 13.4342 27.5028 13.4273 27.4866 13.4254C25.543 12.9167 23.1443 12.5835 20.3747 12.5835C17.6051 12.5835 15.2068 12.9167 13.2633 13.4254C13.2495 13.4273 13.2375 13.4328 13.2246 13.436C10.9608 14.0333 9.32099 14.8688 8.46949 15.7024C8.30914 15.8591 8.08429 15.8946 7.88249 15.7757ZM12.6698 14.5536L11.6861 18.3208L11.37 17.9135C11.2871 17.8061 11.1608 17.7411 11.0254 17.7351C10.8922 17.7273 10.7586 17.784 10.6669 17.8835L9.43433 19.225C9.36015 18.2259 9.31868 17.2047 9.31684 16.1821C9.99831 15.6075 11.1419 15.0273 12.6698 14.5536ZM7.68482 24.3369C7.17521 22.9503 7.61893 21.4803 8.66394 20.9411C8.88696 22.9099 9.24081 24.719 9.69098 26.2079C8.84272 26.0434 8.05251 25.337 7.68482 24.3369ZM11.5538 28.3226C10.6249 26.7743 9.8951 23.8213 9.54446 20.4669L10.9756 18.9093L11.5308 19.6255C11.6382 19.7641 11.816 19.83 11.987 19.7946C12.1593 19.7595 12.2961 19.6296 12.3408 19.4595L13.6973 14.266C15.5279 13.8079 17.7852 13.5042 20.3752 13.5042C22.9665 13.5042 25.2243 13.8079 27.0554 14.2665L28.4114 19.4595C28.4561 19.6291 28.5929 19.7591 28.7652 19.7946C28.9376 19.83 29.1145 19.7641 29.2215 19.6255L29.7767 18.9093L31.2041 20.4632C30.8534 23.819 30.1235 26.7739 29.1942 28.3226C27.964 30.3748 24.4806 33.6292 20.3743 33.6292C16.2679 33.6292 12.7845 30.3748 11.5538 28.3226ZM20.3743 34.5508C21.2022 34.5508 22.0059 34.4291 22.7753 34.2189V35.3988L20.5488 40.1037L20.3733 40.3554L20.1968 40.1028L17.9751 35.4079V34.2199C18.7441 34.4291 19.5472 34.5508 20.3743 34.5508ZM17.2097 35.9454L19.0058 39.7403C17.0867 39.5397 15.2805 40.0319 14.1572 40.4504L15.5501 37.5241C16.0652 36.1513 16.8379 35.9541 17.2097 35.9454ZM29.8384 53.9148L20.3803 57.3886L10.9134 53.9117L10.8567 52.3941L20.2065 55.8278C20.3329 55.8803 20.49 55.8729 20.6092 55.8075L29.9019 52.395L29.8384 53.9148ZM11.1401 59.4355L10.9516 54.9071L20.2065 58.3066C20.2628 58.33 20.3245 58.343 20.388 58.343C20.4678 58.343 20.5434 58.3226 20.6092 58.2863L29.7968 54.9115L29.6085 59.4355H11.1401ZM30.6015 48.3849C30.4687 48.3595 30.3323 48.3913 30.2262 48.4743C30.1208 48.5577 30.0563 48.6826 30.0507 48.8171L29.9435 51.3983L20.3807 54.9098L10.8051 51.3936L10.6978 48.8171C10.6876 48.5628 10.4752 48.3609 10.2181 48.3762C9.96377 48.3863 9.76655 48.6015 9.77715 48.8558L9.89234 51.6218C8.42849 53.9061 7.91705 58.0817 7.78664 59.4355H2.92789C4.44149 48.2982 9.17447 42.755 13.3518 40.001L12.7961 41.1669C12.7099 41.3467 12.7495 41.561 12.8937 41.6982C12.9813 41.7822 13.096 41.8254 13.2117 41.8254C13.2859 41.8254 13.3605 41.8075 13.4296 41.7712C13.4453 41.7623 14.247 41.3407 15.4316 41.0097C15.7053 43.4968 17.817 45.4383 20.3752 45.4383C22.9328 45.4383 25.0441 43.4978 25.3184 41.0117C26.5006 41.3424 27.301 41.7623 27.3166 41.7712C27.3848 41.8075 27.4599 41.8254 27.5336 41.8254C27.6497 41.8254 27.7645 41.7816 27.8519 41.6978C27.9963 41.5604 28.0354 41.3461 27.9497 41.1669L27.4001 40.0139C28.2423 40.5702 29.05 41.1926 29.8061 41.8881L30.2189 42.3983C29.7968 43.4281 30.4157 44.3825 30.9272 44.855C31.0953 45.6218 31.4911 46.1922 32.1044 46.5526C32.6439 46.8696 33.2825 46.9724 33.8853 46.9724C34.6377 46.9724 35.3271 46.8135 35.7071 46.7065L38.5492 49.971L30.6015 48.3849ZM43.9488 48.5647C43.8917 49.3343 43.4604 49.9797 42.8244 50.2503C42.3666 50.4448 41.7967 50.5203 41.1304 50.4729C40.5059 50.4286 39.9135 50.1355 39.5065 49.6679L36.302 45.9872C36.2517 45.3992 36.1613 42.8794 38.0557 41.9006L41.6722 44.4383C41.6893 44.4503 41.7076 44.4619 41.7266 44.4712C41.751 44.4845 44.157 45.753 43.9488 48.5647Z" fill="url(#paint14_linear_3065_7298)" stroke="url(#paint15_linear_3065_7298)" stroke-width="0.87"/>
<path d="M33.9115 29.2622C33.7562 29.2355 33.5973 29.2941 33.4929 29.4134L33.0459 29.9234L32.6447 27.8558C32.5963 27.606 32.3566 27.4409 32.1045 27.4912C31.8548 27.539 31.6915 27.7816 31.7399 28.0314L32.3198 31.0227C32.3529 31.1956 32.4821 31.3338 32.6522 31.3795C32.8205 31.4252 33.0035 31.3704 33.1192 31.2386L33.7051 30.57L34.0489 31.3698C34.1241 31.5447 34.2943 31.6488 34.4726 31.6488C34.5334 31.6488 34.5957 31.6368 34.6546 31.6114C34.8888 31.5104 34.9967 31.2393 34.8962 31.0062L34.2637 29.5352C34.2005 29.39 34.0677 29.2862 33.9115 29.2622Z" fill="url(#paint16_linear_3065_7298)" stroke="url(#paint17_linear_3065_7298)" stroke-width="0.4917"/>
<path d="M28.1992 32.676C28.0776 32.62 27.9374 32.62 27.8157 32.676C27.6941 32.7318 27.6023 32.8377 27.5649 32.9658L27.187 34.2617L25.3605 34.0506C25.1074 34.0206 24.8788 34.2022 24.8497 34.4553C24.8207 34.7083 25.0015 34.937 25.2546 34.966L27.4677 35.2224C27.4856 35.2247 27.5036 35.2257 27.5212 35.2257C27.7235 35.2257 27.9051 35.0923 27.9632 34.8936L28.3007 33.7362L29.6416 34.3488C29.8739 34.4543 30.1469 34.3525 30.2525 34.1215C30.358 33.8897 30.2565 33.6164 30.0252 33.5107L28.1992 32.676Z" fill="url(#paint18_linear_3065_7298)" stroke="url(#paint19_linear_3065_7298)" stroke-width="0.4917"/>
<defs>
<linearGradient id="paint0_linear_3065_7298" x1="24.9835" y1="19.3435" x2="24.9835" y2="21.1875" gradientUnits="userSpaceOnUse">
<stop stop-color="#F6A649"/>
<stop offset="1" stop-color="#90612B"/>
</linearGradient>
<linearGradient id="paint1_linear_3065_7298" x1="24.9835" y1="19.3435" x2="24.9835" y2="21.1875" gradientUnits="userSpaceOnUse">
<stop stop-color="#F6A649"/>
<stop offset="1" stop-color="#90612B"/>
</linearGradient>
<linearGradient id="paint2_linear_3065_7298" x1="15.7667" y1="19.3435" x2="15.7667" y2="21.1875" gradientUnits="userSpaceOnUse">
<stop stop-color="#F6A649"/>
<stop offset="1" stop-color="#90612B"/>
</linearGradient>
<linearGradient id="paint3_linear_3065_7298" x1="15.7667" y1="19.3435" x2="15.7667" y2="21.1875" gradientUnits="userSpaceOnUse">
<stop stop-color="#F6A649"/>
<stop offset="1" stop-color="#90612B"/>
</linearGradient>
<linearGradient id="paint4_linear_3065_7298" x1="16.201" y1="15.1672" x2="16.201" y2="17.5014" gradientUnits="userSpaceOnUse">
<stop stop-color="#F6A649"/>
<stop offset="1" stop-color="#90612B"/>
</linearGradient>
<linearGradient id="paint5_linear_3065_7298" x1="16.201" y1="15.1672" x2="16.201" y2="17.5014" gradientUnits="userSpaceOnUse">
<stop stop-color="#F6A649"/>
<stop offset="1" stop-color="#90612B"/>
</linearGradient>
<linearGradient id="paint6_linear_3065_7298" x1="24.5448" y1="15.1672" x2="24.5448" y2="17.5014" gradientUnits="userSpaceOnUse">
<stop stop-color="#F6A649"/>
<stop offset="1" stop-color="#90612B"/>
</linearGradient>
<linearGradient id="paint7_linear_3065_7298" x1="24.5448" y1="15.1672" x2="24.5448" y2="17.5014" gradientUnits="userSpaceOnUse">
<stop stop-color="#F6A649"/>
<stop offset="1" stop-color="#90612B"/>
</linearGradient>
<linearGradient id="paint8_linear_3065_7298" x1="20.377" y1="20.7014" x2="20.377" y2="24.1902" gradientUnits="userSpaceOnUse">
<stop stop-color="#F6A649"/>
<stop offset="1" stop-color="#90612B"/>
</linearGradient>
<linearGradient id="paint9_linear_3065_7298" x1="20.377" y1="20.7014" x2="20.377" y2="24.1902" gradientUnits="userSpaceOnUse">
<stop stop-color="#F6A649"/>
<stop offset="1" stop-color="#90612B"/>
</linearGradient>
<linearGradient id="paint10_linear_3065_7298" x1="20.3767" y1="4.58813" x2="20.3767" y2="9.31224" gradientUnits="userSpaceOnUse">
<stop stop-color="#F6A649"/>
<stop offset="1" stop-color="#90612B"/>
</linearGradient>
<linearGradient id="paint11_linear_3065_7298" x1="20.3767" y1="4.58813" x2="20.3767" y2="9.31224" gradientUnits="userSpaceOnUse">
<stop stop-color="#F6A649"/>
<stop offset="1" stop-color="#90612B"/>
</linearGradient>
<linearGradient id="paint12_linear_3065_7298" x1="20.3743" y1="46.3479" x2="20.3743" y2="51.1916" gradientUnits="userSpaceOnUse">
<stop stop-color="#F6A649"/>
<stop offset="1" stop-color="#90612B"/>
</linearGradient>
<linearGradient id="paint13_linear_3065_7298" x1="20.3743" y1="46.3479" x2="20.3743" y2="51.1916" gradientUnits="userSpaceOnUse">
<stop stop-color="#F6A649"/>
<stop offset="1" stop-color="#90612B"/>
</linearGradient>
<linearGradient id="paint14_linear_3065_7298" x1="23.4127" y1="2.29272" x2="23.4127" y2="60.3572" gradientUnits="userSpaceOnUse">
<stop stop-color="#F6A649"/>
<stop offset="1" stop-color="#90612B"/>
</linearGradient>
<linearGradient id="paint15_linear_3065_7298" x1="23.4127" y1="2.29272" x2="23.4127" y2="60.3572" gradientUnits="userSpaceOnUse">
<stop stop-color="#F6A649"/>
<stop offset="1" stop-color="#90612B"/>
</linearGradient>
<linearGradient id="paint16_linear_3065_7298" x1="33.3326" y1="27.4822" x2="33.3326" y2="31.6488" gradientUnits="userSpaceOnUse">
<stop stop-color="#F6A649"/>
<stop offset="1" stop-color="#90612B"/>
</linearGradient>
<linearGradient id="paint17_linear_3065_7298" x1="33.3326" y1="27.4822" x2="33.3326" y2="31.6488" gradientUnits="userSpaceOnUse">
<stop stop-color="#F6A649"/>
<stop offset="1" stop-color="#90612B"/>
</linearGradient>
<linearGradient id="paint18_linear_3065_7298" x1="27.5704" y1="32.634" x2="27.5704" y2="35.2257" gradientUnits="userSpaceOnUse">
<stop stop-color="#F6A649"/>
<stop offset="1" stop-color="#90612B"/>
</linearGradient>
<linearGradient id="paint19_linear_3065_7298" x1="27.5704" y1="32.634" x2="27.5704" y2="35.2257" gradientUnits="userSpaceOnUse">
<stop stop-color="#F6A649"/>
<stop offset="1" stop-color="#90612B"/>
</linearGradient>
</defs>
</svg>
