<svg width="48" height="64" viewBox="0 0 48 64" fill="none" xmlns="http://www.w3.org/2000/svg">
<path d="M42.2365 46.2907V45.0259C42.2365 43.9382 41.3516 43.0532 40.2638 43.0532H38.2912C37.5505 43.0532 36.9047 43.464 36.5674 44.0692L28.4278 41.3563V39.7177L28.5073 39.6781C31.8122 38.026 33.9681 34.8423 34.3009 31.2185H34.9237C37.8681 31.2185 40.2638 28.823 40.2638 25.8787C40.2638 24.3302 39.4812 22.9616 38.2912 22.1459V12.8883L39.2005 11.9791C39.8862 11.2935 40.2638 10.3818 40.2638 9.41207C40.2638 7.88167 39.2956 6.5077 37.8542 5.993L27.6582 2.35205C26.319 1.8736 24.9186 1.6311 23.4961 1.6311C22.0739 1.6311 20.6735 1.8736 19.3341 2.35205L9.13828 5.993C7.69687 6.5077 6.72855 7.88167 6.72855 9.41207C6.72855 10.3818 7.10619 11.2935 7.79194 11.9791L8.7012 12.8883V22.1461C7.51121 22.9618 6.72855 24.3304 6.72855 25.8787C6.72855 28.823 9.12423 31.2185 12.0687 31.2185H12.6915C13.0244 34.8423 15.1804 38.026 18.4849 39.6781L18.5645 39.7179V41.3563L6.88045 45.2506C3.24987 46.4606 0.810547 49.8446 0.810547 53.6713V62.7781H46.1819V53.6713C46.1819 50.7036 44.6839 47.9268 42.2365 46.2907ZM40.2638 45.0259V60.8057H38.2912V45.0259H40.2638ZM30.9314 60.8057H28.1754L25.5397 52.0207L26.8378 49.4249L29.9014 51.4672L32.415 44.7644L36.3185 46.0655V56.8608H32.3733C31.2855 56.8608 30.4005 57.7456 30.4005 58.8332C30.4005 59.5514 30.5945 60.225 30.9314 60.8057ZM20.5373 40.5984C21.4896 40.9157 22.4932 41.0808 23.4961 41.0808C24.499 41.0808 25.5027 40.9157 26.4552 40.5984V41.6585L23.4961 44.6173L20.5373 41.6585V40.5984ZM23.4961 47.1973L25.1836 48.3222L23.8731 50.9432H23.1196L21.8089 48.3222L23.4961 47.1973ZM23.2437 52.9157H23.7485L26.1157 60.8057H20.8766L23.2437 52.9157ZM30.5424 44.1401L28.927 48.4469L25.0444 45.8588L27.7081 43.1955L30.5424 44.1401ZM35.7407 21.356C35.2589 21.356 34.7892 21.4337 34.3459 21.583V20.6054C35.0627 20.2737 35.7274 19.8388 36.3185 19.3122V21.3942C36.1292 21.3699 35.9366 21.356 35.7407 21.356ZM11.5528 17.411H35.4396C34.2951 18.655 32.6744 19.3836 30.9212 19.3836H16.0712C14.318 19.3836 12.6973 18.655 11.5528 17.411ZM22.5099 10.5073C22.5099 8.86914 23.1826 7.67407 23.4961 7.55225C23.8097 7.67407 24.4825 8.86914 24.4825 10.5073C24.4825 11.0511 24.04 11.4935 23.4961 11.4935C22.9524 11.4935 22.5099 11.0511 22.5099 10.5073ZM36.3185 13.466V15.4385H10.6739V13.466H36.3185ZM9.80171 7.8506L19.9976 4.20951C21.1236 3.8075 22.3007 3.60358 23.4961 3.60358C24.6918 3.60358 25.8689 3.8075 26.9948 4.20951L37.1906 7.8506C37.849 8.08557 38.2912 8.7132 38.2912 9.41207C38.2912 9.85489 38.1187 10.2713 37.8055 10.5845L36.8963 11.4935H26.2856C26.395 11.1848 26.4552 10.8531 26.4552 10.5073C26.4552 8.13575 25.3239 5.57607 23.4961 5.57607C21.6686 5.57607 20.5373 8.13575 20.5373 10.5073C20.5373 10.8531 20.5973 11.1848 20.7068 11.4935H10.0961L9.18686 10.5843C8.87369 10.2712 8.7012 9.85489 8.7012 9.41194C8.7012 8.7132 9.14346 8.08557 9.80171 7.8506ZM10.6739 19.3122C11.2649 19.8388 11.9297 20.2737 12.6465 20.6054V21.583C12.2031 21.4337 11.7334 21.356 11.2517 21.356C11.0558 21.356 10.8632 21.3699 10.6739 21.3942V19.3122ZM14.6192 30.2322V29.2458H12.0687C10.2119 29.2458 8.7012 27.7353 8.7012 25.8787C8.7012 24.4725 9.84535 23.3285 11.2517 23.3285C11.8878 23.3285 12.4858 23.576 12.9354 24.0259L14.6192 25.7097V21.2272C15.0924 21.3119 15.5778 21.356 16.0712 21.356H30.921C31.4145 21.356 31.8998 21.3119 32.3731 21.2272V25.7097L34.0568 24.0259C34.5066 23.576 35.1044 23.3285 35.7406 23.3285C37.1471 23.3285 38.2912 24.4725 38.2912 25.8787C38.2912 27.7353 36.7805 29.2458 34.9237 29.2458H32.3733V30.2322C32.3733 33.5063 30.5539 36.4497 27.625 37.9139L26.7921 38.3304C25.7742 38.8393 24.6341 39.1083 23.4961 39.1083C22.3581 39.1083 21.2183 38.8393 20.2004 38.3303L19.3672 37.9137C16.4385 36.4497 14.6192 33.5063 14.6192 30.2322ZM19.2844 43.1955L21.948 45.8588L18.0654 48.4469L16.4502 44.1401L19.2844 43.1955ZM2.78322 53.6713C2.78322 50.6949 4.68042 48.063 7.5043 47.1219L14.5774 44.7642L17.0911 51.467L20.1546 49.4247L21.4527 52.0205L18.8169 60.8057H16.0611C16.3979 60.225 16.5919 59.5514 16.5919 58.8332C16.5919 57.7456 15.7069 56.8608 14.6192 56.8608H8.7012C7.61354 56.8608 6.72855 57.7456 6.72855 58.8332C6.72855 59.5514 6.92247 60.225 7.25931 60.8057H2.78322V53.6713ZM10.6739 60.8057C9.58619 60.8057 8.7012 59.9207 8.7012 58.8332H14.6192C14.6192 59.9207 13.7342 60.8057 12.6465 60.8057H10.6739ZM32.3733 58.8332H36.3185V60.8057H34.3459C33.2581 60.8057 32.3733 59.9207 32.3733 58.8332ZM44.2093 60.8057H42.2365V48.842C43.481 50.1161 44.2093 51.8471 44.2093 53.6713V60.8057Z" fill="url(#paint0_linear_3065_7312)"/>
<defs>
<linearGradient id="paint0_linear_3065_7312" x1="23.4962" y1="1.6311" x2="23.4962" y2="62.7781" gradientUnits="userSpaceOnUse">
<stop stop-color="#F6A649"/>
<stop offset="1" stop-color="#90612B"/>
</linearGradient>
</defs>
</svg>
