<svg width="46" height="46" viewBox="0 0 46 46" fill="none" xmlns="http://www.w3.org/2000/svg">
<path d="M8.57715 27.7184H37.0771C38.1277 27.7184 39.168 27.5115 40.1386 27.1094C41.1091 26.7073 41.9911 26.1181 42.734 25.3753C42.734 25.3753 42.734 25.3753 42.7341 25.3753M8.57715 27.7184L42.9108 25.552L42.7341 25.3753M8.57715 27.7184C6.45542 27.7184 4.42059 26.8756 2.92029 25.3753C1.42 23.875 0.577148 21.8401 0.577148 19.7184V9.21838C0.577148 7.09665 1.42 5.06183 2.92029 3.56153C4.42059 2.06124 6.45542 1.21838 8.57715 1.21838H37.0771C38.1276 1.21838 39.168 1.42531 40.1386 1.82735C41.1091 2.22938 41.9911 2.81866 42.734 3.56152C43.4768 4.30439 44.0661 5.1863 44.4682 6.15693C44.8703 7.12752 45.0771 8.16781 45.0771 9.21838V19.7184C45.0771 20.7689 44.8703 21.8092 44.4682 22.7799C44.0661 23.7504 43.4768 24.6323 42.7341 25.3753M8.57715 27.7184L42.7341 25.3753M39.9056 6.38997L39.9056 6.38995C39.1554 5.63981 38.138 5.21838 37.0771 5.21838H8.57715C7.51628 5.21838 6.49887 5.63981 5.74872 6.38996C4.99857 7.14011 4.57715 8.15751 4.57715 9.21838V19.7184C4.57715 20.7792 4.99857 21.7966 5.74871 22.5468L5.74873 22.5468C6.49887 23.2969 7.51626 23.7184 8.57715 23.7184H37.0771C38.138 23.7184 39.1554 23.2969 39.9056 22.5468L39.9056 22.5468C40.6556 21.7966 41.0771 20.7792 41.0771 19.7184V9.21838C41.0771 8.1575 40.6556 7.14011 39.9056 6.38997Z" fill="url(#paint0_linear_3065_7232)" stroke="white" stroke-width="0.5"/>
<path d="M14.5713 36.1935V31.6935H10.0713V36.1935C10.0713 37.188 9.67621 38.1418 8.97294 38.8451C8.26969 39.5483 7.31586 39.9435 6.32129 39.9435H4.07129V44.4435H6.32129C7.40471 44.4435 8.47749 44.23 9.47844 43.8155C10.4794 43.4008 11.3888 42.7931 12.1549 42.0271C12.921 41.261 13.5287 40.3515 13.9433 39.3506C14.3579 38.3496 14.5713 37.2768 14.5713 36.1935Z" fill="url(#paint1_linear_3065_7232)"/>
<path d="M25.0771 31.6949H20.5771V44.4449H25.0771V31.6949Z" fill="url(#paint2_linear_3065_7232)"/>
<path d="M31.0713 31.6949V36.1949C31.0713 37.2783 31.2848 38.3511 31.6993 39.3521C32.114 40.3529 32.7216 41.2624 33.4876 42.0286C34.2538 42.7946 35.1633 43.4023 36.1641 43.8169C37.1651 44.2316 38.238 44.4449 39.3213 44.4449H41.5713V39.9449H39.3213C38.3268 39.9449 37.373 39.5498 36.6696 38.8466C35.9665 38.1433 35.5713 37.1894 35.5713 36.1949V31.6949H31.0713Z" fill="url(#paint3_linear_3065_7232)"/>
<path d="M12.3271 16.7184C13.5698 16.7184 14.5771 15.711 14.5771 14.4684C14.5771 13.2258 13.5698 12.2184 12.3271 12.2184C11.0845 12.2184 10.0771 13.2258 10.0771 14.4684C10.0771 15.711 11.0845 16.7184 12.3271 16.7184Z" fill="url(#paint4_linear_3065_7232)"/>
<path d="M21.3271 16.7184C22.5698 16.7184 23.5771 15.711 23.5771 14.4684C23.5771 13.2258 22.5698 12.2184 21.3271 12.2184C20.0845 12.2184 19.0771 13.2258 19.0771 14.4684C19.0771 15.711 20.0845 16.7184 21.3271 16.7184Z" fill="url(#paint5_linear_3065_7232)"/>
<defs>
<linearGradient id="paint0_linear_3065_7232" x1="22.8271" y1="0.968384" x2="22.8271" y2="27.9684" gradientUnits="userSpaceOnUse">
<stop stop-color="#F6A649"/>
<stop offset="1" stop-color="#90612B"/>
</linearGradient>
<linearGradient id="paint1_linear_3065_7232" x1="9.32129" y1="31.6935" x2="9.32129" y2="44.4435" gradientUnits="userSpaceOnUse">
<stop stop-color="#F6A649"/>
<stop offset="1" stop-color="#90612B"/>
</linearGradient>
<linearGradient id="paint2_linear_3065_7232" x1="22.8271" y1="31.6949" x2="22.8271" y2="44.4449" gradientUnits="userSpaceOnUse">
<stop stop-color="#F6A649"/>
<stop offset="1" stop-color="#90612B"/>
</linearGradient>
<linearGradient id="paint3_linear_3065_7232" x1="36.3213" y1="31.6949" x2="36.3213" y2="44.4449" gradientUnits="userSpaceOnUse">
<stop stop-color="#F6A649"/>
<stop offset="1" stop-color="#90612B"/>
</linearGradient>
<linearGradient id="paint4_linear_3065_7232" x1="12.3271" y1="12.2184" x2="12.3271" y2="16.7184" gradientUnits="userSpaceOnUse">
<stop stop-color="#F6A649"/>
<stop offset="1" stop-color="#90612B"/>
</linearGradient>
<linearGradient id="paint5_linear_3065_7232" x1="21.3271" y1="12.2184" x2="21.3271" y2="16.7184" gradientUnits="userSpaceOnUse">
<stop stop-color="#F6A649"/>
<stop offset="1" stop-color="#90612B"/>
</linearGradient>
</defs>
</svg>
