<svg width="48" height="49" viewBox="0 0 48 49" fill="none" xmlns="http://www.w3.org/2000/svg">
<path d="M39.2244 15.495C40.4951 15.495 41.5251 14.4649 41.5251 13.1943C41.5251 11.9237 40.4951 10.8937 39.2244 10.8937C37.9538 10.8937 36.9238 11.9237 36.9238 13.1943C36.9238 14.4649 37.9538 15.495 39.2244 15.495Z" fill="url(#paint0_linear_3065_7242)"/>
<path d="M44.4351 26.1483L44.2351 26.2432V26.4645V43.8591V44.2091H44.5851H47.3017V48.1089H0.471094V44.2091H3.18758H3.53758V43.8591V26.4645V26.2432L3.33761 26.1483C2.48149 25.7422 1.75793 25.102 1.25065 24.3017L1.25063 24.3017C0.743406 23.5016 0.473131 22.5742 0.471094 21.6267V19.6773H4.37082V21.6271C4.37082 21.9233 4.48843 22.2074 4.6979 22.4168C4.90727 22.6261 5.19126 22.7438 5.48744 22.7438H10.0872H10.4372V22.3938V12.0444C10.4372 9.18903 11.5714 6.45066 13.5905 4.43164C15.6095 2.41262 18.3478 1.27834 21.2032 1.27834C24.0586 1.27834 26.797 2.41262 28.8159 4.43164C30.8349 6.45066 31.9693 9.18904 31.9693 12.0444V22.3938V22.7438H32.3193H42.2853C42.5816 22.7438 42.8654 22.6261 43.0748 22.4169L43.0749 22.4167C43.2845 22.2072 43.4018 21.9231 43.4018 21.6271V19.6773H47.3017V21.6263C47.2997 22.574 47.0294 23.5015 46.5221 24.3017L46.5221 24.3017C46.0149 25.102 45.2913 25.7421 44.4351 26.1483ZM15.4535 44.2091H15.8035V43.8591V26.9934V26.6434H15.4535H7.78731H7.43731V26.9934V43.8591V44.2091H7.78731H15.4535ZM27.7195 44.2091H28.0695V43.8591V26.9934V26.6434H27.7195H20.0533H19.7033V26.9934V43.8591V44.2091H20.0533H27.7195ZM27.7195 22.7438H28.0695V22.3938V12.0444C28.0695 10.2233 27.346 8.47685 26.0584 7.18917C24.7707 5.90149 23.0243 5.17807 21.2032 5.17807C19.3822 5.17807 17.6357 5.90149 16.348 7.18917C15.0603 8.47685 14.3369 10.2233 14.3369 12.0444V22.3938V22.7438H14.6869H27.7195ZM39.9855 44.2091H40.3355V43.8591V27.7602V26.9934V26.6434H39.9855H32.3193H31.9693V26.9934V43.8591V44.2091H32.3193H39.9855Z" fill="url(#paint1_linear_3065_7242)" stroke="white" stroke-width="0.7"/>
<defs>
<linearGradient id="paint0_linear_3065_7242" x1="39.2244" y1="10.8937" x2="39.2244" y2="15.495" gradientUnits="userSpaceOnUse">
<stop stop-color="#F6A649"/>
<stop offset="1" stop-color="#90612B"/>
</linearGradient>
<linearGradient id="paint1_linear_3065_7242" x1="23.8864" y1="0.928345" x2="23.8864" y2="48.4589" gradientUnits="userSpaceOnUse">
<stop stop-color="#F6A649"/>
<stop offset="1" stop-color="#90612B"/>
</linearGradient>
</defs>
</svg>
