<svg width="51" height="43" viewBox="0 0 51 43" fill="none" xmlns="http://www.w3.org/2000/svg">
<path d="M46.9847 29.2587C42.9422 27.9036 36.3975 29.7427 27.5427 34.7758C12.1432 43.487 4.82841 36.6149 3.48094 35.163H3.38469C3.11482 34.8969 2.752 34.7479 2.37411 34.7479C1.99621 34.7479 1.63337 34.8969 1.36349 35.163C1.08574 35.4214 0.920027 35.7793 0.902026 36.1595C0.884025 36.5396 1.01517 36.9118 1.26724 37.1956C2.22971 38.357 6.27211 42.1319 13.4907 42.1319C17.533 42.1319 22.6341 40.9705 28.8901 37.3892C41.7873 30.033 46.5035 31.6785 47.1772 32.84C47.3303 33.1993 47.6192 33.4828 47.9802 33.6281C48.3413 33.7733 48.7448 33.7683 49.1022 33.6143C49.4594 33.4604 49.7414 33.1698 49.8857 32.8068C50.0302 32.4437 50.0252 32.0379 49.8721 31.6785C49.5863 31.0942 49.1815 30.5769 48.6841 30.1599C48.1868 29.7432 47.6077 29.4361 46.9847 29.2587ZM46.9847 21.5154C42.9422 20.1603 36.3975 21.9994 27.5427 27.0325C12.1432 35.7438 4.82841 28.8716 3.48094 27.4198H3.38469C3.11482 27.1537 2.752 27.0046 2.37411 27.0046C1.99621 27.0046 1.63337 27.1537 1.36349 27.4198C1.08574 27.6782 0.920027 28.0361 0.902026 28.4163C0.884025 28.7963 1.01517 29.1685 1.26724 29.4523C2.22971 30.6138 6.27211 34.3887 13.4907 34.3887C17.533 34.3887 22.6341 33.2272 28.8901 29.6459C41.7873 22.2898 46.5035 23.9352 47.1772 25.0967C47.2531 25.2747 47.3629 25.4359 47.5008 25.571C47.6385 25.7063 47.8015 25.8128 47.9802 25.8848C48.1589 25.9566 48.3499 25.9925 48.5426 25.9901C48.7351 25.9878 48.9251 25.9473 49.1022 25.871C49.2791 25.7948 49.4394 25.6841 49.5739 25.5456C49.7083 25.4071 49.8142 25.2433 49.8857 25.0636C49.9574 24.8837 49.9929 24.6916 49.9905 24.4979C49.9882 24.3045 49.948 24.1131 49.8721 23.9352C49.5863 23.3509 49.1815 22.8336 48.6841 22.4167C48.1868 21.9997 47.6077 21.6928 46.9847 21.5154ZM13.5869 26.5485C17.6292 26.5485 22.7303 25.3871 28.9865 21.8058C31.2001 20.5476 33.1251 19.5796 34.8576 18.8052C40.3437 16.3855 43.6161 15.9983 45.4448 16.2887C45.8004 16.3098 46.1477 16.407 46.4632 16.574C46.7784 16.7409 47.0547 16.9736 47.2734 17.2566C47.3493 17.4346 47.4592 17.5957 47.5971 17.731C47.7348 17.8663 47.8978 17.9728 48.0765 18.0447C48.2552 18.1166 48.4464 18.1524 48.6388 18.1501C48.8313 18.1476 49.0215 18.1073 49.1984 18.0309C49.3753 17.9546 49.5357 17.8441 49.6701 17.7056C49.8046 17.5671 49.9105 17.4032 49.9821 17.2234C50.0536 17.0436 50.0892 16.8515 50.0867 16.6579C50.0844 16.4643 50.0443 16.2731 49.9683 16.0951C49.6721 15.5288 49.2627 15.0302 48.7659 14.6304C48.269 14.2307 47.6953 13.9385 47.0809 13.7721C47.6984 12.2294 47.8884 10.5472 47.6305 8.90457C47.3728 7.26192 46.6768 5.72035 45.6167 4.44398C44.5567 3.16761 43.1722 2.20423 41.6109 1.65642C40.0496 1.10861 38.3697 0.996859 36.7503 1.3331C35.1307 1.66933 33.6322 2.44096 32.4142 3.5658C31.1963 4.69065 30.3044 6.12663 29.8337 7.72082C29.363 9.315 29.331 11.0077 29.7411 12.6188C30.1511 14.2298 30.9881 15.6989 32.1627 16.8695L27.639 19.2892C12.2395 28.0005 4.92467 21.1283 3.5772 19.6763H3.48094C3.21107 19.4104 2.84823 19.2614 2.47033 19.2614C2.09244 19.2614 1.72962 19.4104 1.45975 19.6763C1.18199 19.9349 1.01628 20.2928 0.998279 20.6729C0.980279 21.0531 1.11142 21.4251 1.36349 21.709C2.42221 22.6769 6.36836 26.5485 13.5869 26.5485ZM32.2589 10.3844C32.2553 9.42434 32.4704 8.47619 32.8875 7.61256C33.3046 6.74892 33.9127 5.99276 34.6653 5.40197C35.4178 4.81117 36.2948 4.40142 37.2292 4.20408C38.1634 4.00676 39.1303 4.02711 40.0556 4.26355C40.9808 4.49999 41.8401 4.94627 42.5674 5.5682C43.2947 6.19013 43.8709 6.97123 44.2517 7.85164C44.6326 8.73206 44.8079 9.68844 44.7644 10.6475C44.721 11.6066 44.46 12.543 44.001 13.385C40.8729 13.5488 37.8037 14.3041 34.9538 15.6112C34.1147 15.0271 33.4305 14.2454 32.9608 13.3344C32.4911 12.4234 32.2501 11.4106 32.2589 10.3844ZM5.98337 13.6754C11.1807 9.99728 13.7794 9.9973 15.0306 10.578C16.2818 11.1588 16.7631 13.2882 16.8593 14.1593L7.52332 19.6763C7.32116 19.7736 7.15901 19.9385 7.0648 20.1428C6.97061 20.3472 6.95028 20.5783 7.0073 20.7961C7.06431 21.014 7.19512 21.2051 7.37715 21.3364C7.55919 21.4677 7.78106 21.531 8.00454 21.5154H8.48579L18.7843 15.4176V14.8368C18.7843 14.6433 18.7843 10.4812 15.8968 8.93258C14.8834 8.43033 13.7387 8.26105 12.6244 8.44863C15.1269 7.28712 17.9181 6.6096 20.2279 7.19036C22.5379 7.7711 25.329 10.578 26.5803 15.0304C26.6767 15.2337 26.8409 15.3968 27.0442 15.4915C27.2473 15.5862 27.4772 15.6067 27.6938 15.5494C27.9103 15.492 28.1004 15.3605 28.2309 15.1774C28.3615 14.9944 28.4245 14.7712 28.4089 14.5465C26.9653 9.41654 24.3666 6.31921 20.7093 5.35131C14.2606 3.70585 6.75335 9.51334 4.44343 11.9331C3.86594 12.5139 3.09594 13.2882 3.76967 14.0625C4.44341 14.8368 5.21339 14.1593 5.88713 13.6754H5.98337Z" fill="url(#paint0_linear_3065_7248)" stroke="url(#paint1_linear_3065_7248)" stroke-width="0.45"/>
<defs>
<linearGradient id="paint0_linear_3065_7248" x1="25.4936" y1="1.14319" x2="25.4936" y2="42.1319" gradientUnits="userSpaceOnUse">
<stop stop-color="#F6A649"/>
<stop offset="1" stop-color="#90612B"/>
</linearGradient>
<linearGradient id="paint1_linear_3065_7248" x1="25.4936" y1="1.14319" x2="25.4936" y2="42.1319" gradientUnits="userSpaceOnUse">
<stop stop-color="#F6A649"/>
<stop offset="1" stop-color="#90612B"/>
</linearGradient>
</defs>
</svg>
