<svg width="42" height="42" viewBox="0 0 42 42" fill="none" xmlns="http://www.w3.org/2000/svg">
<path d="M29.8524 38.2044C29.8524 39.6971 28.6423 40.9074 27.1497 40.9074C25.657 40.9074 24.4469 39.6971 24.4469 38.2044C24.4469 32.7093 22.2641 27.4393 18.3783 23.5537C14.4927 19.6681 9.22269 17.4852 3.72757 17.4852C2.23488 17.4852 1.0248 16.2751 1.0248 14.7824C1.0248 13.2897 2.23488 12.0796 3.72757 12.0796C10.6563 12.0796 17.3014 14.8321 22.2006 19.7314C27.1 24.6308 29.8524 31.2757 29.8524 38.2044Z" fill="url(#paint0_linear_3065_7253)" stroke="white" stroke-width="0.45"/>
<path d="M18.1414 38.2048C18.1414 39.6975 16.9313 40.9077 15.4387 40.9077C13.946 40.9077 12.7359 39.6975 12.7359 38.2048C12.7359 35.8156 11.7868 33.5243 10.0974 31.8351C8.40803 30.1456 6.11673 29.1965 3.72757 29.1965C2.23488 29.1965 1.0248 27.9865 1.0248 26.4938C1.0248 25.0011 2.23488 23.791 3.72757 23.791C5.62043 23.791 7.49475 24.1638 9.24351 24.8882C10.9923 25.6125 12.5812 26.6743 13.9197 28.0127C15.2581 29.3512 16.3199 30.9402 17.0442 32.6888C17.7685 34.4377 18.1414 36.3119 18.1414 38.2048Z" fill="url(#paint1_linear_3065_7253)" stroke="white" stroke-width="0.45"/>
<path d="M3.72757 41.133C5.34454 41.133 6.65534 39.8221 6.65534 38.2052C6.65534 36.5883 5.34454 35.2775 3.72757 35.2775C2.11061 35.2775 0.799805 36.5883 0.799805 38.2052C0.799805 39.8221 2.11061 41.133 3.72757 41.133Z" fill="url(#paint2_linear_3065_7253)"/>
<path d="M41.5636 38.2045C41.5634 39.697 40.3534 40.9069 38.8608 40.9069C37.3681 40.9069 36.1581 39.6969 36.1581 38.2042C36.1581 33.9453 35.3192 29.7283 33.6893 25.7936C32.0596 21.8589 29.6708 18.2838 26.6593 15.2724C23.6479 12.2609 20.0728 9.87213 16.1382 8.24234C12.2035 6.61257 7.9864 5.77373 3.72757 5.77373C2.23487 5.77373 1.0248 4.56365 1.0248 3.07096C1.0248 1.57831 2.2348 0.368257 3.72744 0.368188C13.7586 0.379778 23.3757 4.36979 30.4689 11.4629C37.5621 18.5561 41.552 28.1733 41.5636 38.2045Z" fill="url(#paint3_linear_3065_7253)" stroke="white" stroke-width="0.45"/>
<defs>
<linearGradient id="paint0_linear_3065_7253" x1="15.4386" y1="11.8546" x2="15.4386" y2="41.1324" gradientUnits="userSpaceOnUse">
<stop stop-color="#F6A649"/>
<stop offset="1" stop-color="#90612B"/>
</linearGradient>
<linearGradient id="paint1_linear_3065_7253" x1="9.58312" y1="23.566" x2="9.58312" y2="41.1327" gradientUnits="userSpaceOnUse">
<stop stop-color="#F6A649"/>
<stop offset="1" stop-color="#90612B"/>
</linearGradient>
<linearGradient id="paint2_linear_3065_7253" x1="3.72757" y1="35.2775" x2="3.72757" y2="41.133" gradientUnits="userSpaceOnUse">
<stop stop-color="#F6A649"/>
<stop offset="1" stop-color="#90612B"/>
</linearGradient>
<linearGradient id="paint3_linear_3065_7253" x1="21.2942" y1="0.143188" x2="21.2942" y2="41.1319" gradientUnits="userSpaceOnUse">
<stop stop-color="#F6A649"/>
<stop offset="1" stop-color="#90612B"/>
</linearGradient>
</defs>
</svg>
