<svg width="38" height="53" viewBox="0 0 38 53" fill="none" xmlns="http://www.w3.org/2000/svg">
<path d="M2.45582 51.3909H35.6298C35.9724 51.3909 36.2505 51.1128 36.2505 50.7702V40.4987C36.2505 33.0241 30.7809 26.7092 24.306 26.7092H24.072V23.0186C26.8292 21.2933 28.5688 18.2525 28.5688 14.8902C28.5688 12.7279 27.8243 10.6308 26.4803 8.93603L27.9659 4.17687C28.0627 3.86709 27.9044 3.53557 27.604 3.41514C18.1937 -0.341401 10.0724 3.27235 9.73093 3.42756C9.42424 3.56723 9.28579 3.92544 9.4174 4.23523L11.4321 8.9683C10.1034 10.6569 9.36773 12.7416 9.36773 14.8909C9.36773 18.2904 11.1471 21.3604 13.9627 23.077V26.7099H13.7832C7.30651 26.7099 1.83496 33.0267 1.83496 40.5038V50.7706C1.83496 51.1128 2.1131 51.3909 2.45582 51.3909ZM26.6063 4.36249L25.3857 8.27362C22.8067 7.45601 20.5133 7.1754 18.5799 7.1754C15.588 7.1754 13.4579 7.84774 12.4714 8.23947L10.8093 4.33455C12.7253 3.62994 19.2833 1.65575 26.6063 4.36249ZM24.1135 9.19428C19.7335 11.0486 15.6923 9.92994 13.7249 9.12847C15.5626 8.56415 19.2566 7.86885 24.1135 9.19428ZM10.6094 14.8902C10.6094 13.0725 11.2079 11.3032 12.3037 9.85482C13.9515 10.6954 19.5336 13.0346 25.6322 9.8542C26.7286 11.3026 27.3271 13.0725 27.3271 14.8909C27.3271 18.5059 25.0181 21.6943 21.617 22.8162C18.8004 23.563 16.3691 22.8305 16.3548 22.8267C12.9184 21.6943 10.6094 18.5052 10.6094 14.8902ZM15.9742 24.0074C16.0481 24.031 17.234 24.393 18.9531 24.393C19.8427 24.393 20.8751 24.2962 21.9704 24.005C22.2652 23.9081 22.5502 23.7932 22.8303 23.671V26.9806L22.6974 27.0612C20.4412 28.4276 17.635 28.4351 15.3738 27.0799L15.205 26.9786V23.7157C15.4552 23.8224 15.7116 23.9212 15.9742 24.0074ZM3.07666 40.5031C3.07666 33.8163 8.07947 27.9509 13.7832 27.9509H14.4121L14.7356 28.1446C16.0586 28.9368 17.5393 29.3335 19.0201 29.3335C20.5151 29.3335 22.0095 28.9299 23.3406 28.1234L23.6249 27.9515H24.3067C30.0079 27.9515 35.0095 33.8151 35.0095 40.4994V50.1499H3.07666V40.5031Z" fill="url(#paint0_linear_3065_7262)" stroke="url(#paint1_linear_3065_7262)" stroke-width="2.25"/>
<defs>
<linearGradient id="paint0_linear_3065_7262" x1="19.0428" y1="1.71387" x2="19.0428" y2="51.3909" gradientUnits="userSpaceOnUse">
<stop stop-color="#F6A649"/>
<stop offset="1" stop-color="#90612B"/>
</linearGradient>
<linearGradient id="paint1_linear_3065_7262" x1="19.0428" y1="1.71387" x2="19.0428" y2="51.3909" gradientUnits="userSpaceOnUse">
<stop stop-color="#F6A649"/>
<stop offset="1" stop-color="#90612B"/>
</linearGradient>
</defs>
</svg>
