<svg width="63" height="46" viewBox="0 0 63 46" fill="none" xmlns="http://www.w3.org/2000/svg">
<path d="M0.234713 40.2576C0.104441 40.4899 0.0721181 40.7641 0.14362 41.0202L1.32782 45.2234C1.45319 45.6656 1.85478 45.955 2.29261 45.955C2.38272 45.955 2.47283 45.9429 2.56295 45.9178L12.115 43.251C12.6836 44.1585 13.6551 44.6225 14.5871 44.6225C14.7928 44.6225 15.0004 44.6009 15.2071 44.5568C16.4737 44.2864 17.5059 43.1938 17.5265 41.7106L25.6144 39.4177L23.6973 44.6038C23.5826 44.9115 23.6267 45.2556 23.8148 45.5246C24.0018 45.7939 24.3095 45.9547 24.6376 45.9547H37.7608C38.0889 45.9547 38.3963 45.7939 38.5835 45.5246C38.7715 45.2552 38.8156 44.911 38.701 44.6033L35.7264 36.5667L48.5 32.9619C49.1864 34.2713 50.666 34.8312 51.9966 34.4095C53.3608 33.9783 54.1377 32.6814 54.0431 31.3987L61.5613 29.2792C62.0941 29.1289 62.4045 28.5754 62.2547 28.0426L61.0704 23.8301C60.998 23.5735 60.8275 23.3566 60.5945 23.2263C60.3622 23.096 60.0881 23.0652 59.8314 23.1362L52.3608 25.2509L52.073 24.2395L54.9311 23.6754C57.6903 23.1227 59.5516 20.2939 58.5953 17.3115L55.5883 10.3001C54.8791 8.65545 53.0632 7.82383 51.3511 8.36453C49.5601 8.93264 48.2929 10.4821 48.0496 12.3078L45.9502 13.8043C41.9101 14.1242 41.9614 14.0889 41.7581 14.154C40.4024 14.584 39.6491 16.0376 40.0792 17.3942C40.3899 18.3727 41.2362 19.0534 42.2355 19.1704L44.2297 27.552L18.5808 34.7982L16.1602 26.4877C16.9493 25.9046 17.3718 24.8946 17.1543 23.8732C16.8634 22.5132 15.4637 21.5959 14.0925 21.8878C14.018 21.904 13.9446 21.9284 13.875 21.9612L10.2764 23.6562L7.71149 23.3933C6.59616 21.9268 4.72957 21.2088 2.89303 21.5979C1.14074 21.971 -0.0317075 23.5951 0.166148 25.3768L1.03397 33.0534C1.32292 34.41 2.17997 35.5844 3.38473 36.2749C4.58852 36.9666 6.0362 37.11 7.35263 36.6762L10.1128 35.7539L10.438 37.0839L0.838075 39.7827C0.581451 39.8546 0.364984 40.0255 0.234713 40.2576ZM26.9714 34.5122C26.8293 34.9477 26.7327 35.4037 26.7327 35.8862C26.7327 36.2648 26.7945 36.6265 26.8837 36.9777L17.1248 39.7402L16.5125 37.467L26.9714 34.5122ZM47.3236 28.7626L47.9156 31.0427L35.4389 34.5634C35.1846 33.7511 34.7111 33.0442 34.0785 32.5043L47.3236 28.7626ZM28.7388 35.8862C28.7388 34.5304 29.8416 33.4276 31.1971 33.4276C32.5528 33.4276 33.6556 34.5304 33.6556 35.8862C33.6556 37.2413 32.5528 38.3441 31.1971 38.3441C29.8416 38.3441 28.7388 37.2413 28.7388 35.8862ZM26.0773 43.9486L27.9378 38.9153C28.7537 39.7923 29.9078 40.3502 31.1971 40.3502C32.4868 40.3502 33.6411 39.7923 34.4567 38.9148L36.3198 43.9486H26.0773ZM59.4112 25.3401L60.0518 27.6204L53.5569 29.4516L52.9103 27.1807L59.4112 25.3401ZM51.9583 10.2765C52.6753 10.0483 53.4472 10.3995 53.7458 11.0925L56.7176 18.0098C57.2237 19.6083 56.2565 21.3632 54.5402 21.708L51.1287 22.381C50.2925 22.5537 49.7549 23.3987 49.9896 24.2469L52.0083 31.3397C52.1451 31.8294 51.8758 32.3432 51.3912 32.4975C50.8809 32.6594 50.328 32.3665 50.1914 31.8265C50.1019 31.4816 47.8574 22.8363 47.9974 23.3751C47.712 22.2374 48.5036 21.1547 49.5938 21.0091L51.7067 20.7364C52.3668 20.6512 52.7623 19.9558 52.4999 19.3464L51.2173 16.3545L52.4129 15.5116C54.0512 14.6807 54.3334 12.4504 52.9447 11.237C52.4717 10.8242 51.8576 10.6317 51.2412 10.6275C51.4595 10.4808 51.6982 10.3591 51.9583 10.2765ZM42.283 16.0988L46.383 15.7829C46.5643 15.7687 46.7397 15.7055 46.8875 15.5998L51.0523 12.6308C51.2444 12.5681 51.4695 12.6122 51.6252 12.7479C51.9483 13.0297 51.8752 13.554 51.4823 13.7338C51.3229 13.8078 51.5058 13.7042 47.4341 16.5671C47.2989 16.6621 47.1412 16.7203 46.9796 16.7355C44.0296 17.0271 42.931 17.0925 42.7121 17.1612C42.4064 17.2571 42.0852 17.0817 41.9911 16.7875C41.9039 16.5136 42.0342 16.2222 42.283 16.0988ZM44.2582 19.0073L47.1678 18.7328C47.676 18.6848 48.1668 18.504 48.5879 18.2081L49.5415 17.5358L50.1335 18.9168L49.3324 19.0203C47.0175 19.33 45.4826 21.5947 46.054 23.8718L46.8195 26.8204L46.1615 27.0064L44.2582 19.0073ZM15.9907 35.5299L15.1611 32.4499C14.8623 31.3754 14.115 30.4758 13.112 29.982C12.11 29.4883 10.9444 29.4452 9.91104 29.864L9.1676 30.1682L8.99999 28.6749L10.1608 28.7875C10.2558 28.7968 10.3508 28.8018 10.4458 28.8018C10.8651 28.8018 11.2706 28.7146 11.6535 28.5426L14.32 27.3424L16.6505 35.3435L15.9907 35.5299ZM10.3498 25.68C10.5271 25.6981 10.7132 25.6682 10.8788 25.5899L14.5989 23.838C14.8839 23.8077 15.1346 24.0183 15.1924 24.2915C15.259 24.6016 15.0602 24.9071 14.7507 24.9733C14.5521 25.0151 13.3609 25.5874 10.8308 26.7129C10.7093 26.7678 10.579 26.7957 10.4458 26.7957C5.63724 26.3499 5.64866 26.3058 5.37603 26.3323C4.98392 26.3323 4.68369 25.937 4.82164 25.5438C4.89019 25.3455 5.05966 25.2005 5.26241 25.1588L10.3498 25.68ZM10.007 33.6744L6.72085 34.7719C5.93237 35.0324 5.10373 34.9472 4.38186 34.5349C3.67172 34.1274 3.16631 33.4348 3.01155 32.732L2.16039 25.1539C2.0781 24.4149 2.58352 23.7146 3.31127 23.5599C3.57481 23.5033 3.83903 23.4913 4.09829 23.5099C3.56784 23.8155 3.1368 24.2825 2.92731 24.8822C2.32534 26.6064 3.63199 28.3384 5.37505 28.3384C5.64561 28.3384 6.29057 28.4168 6.95851 28.4768L7.32226 31.7119C7.35752 32.0243 7.53775 32.3021 7.80808 32.4627C8.07842 32.6228 8.40851 32.6473 8.69942 32.5278L10.6672 31.7222C11.1746 31.5165 11.728 31.5375 12.2265 31.7819C12.7241 32.0267 13.0807 32.4558 13.2266 32.9803C13.3432 33.4135 15.6021 41.8019 15.501 41.4262C15.6461 41.9476 15.3164 42.4824 14.7879 42.5948C14.3507 42.6882 13.8185 42.4445 13.6811 41.9004C13.5842 41.5042 11.9011 34.6235 11.9258 34.7243C11.8269 34.3277 11.5634 33.9858 11.204 33.787C10.8435 33.5862 10.4076 33.5441 10.007 33.6744ZM10.9148 39.034L11.4799 41.3452L2.98805 43.7163L2.34648 41.4424L10.9148 39.034Z" fill="url(#paint0_linear_3065_7267)"/>
<path d="M4.37722 10.6958C1.93953 11.2153 0.378396 13.6217 0.897469 16.0599C1.40699 18.4522 3.79119 20.0673 6.26155 19.5391C8.70508 19.0183 10.2623 16.6191 9.74131 14.175C9.23259 11.786 6.85307 10.1664 4.37722 10.6958ZM5.84434 17.5774C4.50649 17.8643 3.14221 16.9688 2.85917 15.6422C2.16405 12.3774 7.08111 11.3132 7.77959 14.5927C8.06927 15.952 7.20367 17.2873 5.84434 17.5774Z" fill="url(#paint1_linear_3065_7267)"/>
<path d="M46.9416 0.0629883C43.8862 0.0629883 41.7093 3.04442 42.6303 5.95154C43.3995 8.37716 45.9594 9.63914 48.3069 8.89458C50.6819 8.14094 52.003 5.59454 51.2499 3.21855C50.6516 1.3308 48.9199 0.0629883 46.9416 0.0629883ZM47.7007 6.98283C46.3645 7.40367 44.9622 6.66962 44.542 5.34578C44.0296 3.72882 45.241 2.06877 46.9416 2.06877C48.0414 2.06877 49.0051 2.77441 49.3381 3.82431C49.7563 5.14648 49.0218 6.56315 47.7007 6.98283Z" fill="url(#paint2_linear_3065_7267)"/>
<defs>
<linearGradient id="paint0_linear_3065_7267" x1="31.1994" y1="8.2002" x2="31.1994" y2="45.955" gradientUnits="userSpaceOnUse">
<stop stop-color="#F6A649"/>
<stop offset="1" stop-color="#90612B"/>
</linearGradient>
<linearGradient id="paint1_linear_3065_7267" x1="5.31981" y1="10.5952" x2="5.31981" y2="19.6395" gradientUnits="userSpaceOnUse">
<stop stop-color="#F6A649"/>
<stop offset="1" stop-color="#90612B"/>
</linearGradient>
<linearGradient id="paint2_linear_3065_7267" x1="46.9393" y1="0.0629883" x2="46.9393" y2="9.10752" gradientUnits="userSpaceOnUse">
<stop stop-color="#F6A649"/>
<stop offset="1" stop-color="#90612B"/>
</linearGradient>
</defs>
</svg>
