<svg width="62" height="49" viewBox="0 0 62 49" fill="none" xmlns="http://www.w3.org/2000/svg">
<path d="M43.047 28.0456C41.4514 23.3716 37.3106 20.0791 32.3266 19.5961C26.395 19.0116 20.3817 19.0116 14.4522 19.5961C9.4669 20.0791 5.32604 23.372 3.73016 28.0458C2.03126 28.6521 0.804688 30.2611 0.804688 32.166C0.804688 33.1266 1.12377 34.0089 1.64903 34.7324L2.20989 36.5916C2.85265 38.7202 3.17864 40.9268 3.17864 43.1501V46.7623C3.17864 47.3748 3.6752 47.8715 4.28763 47.8715C21.3883 47.8715 25.5791 47.8715 42.4897 47.8715C43.1021 47.8715 43.5987 47.3748 43.5987 46.7623V43.1501C43.5987 40.9268 43.9246 38.7202 44.5673 36.5916L45.1289 34.7319C45.6537 34.0084 45.9726 33.1265 45.9726 32.166C45.9726 30.2609 44.7459 28.6518 43.047 28.0456ZM41.5831 34.3379C40.3859 34.3379 39.4116 33.3636 39.4116 32.166C39.4116 30.9686 40.3859 29.9941 41.5831 29.9941C42.7804 29.9941 43.7545 30.9686 43.7545 32.166C43.7545 33.3636 42.7804 34.3379 41.5831 34.3379ZM24.4976 38.133C28.7158 37.6474 32.9766 37.6687 37.1936 38.1549V40.8537H24.4976V38.133ZM22.2796 40.8537H9.58408V38.1549C13.802 37.6687 18.0619 37.6479 22.2796 38.133V40.8537ZM9.58408 43.0722H37.1936V45.653H9.58408V43.0722ZM14.6683 21.8037C20.4547 21.234 26.323 21.234 32.1107 21.8037C35.9042 22.1717 39.101 24.5113 40.6061 27.8941C38.656 28.3407 37.1936 30.0819 37.1936 32.166V35.9288C32.6048 35.4202 27.9688 35.4415 23.3886 36.0393C18.8081 35.4415 14.1724 35.4202 9.58408 35.9288V32.166C9.58408 30.0819 8.12168 28.3407 6.17146 27.8941C7.6771 24.5111 10.8737 22.1717 14.6683 21.8037ZM5.19465 29.9941C6.39191 29.9941 7.36608 30.9686 7.36608 32.166C7.36608 33.3636 6.39191 34.3379 5.19465 34.3379C3.99685 34.3379 3.02268 33.3636 3.02268 32.166C3.02268 30.9686 3.99685 29.9941 5.19465 29.9941ZM4.47351 36.4836C4.70946 36.5228 4.94774 36.5564 5.19465 36.5564C5.9883 36.5564 6.72305 36.3284 7.36608 35.9584V45.653H5.39663V43.1501C5.39663 40.8932 5.07701 38.6555 4.47351 36.4836ZM41.3807 45.653H39.4116V35.9584C40.0546 36.3284 40.7895 36.5564 41.5831 36.5564C41.83 36.5564 42.0679 36.5228 42.3038 36.4836C41.7002 38.6555 41.3807 40.8932 41.3807 43.1501V45.653Z" fill="url(#paint0_linear_3065_7274)" stroke="url(#paint1_linear_3065_7274)" stroke-width="0.75"/>
<path d="M23.3892 16.7897C27.5621 16.7897 30.9568 13.3943 30.9568 9.22054C30.9568 5.0468 27.5621 1.65137 23.3892 1.65137C19.217 1.65137 15.8223 5.0468 15.8223 9.22054C15.8223 13.3943 19.217 16.7897 23.3892 16.7897ZM23.3892 3.86986C26.3388 3.86986 28.7388 6.27032 28.7388 9.22054C28.7388 12.1708 26.3388 14.5712 23.3892 14.5712C20.4397 14.5712 18.0403 12.1708 18.0403 9.22054C18.0403 6.27032 20.4397 3.86986 23.3892 3.86986Z" fill="url(#paint2_linear_3065_7274)"/>
<path d="M61.1131 30.6079L59.839 21.6299C59.7609 21.083 59.2932 20.6768 58.7408 20.6768H51.5171C50.9648 20.6768 50.497 21.083 50.419 21.6299L49.1145 30.8234C49.0695 31.1419 49.1642 31.4637 49.375 31.7069C49.5856 31.9495 49.8915 32.0887 50.2126 32.0887H54.0201V45.6531H52.865C52.2526 45.6531 51.756 46.1497 51.756 46.7623C51.756 47.3749 52.2526 47.8716 52.865 47.8716H57.3929C58.0054 47.8716 58.5019 47.3749 58.5019 46.7623C58.5019 46.1497 58.0054 45.6531 57.3929 45.6531H56.2381V32.0887H60.0458C60.0535 32.0887 60.0609 32.0882 60.0681 32.0887C60.6805 32.0887 61.1771 31.592 61.1771 30.9795C61.1771 30.849 61.1543 30.7238 61.1131 30.6079ZM51.4901 29.8702L52.4799 22.8953H57.7781L58.7683 29.8702H51.4901Z" fill="url(#paint3_linear_3065_7274)"/>
<path d="M23.3945 10.3316H25.7241C26.3367 10.3316 26.8334 9.83494 26.8334 9.22232C26.8334 8.6097 26.3367 8.11299 25.7241 8.11299H24.5038V6.45062C24.5038 5.83802 24.0071 5.34131 23.3945 5.34131C22.7819 5.34131 22.2852 5.83802 22.2852 6.45062V9.22232C22.2852 9.83494 22.7819 10.3316 23.3945 10.3316Z" fill="url(#paint4_linear_3065_7274)"/>
<defs>
<linearGradient id="paint0_linear_3065_7274" x1="23.3886" y1="19.1577" x2="23.3886" y2="47.8715" gradientUnits="userSpaceOnUse">
<stop stop-color="#F6A649"/>
<stop offset="1" stop-color="#90612B"/>
</linearGradient>
<linearGradient id="paint1_linear_3065_7274" x1="23.3886" y1="19.1577" x2="23.3886" y2="47.8715" gradientUnits="userSpaceOnUse">
<stop stop-color="#F6A649"/>
<stop offset="1" stop-color="#90612B"/>
</linearGradient>
<linearGradient id="paint2_linear_3065_7274" x1="23.3895" y1="1.65137" x2="23.3895" y2="16.7897" gradientUnits="userSpaceOnUse">
<stop stop-color="#F6A649"/>
<stop offset="1" stop-color="#90612B"/>
</linearGradient>
<linearGradient id="paint3_linear_3065_7274" x1="55.1403" y1="20.6768" x2="55.1403" y2="47.8716" gradientUnits="userSpaceOnUse">
<stop stop-color="#F6A649"/>
<stop offset="1" stop-color="#90612B"/>
</linearGradient>
<linearGradient id="paint4_linear_3065_7274" x1="24.5593" y1="5.34131" x2="24.5593" y2="10.3316" gradientUnits="userSpaceOnUse">
<stop stop-color="#F6A649"/>
<stop offset="1" stop-color="#90612B"/>
</linearGradient>
</defs>
</svg>
