<svg width="51" height="52" viewBox="0 0 51 52" fill="none" xmlns="http://www.w3.org/2000/svg">
<path d="M48.835 20.4014L46.1472 19.4059L48.6361 17.2159C49.4325 16.4195 48.7356 15.6231 48.3374 15.5235L9.31383 2.0843C8.51743 1.88519 8.11923 2.38295 8.01968 2.68159L2.8431 17.9128C2.64399 18.4105 2.94265 19.0078 3.4404 19.2069L12.2008 22.1933C11.5039 24.8811 12.9972 27.7682 15.685 28.6641L16.581 28.9627L15.7846 39.6146L3.73904 41.0082V35.7321C3.73904 35.1349 3.34084 34.7366 2.74354 34.7366C2.14624 34.7366 1.74805 35.1349 1.74805 35.7321V48.574C1.74805 49.1714 2.14624 49.5696 2.74354 49.5696C3.34084 49.5696 3.73904 49.1714 3.73904 48.574V42.9993L16.7801 41.506C17.2779 41.4065 17.5765 41.1079 17.676 40.6101L18.4724 29.6596C21.9566 30.6552 24.2463 28.2658 24.9432 26.6731L33.9026 29.7591C34.3009 29.8588 34.699 29.7591 34.8981 29.56L38.1833 26.6731L45.55 29.2614C46.1472 29.4605 46.645 29.0622 46.8441 28.6641L49.5319 21.6956C49.7311 20.8992 49.1338 20.5011 48.835 20.4014ZM18.8707 27.6686L16.2823 26.7727C14.59 26.1753 13.694 24.483 13.9927 22.7906L23.0518 25.9763C22.7531 26.7727 21.2598 28.465 18.8707 27.6686ZM34.0023 27.6686L24.744 24.483L13.694 20.6006L5.03319 17.6141L9.61248 4.27439L46.0478 16.9172L34.0023 27.6686ZM45.2514 26.9717L39.8756 25.0803L44.455 20.8992L47.2423 21.8947L45.2514 26.9717Z" fill="url(#paint0_linear_3065_7282)" stroke="url(#paint1_linear_3065_7282)" stroke-width="1.3112"/>
<defs>
<linearGradient id="paint0_linear_3065_7282" x1="25.6599" y1="2.03857" x2="25.6599" y2="49.5696" gradientUnits="userSpaceOnUse">
<stop stop-color="#F6A649"/>
<stop offset="1" stop-color="#90612B"/>
</linearGradient>
<linearGradient id="paint1_linear_3065_7282" x1="25.6599" y1="2.03857" x2="25.6599" y2="49.5696" gradientUnits="userSpaceOnUse">
<stop stop-color="#F6A649"/>
<stop offset="1" stop-color="#90612B"/>
</linearGradient>
</defs>
</svg>
